<svg width="430" height="92" viewBox="0 0 430 92" fill="none" xmlns="http://www.w3.org/2000/svg">
<g clip-path="url(#clip0_2291_846)">
<path fill-rule="evenodd" clip-rule="evenodd" d="M46.4284 23.4C46.0221 22.0194 45.7126 20.6075 45.5 19.1643V15.0019C53.5896 15.091 60.939 18.2637 66.4283 23.4H46.4284ZM43.8303 23.4C44.257 21.9955 44.5803 20.5586 44.8 19.0894V15.0019C36.7104 15.091 29.361 18.2637 23.8717 23.4H43.8303ZM23.3898 24.1H43.6082C43.3147 24.9869 42.9793 25.8608 42.602 26.7215C40.9842 30.5313 38.7763 33.8536 35.9783 36.6885L23.3898 24.1ZM22.4 23.4H11.2V24.1H22.1669C16.7501 29.7446 13.3925 37.3805 13.3019 45.8H0V46.5H13.3019C13.3925 54.9195 16.7501 62.5554 22.1669 68.2H11.2V68.9H22.4V80.1H23.1V69.1331C28.7446 74.5499 36.3805 77.9075 44.8 77.9981V91.3H45.5V77.9981C53.9195 77.9075 61.5554 74.5499 67.2 69.1331V80.1H67.9V68.9H79.1V68.2H68.1331C73.5499 62.5554 76.9075 54.9195 76.9981 46.5H90.3V45.8H76.9981C76.9075 37.3805 73.5499 29.7446 68.1331 24.1H79.1V23.4H67.9V12.2H67.2V23.1669C61.5554 17.7501 53.9195 14.3925 45.5 14.3019V1H44.8V14.3019C36.3805 14.3925 28.7446 17.7501 23.1 23.1669V12.2H22.4V23.4ZM45.5 77.2981C53.5896 77.209 60.939 74.0363 66.4283 68.9H46.4284C46.0221 70.2806 45.7126 71.6926 45.5 73.1357V77.2981ZM44.8 73.2106C44.5803 71.7414 44.257 70.3045 43.8303 68.9H23.8717C29.361 74.0363 36.7104 77.209 44.8 77.2981V73.2106ZM14.0019 45.8H18.1643C19.6074 45.5874 21.0193 45.2779 22.4 44.8716V24.8717C17.2637 30.361 14.091 37.7104 14.0019 45.8ZM18.0895 46.5H14.0019C14.091 54.5896 17.2637 61.939 22.4 67.4283V47.4697C20.9955 47.043 19.5586 46.7197 18.0895 46.5ZM76.2981 45.8C76.209 37.7104 73.0363 30.361 67.9 24.8717V44.8716C69.2807 45.2779 70.6926 45.5874 72.1357 45.8H76.2981ZM72.2106 46.5C70.7414 46.7197 69.3045 47.043 67.9 47.4697V67.4283C73.0363 61.939 76.209 54.5896 76.2981 46.5H72.2106ZM67.2 67.9102V47.6918C66.3131 47.9853 65.4392 48.3207 64.5785 48.698C60.7687 50.3158 57.4464 52.5237 54.6115 55.3217L67.2 67.9102ZM67.2 44.6564V24.1473L67.1527 24.1H46.6436C46.9279 24.9869 47.2529 25.8608 47.6184 26.7215C49.317 30.5966 51.5996 33.9674 54.4661 36.8339C57.3326 39.7004 60.7034 41.983 64.5785 43.6816C65.4392 44.0471 66.3131 44.3721 67.2 44.6564ZM23.1 68.1527L23.1 47.6918C23.9869 47.9853 24.8608 48.3207 25.7215 48.698C29.5966 50.3436 32.9674 52.5996 35.8339 55.4661C38.7004 58.3326 40.9564 61.7034 42.602 65.5785C42.9793 66.4392 43.3147 67.3131 43.6082 68.2H23.1473L23.1 68.1527ZM23.1 44.6564L23.1 24.8001L35.4811 37.1812C32.692 39.8853 29.4388 42.0521 25.7215 43.6816C24.8608 44.0471 23.9869 44.3721 23.1 44.6564ZM46.6436 68.2H66.4999L54.1188 55.8189C51.4147 58.608 49.2479 61.8612 47.6184 65.5785C47.2529 66.4392 46.9279 67.3131 46.6436 68.2ZM37.8138 38.8138C34.7225 41.905 31.1016 44.3623 26.9754 46.1889C31.102 47.9637 34.7231 50.3956 37.8138 53.4862C40.9044 56.5768 43.3363 60.198 45.1111 64.3246C46.9377 60.1984 49.395 56.5775 52.4862 53.4862C55.5769 50.3956 59.198 47.9637 63.3246 46.1889C59.1984 44.3623 55.5775 41.905 52.4862 38.8138C49.395 35.7225 46.9377 32.1016 45.1111 27.9754C43.3363 32.102 40.9044 35.7231 37.8138 38.8138Z" fill="url(#paint0_linear_2291_846)"/>
<path d="M127.78 73.78C123.727 73.78 119.887 73.0333 116.26 71.54C112.687 70.0467 109.54 67.94 106.82 65.22C104.1 62.5 101.967 59.3267 100.42 55.7C98.8733 52.0733 98.1 48.1267 98.1 43.86C98.1 39.5933 98.8733 35.6467 100.42 32.02C101.967 28.3933 104.1 25.22 106.82 22.5C109.54 19.78 112.687 17.6733 116.26 16.18C119.887 14.6867 123.727 13.94 127.78 13.94C131.993 13.94 135.94 14.6867 139.62 16.18C143.353 17.6733 146.42 19.78 148.82 22.5L144.02 27.3C142.793 25.8067 141.327 24.5533 139.62 23.54C137.913 22.5267 136.073 21.7533 134.1 21.22C132.127 20.6867 130.047 20.42 127.86 20.42C124.82 20.42 121.913 20.98 119.14 22.1C116.367 23.1667 113.913 24.74 111.78 26.82C109.7 28.8467 108.047 31.3 106.82 34.18C105.593 37.06 104.98 40.2867 104.98 43.86C104.98 47.4333 105.593 50.66 106.82 53.54C108.1 56.42 109.807 58.9 111.94 60.98C114.073 63.0067 116.5 64.58 119.22 65.7C121.993 66.7667 124.873 67.3 127.86 67.3C130.42 67.3 132.9 66.9533 135.3 66.26C137.753 65.5133 139.94 64.3933 141.86 62.9C143.833 61.3533 145.46 59.38 146.74 56.98C148.02 54.58 148.793 51.7 149.06 48.34H127.94V42.02H155.46C155.567 42.7133 155.647 43.38 155.7 44.02C155.807 44.66 155.86 45.3533 155.86 46.1V46.18C155.86 50.2867 155.167 54.0467 153.78 57.46C152.393 60.82 150.447 63.7267 147.94 66.18C145.433 68.58 142.473 70.4467 139.06 71.78C135.647 73.1133 131.887 73.78 127.78 73.78ZM178.934 73.78C174.988 73.78 171.468 72.8467 168.374 70.98C165.334 69.1133 162.934 66.5533 161.174 63.3C159.468 60.0467 158.614 56.34 158.614 52.18C158.614 48.2867 159.414 44.6867 161.014 41.38C162.668 38.0733 164.961 35.4333 167.894 33.46C170.881 31.4333 174.374 30.42 178.374 30.42C182.428 30.42 185.894 31.3267 188.774 33.14C191.708 34.9 193.948 37.3533 195.494 40.5C197.094 43.6467 197.894 47.2467 197.894 51.3C197.894 51.6733 197.868 52.0467 197.814 52.42C197.814 52.7933 197.788 53.1133 197.734 53.38H165.414C165.574 56.3133 166.241 58.7933 167.414 60.82C168.748 63.1133 170.454 64.82 172.534 65.94C174.668 67.06 176.881 67.62 179.174 67.62C182.161 67.62 184.614 66.9267 186.534 65.54C188.508 64.1 190.081 62.34 191.254 60.26L197.014 63.06C195.414 66.1533 193.121 68.7133 190.134 70.74C187.148 72.7667 183.414 73.78 178.934 73.78ZM165.814 47.78H190.694C190.641 46.66 190.374 45.46 189.894 44.18C189.468 42.8467 188.748 41.62 187.734 40.5C186.774 39.3267 185.521 38.3933 183.974 37.7C182.481 36.9533 180.614 36.58 178.374 36.58C175.708 36.58 173.388 37.2733 171.414 38.66C169.494 39.9933 168.028 41.8333 167.014 44.18C166.481 45.3 166.081 46.5 165.814 47.78ZM201.853 72.5V31.7H208.333V37.7H208.653C209.399 36.3667 210.413 35.1667 211.693 34.1C213.026 32.98 214.519 32.1 216.173 31.46C217.879 30.7667 219.613 30.42 221.373 30.42C224.413 30.42 227.026 31.1667 229.213 32.66C231.399 34.1 232.973 35.9933 233.933 38.34C235.319 36.0467 237.186 34.1533 239.533 32.66C241.879 31.1667 244.679 30.42 247.933 30.42C252.786 30.42 256.359 31.8867 258.653 34.82C260.946 37.7533 262.093 41.5933 262.093 46.34V72.5H255.373V47.38C255.373 43.4333 254.573 40.66 252.973 39.06C251.373 37.4067 249.106 36.58 246.173 36.58C244.093 36.58 242.226 37.1933 240.573 38.42C238.973 39.5933 237.693 41.1667 236.733 43.14C235.826 45.06 235.373 47.1667 235.373 49.46V72.5H228.573V47.46C228.573 43.5133 227.773 40.7133 226.173 39.06C224.573 37.4067 222.333 36.58 219.453 36.58C217.373 36.58 215.506 37.1933 213.853 38.42C212.253 39.6467 210.973 41.2467 210.013 43.22C209.106 45.1933 208.653 47.3267 208.653 49.62V72.5H201.853ZM267.853 72.5V31.7H274.333V37.7H274.653C275.399 36.3667 276.413 35.1667 277.693 34.1C279.026 32.98 280.519 32.1 282.173 31.46C283.879 30.7667 285.613 30.42 287.373 30.42C290.413 30.42 293.026 31.1667 295.213 32.66C297.399 34.1 298.973 35.9933 299.933 38.34C301.319 36.0467 303.186 34.1533 305.533 32.66C307.879 31.1667 310.679 30.42 313.933 30.42C318.786 30.42 322.359 31.8867 324.653 34.82C326.946 37.7533 328.093 41.5933 328.093 46.34V72.5H321.373V47.38C321.373 43.4333 320.573 40.66 318.973 39.06C317.373 37.4067 315.106 36.58 312.173 36.58C310.093 36.58 308.226 37.1933 306.573 38.42C304.973 39.5933 303.693 41.1667 302.733 43.14C301.826 45.06 301.373 47.1667 301.373 49.46V72.5H294.573V47.46C294.573 43.5133 293.773 40.7133 292.173 39.06C290.573 37.4067 288.333 36.58 285.453 36.58C283.373 36.58 281.506 37.1933 279.853 38.42C278.253 39.6467 276.973 41.2467 276.013 43.22C275.106 45.1933 274.653 47.3267 274.653 49.62V72.5H267.853ZM346.502 73.78C343.462 73.78 340.795 73.1933 338.502 72.02C336.209 70.8467 334.395 69.2467 333.062 67.22C331.782 65.14 331.142 62.7933 331.142 60.18C331.142 57.1933 331.915 54.6867 333.462 52.66C335.009 50.58 337.089 49.0333 339.702 48.02C342.315 46.9533 345.195 46.42 348.342 46.42C350.155 46.42 351.835 46.58 353.382 46.9C354.929 47.1667 356.262 47.5133 357.382 47.94C358.555 48.3133 359.435 48.6867 360.022 49.06V46.58C360.022 43.4867 358.929 41.0333 356.742 39.22C354.555 37.4067 351.889 36.5 348.742 36.5C346.502 36.5 344.395 37.0067 342.422 38.02C340.502 38.98 338.982 40.34 337.862 42.1L332.742 38.26C333.809 36.66 335.142 35.2733 336.742 34.1C338.342 32.9267 340.155 32.02 342.182 31.38C344.262 30.74 346.449 30.42 348.742 30.42C354.289 30.42 358.635 31.8867 361.782 34.82C364.929 37.7533 366.502 41.7 366.502 46.66V72.5H360.022V66.66H359.702C359.009 67.8333 358.022 68.98 356.742 70.1C355.462 71.1667 353.942 72.0467 352.182 72.74C350.475 73.4333 348.582 73.78 346.502 73.78ZM347.142 67.78C349.489 67.78 351.622 67.1933 353.542 66.02C355.515 64.8467 357.089 63.2733 358.262 61.3C359.435 59.3267 360.022 57.1667 360.022 54.82C358.795 53.9667 357.249 53.2733 355.382 52.74C353.569 52.2067 351.569 51.94 349.382 51.94C345.489 51.94 342.635 52.74 340.822 54.34C339.009 55.94 338.102 57.9133 338.102 60.26C338.102 62.5 338.955 64.3133 340.662 65.7C342.369 67.0867 344.529 67.78 347.142 67.78ZM410.396 73.78C408.262 73.78 405.996 73.3267 403.596 72.42C401.196 71.5133 399.009 70.0733 397.036 68.1C395.062 66.0733 393.596 63.4067 392.636 60.1L398.796 57.54C399.702 60.6333 401.169 63.0333 403.196 64.74C405.222 66.4467 407.622 67.3 410.396 67.3C412.476 67.3 414.369 66.8733 416.076 66.02C417.836 65.1133 419.222 63.8867 420.236 62.34C421.302 60.7933 421.836 59.0333 421.836 57.06C421.836 55.14 421.302 53.4333 420.236 51.94C419.169 50.3933 417.756 49.1933 415.996 48.34C414.236 47.4333 412.289 46.98 410.156 46.98H405.436V40.66H409.676C411.596 40.66 413.329 40.2867 414.876 39.54C416.476 38.7933 417.729 37.7267 418.636 36.34C419.542 34.9533 419.996 33.3267 419.996 31.46C419.996 28.8467 419.009 26.7933 417.036 25.3C415.116 23.7533 412.769 22.98 409.996 22.98C407.969 22.98 406.289 23.38 404.956 24.18C403.622 24.9267 402.556 25.8867 401.756 27.06C401.009 28.18 400.449 29.3 400.076 30.42L393.836 27.78C394.369 26.18 395.302 24.5267 396.636 22.82C397.969 21.06 399.729 19.5667 401.916 18.34C404.156 17.1133 406.849 16.5 409.996 16.5C413.249 16.5 416.129 17.14 418.636 18.42C421.196 19.7 423.196 21.4867 424.636 23.78C426.129 26.02 426.876 28.58 426.876 31.46C426.876 33.4867 426.502 35.2733 425.756 36.82C425.062 38.3667 424.129 39.6733 422.956 40.74C421.836 41.8067 420.636 42.66 419.356 43.3V43.62C421.062 44.3133 422.609 45.3 423.996 46.58C425.436 47.8067 426.582 49.3 427.436 51.06C428.289 52.7667 428.716 54.74 428.716 56.98C428.716 60.2333 427.889 63.14 426.236 65.7C424.582 68.2067 422.369 70.18 419.596 71.62C416.822 73.06 413.756 73.78 410.396 73.78Z" fill="white"/>
<path d="M127.78 73.78C123.727 73.78 119.887 73.0333 116.26 71.54C112.687 70.0467 109.54 67.94 106.82 65.22C104.1 62.5 101.967 59.3267 100.42 55.7C98.8733 52.0733 98.1 48.1267 98.1 43.86C98.1 39.5933 98.8733 35.6467 100.42 32.02C101.967 28.3933 104.1 25.22 106.82 22.5C109.54 19.78 112.687 17.6733 116.26 16.18C119.887 14.6867 123.727 13.94 127.78 13.94C131.993 13.94 135.94 14.6867 139.62 16.18C143.353 17.6733 146.42 19.78 148.82 22.5L144.02 27.3C142.793 25.8067 141.327 24.5533 139.62 23.54C137.913 22.5267 136.073 21.7533 134.1 21.22C132.127 20.6867 130.047 20.42 127.86 20.42C124.82 20.42 121.913 20.98 119.14 22.1C116.367 23.1667 113.913 24.74 111.78 26.82C109.7 28.8467 108.047 31.3 106.82 34.18C105.593 37.06 104.98 40.2867 104.98 43.86C104.98 47.4333 105.593 50.66 106.82 53.54C108.1 56.42 109.807 58.9 111.94 60.98C114.073 63.0067 116.5 64.58 119.22 65.7C121.993 66.7667 124.873 67.3 127.86 67.3C130.42 67.3 132.9 66.9533 135.3 66.26C137.753 65.5133 139.94 64.3933 141.86 62.9C143.833 61.3533 145.46 59.38 146.74 56.98C148.02 54.58 148.793 51.7 149.06 48.34H127.94V42.02H155.46C155.567 42.7133 155.647 43.38 155.7 44.02C155.807 44.66 155.86 45.3533 155.86 46.1V46.18C155.86 50.2867 155.167 54.0467 153.78 57.46C152.393 60.82 150.447 63.7267 147.94 66.18C145.433 68.58 142.473 70.4467 139.06 71.78C135.647 73.1133 131.887 73.78 127.78 73.78ZM178.934 73.78C174.988 73.78 171.468 72.8467 168.374 70.98C165.334 69.1133 162.934 66.5533 161.174 63.3C159.468 60.0467 158.614 56.34 158.614 52.18C158.614 48.2867 159.414 44.6867 161.014 41.38C162.668 38.0733 164.961 35.4333 167.894 33.46C170.881 31.4333 174.374 30.42 178.374 30.42C182.428 30.42 185.894 31.3267 188.774 33.14C191.708 34.9 193.948 37.3533 195.494 40.5C197.094 43.6467 197.894 47.2467 197.894 51.3C197.894 51.6733 197.868 52.0467 197.814 52.42C197.814 52.7933 197.788 53.1133 197.734 53.38H165.414C165.574 56.3133 166.241 58.7933 167.414 60.82C168.748 63.1133 170.454 64.82 172.534 65.94C174.668 67.06 176.881 67.62 179.174 67.62C182.161 67.62 184.614 66.9267 186.534 65.54C188.508 64.1 190.081 62.34 191.254 60.26L197.014 63.06C195.414 66.1533 193.121 68.7133 190.134 70.74C187.148 72.7667 183.414 73.78 178.934 73.78ZM165.814 47.78H190.694C190.641 46.66 190.374 45.46 189.894 44.18C189.468 42.8467 188.748 41.62 187.734 40.5C186.774 39.3267 185.521 38.3933 183.974 37.7C182.481 36.9533 180.614 36.58 178.374 36.58C175.708 36.58 173.388 37.2733 171.414 38.66C169.494 39.9933 168.028 41.8333 167.014 44.18C166.481 45.3 166.081 46.5 165.814 47.78ZM201.853 72.5V31.7H208.333V37.7H208.653C209.399 36.3667 210.413 35.1667 211.693 34.1C213.026 32.98 214.519 32.1 216.173 31.46C217.879 30.7667 219.613 30.42 221.373 30.42C224.413 30.42 227.026 31.1667 229.213 32.66C231.399 34.1 232.973 35.9933 233.933 38.34C235.319 36.0467 237.186 34.1533 239.533 32.66C241.879 31.1667 244.679 30.42 247.933 30.42C252.786 30.42 256.359 31.8867 258.653 34.82C260.946 37.7533 262.093 41.5933 262.093 46.34V72.5H255.373V47.38C255.373 43.4333 254.573 40.66 252.973 39.06C251.373 37.4067 249.106 36.58 246.173 36.58C244.093 36.58 242.226 37.1933 240.573 38.42C238.973 39.5933 237.693 41.1667 236.733 43.14C235.826 45.06 235.373 47.1667 235.373 49.46V72.5H228.573V47.46C228.573 43.5133 227.773 40.7133 226.173 39.06C224.573 37.4067 222.333 36.58 219.453 36.58C217.373 36.58 215.506 37.1933 213.853 38.42C212.253 39.6467 210.973 41.2467 210.013 43.22C209.106 45.1933 208.653 47.3267 208.653 49.62V72.5H201.853ZM267.853 72.5V31.7H274.333V37.7H274.653C275.399 36.3667 276.413 35.1667 277.693 34.1C279.026 32.98 280.519 32.1 282.173 31.46C283.879 30.7667 285.613 30.42 287.373 30.42C290.413 30.42 293.026 31.1667 295.213 32.66C297.399 34.1 298.973 35.9933 299.933 38.34C301.319 36.0467 303.186 34.1533 305.533 32.66C307.879 31.1667 310.679 30.42 313.933 30.42C318.786 30.42 322.359 31.8867 324.653 34.82C326.946 37.7533 328.093 41.5933 328.093 46.34V72.5H321.373V47.38C321.373 43.4333 320.573 40.66 318.973 39.06C317.373 37.4067 315.106 36.58 312.173 36.58C310.093 36.58 308.226 37.1933 306.573 38.42C304.973 39.5933 303.693 41.1667 302.733 43.14C301.826 45.06 301.373 47.1667 301.373 49.46V72.5H294.573V47.46C294.573 43.5133 293.773 40.7133 292.173 39.06C290.573 37.4067 288.333 36.58 285.453 36.58C283.373 36.58 281.506 37.1933 279.853 38.42C278.253 39.6467 276.973 41.2467 276.013 43.22C275.106 45.1933 274.653 47.3267 274.653 49.62V72.5H267.853ZM346.502 73.78C343.462 73.78 340.795 73.1933 338.502 72.02C336.209 70.8467 334.395 69.2467 333.062 67.22C331.782 65.14 331.142 62.7933 331.142 60.18C331.142 57.1933 331.915 54.6867 333.462 52.66C335.009 50.58 337.089 49.0333 339.702 48.02C342.315 46.9533 345.195 46.42 348.342 46.42C350.155 46.42 351.835 46.58 353.382 46.9C354.929 47.1667 356.262 47.5133 357.382 47.94C358.555 48.3133 359.435 48.6867 360.022 49.06V46.58C360.022 43.4867 358.929 41.0333 356.742 39.22C354.555 37.4067 351.889 36.5 348.742 36.5C346.502 36.5 344.395 37.0067 342.422 38.02C340.502 38.98 338.982 40.34 337.862 42.1L332.742 38.26C333.809 36.66 335.142 35.2733 336.742 34.1C338.342 32.9267 340.155 32.02 342.182 31.38C344.262 30.74 346.449 30.42 348.742 30.42C354.289 30.42 358.635 31.8867 361.782 34.82C364.929 37.7533 366.502 41.7 366.502 46.66V72.5H360.022V66.66H359.702C359.009 67.8333 358.022 68.98 356.742 70.1C355.462 71.1667 353.942 72.0467 352.182 72.74C350.475 73.4333 348.582 73.78 346.502 73.78ZM347.142 67.78C349.489 67.78 351.622 67.1933 353.542 66.02C355.515 64.8467 357.089 63.2733 358.262 61.3C359.435 59.3267 360.022 57.1667 360.022 54.82C358.795 53.9667 357.249 53.2733 355.382 52.74C353.569 52.2067 351.569 51.94 349.382 51.94C345.489 51.94 342.635 52.74 340.822 54.34C339.009 55.94 338.102 57.9133 338.102 60.26C338.102 62.5 338.955 64.3133 340.662 65.7C342.369 67.0867 344.529 67.78 347.142 67.78ZM410.396 73.78C408.262 73.78 405.996 73.3267 403.596 72.42C401.196 71.5133 399.009 70.0733 397.036 68.1C395.062 66.0733 393.596 63.4067 392.636 60.1L398.796 57.54C399.702 60.6333 401.169 63.0333 403.196 64.74C405.222 66.4467 407.622 67.3 410.396 67.3C412.476 67.3 414.369 66.8733 416.076 66.02C417.836 65.1133 419.222 63.8867 420.236 62.34C421.302 60.7933 421.836 59.0333 421.836 57.06C421.836 55.14 421.302 53.4333 420.236 51.94C419.169 50.3933 417.756 49.1933 415.996 48.34C414.236 47.4333 412.289 46.98 410.156 46.98H405.436V40.66H409.676C411.596 40.66 413.329 40.2867 414.876 39.54C416.476 38.7933 417.729 37.7267 418.636 36.34C419.542 34.9533 419.996 33.3267 419.996 31.46C419.996 28.8467 419.009 26.7933 417.036 25.3C415.116 23.7533 412.769 22.98 409.996 22.98C407.969 22.98 406.289 23.38 404.956 24.18C403.622 24.9267 402.556 25.8867 401.756 27.06C401.009 28.18 400.449 29.3 400.076 30.42L393.836 27.78C394.369 26.18 395.302 24.5267 396.636 22.82C397.969 21.06 399.729 19.5667 401.916 18.34C404.156 17.1133 406.849 16.5 409.996 16.5C413.249 16.5 416.129 17.14 418.636 18.42C421.196 19.7 423.196 21.4867 424.636 23.78C426.129 26.02 426.876 28.58 426.876 31.46C426.876 33.4867 426.502 35.2733 425.756 36.82C425.062 38.3667 424.129 39.6733 422.956 40.74C421.836 41.8067 420.636 42.66 419.356 43.3V43.62C421.062 44.3133 422.609 45.3 423.996 46.58C425.436 47.8067 426.582 49.3 427.436 51.06C428.289 52.7667 428.716 54.74 428.716 56.98C428.716 60.2333 427.889 63.14 426.236 65.7C424.582 68.2067 422.369 70.18 419.596 71.62C416.822 73.06 413.756 73.78 410.396 73.78Z" fill="url(#paint1_linear_2291_846)"/>
</g>
<defs>
<linearGradient id="paint0_linear_2291_846" x1="22.05" y1="69.25" x2="67.9" y2="23.75" gradientUnits="userSpaceOnUse">
<stop stop-color="#446EFF"/>
<stop offset="0.366609" stop-color="#2E96FF"/>
<stop offset="0.832213" stop-color="#B1C5FF"/>
</linearGradient>
<linearGradient id="paint1_linear_2291_846" x1="123.481" y1="69.3227" x2="136.47" y2="-10.765" gradientUnits="userSpaceOnUse">
<stop stop-color="#3B6BFF"/>
<stop offset="0.59" stop-color="#2E96FF"/>
<stop offset="1" stop-color="#ACB7FF"/>
</linearGradient>
<clipPath id="clip0_2291_846">
<rect width="430" height="92" fill="white"/>
</clipPath>
</defs>
</svg>
