<svg version="1.1" viewBox="0.0 0.0 600.0 371.0" fill="none" stroke="none" stroke-linecap="square" stroke-miterlimit="10" width="600" height="371" xmlns:xlink="http://www.w3.org/1999/xlink" xmlns="http://www.w3.org/2000/svg"><path fill="#ffffff" d="M0 0L600.0 0L600.0 371.0L0 371.0L0 0Z" fill-rule="nonzero"/><path stroke="#333333" stroke-width="1.0" stroke-linecap="butt" d="M77.5 332.5L581.5 332.5" fill-rule="nonzero"/><path stroke="#cccccc" stroke-width="1.0" stroke-linecap="butt" d="M77.5 283.5L581.5 283.5" fill-rule="nonzero"/><path stroke="#cccccc" stroke-width="1.0" stroke-linecap="butt" d="M77.5 233.5L581.5 233.5" fill-rule="nonzero"/><path stroke="#cccccc" stroke-width="1.0" stroke-linecap="butt" d="M77.5 184.5L581.5 184.5" fill-rule="nonzero"/><path stroke="#cccccc" stroke-width="1.0" stroke-linecap="butt" d="M77.5 134.5L581.5 134.5" fill-rule="nonzero"/><path stroke="#cccccc" stroke-width="1.0" stroke-linecap="butt" d="M77.5 85.5L581.5 85.5" fill-rule="nonzero"/><clipPath id="id_0"><path d="M77.55 85.416664L581.45 85.416664L581.45 332.45L77.55 332.45L77.55 85.416664Z" clip-rule="nonzero"/></clipPath><path stroke="#000000" stroke-width="2.0" stroke-linecap="butt" stroke-opacity="0.0" clip-path="url(#id_0)" d="M194.0 332.0L119.0 332.0L119.0 126.0C119.0 124.89543 119.89543 124.0 121.0 124.0L192.0 124.0C193.10457 124.0 194.0 124.89543 194.0 126.0Z" fill-rule="nonzero"/><path fill="#76b900" clip-path="url(#id_0)" d="M194.0 332.0L119.0 332.0L119.0 126.0C119.0 124.89543 119.89543 124.0 121.0 124.0L192.0 124.0C193.10457 124.0 194.0 124.89543 194.0 126.0Z" fill-rule="nonzero"/><path stroke="#000000" stroke-width="2.0" stroke-linecap="butt" stroke-opacity="0.0" clip-path="url(#id_0)" d="M310.0 332.0L235.0 332.0L235.0 228.0C235.0 226.89543 235.89543 226.0 237.0 226.0L308.0 226.0C309.10458 226.0 310.0 226.89543 310.0 228.0Z" fill-rule="nonzero"/><path fill="#76b900" clip-path="url(#id_0)" d="M310.0 332.0L235.0 332.0L235.0 228.0C235.0 226.89543 235.89543 226.0 237.0 226.0L308.0 226.0C309.10458 226.0 310.0 226.89543 310.0 228.0Z" fill-rule="nonzero"/><path stroke="#000000" stroke-width="2.0" stroke-linecap="butt" stroke-opacity="0.0" clip-path="url(#id_0)" d="M425.0 332.0L350.0 332.0L350.0 256.0C350.0 254.89543 350.89542 254.0 352.0 254.0L423.0 254.0C424.10458 254.0 425.0 254.89543 425.0 256.0Z" fill-rule="nonzero"/><path fill="#76b900" clip-path="url(#id_0)" d="M425.0 332.0L350.0 332.0L350.0 256.0C350.0 254.89543 350.89542 254.0 352.0 254.0L423.0 254.0C424.10458 254.0 425.0 254.89543 425.0 256.0Z" fill-rule="nonzero"/><path stroke="#000000" stroke-width="2.0" stroke-linecap="butt" stroke-opacity="0.0" clip-path="url(#id_0)" d="M541.0 332.0L466.0 332.0L466.0 293.0C466.0 291.89542 466.89542 291.0 468.0 291.0L539.0 291.0C540.10455 291.0 541.0 291.89542 541.0 293.0Z" fill-rule="nonzero"/><path fill="#76b900" clip-path="url(#id_0)" d="M541.0 332.0L466.0 332.0L466.0 293.0C466.0 291.89542 466.89542 291.0 468.0 291.0L539.0 291.0C540.10455 291.0 541.0 291.89542 541.0 293.0Z" fill-rule="nonzero"/><path stroke="#76b900" stroke-width="3.0" stroke-linejoin="round" stroke-linecap="round" d="M149.28125 137.89449L150.46875 137.89449L150.46875 138.76949L149.28125 138.76949L149.28125 140.75386L148.20312 140.75386L148.20312 138.76949L144.3125 138.76949L144.3125 138.12886L148.125 132.22261L149.28125 132.22261L149.28125 137.89449ZM145.54688 137.89449L148.20312 137.89449L148.20312 133.70699L148.0625 133.94136L145.54688 137.89449ZM157.29688 140.75386L151.70312 140.75386L151.70312 139.97261L154.65625 136.69136Q155.3125 135.94136 155.5625 135.48824Q155.8125 135.01949 155.8125 134.51949Q155.8125 133.84761 155.40625 133.42574Q155.01562 132.98824 154.32812 132.98824Q153.53125 132.98824 153.07812 133.45699Q152.625 133.91011 152.625 134.73824L151.54688 134.73824Q151.54688 133.55074 152.29688 132.83199Q153.0625 132.09761 154.32812 132.09761Q155.53125 132.09761 156.21875 132.72261Q156.90625 133.34761 156.90625 134.39449Q156.90625 135.64449 155.29688 137.39449L153.01562 139.86324L157.29688 139.86324L157.29688 140.75386ZM158.84375 140.19136Q158.84375 139.91011 159.0 139.72261Q159.17188 139.53511 159.5 139.53511Q159.84375 139.53511 160.01562 139.72261Q160.1875 139.91011 160.1875 140.19136Q160.1875 140.45699 160.01562 140.64449Q159.84375 140.81636 159.5 140.81636Q159.17188 140.81636 159.0 140.64449Q158.84375 140.45699 158.84375 140.19136ZM167.29688 140.75386L161.70312 140.75386L161.70312 139.97261L164.65625 136.69136Q165.3125 135.94136 165.5625 135.48824Q165.8125 135.01949 165.8125 134.51949Q165.8125 133.84761 165.40625 133.42574Q165.01562 132.98824 164.32812 132.98824Q163.53125 132.98824 163.07812 133.45699Q162.625 133.91011 162.625 134.73824L161.54688 134.73824Q161.54688 133.55074 162.29688 132.83199Q163.0625 132.09761 164.32812 132.09761Q165.53125 132.09761 166.21875 132.72261Q166.90625 133.34761 166.90625 134.39449Q166.90625 135.64449 165.29688 137.39449L163.01562 139.86324L167.29688 139.86324L167.29688 140.75386Z" fill-rule="nonzero"/><path fill="#ffffff" d="M149.28125 137.89449L150.46875 137.89449L150.46875 138.76949L149.28125 138.76949L149.28125 140.75386L148.20312 140.75386L148.20312 138.76949L144.3125 138.76949L144.3125 138.12886L148.125 132.22261L149.28125 132.22261L149.28125 137.89449ZM145.54688 137.89449L148.20312 137.89449L148.20312 133.70699L148.0625 133.94136L145.54688 137.89449ZM157.29688 140.75386L151.70312 140.75386L151.70312 139.97261L154.65625 136.69136Q155.3125 135.94136 155.5625 135.48824Q155.8125 135.01949 155.8125 134.51949Q155.8125 133.84761 155.40625 133.42574Q155.01562 132.98824 154.32812 132.98824Q153.53125 132.98824 153.07812 133.45699Q152.625 133.91011 152.625 134.73824L151.54688 134.73824Q151.54688 133.55074 152.29688 132.83199Q153.0625 132.09761 154.32812 132.09761Q155.53125 132.09761 156.21875 132.72261Q156.90625 133.34761 156.90625 134.39449Q156.90625 135.64449 155.29688 137.39449L153.01562 139.86324L157.29688 139.86324L157.29688 140.75386ZM158.84375 140.19136Q158.84375 139.91011 159.0 139.72261Q159.17188 139.53511 159.5 139.53511Q159.84375 139.53511 160.01562 139.72261Q160.1875 139.91011 160.1875 140.19136Q160.1875 140.45699 160.01562 140.64449Q159.84375 140.81636 159.5 140.81636Q159.17188 140.81636 159.0 140.64449Q158.84375 140.45699 158.84375 140.19136ZM167.29688 140.75386L161.70312 140.75386L161.70312 139.97261L164.65625 136.69136Q165.3125 135.94136 165.5625 135.48824Q165.8125 135.01949 165.8125 134.51949Q165.8125 133.84761 165.40625 133.42574Q165.01562 132.98824 164.32812 132.98824Q163.53125 132.98824 163.07812 133.45699Q162.625 133.91011 162.625 134.73824L161.54688 134.73824Q161.54688 133.55074 162.29688 132.83199Q163.0625 132.09761 164.32812 132.09761Q165.53125 132.09761 166.21875 132.72261Q166.90625 133.34761 166.90625 134.39449Q166.90625 135.64449 165.29688 137.39449L163.01562 139.86324L167.29688 139.86324L167.29688 140.75386Z" fill-rule="nonzero"/><path stroke="#76b900" stroke-width="3.0" stroke-linejoin="round" stroke-linecap="round" d="M266.29688 243.02567L260.70312 243.02567L260.70312 242.24442L263.65625 238.96317Q264.3125 238.21317 264.5625 237.76004Q264.8125 237.29129 264.8125 236.79129Q264.8125 236.11942 264.40625 235.69754Q264.01562 235.26004 263.32812 235.26004Q262.53125 235.26004 262.07812 235.72879Q261.625 236.18192 261.625 237.01004L260.54688 237.01004Q260.54688 235.82254 261.29688 235.10379Q262.0625 234.36942 263.32812 234.36942Q264.53125 234.36942 265.21875 234.99442Q265.90625 235.61942 265.90625 236.66629Q265.90625 237.91629 264.29688 239.66629L262.01562 242.13504L266.29688 242.13504L266.29688 243.02567ZM271.26562 243.02567L270.1875 243.02567L270.1875 235.80692L268.0 236.60379L268.0 235.61942L271.10938 234.44754L271.26562 234.44754L271.26562 243.02567ZM274.84375 242.46317Q274.84375 242.18192 275.0 241.99442Q275.17188 241.80692 275.5 241.80692Q275.84375 241.80692 276.01562 241.99442Q276.1875 242.18192 276.1875 242.46317Q276.1875 242.72879 276.01562 242.91629Q275.84375 243.08817 275.5 243.08817Q275.17188 243.08817 275.0 242.91629Q274.84375 242.72879 274.84375 242.46317ZM278.20312 238.74442L278.64062 234.49442L283.01562 234.49442L283.01562 235.49442L279.5625 235.49442L279.29688 237.82254Q279.9375 237.44754 280.73438 237.44754Q281.89062 237.44754 282.57812 238.22879Q283.26562 238.99442 283.26562 240.30692Q283.26562 241.61942 282.54688 242.38504Q281.84375 243.15067 280.5625 243.15067Q279.4375 243.15067 278.71875 242.52567Q278.0 241.88504 277.90625 240.77567L278.92188 240.77567Q279.03125 241.51004 279.45312 241.88504Q279.875 242.26004 280.5625 242.26004Q281.3125 242.26004 281.75 241.74442Q282.1875 241.22879 282.1875 240.32254Q282.1875 239.46317 281.71875 238.94754Q281.25 238.43192 280.46875 238.43192Q279.76562 238.43192 279.35938 238.72879L279.07812 238.96317L278.20312 238.74442Z" fill-rule="nonzero"/><path fill="#ffffff" d="M266.29688 243.02567L260.70312 243.02567L260.70312 242.24442L263.65625 238.96317Q264.3125 238.21317 264.5625 237.76004Q264.8125 237.29129 264.8125 236.79129Q264.8125 236.11942 264.40625 235.69754Q264.01562 235.26004 263.32812 235.26004Q262.53125 235.26004 262.07812 235.72879Q261.625 236.18192 261.625 237.01004L260.54688 237.01004Q260.54688 235.82254 261.29688 235.10379Q262.0625 234.36942 263.32812 234.36942Q264.53125 234.36942 265.21875 234.99442Q265.90625 235.61942 265.90625 236.66629Q265.90625 237.91629 264.29688 239.66629L262.01562 242.13504L266.29688 242.13504L266.29688 243.02567ZM271.26562 243.02567L270.1875 243.02567L270.1875 235.80692L268.0 236.60379L268.0 235.61942L271.10938 234.44754L271.26562 234.44754L271.26562 243.02567ZM274.84375 242.46317Q274.84375 242.18192 275.0 241.99442Q275.17188 241.80692 275.5 241.80692Q275.84375 241.80692 276.01562 241.99442Q276.1875 242.18192 276.1875 242.46317Q276.1875 242.72879 276.01562 242.91629Q275.84375 243.08817 275.5 243.08817Q275.17188 243.08817 275.0 242.91629Q274.84375 242.72879 274.84375 242.46317ZM278.20312 238.74442L278.64062 234.49442L283.01562 234.49442L283.01562 235.49442L279.5625 235.49442L279.29688 237.82254Q279.9375 237.44754 280.73438 237.44754Q281.89062 237.44754 282.57812 238.22879Q283.26562 238.99442 283.26562 240.30692Q283.26562 241.61942 282.54688 242.38504Q281.84375 243.15067 280.5625 243.15067Q279.4375 243.15067 278.71875 242.52567Q278.0 241.88504 277.90625 240.77567L278.92188 240.77567Q279.03125 241.51004 279.45312 241.88504Q279.875 242.26004 280.5625 242.26004Q281.3125 242.26004 281.75 241.74442Q282.1875 241.22879 282.1875 240.32254Q282.1875 239.46317 281.71875 238.94754Q281.25 238.43192 280.46875 238.43192Q279.76562 238.43192 279.35938 238.72879L279.07812 238.96317L278.20312 238.74442Z" fill-rule="nonzero"/><path stroke="#76b900" stroke-width="3.0" stroke-linejoin="round" stroke-linecap="round" d="M379.26562 271.18747L378.1875 271.18747L378.1875 263.96872L376.0 264.7656L376.0 263.78122L379.10938 262.60934L379.26562 262.60934L379.26562 271.18747ZM383.20312 266.90622L383.64062 262.65622L388.01562 262.65622L388.01562 263.65622L384.5625 263.65622L384.29688 265.98434Q384.9375 265.60934 385.73438 265.60934Q386.89062 265.60934 387.57812 266.3906Q388.26562 267.15622 388.26562 268.46872Q388.26562 269.78122 387.54688 270.54684Q386.84375 271.31247 385.5625 271.31247Q384.4375 271.31247 383.71875 270.68747Q383.0 270.04684 382.90625 268.93747L383.92188 268.93747Q384.03125 269.67184 384.45312 270.04684Q384.875 270.42184 385.5625 270.42184Q386.3125 270.42184 386.75 269.90622Q387.1875 269.3906 387.1875 268.48434Q387.1875 267.62497 386.71875 267.10934Q386.25 266.59372 385.46875 266.59372Q384.76562 266.59372 384.35938 266.8906L384.07812 267.12497L383.20312 266.90622ZM389.84375 270.62497Q389.84375 270.34372 390.0 270.15622Q390.17188 269.96872 390.5 269.96872Q390.84375 269.96872 391.01562 270.15622Q391.1875 270.34372 391.1875 270.62497Q391.1875 270.8906 391.01562 271.0781Q390.84375 271.24997 390.5 271.24997Q390.17188 271.24997 390.0 271.0781Q389.84375 270.8906 389.84375 270.62497ZM397.89062 264.87497Q397.89062 265.5156 397.54688 266.0156Q397.20312 266.5156 396.64062 266.79684Q397.29688 267.0781 397.6875 267.6406Q398.07812 268.18747 398.07812 268.8906Q398.07812 269.98434 397.32812 270.65622Q396.59375 271.31247 395.375 271.31247Q394.14062 271.31247 393.39062 270.65622Q392.65625 269.98434 392.65625 268.8906Q392.65625 268.18747 393.03125 267.6406Q393.40625 267.0781 394.07812 266.79684Q393.51562 266.5156 393.1875 266.0156Q392.85938 265.5156 392.85938 264.87497Q392.85938 263.79684 393.54688 263.17184Q394.23438 262.53122 395.375 262.53122Q396.5 262.53122 397.1875 263.17184Q397.89062 263.79684 397.89062 264.87497ZM397.0 268.85934Q397.0 268.1406 396.54688 267.7031Q396.09375 267.24997 395.35938 267.24997Q394.625 267.24997 394.17188 267.7031Q393.73438 268.1406 393.73438 268.87497Q393.73438 269.59372 394.17188 270.0156Q394.60938 270.42184 395.375 270.42184Q396.125 270.42184 396.5625 269.99997Q397.0 269.5781 397.0 268.85934ZM395.375 263.42184Q394.73438 263.42184 394.32812 263.8281Q393.9375 264.21872 393.9375 264.90622Q393.9375 265.54684 394.32812 265.9531Q394.71875 266.35934 395.35938 266.35934Q396.01562 266.35934 396.40625 265.9531Q396.79688 265.54684 396.79688 264.90622Q396.79688 264.24997 396.39062 263.84372Q395.98438 263.42184 395.375 263.42184Z" fill-rule="nonzero"/><path fill="#ffffff" d="M379.26562 271.18747L378.1875 271.18747L378.1875 263.96872L376.0 264.7656L376.0 263.78122L379.10938 262.60934L379.26562 262.60934L379.26562 271.18747ZM383.20312 266.90622L383.64062 262.65622L388.01562 262.65622L388.01562 263.65622L384.5625 263.65622L384.29688 265.98434Q384.9375 265.60934 385.73438 265.60934Q386.89062 265.60934 387.57812 266.3906Q388.26562 267.15622 388.26562 268.46872Q388.26562 269.78122 387.54688 270.54684Q386.84375 271.31247 385.5625 271.31247Q384.4375 271.31247 383.71875 270.68747Q383.0 270.04684 382.90625 268.93747L383.92188 268.93747Q384.03125 269.67184 384.45312 270.04684Q384.875 270.42184 385.5625 270.42184Q386.3125 270.42184 386.75 269.90622Q387.1875 269.3906 387.1875 268.48434Q387.1875 267.62497 386.71875 267.10934Q386.25 266.59372 385.46875 266.59372Q384.76562 266.59372 384.35938 266.8906L384.07812 267.12497L383.20312 266.90622ZM389.84375 270.62497Q389.84375 270.34372 390.0 270.15622Q390.17188 269.96872 390.5 269.96872Q390.84375 269.96872 391.01562 270.15622Q391.1875 270.34372 391.1875 270.62497Q391.1875 270.8906 391.01562 271.0781Q390.84375 271.24997 390.5 271.24997Q390.17188 271.24997 390.0 271.0781Q389.84375 270.8906 389.84375 270.62497ZM397.89062 264.87497Q397.89062 265.5156 397.54688 266.0156Q397.20312 266.5156 396.64062 266.79684Q397.29688 267.0781 397.6875 267.6406Q398.07812 268.18747 398.07812 268.8906Q398.07812 269.98434 397.32812 270.65622Q396.59375 271.31247 395.375 271.31247Q394.14062 271.31247 393.39062 270.65622Q392.65625 269.98434 392.65625 268.8906Q392.65625 268.18747 393.03125 267.6406Q393.40625 267.0781 394.07812 266.79684Q393.51562 266.5156 393.1875 266.0156Q392.85938 265.5156 392.85938 264.87497Q392.85938 263.79684 393.54688 263.17184Q394.23438 262.53122 395.375 262.53122Q396.5 262.53122 397.1875 263.17184Q397.89062 263.79684 397.89062 264.87497ZM397.0 268.85934Q397.0 268.1406 396.54688 267.7031Q396.09375 267.24997 395.35938 267.24997Q394.625 267.24997 394.17188 267.7031Q393.73438 268.1406 393.73438 268.87497Q393.73438 269.59372 394.17188 270.0156Q394.60938 270.42184 395.375 270.42184Q396.125 270.42184 396.5625 269.99997Q397.0 269.5781 397.0 268.85934ZM395.375 263.42184Q394.73438 263.42184 394.32812 263.8281Q393.9375 264.21872 393.9375 264.90622Q393.9375 265.54684 394.32812 265.9531Q394.71875 266.35934 395.35938 266.35934Q396.01562 266.35934 396.40625 265.9531Q396.79688 265.54684 396.79688 264.90622Q396.79688 264.24997 396.39062 263.84372Q395.98438 263.42184 395.375 263.42184Z" fill-rule="nonzero"/><path stroke="#76b900" stroke-width="3.0" stroke-linejoin="round" stroke-linecap="round" d="M500.39062 301.5841Q500.39062 302.22473 500.04688 302.72473Q499.70312 303.22473 499.14062 303.50598Q499.79688 303.78723 500.1875 304.34973Q500.57812 304.8966 500.57812 305.59973Q500.57812 306.69348 499.82812 307.36536Q499.09375 308.0216 497.875 308.0216Q496.64062 308.0216 495.89062 307.36536Q495.15625 306.69348 495.15625 305.59973Q495.15625 304.8966 495.53125 304.34973Q495.90625 303.78723 496.57812 303.50598Q496.01562 303.22473 495.6875 302.72473Q495.35938 302.22473 495.35938 301.5841Q495.35938 300.50598 496.04688 299.88098Q496.73438 299.24036 497.875 299.24036Q499.0 299.24036 499.6875 299.88098Q500.39062 300.50598 500.39062 301.5841ZM499.5 305.56848Q499.5 304.84973 499.04688 304.41223Q498.59375 303.9591 497.85938 303.9591Q497.125 303.9591 496.67188 304.41223Q496.23438 304.84973 496.23438 305.5841Q496.23438 306.30286 496.67188 306.72473Q497.10938 307.13098 497.875 307.13098Q498.625 307.13098 499.0625 306.7091Q499.5 306.28723 499.5 305.56848ZM497.875 300.13098Q497.23438 300.13098 496.82812 300.53723Q496.4375 300.92786 496.4375 301.61536Q496.4375 302.25598 496.82812 302.66223Q497.21875 303.06848 497.85938 303.06848Q498.51562 303.06848 498.90625 302.66223Q499.29688 302.25598 499.29688 301.61536Q499.29688 300.9591 498.89062 300.55286Q498.48438 300.13098 497.875 300.13098ZM502.34375 307.3341Q502.34375 307.05286 502.5 306.86536Q502.67188 306.67786 503.0 306.67786Q503.34375 306.67786 503.51562 306.86536Q503.6875 307.05286 503.6875 307.3341Q503.6875 307.59973 503.51562 307.78723Q503.34375 307.9591 503.0 307.9591Q502.67188 307.9591 502.5 307.78723Q502.34375 307.59973 502.34375 307.3341ZM509.78125 305.03723L510.96875 305.03723L510.96875 305.91223L509.78125 305.91223L509.78125 307.8966L508.70312 307.8966L508.70312 305.91223L504.8125 305.91223L504.8125 305.2716L508.625 299.36536L509.78125 299.36536L509.78125 305.03723ZM506.04688 305.03723L508.70312 305.03723L508.70312 300.84973L508.5625 301.0841L506.04688 305.03723Z" fill-rule="nonzero"/><path fill="#ffffff" d="M500.39062 301.5841Q500.39062 302.22473 500.04688 302.72473Q499.70312 303.22473 499.14062 303.50598Q499.79688 303.78723 500.1875 304.34973Q500.57812 304.8966 500.57812 305.59973Q500.57812 306.69348 499.82812 307.36536Q499.09375 308.0216 497.875 308.0216Q496.64062 308.0216 495.89062 307.36536Q495.15625 306.69348 495.15625 305.59973Q495.15625 304.8966 495.53125 304.34973Q495.90625 303.78723 496.57812 303.50598Q496.01562 303.22473 495.6875 302.72473Q495.35938 302.22473 495.35938 301.5841Q495.35938 300.50598 496.04688 299.88098Q496.73438 299.24036 497.875 299.24036Q499.0 299.24036 499.6875 299.88098Q500.39062 300.50598 500.39062 301.5841ZM499.5 305.56848Q499.5 304.84973 499.04688 304.41223Q498.59375 303.9591 497.85938 303.9591Q497.125 303.9591 496.67188 304.41223Q496.23438 304.84973 496.23438 305.5841Q496.23438 306.30286 496.67188 306.72473Q497.10938 307.13098 497.875 307.13098Q498.625 307.13098 499.0625 306.7091Q499.5 306.28723 499.5 305.56848ZM497.875 300.13098Q497.23438 300.13098 496.82812 300.53723Q496.4375 300.92786 496.4375 301.61536Q496.4375 302.25598 496.82812 302.66223Q497.21875 303.06848 497.85938 303.06848Q498.51562 303.06848 498.90625 302.66223Q499.29688 302.25598 499.29688 301.61536Q499.29688 300.9591 498.89062 300.55286Q498.48438 300.13098 497.875 300.13098ZM502.34375 307.3341Q502.34375 307.05286 502.5 306.86536Q502.67188 306.67786 503.0 306.67786Q503.34375 306.67786 503.51562 306.86536Q503.6875 307.05286 503.6875 307.3341Q503.6875 307.59973 503.51562 307.78723Q503.34375 307.9591 503.0 307.9591Q502.67188 307.9591 502.5 307.78723Q502.34375 307.59973 502.34375 307.3341ZM509.78125 305.03723L510.96875 305.03723L510.96875 305.91223L509.78125 305.91223L509.78125 307.8966L508.70312 307.8966L508.70312 305.91223L504.8125 305.91223L504.8125 305.2716L508.625 299.36536L509.78125 299.36536L509.78125 305.03723ZM506.04688 305.03723L508.70312 305.03723L508.70312 300.84973L508.5625 301.0841L506.04688 305.03723Z" fill-rule="nonzero"/><path fill="#314c59" d="M29.550013 265.32394L21.971888 265.32394L21.971888 268.15207L20.956263 268.15207L20.956263 261.33957L21.971888 261.33957L21.971888 264.18332L29.550013 264.18332L29.550013 265.32394ZM26.440638 261.02707Q24.706263 261.02707 23.878138 260.07394Q23.190638 259.27707 23.190638 258.12082Q23.190638 256.83957 24.034388 256.02707Q24.862513 255.19896 26.346888 255.19896Q27.550013 255.19896 28.237513 255.55833Q28.925013 255.91771 29.315638 256.62082Q29.690638 257.30832 29.690638 258.12082Q29.690638 259.4177 28.862513 260.2302Q28.018763 261.02707 26.440638 261.02707ZM26.440638 259.94894Q27.628138 259.94894 28.221888 259.43332Q28.815638 258.90207 28.815638 258.12082Q28.815638 257.32394 28.221888 256.80832Q27.628138 256.2927 26.409388 256.2927Q25.253138 256.2927 24.659388 256.82394Q24.065638 257.33957 24.065638 258.12082Q24.065638 258.90207 24.659388 259.43332Q25.237513 259.94894 26.440638 259.94894ZM29.550013 253.63646L20.956263 253.63646L20.956263 252.57396L25.862513 252.57396L23.331263 250.08958L23.331263 248.71458L25.628138 251.10521L29.550013 248.48021L29.550013 249.77708L26.362513 251.83958L27.081263 252.57396L29.550013 252.57396L29.550013 253.63646ZM27.550013 243.38646L27.675013 242.29271Q28.628138 242.54271 29.159388 243.24583Q29.690638 243.94896 29.690638 245.02708Q29.690638 246.38646 28.846888 247.19896Q28.003138 247.99583 26.487513 247.99583Q24.925013 247.99583 24.065638 247.18333Q23.190638 246.37083 23.190638 245.08958Q23.190638 243.83958 24.034388 243.05833Q24.878138 242.26146 26.425013 242.26146Q26.518763 242.26146 26.706263 242.26146L26.706263 246.90208Q27.737513 246.83958 28.284388 246.32396Q28.815638 245.80833 28.815638 245.02708Q28.815638 244.44896 28.518763 244.04271Q28.206263 243.62083 27.550013 243.38646ZM25.846888 246.83958L25.846888 243.37083Q25.050013 243.43333 24.659388 243.76146Q24.050013 244.27708 24.050013 245.07396Q24.050013 245.80833 24.534388 246.30833Q25.018763 246.79271 25.846888 246.83958ZM29.550013 240.63646L23.331263 240.63646L23.331263 239.69896L24.206263 239.69896Q23.190638 239.01146 23.190638 237.71458Q23.190638 237.15208 23.393763 236.68333Q23.596888 236.19896 23.925013 235.96458Q24.253138 235.73021 24.690638 235.63646Q24.987513 235.58958 25.721888 235.58958L29.550013 235.58958L29.550013 236.63646L25.768763 236.63646Q25.112513 236.63646 24.800013 236.76146Q24.487513 236.88646 24.300013 237.19896Q24.096888 237.51146 24.096888 237.93333Q24.096888 238.60521 24.534388 239.10521Q24.956263 239.58958 26.143763 239.58958L29.550013 239.58958L29.550013 240.63646ZM27.690638 234.05833L27.534388 233.02708Q28.159388 232.93333 28.487513 232.54271Q28.815638 232.13646 28.815638 231.40208Q28.815638 230.68333 28.534388 230.33958Q28.237513 229.98021 27.831263 229.98021Q27.471888 229.98021 27.268763 230.29271Q27.128138 230.51146 26.909388 231.37083Q26.612513 232.52708 26.409388 232.98021Q26.190638 233.41771 25.815638 233.65208Q25.440638 233.88646 24.971888 233.88646Q24.565638 233.88646 24.206263 233.69896Q23.846888 233.51146 23.612513 233.18333Q23.440638 232.93333 23.315638 232.51146Q23.190638 232.08958 23.190638 231.58958Q23.190638 230.87083 23.409388 230.32396Q23.612513 229.76146 23.971888 229.49583Q24.331263 229.23021 24.925013 229.13646L25.065638 230.16771Q24.596888 230.23021 24.331263 230.57396Q24.050013 230.90208 24.050013 231.52708Q24.050013 232.24583 24.300013 232.55833Q24.534388 232.87083 24.862513 232.87083Q25.065638 232.87083 25.221888 232.74583Q25.393763 232.60521 25.503138 232.33958Q25.565638 232.18333 25.768763 231.40208Q26.081263 230.27708 26.268763 229.83958Q26.456263 229.40208 26.815638 229.15208Q27.175013 228.90208 27.721888 228.90208Q28.253138 228.90208 28.721888 229.21458Q29.175013 229.51146 29.440638 230.08958Q29.690638 230.66771 29.690638 231.40208Q29.690638 232.62083 29.190638 233.26146Q28.675013 233.88646 27.690638 234.05833ZM31.940638 223.63646L23.331263 223.63646L23.331263 222.68333L24.128138 222.68333Q23.659388 222.33958 23.425013 221.91771Q23.190638 221.48021 23.190638 220.87083Q23.190638 220.07396 23.596888 219.46458Q24.003138 218.85521 24.753138 218.55833Q25.503138 218.24583 26.393763 218.24583Q27.346888 218.24583 28.112513 218.58958Q28.878138 218.91771 29.284388 219.57396Q29.690638 220.23021 29.690638 220.94896Q29.690638 221.48021 29.471888 221.90208Q29.237513 222.32396 28.909388 222.58958L31.940638 222.58958L31.940638 223.63646ZM26.471888 222.68333Q27.675013 222.68333 28.253138 222.19896Q28.815638 221.71458 28.815638 221.02708Q28.815638 220.32396 28.221888 219.82396Q27.628138 219.32396 26.378138 219.32396Q25.190638 219.32396 24.612513 219.80833Q24.018763 220.29271 24.018763 220.98021Q24.018763 221.65208 24.643763 222.16771Q25.268763 222.68333 26.471888 222.68333ZM27.550013 212.38646L27.675013 211.29271Q28.628138 211.54271 29.159388 212.24583Q29.690638 212.94896 29.690638 214.02708Q29.690638 215.38646 28.846888 216.19896Q28.003138 216.99583 26.487513 216.99583Q24.925013 216.99583 24.065638 216.18333Q23.190638 215.37083 23.190638 214.08958Q23.190638 212.83958 24.034388 212.05833Q24.878138 211.26146 26.425013 211.26146Q26.518763 211.26146 26.706263 211.26146L26.706263 215.90208Q27.737513 215.83958 28.284388 215.32396Q28.815638 214.80833 28.815638 214.02708Q28.815638 213.44896 28.518763 213.04271Q28.206263 212.62083 27.550013 212.38646ZM25.846888 215.83958L25.846888 212.37083Q25.050013 212.43333 24.659388 212.76146Q24.050013 213.27708 24.050013 214.07396Q24.050013 214.80833 24.534388 215.30833Q25.018763 215.79271 25.846888 215.83958ZM29.550013 209.65208L23.331263 209.65208L23.331263 208.69896L24.268763 208.69896Q23.612513 208.33958 23.409388 208.04271Q23.190638 207.73021 23.190638 207.35521Q23.190638 206.82396 23.518763 206.27708L24.503138 206.63646Q24.268763 207.02708 24.268763 207.40208Q24.268763 207.76146 24.487513 208.04271Q24.690638 208.30833 25.065638 208.41771Q25.628138 208.60521 26.284388 208.60521L29.550013 208.60521L29.550013 209.65208ZM27.690638 203.05833L27.534388 202.02708Q28.159388 201.93333 28.487513 201.54271Q28.815638 201.13646 28.815638 200.40208Q28.815638 199.68333 28.534388 199.33958Q28.237513 198.98021 27.831263 198.98021Q27.471888 198.98021 27.268763 199.29271Q27.128138 199.51146 26.909388 200.37083Q26.612513 201.52708 26.409388 201.98021Q26.190638 202.41771 25.815638 202.65208Q25.440638 202.88646 24.971888 202.88646Q24.565638 202.88646 24.206263 202.69896Q23.846888 202.51146 23.612513 202.18333Q23.440638 201.93333 23.315638 201.51146Q23.190638 201.08958 23.190638 200.58958Q23.190638 199.87083 23.409388 199.32396Q23.612513 198.76146 23.971888 198.49583Q24.331263 198.23021 24.925013 198.13646L25.065638 199.16771Q24.596888 199.23021 24.331263 199.57396Q24.050013 199.90208 24.050013 200.52708Q24.050013 201.24583 24.300013 201.55833Q24.534388 201.87083 24.862513 201.87083Q25.065638 201.87083 25.221888 201.74583Q25.393763 201.60521 25.503138 201.33958Q25.565638 201.18333 25.768763 200.40208Q26.081263 199.27708 26.268763 198.83958Q26.456263 198.40208 26.815638 198.15208Q27.175013 197.90208 27.721888 197.90208Q28.253138 197.90208 28.721888 198.21458Q29.175013 198.51146 29.440638 199.08958Q29.690638 199.66771 29.690638 200.40208Q29.690638 201.62083 29.190638 202.26146Q28.675013 202.88646 27.690638 203.05833ZM27.550013 191.38646L27.675013 190.29271Q28.628138 190.54271 29.159388 191.24583Q29.690638 191.94896 29.690638 193.02708Q29.690638 194.38646 28.846888 195.19896Q28.003138 195.99583 26.487513 195.99583Q24.925013 195.99583 24.065638 195.18333Q23.190638 194.37083 23.190638 193.08958Q23.190638 191.83958 24.034388 191.05833Q24.878138 190.26146 26.425013 190.26146Q26.518763 190.26146 26.706263 190.26146L26.706263 194.90208Q27.737513 194.83958 28.284388 194.32396Q28.815638 193.80833 28.815638 193.02708Q28.815638 192.44896 28.518763 192.04271Q28.206263 191.62083 27.550013 191.38646ZM25.846888 194.83958L25.846888 191.37083Q25.050013 191.43333 24.659388 191.76146Q24.050013 192.27708 24.050013 193.07396Q24.050013 193.80833 24.534388 194.30833Q25.018763 194.79271 25.846888 194.83958ZM27.268763 184.57396L27.409388 183.54271Q28.471888 183.71458 29.081263 184.41771Q29.690638 185.12083 29.690638 186.13646Q29.690638 187.41771 28.862513 188.19896Q28.018763 188.96458 26.456263 188.96458Q25.456263 188.96458 24.706263 188.63646Q23.940638 188.29271 23.565638 187.62083Q23.190638 186.93333 23.190638 186.12083Q23.190638 185.12083 23.706263 184.48021Q24.206263 183.82396 25.159388 183.63646L25.315638 184.66771Q24.690638 184.80833 24.378138 185.18333Q24.050013 185.55833 24.050013 186.08958Q24.050013 186.88646 24.628138 187.38646Q25.190638 187.88646 26.425013 187.88646Q27.690638 187.88646 28.253138 187.40208Q28.815638 186.91771 28.815638 186.15208Q28.815638 185.52708 28.440638 185.12083Q28.065638 184.69896 27.268763 184.57396ZM26.440638 183.02708Q24.706263 183.02708 23.878138 182.07396Q23.190638 181.27708 23.190638 180.12083Q23.190638 178.83958 24.034388 178.02708Q24.862513 177.19896 26.346888 177.19896Q27.550013 177.19896 28.237513 177.55833Q28.925013 177.91771 29.315638 178.62083Q29.690638 179.30833 29.690638 180.12083Q29.690638 181.41771 28.862513 182.23021Q28.018763 183.02708 26.440638 183.02708ZM26.440638 181.94896Q27.628138 181.94896 28.221888 181.43333Q28.815638 180.90208 28.815638 180.12083Q28.815638 179.32396 28.221888 178.80833Q27.628138 178.29271 26.409388 178.29271Q25.253138 178.29271 24.659388 178.82396Q24.065638 179.33958 24.065638 180.12083Q24.065638 180.90208 24.659388 181.43333Q25.237513 181.94896 26.440638 181.94896ZM29.550013 175.63646L23.331263 175.63646L23.331263 174.69896L24.206263 174.69896Q23.190638 174.01146 23.190638 172.71458Q23.190638 172.15208 23.393763 171.68333Q23.596888 171.19896 23.925013 170.96458Q24.253138 170.73021 24.690638 170.63646Q24.987513 170.58958 25.721888 170.58958L29.550013 170.58958L29.550013 171.63646L25.768763 171.63646Q25.112513 171.63646 24.800013 171.76146Q24.487513 171.88646 24.300013 172.19896Q24.096888 172.51146 24.096888 172.93333Q24.096888 173.60521 24.534388 174.10521Q24.956263 174.58958 26.143763 174.58958L29.550013 174.58958L29.550013 175.63646ZM29.550013 164.60521L28.768763 164.60521Q29.690638 165.19896 29.690638 166.33958Q29.690638 167.08958 29.284388 167.71458Q28.862513 168.33958 28.128138 168.68333Q27.393763 169.02708 26.440638 169.02708Q25.518763 169.02708 24.753138 168.71458Q23.987513 168.40208 23.596888 167.77708Q23.190638 167.15208 23.190638 166.38646Q23.190638 165.82396 23.425013 165.38646Q23.659388 164.94896 24.034388 164.66771L20.956263 164.66771L20.956263 163.62083L29.550013 163.62083L29.550013 164.60521ZM26.440638 167.93333Q27.643763 167.93333 28.237513 167.43333Q28.815638 166.93333 28.815638 166.24583Q28.815638 165.55833 28.253138 165.07396Q27.690638 164.58958 26.534388 164.58958Q25.253138 164.58958 24.659388 165.08958Q24.065638 165.57396 24.065638 166.29271Q24.065638 166.99583 24.643763 167.46458Q25.206263 167.93333 26.440638 167.93333Z" fill-rule="nonzero"/><path fill="#314c59" d="M65.05 332.21564Q65.05 330.6844 65.3625 329.7625Q65.675 328.825 66.28438 328.325Q66.90938 327.825 67.84688 327.825Q68.53438 327.825 69.05 328.10626Q69.58125 328.3875 69.925 328.91876Q70.26875 329.4344 70.45625 330.1844Q70.64375 330.9344 70.64375 332.21564Q70.64375 333.73126 70.33125 334.65314Q70.03438 335.575 69.40938 336.09064Q68.8 336.59064 67.84688 336.59064Q66.6125 336.59064 65.89375 335.7Q65.05 334.6375 65.05 332.21564ZM66.12813 332.21564Q66.12813 334.325 66.62813 335.02814Q67.12813 335.73126 67.84688 335.73126Q68.58125 335.73126 69.06563 335.02814Q69.56563 334.325 69.56563 332.21564Q69.56563 330.09064 69.06563 329.40314Q68.58125 328.7 67.83125 328.7Q67.1125 328.7 66.675 329.3094Q66.12813 330.09064 66.12813 332.21564Z" fill-rule="nonzero"/><path fill="#314c59" d="M62.01875 287.04333L60.971874 287.04333L60.971874 280.3246Q60.58125 280.68396 59.95625 281.05896Q59.346874 281.41833 58.8625 281.5902L58.8625 280.5746Q59.7375 280.1527 60.39375 279.5746Q61.065624 278.98083 61.346874 278.41833L62.01875 278.41833L62.01875 287.04333ZM65.05 282.80896Q65.05 281.2777 65.3625 280.35583Q65.675 279.41833 66.28438 278.91833Q66.90938 278.41833 67.84688 278.41833Q68.53438 278.41833 69.05 278.6996Q69.58125 278.98083 69.925 279.5121Q70.26875 280.0277 70.45625 280.7777Q70.64375 281.5277 70.64375 282.80896Q70.64375 284.3246 70.33125 285.24646Q70.03438 286.16833 69.40938 286.68396Q68.8 287.18396 67.84688 287.18396Q66.6125 287.18396 65.89375 286.29333Q65.05 285.23083 65.05 282.80896ZM66.12813 282.80896Q66.12813 284.91833 66.62813 285.62146Q67.12813 286.3246 67.84688 286.3246Q68.58125 286.3246 69.06563 285.62146Q69.56563 284.91833 69.56563 282.80896Q69.56563 280.68396 69.06563 279.99646Q68.58125 279.29333 67.83125 279.29333Q67.1125 279.29333 66.675 279.9027Q66.12813 280.68396 66.12813 282.80896Z" fill-rule="nonzero"/><path fill="#314c59" d="M63.596874 236.62105L63.596874 237.63667L57.909374 237.63667Q57.909374 237.26167 58.034374 236.9023Q58.253124 236.32417 58.721874 235.76167Q59.20625 235.19917 60.1125 234.4648Q61.51875 233.30855 62.003124 232.63667Q62.503124 231.9648 62.503124 231.37105Q62.503124 230.74605 62.05 230.32417Q61.596874 229.88667 60.878124 229.88667Q60.1125 229.88667 59.659374 230.3398Q59.20625 230.79292 59.190624 231.60542L58.1125 231.49605Q58.221874 230.2773 58.940624 229.6523Q59.675 229.01167 60.909374 229.01167Q62.14375 229.01167 62.8625 229.69917Q63.58125 230.38667 63.58125 231.4023Q63.58125 231.91792 63.3625 232.41792Q63.159374 232.9023 62.659374 233.4648Q62.175 234.01167 61.05 234.9648Q60.096874 235.76167 59.815624 236.05855Q59.55 236.3398 59.378124 236.62105L63.596874 236.62105ZM65.05 233.4023Q65.05 231.87105 65.3625 230.94917Q65.675 230.01167 66.28438 229.51167Q66.90938 229.01167 67.84688 229.01167Q68.53438 229.01167 69.05 229.29292Q69.58125 229.57417 69.925 230.10542Q70.26875 230.62105 70.45625 231.37105Q70.64375 232.12105 70.64375 233.4023Q70.64375 234.91792 70.33125 235.8398Q70.03438 236.76167 69.40938 237.2773Q68.8 237.7773 67.84688 237.7773Q66.6125 237.7773 65.89375 236.88667Q65.05 235.82417 65.05 233.4023ZM66.12813 233.4023Q66.12813 235.51167 66.62813 236.2148Q67.12813 236.91792 67.84688 236.91792Q68.58125 236.91792 69.06563 236.2148Q69.56563 235.51167 69.56563 233.4023Q69.56563 231.2773 69.06563 230.5898Q68.58125 229.88667 67.83125 229.88667Q67.1125 229.88667 66.675 230.49605Q66.12813 231.2773 66.12813 233.4023Z" fill-rule="nonzero"/><path fill="#314c59" d="M58.05 185.96437L59.1125 185.82375Q59.284374 186.71437 59.721874 187.12062Q60.159374 187.51125 60.784374 187.51125Q61.534374 187.51125 62.05 186.99562Q62.565624 186.48 62.565624 185.71437Q62.565624 184.99562 62.08125 184.52687Q61.6125 184.0425 60.878124 184.0425Q60.58125 184.0425 60.128124 184.1675L60.253124 183.23Q60.3625 183.24562 60.425 183.24562Q61.096874 183.24562 61.628124 182.90187Q62.175 182.5425 62.175 181.80812Q62.175 181.23 61.784374 180.855Q61.39375 180.46437 60.76875 180.46437Q60.159374 180.46437 59.7375 180.855Q59.33125 181.24562 59.221874 182.01125L58.159374 181.82375Q58.346874 180.77687 59.034374 180.19875Q59.721874 179.605 60.7375 179.605Q61.440624 179.605 62.034374 179.9175Q62.628124 180.21437 62.940624 180.73Q63.253124 181.24562 63.253124 181.83937Q63.253124 182.38625 62.95625 182.855Q62.659374 183.30812 62.08125 183.57375Q62.83125 183.74562 63.253124 184.30812Q63.675 184.855 63.675 185.69875Q63.675 186.82375 62.846874 187.605Q62.034374 188.38625 60.784374 188.38625Q59.659374 188.38625 58.909374 187.71437Q58.159374 187.02687 58.05 185.96437ZM65.05 183.99562Q65.05 182.46437 65.3625 181.5425Q65.675 180.605 66.28438 180.105Q66.90938 179.605 67.84688 179.605Q68.53438 179.605 69.05 179.88625Q69.58125 180.1675 69.925 180.69875Q70.26875 181.21437 70.45625 181.96437Q70.64375 182.71437 70.64375 183.99562Q70.64375 185.51125 70.33125 186.43312Q70.03438 187.355 69.40938 187.87062Q68.8 188.37062 67.84688 188.37062Q66.6125 188.37062 65.89375 187.48Q65.05 186.4175 65.05 183.99562ZM66.12813 183.99562Q66.12813 186.105 66.62813 186.80812Q67.12813 187.51125 67.84688 187.51125Q68.58125 187.51125 69.06563 186.80812Q69.56563 186.105 69.56563 183.99562Q69.56563 181.87062 69.06563 181.18312Q68.58125 180.48 67.83125 180.48Q67.1125 180.48 66.675 181.08937Q66.12813 181.87062 66.12813 183.99562Z" fill-rule="nonzero"/><path fill="#314c59" d="M61.425 138.82333L61.425 136.76083L57.70625 136.76083L57.70625 135.79208L61.628124 130.22958L62.4875 130.22958L62.4875 135.79208L63.64375 135.79208L63.64375 136.76083L62.4875 136.76083L62.4875 138.82333L61.425 138.82333ZM61.425 135.79208L61.425 131.93271L58.7375 135.79208L61.425 135.79208ZM65.05 134.58896Q65.05 133.05771 65.3625 132.13583Q65.675 131.19833 66.28438 130.69833Q66.90938 130.19833 67.84688 130.19833Q68.53438 130.19833 69.05 130.47958Q69.58125 130.76083 69.925 131.29208Q70.26875 131.80771 70.45625 132.55771Q70.64375 133.30771 70.64375 134.58896Q70.64375 136.10458 70.33125 137.02646Q70.03438 137.94833 69.40938 138.46396Q68.8 138.96396 67.84688 138.96396Q66.6125 138.96396 65.89375 138.07333Q65.05 137.01083 65.05 134.58896ZM66.12813 134.58896Q66.12813 136.69833 66.62813 137.40146Q67.12813 138.10458 67.84688 138.10458Q68.58125 138.10458 69.06563 137.40146Q69.56563 136.69833 69.56563 134.58896Q69.56563 132.46396 69.06563 131.77646Q68.58125 131.07333 67.83125 131.07333Q67.1125 131.07333 66.675 131.68271Q66.12813 132.46396 66.12813 134.58896Z" fill-rule="nonzero"/><path fill="#314c59" d="M58.05 87.166664L59.159374 87.072914Q59.284374 87.885414 59.721874 88.291664Q60.175 88.697914 60.815624 88.697914Q61.565624 88.697914 62.096874 88.11979Q62.628124 87.541664 62.628124 86.604164Q62.628124 85.697914 62.1125 85.18229Q61.6125 84.65104 60.784374 84.65104Q60.284374 84.65104 59.8625 84.885414Q59.45625 85.11979 59.221874 85.479164L58.2375 85.354164L59.065624 80.947914L63.346874 80.947914L63.346874 81.947914L59.909374 81.947914L59.45625 84.260414Q60.221874 83.71354 61.065624 83.71354Q62.190624 83.71354 62.95625 84.49479Q63.7375 85.27604 63.7375 86.510414Q63.7375 87.666664 63.065624 88.52604Q62.2375 89.55729 60.815624 89.55729Q59.64375 89.55729 58.89375 88.90104Q58.159374 88.24479 58.05 87.166664ZM65.05 85.18229Q65.05 83.65104 65.3625 82.729164Q65.675 81.791664 66.28438 81.291664Q66.90938 80.791664 67.84688 80.791664Q68.53438 80.791664 69.05 81.072914Q69.58125 81.354164 69.925 81.885414Q70.26875 82.40104 70.45625 83.15104Q70.64375 83.90104 70.64375 85.18229Q70.64375 86.697914 70.33125 87.61979Q70.03438 88.541664 69.40938 89.05729Q68.8 89.55729 67.84688 89.55729Q66.6125 89.55729 65.89375 88.666664Q65.05 87.604164 65.05 85.18229ZM66.12813 85.18229Q66.12813 87.291664 66.62813 87.99479Q67.12813 88.697914 67.84688 88.697914Q68.58125 88.697914 69.06563 87.99479Q69.56563 87.291664 69.56563 85.18229Q69.56563 83.05729 69.06563 82.36979Q68.58125 81.666664 67.83125 81.666664Q67.1125 81.666664 66.675 82.27604Q66.12813 83.05729 66.12813 85.18229Z" fill-rule="nonzero"/><path fill="#314c59" d="M132.61638 349.45L132.61638 340.85626L133.757 340.85626L133.757 348.4344L137.99138 348.4344L137.99138 349.45L132.61638 349.45ZM139.507 349.45L139.507 340.85626L140.5695 340.85626L140.5695 349.45L139.507 349.45ZM146.60075 348.6844Q146.007 349.1844 145.46013 349.3875Q144.92888 349.59064 144.30388 349.59064Q143.27263 349.59064 142.72575 349.09064Q142.17888 348.59064 142.17888 347.8094Q142.17888 347.35626 142.382 346.98126Q142.58513 346.59064 142.92888 346.3719Q143.27263 346.1375 143.6945 346.02814Q143.99138 345.9344 144.632 345.85626Q145.89763 345.71564 146.507 345.4969Q146.507 345.27814 146.507 345.23126Q146.507 344.575 146.21013 344.3094Q145.80388 343.96564 145.007 343.96564Q144.27263 343.96564 143.91325 344.23126Q143.55388 344.48126 143.382 345.1375L142.35075 344.9969Q142.49138 344.34064 142.8195 343.9344Q143.14763 343.52814 143.757 343.3094Q144.36638 343.09064 145.16325 343.09064Q145.96013 343.09064 146.46013 343.27814Q146.96013 343.46564 147.1945 343.7469Q147.42888 344.02814 147.52263 344.46564Q147.5695 344.73126 147.5695 345.4344L147.5695 346.84064Q147.5695 348.3094 147.632 348.7Q147.71013 349.09064 147.91325 349.45L146.80388 349.45Q146.64763 349.1219 146.60075 348.6844ZM146.507 346.325Q145.92888 346.5594 144.78825 346.73126Q144.132 346.825 143.86638 346.95Q143.60075 347.0594 143.4445 347.27814Q143.30388 347.4969 143.30388 347.77814Q143.30388 348.2 143.61638 348.48126Q143.9445 348.7625 144.55388 348.7625Q145.16325 348.7625 145.632 348.4969Q146.11638 348.23126 146.33513 347.7625Q146.507 347.40314 146.507 346.71564L146.507 346.325ZM151.257 349.45L148.89763 343.23126L150.007 343.23126L151.35075 346.95Q151.55388 347.5594 151.74138 348.2Q151.882 347.71564 152.132 347.02814L153.52263 343.23126L154.60075 343.23126L152.24138 349.45L151.257 349.45ZM158.60075 348.6844Q158.007 349.1844 157.46013 349.3875Q156.92888 349.59064 156.30388 349.59064Q155.27263 349.59064 154.72575 349.09064Q154.17888 348.59064 154.17888 347.8094Q154.17888 347.35626 154.382 346.98126Q154.58513 346.59064 154.92888 346.3719Q155.27263 346.1375 155.6945 346.02814Q155.99138 345.9344 156.632 345.85626Q157.89763 345.71564 158.507 345.4969Q158.507 345.27814 158.507 345.23126Q158.507 344.575 158.21013 344.3094Q157.80388 343.96564 157.007 343.96564Q156.27263 343.96564 155.91325 344.23126Q155.55388 344.48126 155.382 345.1375L154.35075 344.9969Q154.49138 344.34064 154.8195 343.9344Q155.14763 343.52814 155.757 343.3094Q156.36638 343.09064 157.16325 343.09064Q157.96013 343.09064 158.46013 343.27814Q158.96013 343.46564 159.1945 343.7469Q159.42888 344.02814 159.52263 344.46564Q159.5695 344.73126 159.5695 345.4344L159.5695 346.84064Q159.5695 348.3094 159.632 348.7Q159.71013 349.09064 159.91325 349.45L158.80388 349.45Q158.64763 349.1219 158.60075 348.6844ZM158.507 346.325Q157.92888 346.5594 156.78825 346.73126Q156.132 346.825 155.86638 346.95Q155.60075 347.0594 155.4445 347.27814Q155.30388 347.4969 155.30388 347.77814Q155.30388 348.2 155.61638 348.48126Q155.9445 348.7625 156.55388 348.7625Q157.16325 348.7625 157.632 348.4969Q158.11638 348.23126 158.33513 347.7625Q158.507 347.40314 158.507 346.71564L158.507 346.325ZM161.11638 346.8719L161.11638 345.8094L164.36638 345.8094L164.36638 346.8719L161.11638 346.8719ZM165.30388 341.98126L165.30388 340.96564L170.86638 340.96564L170.86638 341.79376Q170.05388 342.66876 169.24138 344.1219Q168.4445 345.5594 168.007 347.09064Q167.67888 348.16876 167.60075 349.45L166.507 349.45Q166.52263 348.4344 166.89763 346.9969Q167.28825 345.5594 167.99138 344.23126Q168.71013 342.90314 169.52263 341.98126L165.30388 341.98126ZM172.61638 349.45L172.61638 340.85626L175.85075 340.85626Q176.83513 340.85626 177.42888 341.1219Q178.02263 341.3875 178.35075 341.9344Q178.6945 342.46564 178.6945 343.0594Q178.6945 343.60626 178.39763 344.09064Q178.10075 344.575 177.49138 344.8719Q178.27263 345.10626 178.67888 345.66876Q179.10075 346.21564 179.10075 346.96564Q179.10075 347.5594 178.85075 348.09064Q178.60075 348.60626 178.22575 348.8875Q177.85075 349.16876 177.27263 349.3094Q176.71013 349.45 175.89763 349.45L172.61638 349.45ZM173.757 344.46564L175.61638 344.46564Q176.36638 344.46564 176.6945 344.3719Q177.132 344.2469 177.35075 343.95Q177.5695 343.6375 177.5695 343.1844Q177.5695 342.7625 177.36638 342.4344Q177.16325 342.10626 176.77263 341.9969Q176.39763 341.8719 175.47575 341.8719L173.757 341.8719L173.757 344.46564ZM173.757 348.4344L175.89763 348.4344Q176.4445 348.4344 176.66325 348.3875Q177.0695 348.325 177.3195 348.16876Q177.58513 347.9969 177.757 347.6844Q177.92888 347.3719 177.92888 346.96564Q177.92888 346.48126 177.67888 346.1219Q177.4445 345.7625 177.007 345.6219Q176.5695 345.48126 175.74138 345.48126L173.757 345.48126L173.757 348.4344Z" fill-rule="nonzero"/><path fill="#314c59" d="M244.95546 349.45L244.95546 340.85626L246.09608 340.85626L246.09608 348.4344L250.33046 348.4344L250.33046 349.45L244.95546 349.45ZM251.84608 349.45L251.84608 340.85626L252.90858 340.85626L252.90858 349.45L251.84608 349.45ZM258.93982 348.6844Q258.34607 349.1844 257.7992 349.3875Q257.26794 349.59064 256.64294 349.59064Q255.61171 349.59064 255.06483 349.09064Q254.51796 348.59064 254.51796 347.8094Q254.51796 347.35626 254.72108 346.98126Q254.92421 346.59064 255.26796 346.3719Q255.61171 346.1375 256.03357 346.02814Q256.33044 345.9344 256.97107 345.85626Q258.2367 345.71564 258.84607 345.4969Q258.84607 345.27814 258.84607 345.23126Q258.84607 344.575 258.5492 344.3094Q258.14294 343.96564 257.34607 343.96564Q256.6117 343.96564 256.25232 344.23126Q255.89296 344.48126 255.72108 345.1375L254.68983 344.9969Q254.83046 344.34064 255.15858 343.9344Q255.48671 343.52814 256.09607 343.3094Q256.70544 343.09064 257.50232 343.09064Q258.2992 343.09064 258.7992 343.27814Q259.2992 343.46564 259.53357 343.7469Q259.76794 344.02814 259.8617 344.46564Q259.90857 344.73126 259.90857 345.4344L259.90857 346.84064Q259.90857 348.3094 259.97107 348.7Q260.0492 349.09064 260.25232 349.45L259.14294 349.45Q258.9867 349.1219 258.93982 348.6844ZM258.84607 346.325Q258.26794 346.5594 257.12732 346.73126Q256.47107 346.825 256.20544 346.95Q255.93983 347.0594 255.78358 347.27814Q255.64296 347.4969 255.64296 347.77814Q255.64296 348.2 255.95546 348.48126Q256.28357 348.7625 256.89294 348.7625Q257.50232 348.7625 257.97107 348.4969Q258.45544 348.23126 258.6742 347.7625Q258.84607 347.40314 258.84607 346.71564L258.84607 346.325ZM263.59607 349.45L261.2367 343.23126L262.34607 343.23126L263.68982 346.95Q263.89294 347.5594 264.08044 348.2Q264.22107 347.71564 264.47107 347.02814L265.8617 343.23126L266.93982 343.23126L264.58044 349.45L263.59607 349.45ZM270.93982 348.6844Q270.34607 349.1844 269.7992 349.3875Q269.26794 349.59064 268.64294 349.59064Q267.6117 349.59064 267.06482 349.09064Q266.51794 348.59064 266.51794 347.8094Q266.51794 347.35626 266.72107 346.98126Q266.9242 346.59064 267.26794 346.3719Q267.6117 346.1375 268.03357 346.02814Q268.33044 345.9344 268.97107 345.85626Q270.2367 345.71564 270.84607 345.4969Q270.84607 345.27814 270.84607 345.23126Q270.84607 344.575 270.5492 344.3094Q270.14294 343.96564 269.34607 343.96564Q268.6117 343.96564 268.25232 344.23126Q267.89294 344.48126 267.72107 345.1375L266.68982 344.9969Q266.83044 344.34064 267.15857 343.9344Q267.4867 343.52814 268.09607 343.3094Q268.70544 343.09064 269.50232 343.09064Q270.2992 343.09064 270.7992 343.27814Q271.2992 343.46564 271.53357 343.7469Q271.76794 344.02814 271.8617 344.46564Q271.90857 344.73126 271.90857 345.4344L271.90857 346.84064Q271.90857 348.3094 271.97107 348.7Q272.0492 349.09064 272.25232 349.45L271.14294 349.45Q270.9867 349.1219 270.93982 348.6844ZM270.84607 346.325Q270.26794 346.5594 269.12732 346.73126Q268.47107 346.825 268.20544 346.95Q267.93982 347.0594 267.78357 347.27814Q267.64294 347.4969 267.64294 347.77814Q267.64294 348.2 267.95544 348.48126Q268.28357 348.7625 268.89294 348.7625Q269.50232 348.7625 269.97107 348.4969Q270.45544 348.23126 270.6742 347.7625Q270.84607 347.40314 270.84607 346.71564L270.84607 346.325ZM273.45544 346.8719L273.45544 345.8094L276.70544 345.8094L276.70544 346.8719L273.45544 346.8719ZM281.5492 349.45L280.50232 349.45L280.50232 342.73126Q280.1117 343.09064 279.4867 343.46564Q278.87732 343.825 278.39294 343.9969L278.39294 342.98126Q279.26794 342.5594 279.9242 341.98126Q280.59607 341.3875 280.87732 340.825L281.5492 340.825L281.5492 349.45ZM284.58044 347.1844L285.64294 347.04376Q285.81482 347.9344 286.25232 348.34064Q286.68982 348.73126 287.31482 348.73126Q288.06482 348.73126 288.58044 348.21564Q289.09607 347.7 289.09607 346.9344Q289.09607 346.21564 288.6117 345.7469Q288.14294 345.2625 287.40857 345.2625Q287.1117 345.2625 286.65857 345.3875L286.78357 344.45Q286.89294 344.46564 286.95544 344.46564Q287.62732 344.46564 288.15857 344.1219Q288.70544 343.7625 288.70544 343.02814Q288.70544 342.45 288.31482 342.075Q287.9242 341.6844 287.2992 341.6844Q286.68982 341.6844 286.26794 342.075Q285.8617 342.46564 285.75232 343.23126L284.68982 343.04376Q284.87732 341.9969 285.56482 341.41876Q286.25232 340.825 287.26794 340.825Q287.97107 340.825 288.56482 341.1375Q289.15857 341.4344 289.47107 341.95Q289.78357 342.46564 289.78357 343.0594Q289.78357 343.60626 289.4867 344.075Q289.18982 344.52814 288.6117 344.79376Q289.3617 344.96564 289.78357 345.52814Q290.20544 346.075 290.20544 346.91876Q290.20544 348.04376 289.37732 348.825Q288.56482 349.60626 287.31482 349.60626Q286.18982 349.60626 285.43982 348.9344Q284.68982 348.2469 284.58044 347.1844ZM291.95544 349.45L291.95544 340.85626L295.18982 340.85626Q296.1742 340.85626 296.76794 341.1219Q297.3617 341.3875 297.68982 341.9344Q298.03357 342.46564 298.03357 343.0594Q298.03357 343.60626 297.7367 344.09064Q297.43982 344.575 296.83044 344.8719Q297.6117 345.10626 298.01794 345.66876Q298.43982 346.21564 298.43982 346.96564Q298.43982 347.5594 298.18982 348.09064Q297.93982 348.60626 297.56482 348.8875Q297.18982 349.16876 296.6117 349.3094Q296.0492 349.45 295.2367 349.45L291.95544 349.45ZM293.09607 344.46564L294.95544 344.46564Q295.70544 344.46564 296.03357 344.3719Q296.47107 344.2469 296.68982 343.95Q296.90857 343.6375 296.90857 343.1844Q296.90857 342.7625 296.70544 342.4344Q296.50232 342.10626 296.1117 341.9969Q295.7367 341.8719 294.81482 341.8719L293.09607 341.8719L293.09607 344.46564ZM293.09607 348.4344L295.2367 348.4344Q295.78357 348.4344 296.00232 348.3875Q296.40857 348.325 296.65857 348.16876Q296.9242 347.9969 297.09607 347.6844Q297.26794 347.3719 297.26794 346.96564Q297.26794 346.48126 297.01794 346.1219Q296.78357 345.7625 296.34607 345.6219Q295.90857 345.48126 295.08044 345.48126L293.09607 345.48126L293.09607 348.4344Z" fill-rule="nonzero"/><path fill="#314c59" d="M352.31015 349.45L352.31015 340.85626L354.0289 340.85626L356.06015 346.9344Q356.3414 347.79376 356.4664 348.21564Q356.60703 347.7469 356.91953 346.84064L358.98203 340.85626L360.51328 340.85626L360.51328 349.45L359.41953 349.45L359.41953 342.2625L356.91953 349.45L355.88828 349.45L353.4039 342.1375L353.4039 349.45L352.31015 349.45ZM361.2164 342.075L361.2164 340.85626L362.2789 340.85626L362.2789 342.075L361.2164 342.075ZM361.2164 349.45L361.2164 343.23126L362.2789 343.23126L362.2789 349.45L361.2164 349.45ZM364.2164 349.45L364.2164 343.23126L365.1539 343.23126L365.1539 344.10626Q365.8414 343.09064 367.13828 343.09064Q367.70078 343.09064 368.16953 343.29376Q368.6539 343.4969 368.88828 343.825Q369.12265 344.15314 369.2164 344.59064Q369.26328 344.8875 369.26328 345.6219L369.26328 349.45L368.2164 349.45L368.2164 345.66876Q368.2164 345.0125 368.0914 344.7Q367.9664 344.3875 367.6539 344.2Q367.3414 343.9969 366.91953 343.9969Q366.24765 343.9969 365.74765 344.4344Q365.26328 344.85626 365.26328 346.04376L365.26328 349.45L364.2164 349.45ZM371.2164 342.075L371.2164 340.85626L372.2789 340.85626L372.2789 342.075L371.2164 342.075ZM371.2164 349.45L371.2164 343.23126L372.2789 343.23126L372.2789 349.45L371.2164 349.45ZM378.37265 346.075L378.37265 345.075L381.99765 345.0594L381.99765 348.2469Q381.16953 348.91876 380.2789 349.2625Q379.38828 349.59064 378.45078 349.59064Q377.18515 349.59064 376.13828 349.0594Q375.10703 348.5125 374.57578 347.4969Q374.06015 346.46564 374.06015 345.2Q374.06015 343.9344 374.57578 342.85626Q375.10703 341.7625 376.0914 341.2469Q377.07578 340.71564 378.35703 340.71564Q379.29453 340.71564 380.04453 341.0125Q380.79453 341.3094 381.2164 341.85626Q381.6539 342.3875 381.87265 343.2625L380.85703 343.54376Q380.6539 342.8875 380.35703 342.5125Q380.07578 342.1375 379.54453 341.91876Q379.01328 341.6844 378.37265 341.6844Q377.5914 341.6844 377.01328 341.91876Q376.45078 342.15314 376.0914 342.54376Q375.74765 342.9344 375.56015 343.40314Q375.23203 344.2 375.23203 345.1219Q375.23203 346.27814 375.62265 347.0594Q376.0289 347.825 376.7789 348.2Q377.5289 348.575 378.38828 348.575Q379.12265 348.575 379.82578 348.29376Q380.5289 347.9969 380.88828 347.6844L380.88828 346.075L378.37265 346.075ZM383.3414 349.45L383.3414 340.85626L386.5914 340.85626Q387.43515 340.85626 387.88828 340.9344Q388.5289 341.04376 388.95078 341.34064Q389.38828 341.6375 389.63828 342.16876Q389.9039 342.7 389.9039 343.34064Q389.9039 344.4344 389.20078 345.2Q388.51328 345.95 386.68515 345.95L384.48203 345.95L384.48203 349.45L383.3414 349.45ZM384.48203 344.95L386.70078 344.95Q387.81015 344.95 388.26328 344.54376Q388.73203 344.1219 388.73203 343.3719Q388.73203 342.84064 388.45078 342.46564Q388.18515 342.075 387.74765 341.95Q387.45078 341.8719 386.68515 341.8719L384.48203 341.8719L384.48203 344.95ZM393.5289 349.45L393.5289 341.8719L390.70078 341.8719L390.70078 340.85626L397.51328 340.85626L397.51328 341.8719L394.66953 341.8719L394.66953 349.45L393.5289 349.45ZM401.29453 349.45L401.29453 347.3875L397.57578 347.3875L397.57578 346.41876L401.49765 340.85626L402.35703 340.85626L402.35703 346.41876L403.51328 346.41876L403.51328 347.3875L402.35703 347.3875L402.35703 349.45L401.29453 349.45ZM401.29453 346.41876L401.29453 342.5594L398.60703 346.41876L401.29453 346.41876ZM404.79453 346.8719L404.79453 345.8094L408.04453 345.8094L408.04453 346.8719L404.79453 346.8719ZM408.98203 341.98126L408.98203 340.96564L414.54453 340.96564L414.54453 341.79376Q413.73203 342.66876 412.91953 344.1219Q412.12265 345.5594 411.68515 347.09064Q411.35703 348.16876 411.2789 349.45L410.18515 349.45Q410.20078 348.4344 410.57578 346.9969Q410.9664 345.5594 411.66953 344.23126Q412.38828 342.90314 413.20078 341.98126L408.98203 341.98126ZM416.29453 349.45L416.29453 340.85626L419.5289 340.85626Q420.51328 340.85626 421.10703 341.1219Q421.70078 341.3875 422.0289 341.9344Q422.37265 342.46564 422.37265 343.0594Q422.37265 343.60626 422.07578 344.09064Q421.7789 344.575 421.16953 344.8719Q421.95078 345.10626 422.35703 345.66876Q422.7789 346.21564 422.7789 346.96564Q422.7789 347.5594 422.5289 348.09064Q422.2789 348.60626 421.9039 348.8875Q421.5289 349.16876 420.95078 349.3094Q420.38828 349.45 419.57578 349.45L416.29453 349.45ZM417.43515 344.46564L419.29453 344.46564Q420.04453 344.46564 420.37265 344.3719Q420.81015 344.2469 421.0289 343.95Q421.24765 343.6375 421.24765 343.1844Q421.24765 342.7625 421.04453 342.4344Q420.8414 342.10626 420.45078 341.9969Q420.07578 341.8719 419.1539 341.8719L417.43515 341.8719L417.43515 344.46564ZM417.43515 348.4344L419.57578 348.4344Q420.12265 348.4344 420.3414 348.3875Q420.74765 348.325 420.99765 348.16876Q421.26328 347.9969 421.43515 347.6844Q421.60703 347.3719 421.60703 346.96564Q421.60703 346.48126 421.35703 346.1219Q421.12265 345.7625 420.68515 345.6219Q420.24765 345.48126 419.41953 345.48126L417.43515 345.48126L417.43515 348.4344Z" fill-rule="nonzero"/><path fill="#314c59" d="M464.64923 349.45L464.64923 340.85626L466.36798 340.85626L468.39923 346.9344Q468.68048 347.79376 468.80548 348.21564Q468.9461 347.7469 469.2586 346.84064L471.3211 340.85626L472.85236 340.85626L472.85236 349.45L471.7586 349.45L471.7586 342.2625L469.2586 349.45L468.22736 349.45L465.74298 342.1375L465.74298 349.45L464.64923 349.45ZM473.55548 342.075L473.55548 340.85626L474.61798 340.85626L474.61798 342.075L473.55548 342.075ZM473.55548 349.45L473.55548 343.23126L474.61798 343.23126L474.61798 349.45L473.55548 349.45ZM476.55548 349.45L476.55548 343.23126L477.49298 343.23126L477.49298 344.10626Q478.18048 343.09064 479.47736 343.09064Q480.03986 343.09064 480.5086 343.29376Q480.99298 343.4969 481.22736 343.825Q481.46173 344.15314 481.55548 344.59064Q481.60236 344.8875 481.60236 345.6219L481.60236 349.45L480.55548 349.45L480.55548 345.66876Q480.55548 345.0125 480.43048 344.7Q480.30548 344.3875 479.99298 344.2Q479.68048 343.9969 479.2586 343.9969Q478.58673 343.9969 478.08673 344.4344Q477.60236 344.85626 477.60236 346.04376L477.60236 349.45L476.55548 349.45ZM483.55548 342.075L483.55548 340.85626L484.61798 340.85626L484.61798 342.075L483.55548 342.075ZM483.55548 349.45L483.55548 343.23126L484.61798 343.23126L484.61798 349.45L483.55548 349.45ZM490.71173 346.075L490.71173 345.075L494.33673 345.0594L494.33673 348.2469Q493.5086 348.91876 492.61798 349.2625Q491.72736 349.59064 490.78986 349.59064Q489.52423 349.59064 488.47736 349.0594Q487.4461 348.5125 486.91486 347.4969Q486.39923 346.46564 486.39923 345.2Q486.39923 343.9344 486.91486 342.85626Q487.4461 341.7625 488.43048 341.2469Q489.41486 340.71564 490.6961 340.71564Q491.6336 340.71564 492.3836 341.0125Q493.1336 341.3094 493.55548 341.85626Q493.99298 342.3875 494.21173 343.2625L493.1961 343.54376Q492.99298 342.8875 492.6961 342.5125Q492.41486 342.1375 491.8836 341.91876Q491.35236 341.6844 490.71173 341.6844Q489.93048 341.6844 489.35236 341.91876Q488.78986 342.15314 488.43048 342.54376Q488.08673 342.9344 487.89923 343.40314Q487.5711 344.2 487.5711 345.1219Q487.5711 346.27814 487.96173 347.0594Q488.36798 347.825 489.11798 348.2Q489.86798 348.575 490.72736 348.575Q491.46173 348.575 492.16486 348.29376Q492.86798 347.9969 493.22736 347.6844L493.22736 346.075L490.71173 346.075ZM495.68048 349.45L495.68048 340.85626L498.93048 340.85626Q499.77423 340.85626 500.22736 340.9344Q500.86798 341.04376 501.28986 341.34064Q501.72736 341.6375 501.97736 342.16876Q502.24298 342.7 502.24298 343.34064Q502.24298 344.4344 501.53986 345.2Q500.85236 345.95 499.02423 345.95L496.8211 345.95L496.8211 349.45L495.68048 349.45ZM496.8211 344.95L499.03986 344.95Q500.14923 344.95 500.60236 344.54376Q501.0711 344.1219 501.0711 343.3719Q501.0711 342.84064 500.78986 342.46564Q500.52423 342.075 500.08673 341.95Q499.78986 341.8719 499.02423 341.8719L496.8211 341.8719L496.8211 344.95ZM505.86798 349.45L505.86798 341.8719L503.03986 341.8719L503.03986 340.85626L509.85236 340.85626L509.85236 341.8719L507.0086 341.8719L507.0086 349.45L505.86798 349.45ZM513.6336 349.45L513.6336 347.3875L509.91486 347.3875L509.91486 346.41876L513.83673 340.85626L514.6961 340.85626L514.6961 346.41876L515.85236 346.41876L515.85236 347.3875L514.6961 347.3875L514.6961 349.45L513.6336 349.45ZM513.6336 346.41876L513.6336 342.5594L510.9461 346.41876L513.6336 346.41876ZM517.1336 346.8719L517.1336 345.8094L520.3836 345.8094L520.3836 346.8719L517.1336 346.8719ZM525.22736 349.45L524.1805 349.45L524.1805 342.73126Q523.78986 343.09064 523.16486 343.46564Q522.5555 343.825 522.0711 343.9969L522.0711 342.98126Q522.9461 342.5594 523.60236 341.98126Q524.27423 341.3875 524.5555 340.825L525.22736 340.825L525.22736 349.45ZM528.2586 347.1844L529.3211 347.04376Q529.493 347.9344 529.9305 348.34064Q530.368 348.73126 530.993 348.73126Q531.743 348.73126 532.2586 348.21564Q532.77423 347.7 532.77423 346.9344Q532.77423 346.21564 532.28986 345.7469Q531.8211 345.2625 531.08673 345.2625Q530.78986 345.2625 530.33673 345.3875L530.46173 344.45Q530.5711 344.46564 530.6336 344.46564Q531.3055 344.46564 531.83673 344.1219Q532.3836 343.7625 532.3836 343.02814Q532.3836 342.45 531.993 342.075Q531.60236 341.6844 530.97736 341.6844Q530.368 341.6844 529.9461 342.075Q529.53986 342.46564 529.4305 343.23126L528.368 343.04376Q528.5555 341.9969 529.243 341.41876Q529.9305 340.825 530.9461 340.825Q531.64923 340.825 532.243 341.1375Q532.83673 341.4344 533.14923 341.95Q533.46173 342.46564 533.46173 343.0594Q533.46173 343.60626 533.16486 344.075Q532.868 344.52814 532.28986 344.79376Q533.03986 344.96564 533.46173 345.52814Q533.8836 346.075 533.8836 346.91876Q533.8836 348.04376 533.0555 348.825Q532.243 349.60626 530.993 349.60626Q529.868 349.60626 529.118 348.9344Q528.368 348.2469 528.2586 347.1844ZM535.6336 349.45L535.6336 340.85626L538.868 340.85626Q539.85236 340.85626 540.4461 341.1219Q541.03986 341.3875 541.368 341.9344Q541.71173 342.46564 541.71173 343.0594Q541.71173 343.60626 541.41486 344.09064Q541.118 344.575 540.5086 344.8719Q541.28986 345.10626 541.6961 345.66876Q542.118 346.21564 542.118 346.96564Q542.118 347.5594 541.868 348.09064Q541.618 348.60626 541.243 348.8875Q540.868 349.16876 540.28986 349.3094Q539.72736 349.45 538.91486 349.45L535.6336 349.45ZM536.77423 344.46564L538.6336 344.46564Q539.3836 344.46564 539.71173 344.3719Q540.14923 344.2469 540.368 343.95Q540.58673 343.6375 540.58673 343.1844Q540.58673 342.7625 540.3836 342.4344Q540.1805 342.10626 539.78986 341.9969Q539.41486 341.8719 538.493 341.8719L536.77423 341.8719L536.77423 344.46564ZM536.77423 348.4344L538.91486 348.4344Q539.46173 348.4344 539.6805 348.3875Q540.08673 348.325 540.33673 348.16876Q540.60236 347.9969 540.77423 347.6844Q540.9461 347.3719 540.9461 346.96564Q540.9461 346.48126 540.6961 346.1219Q540.46173 345.7625 540.02423 345.6219Q539.58673 345.48126 538.7586 345.48126L536.77423 345.48126L536.77423 348.4344Z" fill-rule="nonzero"/><path fill="#adb7bd" d="M18.95625 60.20625L20.14375 60.034374Q20.190624 61.190624 20.565624 61.6125Q20.95625 62.034374 21.64375 62.034374Q22.14375 62.034374 22.503124 61.815624Q22.8625 61.58125 23.003124 61.190624Q23.14375 60.8 23.14375 59.925L23.14375 53.034374L24.45625 53.034374L24.45625 59.8625Q24.45625 61.1125 24.159374 61.815624Q23.8625 62.503124 23.190624 62.8625Q22.534374 63.221874 21.64375 63.221874Q20.33125 63.221874 19.628124 62.471874Q18.925 61.70625 18.95625 60.20625ZM30.440624 60.70625L31.721874 60.8625Q31.409374 61.9875 30.596874 62.6125Q29.784374 63.221874 28.51875 63.221874Q26.925 63.221874 25.9875 62.2375Q25.065624 61.253124 25.065624 59.4875Q25.065624 57.64375 26.003124 56.64375Q26.95625 55.628124 28.45625 55.628124Q29.909374 55.628124 30.83125 56.628124Q31.753124 57.6125 31.753124 59.409374Q31.753124 59.51875 31.753124 59.7375L26.33125 59.7375Q26.409374 60.925 27.003124 61.565624Q27.6125 62.20625 28.534374 62.20625Q29.20625 62.20625 29.675 61.846874Q30.159374 61.4875 30.440624 60.70625ZM26.409374 58.721874L30.45625 58.721874Q30.378124 57.8 29.9875 57.346874Q29.409374 56.64375 28.471874 56.64375Q27.6125 56.64375 27.034374 57.20625Q26.471874 57.76875 26.409374 58.721874ZM36.159374 61.95625L36.33125 63.034374Q35.815624 63.14375 35.409374 63.14375Q34.7375 63.14375 34.3625 62.940624Q34.003124 62.721874 33.846874 62.378124Q33.70625 62.034374 33.70625 60.925L33.70625 56.753124L32.8 56.753124L32.8 55.784374L33.70625 55.784374L33.70625 53.9875L34.925 53.253124L34.925 55.784374L36.159374 55.784374L36.159374 56.753124L34.925 56.753124L34.925 60.9875Q34.925 61.51875 34.9875 61.675Q35.05 61.815624 35.190624 61.909374Q35.346874 62.003124 35.6125 62.003124Q35.83125 62.003124 36.159374 61.95625ZM36.9875 60.878124L38.190624 60.690624Q38.3 61.425 38.76875 61.815624Q39.2375 62.20625 40.08125 62.20625Q40.925 62.20625 41.33125 61.8625Q41.753124 61.51875 41.753124 61.05Q41.753124 60.628124 41.378124 60.39375Q41.128124 60.221874 40.128124 59.971874Q38.76875 59.628124 38.2375 59.378124Q37.721874 59.128124 37.45625 58.690624Q37.190624 58.253124 37.190624 57.721874Q37.190624 57.2375 37.409374 56.83125Q37.628124 56.409374 38.01875 56.128124Q38.3 55.925 38.784374 55.784374Q39.284374 55.628124 39.8625 55.628124Q40.70625 55.628124 41.346874 55.878124Q42.003124 56.1125 42.315624 56.534374Q42.628124 56.95625 42.7375 57.659374L41.534374 57.83125Q41.45625 57.26875 41.05 56.95625Q40.659374 56.64375 39.940624 56.64375Q39.096874 56.64375 38.7375 56.925Q38.378124 57.190624 38.378124 57.58125Q38.378124 57.815624 38.51875 58.003124Q38.675 58.20625 39.003124 58.33125Q39.175 58.39375 40.08125 58.64375Q41.39375 59.003124 41.909374 59.221874Q42.425 59.440624 42.70625 59.8625Q43.003124 60.284374 43.003124 60.909374Q43.003124 61.534374 42.64375 62.08125Q42.3 62.6125 41.6125 62.925Q40.940624 63.221874 40.08125 63.221874Q38.675 63.221874 37.925 62.628124Q37.190624 62.034374 36.9875 60.878124ZM44.01875 59.425Q44.01875 57.409374 45.14375 56.425Q46.065624 55.628124 47.425 55.628124Q48.909374 55.628124 49.8625 56.6125Q50.815624 57.58125 50.815624 59.315624Q50.815624 60.721874 50.39375 61.534374Q49.971874 62.33125 49.159374 62.784374Q48.3625 63.221874 47.425 63.221874Q45.89375 63.221874 44.95625 62.2375Q44.01875 61.253124 44.01875 59.425ZM45.284374 59.425Q45.284374 60.815624 45.89375 61.51875Q46.503124 62.20625 47.425 62.20625Q48.33125 62.20625 48.940624 61.503124Q49.55 60.8 49.55 59.378124Q49.55 58.034374 48.940624 57.346874Q48.33125 56.64375 47.425 56.64375Q46.503124 56.64375 45.89375 57.33125Q45.284374 58.01875 45.284374 59.425ZM52.471874 63.05L52.471874 55.784374L53.58125 55.784374L53.58125 56.815624Q54.378124 55.628124 55.89375 55.628124Q56.55 55.628124 57.096874 55.8625Q57.64375 56.096874 57.909374 56.4875Q58.190624 56.8625 58.3 57.39375Q58.378124 57.7375 58.378124 58.58125L58.378124 63.05L57.14375 63.05L57.14375 58.628124Q57.14375 57.878124 57.003124 57.51875Q56.8625 57.14375 56.4875 56.925Q56.128124 56.690624 55.628124 56.690624Q54.846874 56.690624 54.26875 57.190624Q53.70625 57.690624 53.70625 59.08125L53.70625 63.05L52.471874 63.05ZM63.534374 63.05L67.37813 53.034374L68.8 53.034374L72.90938 63.05L71.39375 63.05L70.22188 60.01875L66.03438 60.01875L64.94063 63.05L63.534374 63.05ZM66.425 58.940624L69.81563 58.940624L68.76875 56.159374Q68.3 54.89375 68.06563 54.08125Q67.87813 55.05 67.51875 55.9875L66.425 58.940624ZM78.31563 59.1125L78.31563 57.940624L82.56563 57.940624L82.56563 61.659374Q81.58125 62.440624 80.53438 62.83125Q79.50313 63.221874 78.40938 63.221874Q76.94063 63.221874 75.72188 62.596874Q74.51875 61.95625 73.90938 60.76875Q73.3 59.565624 73.3 58.08125Q73.3 56.628124 73.90938 55.3625Q74.51875 54.08125 75.65938 53.471874Q76.81563 52.8625 78.31563 52.8625Q79.39375 52.8625 80.26875 53.221874Q81.15938 53.565624 81.65938 54.190624Q82.15938 54.815624 82.40938 55.83125L81.22188 56.159374Q80.9875 55.39375 80.64375 54.95625Q80.31563 54.51875 79.69063 54.253124Q79.08125 53.9875 78.31563 53.9875Q77.40938 53.9875 76.7375 54.26875Q76.08125 54.55 75.675 55.003124Q75.26875 55.440624 75.05 55.9875Q74.65938 56.925 74.65938 58.003124Q74.65938 59.346874 75.1125 60.253124Q75.58125 61.14375 76.45625 61.58125Q77.34688 62.01875 78.34688 62.01875Q79.20625 62.01875 80.01875 61.690624Q80.84688 61.3625 81.26875 60.9875L81.26875 59.1125L78.31563 59.1125ZM83.6125 63.05L87.4875 57.83125L84.06563 53.034374L85.64375 53.034374L87.47188 55.596874Q88.03438 56.39375 88.26875 56.83125Q88.6125 56.284374 89.06563 55.690624L91.08125 53.034374L92.51875 53.034374L89.00313 57.753124L92.8 63.05L91.15938 63.05L88.64375 59.471874Q88.425 59.159374 88.20625 58.8Q87.8625 59.346874 87.72188 59.55L85.20625 63.05L83.6125 63.05ZM96.22188 58.175Q96.22188 55.675 97.56563 54.26875Q98.90938 52.846874 101.01875 52.846874Q102.40938 52.846874 103.51875 53.51875Q104.64375 54.175 105.22188 55.3625Q105.81563 56.55 105.81563 58.05Q105.81563 59.58125 105.19063 60.784374Q104.58125 61.9875 103.45625 62.6125Q102.33125 63.221874 101.01875 63.221874Q99.59688 63.221874 98.4875 62.534374Q97.37813 61.846874 96.8 60.675Q96.22188 59.4875 96.22188 58.175ZM97.59688 58.190624Q97.59688 60.003124 98.56563 61.05Q99.55 62.08125 101.01875 62.08125Q102.50313 62.08125 103.47188 61.034374Q104.44063 59.9875 104.44063 58.05Q104.44063 56.815624 104.01875 55.909374Q103.6125 55.003124 102.81563 54.503124Q102.01875 53.9875 101.03438 53.9875Q99.62813 53.9875 98.6125 54.95625Q97.59688 55.925 97.59688 58.190624ZM107.45625 63.05L107.45625 55.784374L108.56563 55.784374L108.56563 56.89375Q108.9875 56.1125 109.34688 55.878124Q109.70625 55.628124 110.14375 55.628124Q110.76875 55.628124 111.40938 56.01875L110.9875 57.159374Q110.53438 56.89375 110.08125 56.89375Q109.675 56.89375 109.34688 57.14375Q109.03438 57.378124 108.89375 57.815624Q108.69063 58.471874 108.69063 59.253124L108.69063 63.05L107.45625 63.05ZM112.4875 54.440624L112.4875 53.034374L113.70625 53.034374L113.70625 54.440624L112.4875 54.440624ZM112.4875 63.05L112.4875 55.784374L113.70625 55.784374L113.70625 63.05L112.4875 63.05ZM115.47188 63.05L115.47188 55.784374L116.58125 55.784374L116.58125 56.815624Q117.37813 55.628124 118.89375 55.628124Q119.55 55.628124 120.09688 55.8625Q120.64375 56.096874 120.90938 56.4875Q121.19063 56.8625 121.3 57.39375Q121.37813 57.7375 121.37813 58.58125L121.37813 63.05L120.14375 63.05L120.14375 58.628124Q120.14375 57.878124 120.00313 57.51875Q119.8625 57.14375 119.4875 56.925Q119.12813 56.690624 118.62813 56.690624Q117.84688 56.690624 117.26875 57.190624Q116.70625 57.690624 116.70625 59.08125L116.70625 63.05L115.47188 63.05ZM123.8 63.05L123.8 61.64375L125.19063 61.64375L125.19063 63.05Q125.19063 63.815624 124.90938 64.28438Q124.64375 64.76875 124.05 65.03438L123.70625 64.50313Q124.09688 64.33125 124.28438 64.00313Q124.47188 63.675 124.4875 63.05L123.8 63.05ZM133.37813 63.05L130.72188 53.034374L132.08125 53.034374L133.6125 59.596874Q133.84688 60.628124 134.03438 61.64375Q134.40938 60.034374 134.4875 59.8L136.39375 53.034374L137.9875 53.034374L139.425 58.096874Q139.95625 59.9875 140.20625 61.64375Q140.39375 60.690624 140.70625 59.471874L142.26875 53.034374L143.6125 53.034374L140.8625 63.05L139.58125 63.05L137.47188 55.409374Q137.20625 54.45625 137.15938 54.2375Q137.00313 54.925 136.8625 55.409374L134.7375 63.05L133.37813 63.05ZM148.08125 63.05L148.08125 60.64375L143.72188 60.64375L143.72188 59.51875L148.3 53.034374L149.3 53.034374L149.3 59.51875L150.65938 59.51875L150.65938 60.64375L149.3 60.64375L149.3 63.05L148.08125 63.05ZM148.08125 59.51875L148.08125 55.003124L144.94063 59.51875L148.08125 59.51875ZM151.53438 63.05L155.37813 53.034374L156.8 53.034374L160.90938 63.05L159.39375 63.05L158.22188 60.01875L154.03438 60.01875L152.94063 63.05L151.53438 63.05ZM154.425 58.940624L157.81563 58.940624L156.76875 56.159374Q156.3 54.89375 156.06563 54.08125Q155.87813 55.05 155.51875 55.9875L154.425 58.940624ZM165.76875 63.05L164.53438 63.05L164.53438 55.20625Q164.09688 55.628124 163.3625 56.065624Q162.64375 56.4875 162.08125 56.690624L162.08125 55.503124Q163.1125 55.01875 163.87813 54.33125Q164.65938 53.64375 164.97188 52.9875L165.76875 52.9875L165.76875 63.05ZM175.51875 55.4875L174.3 55.58125Q174.12813 54.846874 173.83125 54.51875Q173.33125 54.003124 172.59688 54.003124Q172.00313 54.003124 171.56563 54.33125Q170.9875 54.753124 170.64375 55.565624Q170.31563 56.378124 170.3 57.878124Q170.7375 57.20625 171.37813 56.878124Q172.03438 56.55 172.7375 56.55Q173.97188 56.55 174.83125 57.45625Q175.69063 58.3625 175.69063 59.8Q175.69063 60.7375 175.28438 61.55Q174.87813 62.3625 174.15938 62.8Q173.45625 63.221874 172.55 63.221874Q171.01875 63.221874 170.05 62.096874Q169.08125 60.95625 169.08125 58.3625Q169.08125 55.45625 170.14375 54.128124Q171.08125 52.9875 172.675 52.9875Q173.8625 52.9875 174.6125 53.659374Q175.3625 54.315624 175.51875 55.4875ZM170.4875 59.8Q170.4875 60.440624 170.75313 61.01875Q171.03438 61.596874 171.51875 61.909374Q172.00313 62.20625 172.53438 62.20625Q173.31563 62.20625 173.87813 61.58125Q174.44063 60.95625 174.44063 59.878124Q174.44063 58.83125 173.87813 58.2375Q173.33125 57.628124 172.4875 57.628124Q171.65938 57.628124 171.06563 58.2375Q170.4875 58.83125 170.4875 59.8ZM189.22188 61.971874Q190.14375 62.6125 190.925 62.909374L190.53438 63.83125Q189.45625 63.440624 188.37813 62.596874Q187.26875 63.221874 185.925 63.221874Q184.56563 63.221874 183.45625 62.565624Q182.34688 61.909374 181.75313 60.721874Q181.15938 59.534374 181.15938 58.034374Q181.15938 56.55 181.75313 55.346874Q182.3625 54.128124 183.47188 53.4875Q184.58125 52.846874 185.95625 52.846874Q187.33125 52.846874 188.44063 53.51875Q189.56563 54.175 190.14375 55.3625Q190.7375 56.534374 190.7375 58.034374Q190.7375 59.26875 190.3625 60.253124Q189.9875 61.2375 189.22188 61.971874ZM186.3 60.284374Q187.45625 60.596874 188.20625 61.2375Q189.3625 60.175 189.3625 58.034374Q189.3625 56.815624 188.94063 55.909374Q188.53438 55.003124 187.7375 54.503124Q186.95625 53.9875 185.95625 53.9875Q184.47188 53.9875 183.4875 55.003124Q182.51875 56.01875 182.51875 58.034374Q182.51875 59.9875 183.4875 61.034374Q184.45625 62.08125 185.95625 62.08125Q186.675 62.08125 187.3 61.815624Q186.675 61.409374 185.9875 61.2375L186.3 60.284374ZM197.2375 63.05L197.2375 61.9875Q196.37813 63.221874 194.925 63.221874Q194.28438 63.221874 193.72188 62.971874Q193.175 62.721874 192.89375 62.346874Q192.62813 61.971874 192.51875 61.440624Q192.44063 61.08125 192.44063 60.284374L192.44063 55.784374L193.675 55.784374L193.675 59.815624Q193.675 60.784374 193.75313 61.1125Q193.8625 61.596874 194.2375 61.878124Q194.6125 62.159374 195.175 62.159374Q195.72188 62.159374 196.20625 61.878124Q196.69063 61.58125 196.89375 61.096874Q197.09688 60.6125 197.09688 59.675L197.09688 55.784374L198.33125 55.784374L198.33125 63.05L197.2375 63.05ZM205.20625 62.159374Q204.53438 62.7375 203.89375 62.9875Q203.26875 63.221874 202.53438 63.221874Q201.34688 63.221874 200.69063 62.64375Q200.05 62.05 200.05 61.128124Q200.05 60.596874 200.28438 60.159374Q200.53438 59.721874 200.925 59.45625Q201.33125 59.190624 201.81563 59.05Q202.175 58.95625 202.90938 58.8625Q204.40938 58.690624 205.1125 58.440624Q205.1125 58.190624 205.1125 58.128124Q205.1125 57.3625 204.76875 57.065624Q204.3 56.64375 203.3625 56.64375Q202.50313 56.64375 202.08125 56.95625Q201.675 57.253124 201.47188 58.01875L200.26875 57.8625Q200.425 57.08125 200.8 56.6125Q201.19063 56.14375 201.89375 55.89375Q202.6125 55.628124 203.55 55.628124Q204.47188 55.628124 205.05 55.846874Q205.62813 56.065624 205.89375 56.39375Q206.175 56.721874 206.28438 57.2375Q206.34688 57.55 206.34688 58.3625L206.34688 60.003124Q206.34688 61.721874 206.425 62.175Q206.50313 62.628124 206.7375 63.05L205.45625 63.05Q205.26875 62.659374 205.20625 62.159374ZM205.1125 59.409374Q204.44063 59.675 203.09688 59.878124Q202.34688 59.9875 202.01875 60.128124Q201.70625 60.253124 201.53438 60.51875Q201.3625 60.784374 201.3625 61.096874Q201.3625 61.596874 201.7375 61.925Q202.1125 62.253124 202.83125 62.253124Q203.55 62.253124 204.09688 61.940624Q204.64375 61.628124 204.90938 61.08125Q205.1125 60.675 205.1125 59.8625L205.1125 59.409374ZM208.47188 63.05L208.47188 55.784374L209.58125 55.784374L209.58125 56.815624Q210.37813 55.628124 211.89375 55.628124Q212.55 55.628124 213.09688 55.8625Q213.64375 56.096874 213.90938 56.4875Q214.19063 56.8625 214.3 57.39375Q214.37813 57.7375 214.37813 58.58125L214.37813 63.05L213.14375 63.05L213.14375 58.628124Q213.14375 57.878124 213.00313 57.51875Q212.8625 57.14375 212.4875 56.925Q212.12813 56.690624 211.62813 56.690624Q210.84688 56.690624 210.26875 57.190624Q209.70625 57.690624 209.70625 59.08125L209.70625 63.05L208.47188 63.05ZM219.15938 61.95625L219.33125 63.034374Q218.81563 63.14375 218.40938 63.14375Q217.7375 63.14375 217.3625 62.940624Q217.00313 62.721874 216.84688 62.378124Q216.70625 62.034374 216.70625 60.925L216.70625 56.753124L215.8 56.753124L215.8 55.784374L216.70625 55.784374L216.70625 53.9875L217.925 53.253124L217.925 55.784374L219.15938 55.784374L219.15938 56.753124L217.925 56.753124L217.925 60.9875Q217.925 61.51875 217.9875 61.675Q218.05 61.815624 218.19063 61.909374Q218.34688 62.003124 218.6125 62.003124Q218.83125 62.003124 219.15938 61.95625ZM220.4875 54.440624L220.4875 53.034374L221.70625 53.034374L221.70625 54.440624L220.4875 54.440624ZM220.4875 63.05L220.4875 55.784374L221.70625 55.784374L221.70625 63.05L220.4875 63.05ZM222.83125 63.05L222.83125 62.05L227.44063 56.753124Q226.65938 56.784374 226.05 56.784374L223.09688 56.784374L223.09688 55.784374L229.03438 55.784374L229.03438 56.596874L225.09688 61.20625L224.34688 62.05Q225.175 61.9875 225.89375 61.9875L229.25313 61.9875L229.25313 63.05L222.83125 63.05ZM234.20625 62.159374Q233.53438 62.7375 232.89375 62.9875Q232.26875 63.221874 231.53438 63.221874Q230.34688 63.221874 229.69063 62.64375Q229.05 62.05 229.05 61.128124Q229.05 60.596874 229.28438 60.159374Q229.53438 59.721874 229.925 59.45625Q230.33125 59.190624 230.81563 59.05Q231.175 58.95625 231.90938 58.8625Q233.40938 58.690624 234.1125 58.440624Q234.1125 58.190624 234.1125 58.128124Q234.1125 57.3625 233.76875 57.065624Q233.3 56.64375 232.3625 56.64375Q231.50313 56.64375 231.08125 56.95625Q230.675 57.253124 230.47188 58.01875L229.26875 57.8625Q229.425 57.08125 229.8 56.6125Q230.19063 56.14375 230.89375 55.89375Q231.6125 55.628124 232.55 55.628124Q233.47188 55.628124 234.05 55.846874Q234.62813 56.065624 234.89375 56.39375Q235.175 56.721874 235.28438 57.2375Q235.34688 57.55 235.34688 58.3625L235.34688 60.003124Q235.34688 61.721874 235.425 62.175Q235.50313 62.628124 235.7375 63.05L234.45625 63.05Q234.26875 62.659374 234.20625 62.159374ZM234.1125 59.409374Q233.44063 59.675 232.09688 59.878124Q231.34688 59.9875 231.01875 60.128124Q230.70625 60.253124 230.53438 60.51875Q230.3625 60.784374 230.3625 61.096874Q230.3625 61.596874 230.7375 61.925Q231.1125 62.253124 231.83125 62.253124Q232.55 62.253124 233.09688 61.940624Q233.64375 61.628124 233.90938 61.08125Q234.1125 60.675 234.1125 59.8625L234.1125 59.409374ZM240.15938 61.95625L240.33125 63.034374Q239.81563 63.14375 239.40938 63.14375Q238.7375 63.14375 238.3625 62.940624Q238.00313 62.721874 237.84688 62.378124Q237.70625 62.034374 237.70625 60.925L237.70625 56.753124L236.8 56.753124L236.8 55.784374L237.70625 55.784374L237.70625 53.9875L238.925 53.253124L238.925 55.784374L240.15938 55.784374L240.15938 56.753124L238.925 56.753124L238.925 60.9875Q238.925 61.51875 238.9875 61.675Q239.05 61.815624 239.19063 61.909374Q239.34688 62.003124 239.6125 62.003124Q239.83125 62.003124 240.15938 61.95625ZM241.4875 54.440624L241.4875 53.034374L242.70625 53.034374L242.70625 54.440624L241.4875 54.440624ZM241.4875 63.05L241.4875 55.784374L242.70625 55.784374L242.70625 63.05L241.4875 63.05ZM244.01875 59.425Q244.01875 57.409374 245.14375 56.425Q246.06563 55.628124 247.425 55.628124Q248.90938 55.628124 249.8625 56.6125Q250.81563 57.58125 250.81563 59.315624Q250.81563 60.721874 250.39375 61.534374Q249.97188 62.33125 249.15938 62.784374Q248.3625 63.221874 247.425 63.221874Q245.89375 63.221874 244.95625 62.2375Q244.01875 61.253124 244.01875 59.425ZM245.28438 59.425Q245.28438 60.815624 245.89375 61.51875Q246.50313 62.20625 247.425 62.20625Q248.33125 62.20625 248.94063 61.503124Q249.55 60.8 249.55 59.378124Q249.55 58.034374 248.94063 57.346874Q248.33125 56.64375 247.425 56.64375Q246.50313 56.64375 245.89375 57.33125Q245.28438 58.01875 245.28438 59.425ZM252.47188 63.05L252.47188 55.784374L253.58125 55.784374L253.58125 56.815624Q254.37813 55.628124 255.89375 55.628124Q256.55 55.628124 257.09686 55.8625Q257.64374 56.096874 257.90936 56.4875Q258.1906 56.8625 258.3 57.39375Q258.3781 57.7375 258.3781 58.58125L258.3781 63.05L257.14374 63.05L257.14374 58.628124Q257.14374 57.878124 257.0031 57.51875Q256.8625 57.14375 256.4875 56.925Q256.1281 56.690624 255.62813 56.690624Q254.84688 56.690624 254.26875 57.190624Q253.70625 57.690624 253.70625 59.08125L253.70625 63.05L252.47188 63.05Z" fill-rule="nonzero"/><path fill="#909ea5" d="M24.190624 37.55L18.64375 23.2375L20.690624 23.2375L24.409374 33.628124Q24.8625 34.878124 25.159374 35.971874Q25.4875 34.8 25.940624 33.628124L29.8 23.2375L31.7375 23.2375L26.128124 37.55L24.190624 37.55ZM33.01875 37.55L33.01875 23.2375L34.909374 23.2375L34.909374 35.8625L41.95625 35.8625L41.95625 37.55L33.01875 37.55ZM44.034374 37.55L44.034374 23.2375L46.89375 23.2375L50.26875 33.3625Q50.7375 34.784374 50.95625 35.4875Q51.20625 34.70625 51.721874 33.190624L55.14375 23.2375L57.690624 23.2375L57.690624 37.55L55.878124 37.55L55.878124 25.565624L51.70625 37.55L50.003124 37.55L45.8625 25.3625L45.8625 37.55L44.034374 37.55ZM70.7375 37.55L70.7375 24.925L66.01875 24.925L66.01875 23.2375L77.3625 23.2375L77.3625 24.925L72.62813 24.925L72.62813 37.55L70.7375 37.55ZM85.97188 34.20625L87.78438 34.440624Q87.3625 36.01875 86.19063 36.909374Q85.03438 37.784374 83.22188 37.784374Q80.95625 37.784374 79.6125 36.39375Q78.28438 34.9875 78.28438 32.45625Q78.28438 29.83125 79.62813 28.39375Q80.97188 26.940624 83.12813 26.940624Q85.20625 26.940624 86.51875 28.3625Q87.84688 29.76875 87.84688 32.346874Q87.84688 32.503124 87.83125 32.815624L80.09688 32.815624Q80.19063 34.51875 81.06563 35.425Q81.94063 36.33125 83.2375 36.33125Q84.20625 36.33125 84.87813 35.83125Q85.56563 35.315624 85.97188 34.20625ZM80.19063 31.3625L85.9875 31.3625Q85.87813 30.065624 85.33125 29.409374Q84.4875 28.39375 83.14375 28.39375Q81.94063 28.39375 81.1125 29.20625Q80.28438 30.003124 80.19063 31.3625ZM88.69063 37.55L92.4875 32.159374L88.9875 27.175L91.175 27.175L92.76875 29.6125Q93.22188 30.3 93.4875 30.76875Q93.925 30.128124 94.28438 29.628124L96.03438 27.175L98.12813 27.175L94.55 32.065624L98.40938 37.55L96.25313 37.55L94.1125 34.33125L93.55 33.45625L90.83125 37.55L88.69063 37.55ZM102.70625 35.971874L102.95625 37.534374Q102.22188 37.690624 101.62813 37.690624Q100.675 37.690624 100.14375 37.39375Q99.62813 37.08125 99.40938 36.596874Q99.19063 36.096874 99.19063 34.51875L99.19063 28.55L97.90938 28.55L97.90938 27.175L99.19063 27.175L99.19063 24.6125L100.94063 23.55L100.94063 27.175L102.70625 27.175L102.70625 28.55L100.94063 28.55L100.94063 34.6125Q100.94063 35.3625 101.03438 35.58125Q101.12813 35.784374 101.33125 35.925Q101.55 36.05 101.94063 36.05Q102.22188 36.05 102.70625 35.971874ZM117.8 31.940624L117.8 30.253124L123.8625 30.2375L123.8625 35.55Q122.45625 36.675 120.97188 37.2375Q119.4875 37.8 117.925 37.8Q115.81563 37.8 114.09688 36.89375Q112.37813 35.9875 111.4875 34.284374Q110.6125 32.565624 110.6125 30.45625Q110.6125 28.3625 111.4875 26.565624Q112.3625 24.753124 114.00313 23.878124Q115.64375 22.9875 117.78438 22.9875Q119.33125 22.9875 120.58125 23.4875Q121.84688 23.9875 122.55 24.89375Q123.26875 25.784374 123.64375 27.2375L121.94063 27.70625Q121.6125 26.6125 121.12813 25.9875Q120.65938 25.3625 119.76875 24.9875Q118.87813 24.6125 117.8 24.6125Q116.4875 24.6125 115.53438 25.003124Q114.59688 25.39375 114.01875 26.05Q113.44063 26.690624 113.1125 27.45625Q112.56563 28.784374 112.56563 30.346874Q112.56563 32.253124 113.22188 33.55Q113.89375 34.83125 115.14375 35.45625Q116.40938 36.08125 117.81563 36.08125Q119.05 36.08125 120.22188 35.6125Q121.39375 35.14375 122.00313 34.596874L122.00313 31.940624L117.8 31.940624ZM133.97188 34.20625L135.78438 34.440624Q135.3625 36.01875 134.19063 36.909374Q133.03438 37.784374 131.22188 37.784374Q128.95625 37.784374 127.6125 36.39375Q126.28438 34.9875 126.28438 32.45625Q126.28438 29.83125 127.62813 28.39375Q128.97188 26.940624 131.12813 26.940624Q133.20625 26.940624 134.51875 28.3625Q135.84688 29.76875 135.84688 32.346874Q135.84688 32.503124 135.83125 32.815624L128.09688 32.815624Q128.19063 34.51875 129.06563 35.425Q129.94063 36.33125 131.2375 36.33125Q132.20625 36.33125 132.87813 35.83125Q133.56563 35.315624 133.97188 34.20625ZM128.19063 31.3625L133.9875 31.3625Q133.87813 30.065624 133.33125 29.409374Q132.4875 28.39375 131.14375 28.39375Q129.94063 28.39375 129.1125 29.20625Q128.28438 30.003124 128.19063 31.3625ZM137.8625 37.55L137.8625 27.175L139.45625 27.175L139.45625 28.659374Q140.59688 26.940624 142.75313 26.940624Q143.69063 26.940624 144.47188 27.284374Q145.26875 27.6125 145.65938 28.159374Q146.05 28.70625 146.20625 29.45625Q146.3 29.95625 146.3 31.175L146.3 37.55L144.53438 37.55L144.53438 31.2375Q144.53438 30.159374 144.33125 29.628124Q144.12813 29.096874 143.59688 28.784374Q143.08125 28.471874 142.37813 28.471874Q141.25313 28.471874 140.44063 29.190624Q139.62813 29.89375 139.62813 31.878124L139.62813 37.55L137.8625 37.55ZM154.97188 34.20625L156.78438 34.440624Q156.3625 36.01875 155.19063 36.909374Q154.03438 37.784374 152.22188 37.784374Q149.95625 37.784374 148.6125 36.39375Q147.28438 34.9875 147.28438 32.45625Q147.28438 29.83125 148.62813 28.39375Q149.97188 26.940624 152.12813 26.940624Q154.20625 26.940624 155.51875 28.3625Q156.84688 29.76875 156.84688 32.346874Q156.84688 32.503124 156.83125 32.815624L149.09688 32.815624Q149.19063 34.51875 150.06563 35.425Q150.94063 36.33125 152.2375 36.33125Q153.20625 36.33125 153.87813 35.83125Q154.56563 35.315624 154.97188 34.20625ZM149.19063 31.3625L154.9875 31.3625Q154.87813 30.065624 154.33125 29.409374Q153.4875 28.39375 152.14375 28.39375Q150.94063 28.39375 150.1125 29.20625Q149.28438 30.003124 149.19063 31.3625ZM158.84688 37.55L158.84688 27.175L160.425 27.175L160.425 28.753124Q161.03438 27.64375 161.55 27.3Q162.06563 26.940624 162.675 26.940624Q163.56563 26.940624 164.4875 27.503124L163.87813 29.14375Q163.2375 28.753124 162.59688 28.753124Q162.01875 28.753124 161.55 29.1125Q161.09688 29.45625 160.89375 30.065624Q160.6125 31.003124 160.6125 32.1125L160.6125 37.55L158.84688 37.55ZM172.64375 36.26875Q171.65938 37.096874 170.75313 37.440624Q169.84688 37.784374 168.81563 37.784374Q167.1125 37.784374 166.19063 36.95625Q165.26875 36.1125 165.26875 34.815624Q165.26875 34.05 165.6125 33.425Q165.97188 32.8 166.53438 32.425Q167.09688 32.034374 167.8 31.83125Q168.31563 31.70625 169.3625 31.565624Q171.4875 31.315624 172.4875 30.971874Q172.50313 30.6125 172.50313 30.503124Q172.50313 29.440624 172.00313 28.9875Q171.33125 28.39375 170.00313 28.39375Q168.75313 28.39375 168.15938 28.83125Q167.58125 29.26875 167.3 30.378124L165.58125 30.14375Q165.81563 29.034374 166.34688 28.3625Q166.87813 27.675 167.89375 27.315624Q168.90938 26.940624 170.25313 26.940624Q171.58125 26.940624 172.40938 27.253124Q173.2375 27.565624 173.62813 28.05Q174.01875 28.51875 174.175 29.2375Q174.26875 29.690624 174.26875 30.8625L174.26875 33.20625Q174.26875 35.659374 174.37813 36.315624Q174.4875 36.95625 174.83125 37.55L172.9875 37.55Q172.72188 37.003124 172.64375 36.26875ZM172.4875 32.346874Q171.53438 32.7375 169.6125 33.003124Q168.53438 33.159374 168.08125 33.3625Q167.64375 33.55 167.39375 33.925Q167.14375 34.3 167.14375 34.76875Q167.14375 35.471874 167.675 35.940624Q168.20625 36.409374 169.2375 36.409374Q170.25313 36.409374 171.03438 35.971874Q171.83125 35.51875 172.20625 34.753124Q172.4875 34.14375 172.4875 32.9875L172.4875 32.346874ZM180.70625 35.971874L180.95625 37.534374Q180.22188 37.690624 179.62813 37.690624Q178.675 37.690624 178.14375 37.39375Q177.62813 37.08125 177.40938 36.596874Q177.19063 36.096874 177.19063 34.51875L177.19063 28.55L175.90938 28.55L175.90938 27.175L177.19063 27.175L177.19063 24.6125L178.94063 23.55L178.94063 27.175L180.70625 27.175L180.70625 28.55L178.94063 28.55L178.94063 34.6125Q178.94063 35.3625 179.03438 35.58125Q179.12813 35.784374 179.33125 35.925Q179.55 36.05 179.94063 36.05Q180.22188 36.05 180.70625 35.971874ZM182.87813 25.253124L182.87813 23.2375L184.64375 23.2375L184.64375 25.253124L182.87813 25.253124ZM182.87813 37.55L182.87813 27.175L184.64375 27.175L184.64375 37.55L182.87813 37.55ZM186.22188 32.3625Q186.22188 29.4875 187.81563 28.096874Q189.15938 26.940624 191.08125 26.940624Q193.22188 26.940624 194.56563 28.346874Q195.925 29.753124 195.925 32.221874Q195.925 34.221874 195.33125 35.378124Q194.7375 36.51875 193.58125 37.159374Q192.44063 37.784374 191.08125 37.784374Q188.89375 37.784374 187.55 36.39375Q186.22188 34.9875 186.22188 32.3625ZM188.01875 32.3625Q188.01875 34.3625 188.87813 35.346874Q189.75313 36.33125 191.08125 36.33125Q192.39375 36.33125 193.25313 35.346874Q194.12813 34.346874 194.12813 32.3Q194.12813 30.378124 193.25313 29.39375Q192.37813 28.39375 191.08125 28.39375Q189.75313 28.39375 188.87813 29.39375Q188.01875 30.378124 188.01875 32.3625ZM197.8625 37.55L197.8625 27.175L199.45625 27.175L199.45625 28.659374Q200.59688 26.940624 202.75313 26.940624Q203.69063 26.940624 204.47188 27.284374Q205.26875 27.6125 205.65938 28.159374Q206.05 28.70625 206.20625 29.45625Q206.3 29.95625 206.3 31.175L206.3 37.55L204.53438 37.55L204.53438 31.2375Q204.53438 30.159374 204.33125 29.628124Q204.12813 29.096874 203.59688 28.784374Q203.08125 28.471874 202.37813 28.471874Q201.25313 28.471874 200.44063 29.190624Q199.62813 29.89375 199.62813 31.878124L199.62813 37.55L197.8625 37.55Z" fill-rule="nonzero"/></svg>