<svg version="1.1" viewBox="0.0 0.0 600.0 371.0" fill="none" stroke="none" stroke-linecap="square" stroke-miterlimit="10" width="600" height="371" xmlns:xlink="http://www.w3.org/1999/xlink" xmlns="http://www.w3.org/2000/svg"><path fill="#ffffff" d="M0 0L600.0 0L600.0 371.0L0 371.0L0 0Z" fill-rule="nonzero"/><path stroke="#333333" stroke-width="1.0" stroke-linecap="butt" d="M77.5 332.5L581.5 332.5" fill-rule="nonzero"/><path stroke="#cccccc" stroke-width="1.0" stroke-linecap="butt" d="M77.5 270.5L581.5 270.5" fill-rule="nonzero"/><path stroke="#cccccc" stroke-width="1.0" stroke-linecap="butt" d="M77.5 208.5L581.5 208.5" fill-rule="nonzero"/><path stroke="#cccccc" stroke-width="1.0" stroke-linecap="butt" d="M77.5 147.5L581.5 147.5" fill-rule="nonzero"/><path stroke="#cccccc" stroke-width="1.0" stroke-linecap="butt" d="M77.5 85.5L581.5 85.5" fill-rule="nonzero"/><clipPath id="id_0"><path d="M77.55 85.416664L581.45 85.416664L581.45 332.45L77.55 332.45L77.55 85.416664Z" clip-rule="nonzero"/></clipPath><path stroke="#000000" stroke-width="2.0" stroke-linecap="butt" stroke-opacity="0.0" clip-path="url(#id_0)" d="M172.0 332.0L111.0 332.0L111.0 101.0C111.0 99.89543 111.89543 99.0 113.0 99.0L170.0 99.0C171.10457 99.0 172.0 99.89543 172.0 101.0Z" fill-rule="nonzero"/><path fill="#76b900" clip-path="url(#id_0)" d="M172.0 332.0L111.0 332.0L111.0 101.0C111.0 99.89543 111.89543 99.0 113.0 99.0L170.0 99.0C171.10457 99.0 172.0 99.89543 172.0 101.0Z" fill-rule="nonzero"/><path stroke="#000000" stroke-width="2.0" stroke-linecap="butt" stroke-opacity="0.0" clip-path="url(#id_0)" d="M266.0 332.0L205.0 332.0L205.0 179.0C205.0 177.89543 205.89543 177.0 207.0 177.0L264.0 177.0C265.10458 177.0 266.0 177.89543 266.0 179.0Z" fill-rule="nonzero"/><path fill="#76b900" clip-path="url(#id_0)" d="M266.0 332.0L205.0 332.0L205.0 179.0C205.0 177.89543 205.89543 177.0 207.0 177.0L264.0 177.0C265.10458 177.0 266.0 177.89543 266.0 179.0Z" fill-rule="nonzero"/><path stroke="#000000" stroke-width="2.0" stroke-linecap="butt" stroke-opacity="0.0" clip-path="url(#id_0)" d="M361.0 332.0L300.0 332.0L300.0 290.0C300.0 288.89542 300.89542 288.0 302.0 288.0L359.0 288.0C360.10458 288.0 361.0 288.89542 361.0 290.0Z" fill-rule="nonzero"/><path fill="#76b900" clip-path="url(#id_0)" d="M361.0 332.0L300.0 332.0L300.0 290.0C300.0 288.89542 300.89542 288.0 302.0 288.0L359.0 288.0C360.10458 288.0 361.0 288.89542 361.0 290.0Z" fill-rule="nonzero"/><path stroke="#000000" stroke-width="2.0" stroke-linecap="butt" stroke-opacity="0.0" clip-path="url(#id_0)" d="M455.0 332.0L394.0 332.0L394.0 308.0C394.0 306.89542 394.89542 306.0 396.0 306.0L453.0 306.0C454.10458 306.0 455.0 306.89542 455.0 308.0Z" fill-rule="nonzero"/><path fill="#76b900" clip-path="url(#id_0)" d="M455.0 332.0L394.0 332.0L394.0 308.0C394.0 306.89542 394.89542 306.0 396.0 306.0L453.0 306.0C454.10458 306.0 455.0 306.89542 455.0 308.0Z" fill-rule="nonzero"/><path stroke="#000000" stroke-width="2.0" stroke-linecap="butt" stroke-opacity="0.0" clip-path="url(#id_0)" d="M549.0 332.0L488.0 332.0L488.0 246.0C488.0 244.89543 488.89542 244.0 490.0 244.0L547.0 244.0C548.10455 244.0 549.0 244.89543 549.0 246.0Z" fill-rule="nonzero"/><path fill="#76b900" clip-path="url(#id_0)" d="M549.0 332.0L488.0 332.0L488.0 246.0C488.0 244.89543 488.89542 244.0 490.0 244.0L547.0 244.0C548.10455 244.0 549.0 244.89543 549.0 246.0Z" fill-rule="nonzero"/><path stroke="#76b900" stroke-width="3.0" stroke-linejoin="round" stroke-linecap="round" d="M135.21875 107.57283L131.6875 115.494705L130.54688 115.494705L134.0625 107.85408L129.45312 107.85408L129.45312 106.963455L135.21875 106.963455L135.21875 107.57283ZM136.84375 114.932205Q136.84375 114.650955 137.0 114.463455Q137.17188 114.275955 137.5 114.275955Q137.84375 114.275955 138.01562 114.463455Q138.1875 114.650955 138.1875 114.932205Q138.1875 115.19783 138.01562 115.38533Q137.84375 115.557205 137.5 115.557205Q137.17188 115.557205 137.0 115.38533Q136.84375 115.19783 136.84375 114.932205ZM140.20312 111.213455L140.64062 106.963455L145.01562 106.963455L145.01562 107.963455L141.5625 107.963455L141.29688 110.29158Q141.9375 109.91658 142.73438 109.91658Q143.89062 109.91658 144.57812 110.69783Q145.26562 111.463455 145.26562 112.775955Q145.26562 114.088455 144.54688 114.85408Q143.84375 115.619705 142.5625 115.619705Q141.4375 115.619705 140.71875 114.994705Q140.0 114.35408 139.90625 113.244705L140.92188 113.244705Q141.03125 113.97908 141.45312 114.35408Q141.875 114.72908 142.5625 114.72908Q143.3125 114.72908 143.75 114.213455Q144.1875 113.69783 144.1875 112.79158Q144.1875 111.932205 143.71875 111.41658Q143.25 110.900955 142.46875 110.900955Q141.76562 110.900955 141.35938 111.19783L141.07812 111.432205L140.20312 111.213455ZM152.21875 107.57283L148.6875 115.494705L147.54688 115.494705L151.0625 107.85408L146.45312 107.85408L146.45312 106.963455L152.21875 106.963455L152.21875 107.57283Z" fill-rule="nonzero"/><path fill="#ffffff" d="M135.21875 107.57283L131.6875 115.494705L130.54688 115.494705L134.0625 107.85408L129.45312 107.85408L129.45312 106.963455L135.21875 106.963455L135.21875 107.57283ZM136.84375 114.932205Q136.84375 114.650955 137.0 114.463455Q137.17188 114.275955 137.5 114.275955Q137.84375 114.275955 138.01562 114.463455Q138.1875 114.650955 138.1875 114.932205Q138.1875 115.19783 138.01562 115.38533Q137.84375 115.557205 137.5 115.557205Q137.17188 115.557205 137.0 115.38533Q136.84375 115.19783 136.84375 114.932205ZM140.20312 111.213455L140.64062 106.963455L145.01562 106.963455L145.01562 107.963455L141.5625 107.963455L141.29688 110.29158Q141.9375 109.91658 142.73438 109.91658Q143.89062 109.91658 144.57812 110.69783Q145.26562 111.463455 145.26562 112.775955Q145.26562 114.088455 144.54688 114.85408Q143.84375 115.619705 142.5625 115.619705Q141.4375 115.619705 140.71875 114.994705Q140.0 114.35408 139.90625 113.244705L140.92188 113.244705Q141.03125 113.97908 141.45312 114.35408Q141.875 114.72908 142.5625 114.72908Q143.3125 114.72908 143.75 114.213455Q144.1875 113.69783 144.1875 112.79158Q144.1875 111.932205 143.71875 111.41658Q143.25 110.900955 142.46875 110.900955Q141.76562 110.900955 141.35938 111.19783L141.07812 111.432205L140.20312 111.213455ZM152.21875 107.57283L148.6875 115.494705L147.54688 115.494705L151.0625 107.85408L146.45312 107.85408L146.45312 106.963455L152.21875 106.963455L152.21875 107.57283Z" fill-rule="nonzero"/><path stroke="#76b900" stroke-width="3.0" stroke-linejoin="round" stroke-linecap="round" d="M224.20312 189.02896L224.64062 184.77896L229.01562 184.77896L229.01562 185.77896L225.5625 185.77896L225.29688 188.10709Q225.9375 187.73209 226.73438 187.73209Q227.89062 187.73209 228.57812 188.51334Q229.26562 189.27896 229.26562 190.59146Q229.26562 191.90396 228.54688 192.66959Q227.84375 193.43521 226.5625 193.43521Q225.4375 193.43521 224.71875 192.81021Q224.0 192.16959 223.90625 191.06021L224.92188 191.06021Q225.03125 191.79459 225.45312 192.16959Q225.875 192.54459 226.5625 192.54459Q227.3125 192.54459 227.75 192.02896Q228.1875 191.51334 228.1875 190.60709Q228.1875 189.74771 227.71875 189.23209Q227.25 188.71646 226.46875 188.71646Q225.76562 188.71646 225.35938 189.01334L225.07812 189.24771L224.20312 189.02896ZM230.84375 192.74771Q230.84375 192.46646 231.0 192.27896Q231.17188 192.09146 231.5 192.09146Q231.84375 192.09146 232.01562 192.27896Q232.1875 192.46646 232.1875 192.74771Q232.1875 193.01334 232.01562 193.20084Q231.84375 193.37271 231.5 193.37271Q231.17188 193.37271 231.0 193.20084Q230.84375 193.01334 230.84375 192.74771ZM239.0625 189.66959Q239.0625 191.57584 238.40625 192.51334Q237.76562 193.43521 236.375 193.43521Q235.01562 193.43521 234.35938 192.52896Q233.70312 191.62271 233.67188 189.81021L233.67188 188.37271Q233.67188 186.48209 234.3125 185.57584Q234.96875 184.65396 236.35938 184.65396Q237.73438 184.65396 238.39062 185.54459Q239.04688 186.41959 239.0625 188.26334L239.0625 189.66959ZM237.96875 188.18521Q237.96875 186.81021 237.57812 186.18521Q237.20312 185.54459 236.35938 185.54459Q235.53125 185.54459 235.14062 186.18521Q234.76562 186.81021 234.76562 188.10709L234.76562 189.84146Q234.76562 191.21646 235.15625 191.88834Q235.5625 192.54459 236.375 192.54459Q237.17188 192.54459 237.5625 191.91959Q237.95312 191.29459 237.96875 189.96646L237.96875 188.18521ZM241.20312 189.02896L241.64062 184.77896L246.01562 184.77896L246.01562 185.77896L242.5625 185.77896L242.29688 188.10709Q242.9375 187.73209 243.73438 187.73209Q244.89062 187.73209 245.57812 188.51334Q246.26562 189.27896 246.26562 190.59146Q246.26562 191.90396 245.54688 192.66959Q244.84375 193.43521 243.5625 193.43521Q242.4375 193.43521 241.71875 192.81021Q241.0 192.16959 240.90625 191.06021L241.92188 191.06021Q242.03125 191.79459 242.45312 192.16959Q242.875 192.54459 243.5625 192.54459Q244.3125 192.54459 244.75 192.02896Q245.1875 191.51334 245.1875 190.60709Q245.1875 189.74771 244.71875 189.23209Q244.25 188.71646 243.46875 188.71646Q242.76562 188.71646 242.35938 189.01334L242.07812 189.24771L241.20312 189.02896Z" fill-rule="nonzero"/><path fill="#ffffff" d="M224.20312 189.02896L224.64062 184.77896L229.01562 184.77896L229.01562 185.77896L225.5625 185.77896L225.29688 188.10709Q225.9375 187.73209 226.73438 187.73209Q227.89062 187.73209 228.57812 188.51334Q229.26562 189.27896 229.26562 190.59146Q229.26562 191.90396 228.54688 192.66959Q227.84375 193.43521 226.5625 193.43521Q225.4375 193.43521 224.71875 192.81021Q224.0 192.16959 223.90625 191.06021L224.92188 191.06021Q225.03125 191.79459 225.45312 192.16959Q225.875 192.54459 226.5625 192.54459Q227.3125 192.54459 227.75 192.02896Q228.1875 191.51334 228.1875 190.60709Q228.1875 189.74771 227.71875 189.23209Q227.25 188.71646 226.46875 188.71646Q225.76562 188.71646 225.35938 189.01334L225.07812 189.24771L224.20312 189.02896ZM230.84375 192.74771Q230.84375 192.46646 231.0 192.27896Q231.17188 192.09146 231.5 192.09146Q231.84375 192.09146 232.01562 192.27896Q232.1875 192.46646 232.1875 192.74771Q232.1875 193.01334 232.01562 193.20084Q231.84375 193.37271 231.5 193.37271Q231.17188 193.37271 231.0 193.20084Q230.84375 193.01334 230.84375 192.74771ZM239.0625 189.66959Q239.0625 191.57584 238.40625 192.51334Q237.76562 193.43521 236.375 193.43521Q235.01562 193.43521 234.35938 192.52896Q233.70312 191.62271 233.67188 189.81021L233.67188 188.37271Q233.67188 186.48209 234.3125 185.57584Q234.96875 184.65396 236.35938 184.65396Q237.73438 184.65396 238.39062 185.54459Q239.04688 186.41959 239.0625 188.26334L239.0625 189.66959ZM237.96875 188.18521Q237.96875 186.81021 237.57812 186.18521Q237.20312 185.54459 236.35938 185.54459Q235.53125 185.54459 235.14062 186.18521Q234.76562 186.81021 234.76562 188.10709L234.76562 189.84146Q234.76562 191.21646 235.15625 191.88834Q235.5625 192.54459 236.375 192.54459Q237.17188 192.54459 237.5625 191.91959Q237.95312 191.29459 237.96875 189.96646L237.96875 188.18521ZM241.20312 189.02896L241.64062 184.77896L246.01562 184.77896L246.01562 185.77896L242.5625 185.77896L242.29688 188.10709Q242.9375 187.73209 243.73438 187.73209Q244.89062 187.73209 245.57812 188.51334Q246.26562 189.27896 246.26562 190.59146Q246.26562 191.90396 245.54688 192.66959Q244.84375 193.43521 243.5625 193.43521Q242.4375 193.43521 241.71875 192.81021Q241.0 192.16959 240.90625 191.06021L241.92188 191.06021Q242.03125 191.79459 242.45312 192.16959Q242.875 192.54459 243.5625 192.54459Q244.3125 192.54459 244.75 192.02896Q245.1875 191.51334 245.1875 190.60709Q245.1875 189.74771 244.71875 189.23209Q244.25 188.71646 243.46875 188.71646Q242.76562 188.71646 242.35938 189.01334L242.07812 189.24771L241.20312 189.02896Z" fill-rule="nonzero"/><path stroke="#76b900" stroke-width="3.0" stroke-linejoin="round" stroke-linecap="round" d="M322.26562 305.0928L321.1875 305.0928L321.1875 297.87405L319.0 298.67093L319.0 297.68655L322.10938 296.51468L322.26562 296.51468L322.26562 305.0928ZM325.84375 304.5303Q325.84375 304.24905 326.0 304.06155Q326.17188 303.87405 326.5 303.87405Q326.84375 303.87405 327.01562 304.06155Q327.1875 304.24905 327.1875 304.5303Q327.1875 304.79593 327.01562 304.98343Q326.84375 305.1553 326.5 305.1553Q326.17188 305.1553 326.0 304.98343Q325.84375 304.79593 325.84375 304.5303ZM333.28125 302.23343L334.46875 302.23343L334.46875 303.10843L333.28125 303.10843L333.28125 305.0928L332.20312 305.0928L332.20312 303.10843L328.3125 303.10843L328.3125 302.4678L332.125 296.56155L333.28125 296.56155L333.28125 302.23343ZM329.54688 302.23343L332.20312 302.23343L332.20312 298.04593L332.0625 298.2803L329.54688 302.23343ZM337.28125 300.29593L338.09375 300.29593Q338.875 300.2803 339.3125 299.88968Q339.75 299.49905 339.75 298.82718Q339.75 297.32718 338.25 297.32718Q337.54688 297.32718 337.125 297.73343Q336.71875 298.13968 336.71875 298.79593L335.625 298.79593Q335.625 297.7803 336.35938 297.10843Q337.10938 296.43655 338.25 296.43655Q339.45312 296.43655 340.14062 297.07718Q340.82812 297.7178 340.82812 298.85843Q340.82812 299.42093 340.46875 299.93655Q340.10938 300.45218 339.48438 300.7178Q340.1875 300.93655 340.5625 301.45218Q340.95312 301.9678 340.95312 302.7178Q340.95312 303.85843 340.20312 304.54593Q339.45312 305.2178 338.25 305.2178Q337.0625 305.2178 336.29688 304.56155Q335.54688 303.9053 335.54688 302.8428L336.64062 302.8428Q336.64062 303.51468 337.07812 303.92093Q337.51562 304.32718 338.26562 304.32718Q339.04688 304.32718 339.45312 303.92093Q339.875 303.49905 339.875 302.73343Q339.875 301.99905 339.42188 301.60843Q338.96875 301.20218 338.09375 301.18655L337.28125 301.18655L337.28125 300.29593Z" fill-rule="nonzero"/><path fill="#ffffff" d="M322.26562 305.0928L321.1875 305.0928L321.1875 297.87405L319.0 298.67093L319.0 297.68655L322.10938 296.51468L322.26562 296.51468L322.26562 305.0928ZM325.84375 304.5303Q325.84375 304.24905 326.0 304.06155Q326.17188 303.87405 326.5 303.87405Q326.84375 303.87405 327.01562 304.06155Q327.1875 304.24905 327.1875 304.5303Q327.1875 304.79593 327.01562 304.98343Q326.84375 305.1553 326.5 305.1553Q326.17188 305.1553 326.0 304.98343Q325.84375 304.79593 325.84375 304.5303ZM333.28125 302.23343L334.46875 302.23343L334.46875 303.10843L333.28125 303.10843L333.28125 305.0928L332.20312 305.0928L332.20312 303.10843L328.3125 303.10843L328.3125 302.4678L332.125 296.56155L333.28125 296.56155L333.28125 302.23343ZM329.54688 302.23343L332.20312 302.23343L332.20312 298.04593L332.0625 298.2803L329.54688 302.23343ZM337.28125 300.29593L338.09375 300.29593Q338.875 300.2803 339.3125 299.88968Q339.75 299.49905 339.75 298.82718Q339.75 297.32718 338.25 297.32718Q337.54688 297.32718 337.125 297.73343Q336.71875 298.13968 336.71875 298.79593L335.625 298.79593Q335.625 297.7803 336.35938 297.10843Q337.10938 296.43655 338.25 296.43655Q339.45312 296.43655 340.14062 297.07718Q340.82812 297.7178 340.82812 298.85843Q340.82812 299.42093 340.46875 299.93655Q340.10938 300.45218 339.48438 300.7178Q340.1875 300.93655 340.5625 301.45218Q340.95312 301.9678 340.95312 302.7178Q340.95312 303.85843 340.20312 304.54593Q339.45312 305.2178 338.25 305.2178Q337.0625 305.2178 336.29688 304.56155Q335.54688 303.9053 335.54688 302.8428L336.64062 302.8428Q336.64062 303.51468 337.07812 303.92093Q337.51562 304.32718 338.26562 304.32718Q339.04688 304.32718 339.45312 303.92093Q339.875 303.49905 339.875 302.73343Q339.875 301.99905 339.42188 301.60843Q338.96875 301.20218 338.09375 301.18655L337.28125 301.18655L337.28125 300.29593Z" fill-rule="nonzero"/><path stroke="#76b900" stroke-width="3.0" stroke-linejoin="round" stroke-linecap="round" d="M418.0625 319.3621Q418.0625 321.26834 417.40625 322.20584Q416.76562 323.12772 415.375 323.12772Q414.01562 323.12772 413.35938 322.22147Q412.70312 321.31522 412.67188 319.50272L412.67188 318.06522Q412.67188 316.1746 413.3125 315.26834Q413.96875 314.34647 415.35938 314.34647Q416.73438 314.34647 417.39062 315.2371Q418.04688 316.1121 418.0625 317.95584L418.0625 319.3621ZM416.96875 317.87772Q416.96875 316.50272 416.57812 315.87772Q416.20312 315.2371 415.35938 315.2371Q414.53125 315.2371 414.14062 315.87772Q413.76562 316.50272 413.76562 317.7996L413.76562 319.53397Q413.76562 320.90897 414.15625 321.58084Q414.5625 322.2371 415.375 322.2371Q416.17188 322.2371 416.5625 321.6121Q416.95312 320.9871 416.96875 319.65897L416.96875 317.87772ZM419.84375 322.44022Q419.84375 322.15897 420.0 321.97147Q420.17188 321.78397 420.5 321.78397Q420.84375 321.78397 421.01562 321.97147Q421.1875 322.15897 421.1875 322.44022Q421.1875 322.70584 421.01562 322.89334Q420.84375 323.06522 420.5 323.06522Q420.17188 323.06522 420.0 322.89334Q419.84375 322.70584 419.84375 322.44022ZM427.89062 316.69022Q427.89062 317.33084 427.54688 317.83084Q427.20312 318.33084 426.64062 318.6121Q427.29688 318.89334 427.6875 319.45584Q428.07812 320.00272 428.07812 320.70584Q428.07812 321.7996 427.32812 322.47147Q426.59375 323.12772 425.375 323.12772Q424.14062 323.12772 423.39062 322.47147Q422.65625 321.7996 422.65625 320.70584Q422.65625 320.00272 423.03125 319.45584Q423.40625 318.89334 424.07812 318.6121Q423.51562 318.33084 423.1875 317.83084Q422.85938 317.33084 422.85938 316.69022Q422.85938 315.6121 423.54688 314.9871Q424.23438 314.34647 425.375 314.34647Q426.5 314.34647 427.1875 314.9871Q427.89062 315.6121 427.89062 316.69022ZM427.0 320.6746Q427.0 319.95584 426.54688 319.51834Q426.09375 319.06522 425.35938 319.06522Q424.625 319.06522 424.17188 319.51834Q423.73438 319.95584 423.73438 320.69022Q423.73438 321.40897 424.17188 321.83084Q424.60938 322.2371 425.375 322.2371Q426.125 322.2371 426.5625 321.81522Q427.0 321.39334 427.0 320.6746ZM425.375 315.2371Q424.73438 315.2371 424.32812 315.64334Q423.9375 316.03397 423.9375 316.72147Q423.9375 317.3621 424.32812 317.76834Q424.71875 318.1746 425.35938 318.1746Q426.01562 318.1746 426.40625 317.76834Q426.79688 317.3621 426.79688 316.72147Q426.79688 316.06522 426.39062 315.65897Q425.98438 315.2371 425.375 315.2371ZM430.20312 318.72147L430.64062 314.47147L435.01562 314.47147L435.01562 315.47147L431.5625 315.47147L431.29688 317.7996Q431.9375 317.4246 432.73438 317.4246Q433.89062 317.4246 434.57812 318.20584Q435.26562 318.97147 435.26562 320.28397Q435.26562 321.59647 434.54688 322.3621Q433.84375 323.12772 432.5625 323.12772Q431.4375 323.12772 430.71875 322.50272Q430.0 321.8621 429.90625 320.75272L430.92188 320.75272Q431.03125 321.4871 431.45312 321.8621Q431.875 322.2371 432.5625 322.2371Q433.3125 322.2371 433.75 321.72147Q434.1875 321.20584 434.1875 320.2996Q434.1875 319.44022 433.71875 318.9246Q433.25 318.40897 432.46875 318.40897Q431.76562 318.40897 431.35938 318.70584L431.07812 318.94022L430.20312 318.72147Z" fill-rule="nonzero"/><path fill="#ffffff" d="M418.0625 319.3621Q418.0625 321.26834 417.40625 322.20584Q416.76562 323.12772 415.375 323.12772Q414.01562 323.12772 413.35938 322.22147Q412.70312 321.31522 412.67188 319.50272L412.67188 318.06522Q412.67188 316.1746 413.3125 315.26834Q413.96875 314.34647 415.35938 314.34647Q416.73438 314.34647 417.39062 315.2371Q418.04688 316.1121 418.0625 317.95584L418.0625 319.3621ZM416.96875 317.87772Q416.96875 316.50272 416.57812 315.87772Q416.20312 315.2371 415.35938 315.2371Q414.53125 315.2371 414.14062 315.87772Q413.76562 316.50272 413.76562 317.7996L413.76562 319.53397Q413.76562 320.90897 414.15625 321.58084Q414.5625 322.2371 415.375 322.2371Q416.17188 322.2371 416.5625 321.6121Q416.95312 320.9871 416.96875 319.65897L416.96875 317.87772ZM419.84375 322.44022Q419.84375 322.15897 420.0 321.97147Q420.17188 321.78397 420.5 321.78397Q420.84375 321.78397 421.01562 321.97147Q421.1875 322.15897 421.1875 322.44022Q421.1875 322.70584 421.01562 322.89334Q420.84375 323.06522 420.5 323.06522Q420.17188 323.06522 420.0 322.89334Q419.84375 322.70584 419.84375 322.44022ZM427.89062 316.69022Q427.89062 317.33084 427.54688 317.83084Q427.20312 318.33084 426.64062 318.6121Q427.29688 318.89334 427.6875 319.45584Q428.07812 320.00272 428.07812 320.70584Q428.07812 321.7996 427.32812 322.47147Q426.59375 323.12772 425.375 323.12772Q424.14062 323.12772 423.39062 322.47147Q422.65625 321.7996 422.65625 320.70584Q422.65625 320.00272 423.03125 319.45584Q423.40625 318.89334 424.07812 318.6121Q423.51562 318.33084 423.1875 317.83084Q422.85938 317.33084 422.85938 316.69022Q422.85938 315.6121 423.54688 314.9871Q424.23438 314.34647 425.375 314.34647Q426.5 314.34647 427.1875 314.9871Q427.89062 315.6121 427.89062 316.69022ZM427.0 320.6746Q427.0 319.95584 426.54688 319.51834Q426.09375 319.06522 425.35938 319.06522Q424.625 319.06522 424.17188 319.51834Q423.73438 319.95584 423.73438 320.69022Q423.73438 321.40897 424.17188 321.83084Q424.60938 322.2371 425.375 322.2371Q426.125 322.2371 426.5625 321.81522Q427.0 321.39334 427.0 320.6746ZM425.375 315.2371Q424.73438 315.2371 424.32812 315.64334Q423.9375 316.03397 423.9375 316.72147Q423.9375 317.3621 424.32812 317.76834Q424.71875 318.1746 425.35938 318.1746Q426.01562 318.1746 426.40625 317.76834Q426.79688 317.3621 426.79688 316.72147Q426.79688 316.06522 426.39062 315.65897Q425.98438 315.2371 425.375 315.2371ZM430.20312 318.72147L430.64062 314.47147L435.01562 314.47147L435.01562 315.47147L431.5625 315.47147L431.29688 317.7996Q431.9375 317.4246 432.73438 317.4246Q433.89062 317.4246 434.57812 318.20584Q435.26562 318.97147 435.26562 320.28397Q435.26562 321.59647 434.54688 322.3621Q433.84375 323.12772 432.5625 323.12772Q431.4375 323.12772 430.71875 322.50272Q430.0 321.8621 429.90625 320.75272L430.92188 320.75272Q431.03125 321.4871 431.45312 321.8621Q431.875 322.2371 432.5625 322.2371Q433.3125 322.2371 433.75 321.72147Q434.1875 321.20584 434.1875 320.2996Q434.1875 319.44022 433.71875 318.9246Q433.25 318.40897 432.46875 318.40897Q431.76562 318.40897 431.35938 318.70584L431.07812 318.94022L430.20312 318.72147Z" fill-rule="nonzero"/><path stroke="#76b900" stroke-width="3.0" stroke-linejoin="round" stroke-linecap="round" d="M512.2969 261.2444L506.70312 261.2444L506.70312 260.46313L509.65625 257.1819Q510.3125 256.4319 510.5625 255.97874Q510.8125 255.51 510.8125 255.01Q510.8125 254.33812 510.40625 253.91624Q510.01562 253.47874 509.32812 253.47874Q508.53125 253.47874 508.07812 253.9475Q507.625 254.40062 507.625 255.22874L506.54688 255.22874Q506.54688 254.04124 507.29688 253.3225Q508.0625 252.58812 509.32812 252.58812Q510.53125 252.58812 511.21875 253.21312Q511.90625 253.83812 511.90625 254.885Q511.90625 256.135 510.29688 257.885L508.01562 260.35376L512.2969 260.35376L512.2969 261.2444ZM513.84375 260.6819Q513.84375 260.40063 514.0 260.21313Q514.1719 260.02563 514.5 260.02563Q514.84375 260.02563 515.0156 260.21313Q515.1875 260.40063 515.1875 260.6819Q515.1875 260.9475 515.0156 261.135Q514.84375 261.3069 514.5 261.3069Q514.1719 261.3069 514.0 261.135Q513.84375 260.9475 513.84375 260.6819ZM521.8906 254.93187Q521.8906 255.5725 521.5469 256.0725Q521.2031 256.5725 520.6406 256.85376Q521.2969 257.135 521.6875 257.6975Q522.0781 258.2444 522.0781 258.9475Q522.0781 260.04126 521.3281 260.71313Q520.59375 261.3694 519.375 261.3694Q518.1406 261.3694 517.3906 260.71313Q516.65625 260.04126 516.65625 258.9475Q516.65625 258.2444 517.03125 257.6975Q517.40625 257.135 518.0781 256.85376Q517.5156 256.5725 517.1875 256.0725Q516.8594 255.5725 516.8594 254.93187Q516.8594 253.85374 517.5469 253.22874Q518.2344 252.58812 519.375 252.58812Q520.5 252.58812 521.1875 253.22874Q521.8906 253.85374 521.8906 254.93187ZM521.0 258.91626Q521.0 258.1975 520.5469 257.76Q520.09375 257.3069 519.3594 257.3069Q518.625 257.3069 518.1719 257.76Q517.7344 258.1975 517.7344 258.9319Q517.7344 259.65063 518.1719 260.0725Q518.6094 260.47876 519.375 260.47876Q520.125 260.47876 520.5625 260.0569Q521.0 259.635 521.0 258.91626ZM519.375 253.47874Q518.7344 253.47874 518.3281 253.885Q517.9375 254.27562 517.9375 254.96312Q517.9375 255.60374 518.3281 256.01Q518.71875 256.41626 519.3594 256.41626Q520.0156 256.41626 520.40625 256.01Q520.7969 255.60374 520.7969 254.96312Q520.7969 254.30687 520.3906 253.90062Q519.9844 253.47874 519.375 253.47874ZM524.2031 256.96313L524.6406 252.71312L529.0156 252.71312L529.0156 253.71312L525.5625 253.71312L525.2969 256.04126Q525.9375 255.66624 526.7344 255.66624Q527.8906 255.66624 528.5781 256.4475Q529.2656 257.21313 529.2656 258.52563Q529.2656 259.83813 528.5469 260.60376Q527.84375 261.3694 526.5625 261.3694Q525.4375 261.3694 524.71875 260.7444Q524.0 260.10376 523.90625 258.9944L524.9219 258.9944Q525.03125 259.72876 525.4531 260.10376Q525.875 260.47876 526.5625 260.47876Q527.3125 260.47876 527.75 259.96313Q528.1875 259.4475 528.1875 258.54126Q528.1875 257.6819 527.71875 257.16626Q527.25 256.65063 526.46875 256.65063Q525.7656 256.65063 525.3594 256.9475L525.0781 257.1819L524.2031 256.96313Z" fill-rule="nonzero"/><path fill="#ffffff" d="M512.2969 261.2444L506.70312 261.2444L506.70312 260.46313L509.65625 257.1819Q510.3125 256.4319 510.5625 255.97876Q510.8125 255.51001 510.8125 255.01001Q510.8125 254.33813 510.40625 253.91626Q510.01562 253.47876 509.32812 253.47876Q508.53125 253.47876 508.07812 253.94751Q507.625 254.40063 507.625 255.22876L506.54688 255.22876Q506.54688 254.04126 507.29688 253.32251Q508.0625 252.58813 509.32812 252.58813Q510.53125 252.58813 511.21875 253.21313Q511.90625 253.83813 511.90625 254.88501Q511.90625 256.135 510.29688 257.885L508.01562 260.35376L512.2969 260.35376L512.2969 261.2444ZM513.84375 260.6819Q513.84375 260.40063 514.0 260.21313Q514.1719 260.02563 514.5 260.02563Q514.84375 260.02563 515.0156 260.21313Q515.1875 260.40063 515.1875 260.6819Q515.1875 260.9475 515.0156 261.135Q514.84375 261.3069 514.5 261.3069Q514.1719 261.3069 514.0 261.135Q513.84375 260.9475 513.84375 260.6819ZM521.8906 254.93188Q521.8906 255.57251 521.5469 256.0725Q521.2031 256.5725 520.6406 256.85376Q521.2969 257.135 521.6875 257.6975Q522.0781 258.2444 522.0781 258.9475Q522.0781 260.04126 521.3281 260.71313Q520.59375 261.3694 519.375 261.3694Q518.1406 261.3694 517.3906 260.71313Q516.65625 260.04126 516.65625 258.9475Q516.65625 258.2444 517.03125 257.6975Q517.40625 257.135 518.0781 256.85376Q517.5156 256.5725 517.1875 256.0725Q516.8594 255.57251 516.8594 254.93188Q516.8594 253.85376 517.5469 253.22876Q518.2344 252.58813 519.375 252.58813Q520.5 252.58813 521.1875 253.22876Q521.8906 253.85376 521.8906 254.93188ZM521.0 258.91626Q521.0 258.1975 520.5469 257.76Q520.09375 257.3069 519.3594 257.3069Q518.625 257.3069 518.1719 257.76Q517.7344 258.1975 517.7344 258.9319Q517.7344 259.65063 518.1719 260.0725Q518.6094 260.47876 519.375 260.47876Q520.125 260.47876 520.5625 260.0569Q521.0 259.635 521.0 258.91626ZM519.375 253.47876Q518.7344 253.47876 518.3281 253.88501Q517.9375 254.27563 517.9375 254.96313Q517.9375 255.60376 518.3281 256.01Q518.71875 256.41626 519.3594 256.41626Q520.0156 256.41626 520.40625 256.01Q520.7969 255.60376 520.7969 254.96313Q520.7969 254.30688 520.3906 253.90063Q519.9844 253.47876 519.375 253.47876ZM524.2031 256.96313L524.6406 252.71313L529.0156 252.71313L529.0156 253.71313L525.5625 253.71313L525.2969 256.04126Q525.9375 255.66626 526.7344 255.66626Q527.8906 255.66626 528.5781 256.4475Q529.2656 257.21313 529.2656 258.52563Q529.2656 259.83813 528.5469 260.60376Q527.84375 261.3694 526.5625 261.3694Q525.4375 261.3694 524.71875 260.7444Q524.0 260.10376 523.90625 258.9944L524.9219 258.9944Q525.03125 259.72876 525.4531 260.10376Q525.875 260.47876 526.5625 260.47876Q527.3125 260.47876 527.75 259.96313Q528.1875 259.4475 528.1875 258.54126Q528.1875 257.6819 527.71875 257.16626Q527.25 256.65063 526.46875 256.65063Q525.7656 256.65063 525.3594 256.9475L525.0781 257.1819L524.2031 256.96313Z" fill-rule="nonzero"/><path fill="#314c59" d="M29.550013 267.99582L20.956263 267.99582L20.956263 264.18332Q20.956263 263.02707 21.190638 262.43332Q21.425013 261.83957 22.018763 261.4802Q22.596888 261.12082 23.300013 261.12082Q24.221888 261.12082 24.846888 261.71457Q25.471888 262.30832 25.643763 263.5427Q25.862513 263.08957 26.065638 262.8552Q26.518763 262.3552 27.206263 261.9177L29.550013 260.4177L29.550013 261.8552L27.768763 262.9802Q26.987513 263.4802 26.581263 263.80832Q26.175013 264.12082 26.018763 264.38644Q25.846888 264.63644 25.768763 264.90207Q25.737513 265.08957 25.737513 265.52707L25.737513 266.8552L29.550013 266.8552L29.550013 267.99582ZM24.753138 266.8552L24.753138 264.40207Q24.753138 263.63644 24.596888 263.19894Q24.425013 262.74582 24.081263 262.52707Q23.721888 262.2927 23.300013 262.2927Q22.690638 262.2927 22.300013 262.74582Q21.909388 263.18332 21.909388 264.13644L21.909388 266.8552L24.753138 266.8552ZM27.550013 254.88646L27.675013 253.79271Q28.628138 254.04271 29.159388 254.74583Q29.690638 255.44896 29.690638 256.52707Q29.690638 257.88644 28.846888 258.69894Q28.003138 259.49582 26.487513 259.49582Q24.925013 259.49582 24.065638 258.68332Q23.190638 257.87082 23.190638 256.58957Q23.190638 255.33958 24.034388 254.55833Q24.878138 253.76146 26.425013 253.76146Q26.518763 253.76146 26.706263 253.76146L26.706263 258.40207Q27.737513 258.33957 28.284388 257.82394Q28.815638 257.30832 28.815638 256.52707Q28.815638 255.94896 28.518763 255.54271Q28.206263 255.12083 27.550013 254.88646ZM25.846888 258.33957L25.846888 254.87083Q25.050013 254.93333 24.659388 255.26146Q24.050013 255.77708 24.050013 256.57394Q24.050013 257.30832 24.534388 257.80832Q25.018763 258.2927 25.846888 258.33957ZM29.550013 251.88646L24.143763 251.88646L24.143763 252.82396L23.331263 252.82396L23.331263 251.88646L22.659388 251.88646Q22.034388 251.88646 21.737513 251.77708Q21.315638 251.62083 21.065638 251.24583Q20.815638 250.85521 20.815638 250.16771Q20.815638 249.71458 20.925013 249.18333L21.831263 249.33958Q21.784388 249.66771 21.784388 249.96458Q21.784388 250.44896 21.987513 250.65208Q22.190638 250.83958 22.753138 250.83958L23.331263 250.83958L23.331263 249.62083L24.143763 249.62083L24.143763 250.83958L29.550013 250.83958L29.550013 251.88646ZM29.550013 249.15208L23.331263 249.15208L23.331263 248.19896L24.268763 248.19896Q23.612513 247.83958 23.409388 247.54271Q23.190638 247.23021 23.190638 246.85521Q23.190638 246.32396 23.518763 245.77708L24.503138 246.13646Q24.268763 246.52708 24.268763 246.90208Q24.268763 247.26146 24.487513 247.54271Q24.690638 247.80833 25.065638 247.91771Q25.628138 248.10521 26.284388 248.10521L29.550013 248.10521L29.550013 249.15208ZM27.550013 240.88646L27.675013 239.79271Q28.628138 240.04271 29.159388 240.74583Q29.690638 241.44896 29.690638 242.52708Q29.690638 243.88646 28.846888 244.69896Q28.003138 245.49583 26.487513 245.49583Q24.925013 245.49583 24.065638 244.68333Q23.190638 243.87083 23.190638 242.58958Q23.190638 241.33958 24.034388 240.55833Q24.878138 239.76146 26.425013 239.76146Q26.518763 239.76146 26.706263 239.76146L26.706263 244.40208Q27.737513 244.33958 28.284388 243.82396Q28.815638 243.30833 28.815638 242.52708Q28.815638 241.94896 28.518763 241.54271Q28.206263 241.12083 27.550013 240.88646ZM25.846888 244.33958L25.846888 240.87083Q25.050013 240.93333 24.659388 241.26146Q24.050013 241.77708 24.050013 242.57396Q24.050013 243.30833 24.534388 243.80833Q25.018763 244.29271 25.846888 244.33958ZM27.690638 238.55833L27.534388 237.52708Q28.159388 237.43333 28.487513 237.04271Q28.815638 236.63646 28.815638 235.90208Q28.815638 235.18333 28.534388 234.83958Q28.237513 234.48021 27.831263 234.48021Q27.471888 234.48021 27.268763 234.79271Q27.128138 235.01146 26.909388 235.87083Q26.612513 237.02708 26.409388 237.48021Q26.190638 237.91771 25.815638 238.15208Q25.440638 238.38646 24.971888 238.38646Q24.565638 238.38646 24.206263 238.19896Q23.846888 238.01146 23.612513 237.68333Q23.440638 237.43333 23.315638 237.01146Q23.190638 236.58958 23.190638 236.08958Q23.190638 235.37083 23.409388 234.82396Q23.612513 234.26146 23.971888 233.99583Q24.331263 233.73021 24.925013 233.63646L25.065638 234.66771Q24.596888 234.73021 24.331263 235.07396Q24.050013 235.40208 24.050013 236.02708Q24.050013 236.74583 24.300013 237.05833Q24.534388 237.37083 24.862513 237.37083Q25.065638 237.37083 25.221888 237.24583Q25.393763 237.10521 25.503138 236.83958Q25.565638 236.68333 25.768763 235.90208Q26.081263 234.77708 26.268763 234.33958Q26.456263 233.90208 26.815638 233.65208Q27.175013 233.40208 27.721888 233.40208Q28.253138 233.40208 28.721888 233.71458Q29.175013 234.01146 29.440638 234.58958Q29.690638 235.16771 29.690638 235.90208Q29.690638 237.12083 29.190638 237.76146Q28.675013 238.38646 27.690638 238.55833ZM29.550013 231.13646L20.956263 231.13646L20.956263 230.08958L24.034388 230.08958Q23.190638 229.35521 23.190638 228.23021Q23.190638 227.52708 23.471888 227.02708Q23.737513 226.51146 24.221888 226.29271Q24.690638 226.07396 25.612513 226.07396L29.550013 226.07396L29.550013 227.12083L25.612513 227.12083Q24.815638 227.12083 24.456263 227.46458Q24.096888 227.80833 24.096888 228.43333Q24.096888 228.90208 24.346888 229.32396Q24.581263 229.73021 25.003138 229.91771Q25.409388 230.08958 26.143763 230.08958L29.550013 230.08958L29.550013 231.13646ZM29.550013 220.99583L20.956263 220.99583L20.956263 217.18333Q20.956263 216.02708 21.190638 215.43333Q21.425013 214.83958 22.018763 214.48021Q22.596888 214.12083 23.300013 214.12083Q24.221888 214.12083 24.846888 214.71458Q25.471888 215.30833 25.643763 216.54271Q25.862513 216.08958 26.065638 215.85521Q26.518763 215.35521 27.206263 214.91771L29.550013 213.41771L29.550013 214.85521L27.768763 215.98021Q26.987513 216.48021 26.581263 216.80833Q26.175013 217.12083 26.018763 217.38646Q25.846888 217.63646 25.768763 217.90208Q25.737513 218.08958 25.737513 218.52708L25.737513 219.85521L29.550013 219.85521L29.550013 220.99583ZM24.753138 219.85521L24.753138 217.40208Q24.753138 216.63646 24.596888 216.19896Q24.425013 215.74583 24.081263 215.52708Q23.721888 215.29271 23.300013 215.29271Q22.690638 215.29271 22.300013 215.74583Q21.909388 216.18333 21.909388 217.13646L21.909388 219.85521L24.753138 219.85521ZM28.784388 208.07396Q29.284388 208.66771 29.487513 209.21458Q29.690638 209.74583 29.690638 210.37083Q29.690638 211.40208 29.190638 211.94896Q28.690638 212.49583 27.909388 212.49583Q27.456263 212.49583 27.081263 212.29271Q26.690638 212.08958 26.471888 211.74583Q26.237513 211.40208 26.128138 210.98021Q26.034388 210.68333 25.956263 210.04271Q25.815638 208.77708 25.596888 208.16771Q25.378138 208.16771 25.331263 208.16771Q24.675013 208.16771 24.409388 208.46458Q24.065638 208.87083 24.065638 209.66771Q24.065638 210.40208 24.331263 210.76146Q24.581263 211.12083 25.237513 211.29271L25.096888 212.32396Q24.440638 212.18333 24.034388 211.85521Q23.628138 211.52708 23.409388 210.91771Q23.190638 210.30833 23.190638 209.51146Q23.190638 208.71458 23.378138 208.21458Q23.565638 207.71458 23.846888 207.48021Q24.128138 207.24583 24.565638 207.15208Q24.831263 207.10521 25.534388 207.10521L26.940638 207.10521Q28.409388 207.10521 28.800013 207.04271Q29.190638 206.96458 29.550013 206.76146L29.550013 207.87083Q29.221888 208.02708 28.784388 208.07396ZM26.425013 208.16771Q26.659388 208.74583 26.831263 209.88646Q26.925013 210.54271 27.050013 210.80833Q27.159388 211.07396 27.378138 211.23021Q27.596888 211.37083 27.878138 211.37083Q28.300013 211.37083 28.581263 211.05833Q28.862513 210.73021 28.862513 210.12083Q28.862513 209.51146 28.596888 209.04271Q28.331263 208.55833 27.862513 208.33958Q27.503138 208.16771 26.815638 208.16771L26.425013 208.16771ZM28.612513 202.83958L29.534388 202.68333Q29.628138 203.13646 29.628138 203.48021Q29.628138 204.05833 29.456263 204.37083Q29.268763 204.68333 28.971888 204.82396Q28.675013 204.94896 27.721888 204.94896L24.143763 204.94896L24.143763 205.71458L23.331263 205.71458L23.331263 204.94896L21.784388 204.94896L21.159388 203.90208L23.331263 203.90208L23.331263 202.83958L24.143763 202.83958L24.143763 203.90208L27.784388 203.90208Q28.237513 203.90208 28.362513 203.85521Q28.487513 203.79271 28.565638 203.66771Q28.643763 203.54271 28.643763 203.30833Q28.643763 203.12083 28.612513 202.83958ZM27.550013 197.88646L27.675013 196.79271Q28.628138 197.04271 29.159388 197.74583Q29.690638 198.44896 29.690638 199.52708Q29.690638 200.88646 28.846888 201.69896Q28.003138 202.49583 26.487513 202.49583Q24.925013 202.49583 24.065638 201.68333Q23.190638 200.87083 23.190638 199.58958Q23.190638 198.33958 24.034388 197.55833Q24.878138 196.76146 26.425013 196.76146Q26.518763 196.76146 26.706263 196.76146L26.706263 201.40208Q27.737513 201.33958 28.284388 200.82396Q28.815638 200.30833 28.815638 199.52708Q28.815638 198.94896 28.518763 198.54271Q28.206263 198.12083 27.550013 197.88646ZM25.846888 201.33958L25.846888 197.87083Q25.050013 197.93333 24.659388 198.26146Q24.050013 198.77708 24.050013 199.57396Q24.050013 200.30833 24.534388 200.80833Q25.018763 201.29271 25.846888 201.33958ZM32.08126 190.12083Q30.971888 190.99583 29.503138 191.60521Q28.018763 192.19896 26.440638 192.19896Q25.050013 192.19896 23.768763 191.76146Q22.284388 191.23021 20.815638 190.12083L20.815638 189.37083Q22.034388 190.07396 22.550013 190.30833Q23.362513 190.66771 24.237513 190.87083Q25.331263 191.12083 26.440638 191.12083Q29.268763 191.12083 32.08126 189.37083L32.08126 190.12083ZM29.550013 187.94896L20.956263 187.94896L20.956263 182.15208L21.971888 182.15208L21.971888 186.80833L24.628138 186.80833L24.628138 182.77708L25.643763 182.77708L25.643763 186.80833L29.550013 186.80833L29.550013 187.94896ZM29.550013 181.01146L20.956263 181.01146L20.956263 177.76146Q20.956263 176.91771 21.034388 176.46458Q21.143763 175.82396 21.440638 175.40208Q21.737513 174.96458 22.268763 174.71458Q22.800013 174.44896 23.440638 174.44896Q24.534388 174.44896 25.300013 175.15208Q26.050013 175.83958 26.050013 177.66771L26.050013 179.87083L29.550013 179.87083L29.550013 181.01146ZM25.050013 179.87083L25.050013 177.65208Q25.050013 176.54271 24.643763 176.08958Q24.221888 175.62083 23.471888 175.62083Q22.940638 175.62083 22.565638 175.90208Q22.175013 176.16771 22.050013 176.60521Q21.971888 176.90208 21.971888 177.66771L21.971888 179.87083L25.050013 179.87083ZM26.784388 173.38646L26.690638 172.32396Q27.346888 172.24583 27.753138 171.96458Q28.159388 171.68333 28.425013 171.10521Q28.675013 170.51146 28.675013 169.77708Q28.675013 169.13646 28.487513 168.63646Q28.284388 168.13646 27.956263 167.90208Q27.612513 167.65208 27.221888 167.65208Q26.815638 167.65208 26.518763 167.88646Q26.206263 168.12083 26.003138 168.65208Q25.862513 169.01146 25.581263 170.19896Q25.300013 171.37083 25.050013 171.83958Q24.721888 172.46458 24.253138 172.76146Q23.768763 173.05833 23.175013 173.05833Q22.534388 173.05833 21.971888 172.69896Q21.393763 172.32396 21.112513 171.62083Q20.815638 170.90208 20.815638 170.04271Q20.815638 169.08958 21.128138 168.35521Q21.425013 167.62083 22.034388 167.23021Q22.628138 166.83958 23.378138 166.80833L23.456263 167.90208Q22.643763 167.99583 22.237513 168.51146Q21.815638 169.01146 21.815638 169.99583Q21.815638 171.02708 22.190638 171.49583Q22.565638 171.96458 23.096888 171.96458Q23.565638 171.96458 23.862513 171.63646Q24.159388 171.30833 24.471888 169.93333Q24.784388 168.54271 25.018763 168.02708Q25.378138 167.27708 25.909388 166.91771Q26.425013 166.55833 27.128138 166.55833Q27.815638 166.55833 28.425013 166.94896Q29.018763 167.33958 29.362513 168.07396Q29.690638 168.80833 29.690638 169.73021Q29.690638 170.90208 29.362513 171.69896Q29.018763 172.48021 28.331263 172.93333Q27.643763 173.37083 26.784388 173.38646ZM32.08126 164.44896L32.08126 165.19896Q29.268763 163.44896 26.440638 163.44896Q25.346888 163.44896 24.253138 163.69896Q23.378138 163.90208 22.565638 164.26146Q22.050013 164.49583 20.815638 165.19896L20.815638 164.44896Q22.284388 163.35521 23.768763 162.82396Q25.050013 162.37083 26.440638 162.37083Q28.018763 162.37083 29.503138 162.98021Q30.971888 163.58958 32.08126 164.44896Z" fill-rule="nonzero"/><path fill="#314c59" d="M65.05 332.21564Q65.05 330.6844 65.3625 329.7625Q65.675 328.825 66.28438 328.325Q66.90938 327.825 67.84688 327.825Q68.53438 327.825 69.05 328.10626Q69.58125 328.3875 69.925 328.91876Q70.26875 329.4344 70.45625 330.1844Q70.64375 330.9344 70.64375 332.21564Q70.64375 333.73126 70.33125 334.65314Q70.03438 335.575 69.40938 336.09064Q68.8 336.59064 67.84688 336.59064Q66.6125 336.59064 65.89375 335.7Q65.05 334.6375 65.05 332.21564ZM66.12813 332.21564Q66.12813 334.325 66.62813 335.02814Q67.12813 335.73126 67.84688 335.73126Q68.58125 335.73126 69.06563 335.02814Q69.56563 334.325 69.56563 332.21564Q69.56563 330.09064 69.06563 329.40314Q68.58125 328.7 67.83125 328.7Q67.1125 328.7 66.675 329.3094Q66.12813 330.09064 66.12813 332.21564Z" fill-rule="nonzero"/><path fill="#314c59" d="M70.59688 273.67606L70.59688 274.69168L64.90938 274.69168Q64.90938 274.31668 65.03438 273.9573Q65.25313 273.37918 65.72188 272.81668Q66.20625 272.25418 67.1125 271.5198Q68.51875 270.36356 69.00313 269.69168Q69.50313 269.0198 69.50313 268.42606Q69.50313 267.80106 69.05 267.37918Q68.59688 266.94168 67.87813 266.94168Q67.1125 266.94168 66.65938 267.3948Q66.20625 267.84793 66.19063 268.66043L65.1125 268.55106Q65.22188 267.3323 65.94063 266.7073Q66.675 266.06668 67.90938 266.06668Q69.14375 266.06668 69.8625 266.75418Q70.58125 267.44168 70.58125 268.4573Q70.58125 268.97293 70.3625 269.47293Q70.15938 269.9573 69.65938 270.5198Q69.175 271.06668 68.05 272.0198Q67.09688 272.81668 66.81563 273.11356Q66.55 273.3948 66.37813 273.67606L70.59688 273.67606Z" fill-rule="nonzero"/><path fill="#314c59" d="M68.425 212.93333L68.425 210.87083L64.70625 210.87083L64.70625 209.90208L68.62813 204.33958L69.4875 204.33958L69.4875 209.90208L70.64375 209.90208L70.64375 210.87083L69.4875 210.87083L69.4875 212.93333L68.425 212.93333ZM68.425 209.90208L68.425 206.04271L65.7375 209.90208L68.425 209.90208Z" fill-rule="nonzero"/><path fill="#314c59" d="M70.51875 144.69063L69.47188 144.76875Q69.33125 144.14375 69.08125 143.8625Q68.64375 143.40938 68.01875 143.40938Q67.51875 143.40938 67.12813 143.69063Q66.64375 144.06563 66.34688 144.76875Q66.06563 145.45625 66.05 146.7375Q66.425 146.15938 66.97188 145.87813Q67.53438 145.59688 68.14375 145.59688Q69.19063 145.59688 69.925 146.37813Q70.675 147.15938 70.675 148.37813Q70.675 149.19063 70.31563 149.89375Q69.97188 150.58125 69.3625 150.95625Q68.75313 151.31563 67.9875 151.31563Q66.65938 151.31563 65.83125 150.34688Q65.00313 149.37813 65.00313 147.15938Q65.00313 144.65938 65.925 143.53438Q66.72188 142.55 68.08125 142.55Q69.09688 142.55 69.7375 143.12813Q70.39375 143.69063 70.51875 144.69063ZM66.22188 148.39375Q66.22188 148.94063 66.44063 149.44063Q66.675 149.925 67.08125 150.19063Q67.50313 150.45625 67.97188 150.45625Q68.62813 150.45625 69.1125 149.925Q69.59688 149.37813 69.59688 148.45625Q69.59688 147.56563 69.1125 147.05Q68.64375 146.53438 67.925 146.53438Q67.20625 146.53438 66.70625 147.05Q66.22188 147.56563 66.22188 148.39375Z" fill-rule="nonzero"/><path fill="#314c59" d="M66.675 84.760414Q66.01875 84.510414 65.69063 84.072914Q65.37813 83.61979 65.37813 83.010414Q65.37813 82.072914 66.05 81.43229Q66.7375 80.791664 67.84688 80.791664Q68.97188 80.791664 69.65938 81.447914Q70.34688 82.104164 70.34688 83.041664Q70.34688 83.635414 70.03438 84.072914Q69.72188 84.510414 69.08125 84.760414Q69.87813 85.010414 70.28438 85.58854Q70.69063 86.166664 70.69063 86.96354Q70.69063 88.05729 69.90938 88.80729Q69.14375 89.55729 67.8625 89.55729Q66.59688 89.55729 65.81563 88.80729Q65.03438 88.05729 65.03438 86.93229Q65.03438 86.08854 65.45625 85.52604Q65.89375 84.96354 66.675 84.760414ZM66.45625 82.96354Q66.45625 83.572914 66.84688 83.96354Q67.25313 84.354164 67.87813 84.354164Q68.4875 84.354164 68.87813 83.979164Q69.26875 83.58854 69.26875 83.02604Q69.26875 82.447914 68.8625 82.05729Q68.45625 81.65104 67.8625 81.65104Q67.25313 81.65104 66.84688 82.041664Q66.45625 82.43229 66.45625 82.96354ZM66.12813 86.93229Q66.12813 87.385414 66.33125 87.80729Q66.55 88.229164 66.97188 88.46354Q67.39375 88.697914 67.87813 88.697914Q68.62813 88.697914 69.1125 88.21354Q69.6125 87.729164 69.6125 86.979164Q69.6125 86.21354 69.1125 85.71354Q68.6125 85.21354 67.84688 85.21354Q67.09688 85.21354 66.6125 85.71354Q66.12813 86.197914 66.12813 86.93229Z" fill-rule="nonzero"/><path fill="#314c59" d="M114.50117 349.45L111.17304 340.85626L112.40742 340.85626L114.64179 347.10626Q114.90742 347.85626 115.09492 348.5125Q115.29804 347.8094 115.56367 347.10626L117.87617 340.85626L119.03242 340.85626L115.67304 349.45L114.50117 349.45ZM119.25117 349.45L119.25117 340.85626L120.37617 340.85626L120.37617 349.45L119.25117 349.45ZM122.00117 349.45L122.00117 340.85626L123.14179 340.85626L123.14179 348.4344L127.37617 348.4344L127.37617 349.45L122.00117 349.45ZM128.11053 349.45L131.40741 340.85626L132.62616 340.85626L136.14178 349.45L134.86053 349.45L133.84491 346.84064L130.26678 346.84064L129.31366 349.45L128.11053 349.45ZM130.59491 345.91876L133.50116 345.91876L132.61053 343.54376Q132.18866 342.46564 132.00116 341.7625Q131.82928 342.59064 131.53241 343.40314L130.59491 345.91876ZM139.59491 349.45L138.54803 349.45L138.54803 342.73126Q138.15741 343.09064 137.53241 343.46564Q136.92303 343.825 136.43866 343.9969L136.43866 342.98126Q137.31366 342.5594 137.96991 341.98126Q138.64178 341.3875 138.92303 340.825L139.59491 340.825L139.59491 349.45ZM143.21991 349.45L143.21991 348.2469L144.42303 348.2469L144.42303 349.45L143.21991 349.45ZM145.62616 347.2L146.73553 347.10626Q146.86053 347.91876 147.29803 348.325Q147.75116 348.73126 148.39178 348.73126Q149.14178 348.73126 149.67303 348.15314Q150.20428 347.575 150.20428 346.6375Q150.20428 345.73126 149.68866 345.21564Q149.18866 344.6844 148.36053 344.6844Q147.86053 344.6844 147.43866 344.91876Q147.03241 345.15314 146.79803 345.5125L145.81366 345.3875L146.64178 340.98126L150.92303 340.98126L150.92303 341.98126L147.48553 341.98126L147.03241 344.29376Q147.79803 343.7469 148.64178 343.7469Q149.76678 343.7469 150.53241 344.52814Q151.31366 345.3094 151.31366 346.54376Q151.31366 347.7 150.64178 348.5594Q149.81366 349.59064 148.39178 349.59064Q147.21991 349.59064 146.46991 348.9344Q145.73553 348.27814 145.62616 347.2ZM152.50116 346.8719L152.50116 345.8094L155.75116 345.8094L155.75116 346.8719L152.50116 346.8719ZM156.62616 347.1844L157.68866 347.04376Q157.86053 347.9344 158.29803 348.34064Q158.73553 348.73126 159.36053 348.73126Q160.11053 348.73126 160.62616 348.21564Q161.14178 347.7 161.14178 346.9344Q161.14178 346.21564 160.65741 345.7469Q160.18866 345.2625 159.45428 345.2625Q159.15741 345.2625 158.70428 345.3875L158.82928 344.45Q158.93866 344.46564 159.00116 344.46564Q159.67303 344.46564 160.20428 344.1219Q160.75116 343.7625 160.75116 343.02814Q160.75116 342.45 160.36053 342.075Q159.96991 341.6844 159.34491 341.6844Q158.73553 341.6844 158.31366 342.075Q157.90741 342.46564 157.79803 343.23126L156.73553 343.04376Q156.92303 341.9969 157.61053 341.41876Q158.29803 340.825 159.31366 340.825Q160.01678 340.825 160.61053 341.1375Q161.20428 341.4344 161.51678 341.95Q161.82928 342.46564 161.82928 343.0594Q161.82928 343.60626 161.53241 344.075Q161.23553 344.52814 160.65741 344.79376Q161.40741 344.96564 161.82928 345.52814Q162.25116 346.075 162.25116 346.91876Q162.25116 348.04376 161.42303 348.825Q160.61053 349.60626 159.36053 349.60626Q158.23553 349.60626 157.48553 348.9344Q156.73553 348.2469 156.62616 347.1844ZM164.00116 349.45L164.00116 340.85626L167.23553 340.85626Q168.21991 340.85626 168.81366 341.1219Q169.40741 341.3875 169.73553 341.9344Q170.07928 342.46564 170.07928 343.0594Q170.07928 343.60626 169.78241 344.09064Q169.48553 344.575 168.87616 344.8719Q169.65741 345.10626 170.06366 345.66876Q170.48553 346.21564 170.48553 346.96564Q170.48553 347.5594 170.23553 348.09064Q169.98553 348.60626 169.61053 348.8875Q169.23553 349.16876 168.65741 349.3094Q168.09491 349.45 167.28241 349.45L164.00116 349.45ZM165.14178 344.46564L167.00116 344.46564Q167.75116 344.46564 168.07928 344.3719Q168.51678 344.2469 168.73553 343.95Q168.95428 343.6375 168.95428 343.1844Q168.95428 342.7625 168.75116 342.4344Q168.54803 342.10626 168.15741 341.9969Q167.78241 341.8719 166.86053 341.8719L165.14178 341.8719L165.14178 344.46564ZM165.14178 348.4344L167.28241 348.4344Q167.82928 348.4344 168.04803 348.3875Q168.45428 348.325 168.70428 348.16876Q168.96991 347.9969 169.14178 347.6844Q169.31366 347.3719 169.31366 346.96564Q169.31366 346.48126 169.06366 346.1219Q168.82928 345.7625 168.39178 345.6219Q167.95428 345.48126 167.12616 345.48126L165.14178 345.48126L165.14178 348.4344Z" fill-rule="nonzero"/><path fill="#314c59" d="M181.18808 349.45L181.18808 340.85626L182.3287 340.85626L182.3287 348.4344L186.56308 348.4344L186.56308 349.45L181.18808 349.45ZM188.0787 349.45L188.0787 340.85626L189.1412 340.85626L189.1412 349.45L188.0787 349.45ZM195.17245 348.6844Q194.5787 349.1844 194.03183 349.3875Q193.50058 349.59064 192.87558 349.59064Q191.84433 349.59064 191.29745 349.09064Q190.75058 348.59064 190.75058 347.8094Q190.75058 347.35626 190.9537 346.98126Q191.15683 346.59064 191.50058 346.3719Q191.84433 346.1375 192.2662 346.02814Q192.56308 345.9344 193.2037 345.85626Q194.46933 345.71564 195.0787 345.4969Q195.0787 345.27814 195.0787 345.23126Q195.0787 344.575 194.78183 344.3094Q194.37558 343.96564 193.5787 343.96564Q192.84433 343.96564 192.48495 344.23126Q192.12558 344.48126 191.9537 345.1375L190.92245 344.9969Q191.06308 344.34064 191.3912 343.9344Q191.71933 343.52814 192.3287 343.3094Q192.93808 343.09064 193.73495 343.09064Q194.53183 343.09064 195.03183 343.27814Q195.53183 343.46564 195.7662 343.7469Q196.00058 344.02814 196.09433 344.46564Q196.1412 344.73126 196.1412 345.4344L196.1412 346.84064Q196.1412 348.3094 196.2037 348.7Q196.28183 349.09064 196.48495 349.45L195.37558 349.45Q195.21933 349.1219 195.17245 348.6844ZM195.0787 346.325Q194.50058 346.5594 193.35995 346.73126Q192.7037 346.825 192.43808 346.95Q192.17245 347.0594 192.0162 347.27814Q191.87558 347.4969 191.87558 347.77814Q191.87558 348.2 192.18808 348.48126Q192.5162 348.7625 193.12558 348.7625Q193.73495 348.7625 194.2037 348.4969Q194.68808 348.23126 194.90683 347.7625Q195.0787 347.40314 195.0787 346.71564L195.0787 346.325ZM198.10995 349.45L198.10995 343.23126L199.04745 343.23126L199.04745 344.10626Q199.34433 343.6375 199.8287 343.3719Q200.31308 343.09064 200.93808 343.09064Q201.62558 343.09064 202.06308 343.3719Q202.5162 343.65314 202.68808 344.16876Q203.43808 343.09064 204.60995 343.09064Q205.54745 343.09064 206.03183 343.60626Q206.53183 344.10626 206.53183 345.1844L206.53183 349.45L205.48495 349.45L205.48495 345.52814Q205.48495 344.90314 205.37558 344.6219Q205.28183 344.34064 205.0162 344.16876Q204.75058 343.9969 204.37558 343.9969Q203.71933 343.9969 203.28183 344.4344Q202.85995 344.8719 202.85995 345.84064L202.85995 349.45L201.79745 349.45L201.79745 345.40314Q201.79745 344.7 201.53183 344.35626Q201.28183 343.9969 200.7037 343.9969Q200.25058 343.9969 199.87558 344.23126Q199.50058 344.46564 199.3287 344.91876Q199.15683 345.3719 199.15683 346.21564L199.15683 349.45L198.10995 349.45ZM213.17245 348.6844Q212.5787 349.1844 212.03183 349.3875Q211.50058 349.59064 210.87558 349.59064Q209.84433 349.59064 209.29745 349.09064Q208.75058 348.59064 208.75058 347.8094Q208.75058 347.35626 208.9537 346.98126Q209.15683 346.59064 209.50058 346.3719Q209.84433 346.1375 210.2662 346.02814Q210.56308 345.9344 211.2037 345.85626Q212.46933 345.71564 213.0787 345.4969Q213.0787 345.27814 213.0787 345.23126Q213.0787 344.575 212.78183 344.3094Q212.37558 343.96564 211.5787 343.96564Q210.84433 343.96564 210.48495 344.23126Q210.12558 344.48126 209.9537 345.1375L208.92245 344.9969Q209.06308 344.34064 209.3912 343.9344Q209.71933 343.52814 210.3287 343.3094Q210.93808 343.09064 211.73495 343.09064Q212.53183 343.09064 213.03183 343.27814Q213.53183 343.46564 213.7662 343.7469Q214.00058 344.02814 214.09433 344.46564Q214.1412 344.73126 214.1412 345.4344L214.1412 346.84064Q214.1412 348.3094 214.2037 348.7Q214.28183 349.09064 214.48495 349.45L213.37558 349.45Q213.21933 349.1219 213.17245 348.6844ZM213.0787 346.325Q212.50058 346.5594 211.35995 346.73126Q210.7037 346.825 210.43808 346.95Q210.17245 347.0594 210.0162 347.27814Q209.87558 347.4969 209.87558 347.77814Q209.87558 348.2 210.18808 348.48126Q210.5162 348.7625 211.12558 348.7625Q211.73495 348.7625 212.2037 348.4969Q212.68808 348.23126 212.90683 347.7625Q213.0787 347.40314 213.0787 346.71564L213.0787 346.325ZM215.68808 346.8719L215.68808 345.8094L218.93808 345.8094L218.93808 346.8719L215.68808 346.8719ZM219.81308 347.1844L220.87558 347.04376Q221.04745 347.9344 221.48495 348.34064Q221.92245 348.73126 222.54745 348.73126Q223.29745 348.73126 223.81308 348.21564Q224.3287 347.7 224.3287 346.9344Q224.3287 346.21564 223.84433 345.7469Q223.37558 345.2625 222.6412 345.2625Q222.34433 345.2625 221.8912 345.3875L222.0162 344.45Q222.12558 344.46564 222.18808 344.46564Q222.85995 344.46564 223.3912 344.1219Q223.93808 343.7625 223.93808 343.02814Q223.93808 342.45 223.54745 342.075Q223.15683 341.6844 222.53183 341.6844Q221.92245 341.6844 221.50058 342.075Q221.09433 342.46564 220.98495 343.23126L219.92245 343.04376Q220.10995 341.9969 220.79745 341.41876Q221.48495 340.825 222.50058 340.825Q223.2037 340.825 223.79745 341.1375Q224.3912 341.4344 224.7037 341.95Q225.0162 342.46564 225.0162 343.0594Q225.0162 343.60626 224.71933 344.075Q224.42245 344.52814 223.84433 344.79376Q224.59433 344.96564 225.0162 345.52814Q225.43808 346.075 225.43808 346.91876Q225.43808 348.04376 224.60995 348.825Q223.79745 349.60626 222.54745 349.60626Q221.42245 349.60626 220.67245 348.9344Q219.92245 348.2469 219.81308 347.1844ZM226.68808 346.8719L226.68808 345.8094L229.93808 345.8094L229.93808 346.8719L226.68808 346.8719ZM233.68808 349.45L230.35995 340.85626L231.59433 340.85626L233.8287 347.10626Q234.09433 347.85626 234.28183 348.5125Q234.48495 347.8094 234.75058 347.10626L237.06308 340.85626L238.21933 340.85626L234.85995 349.45L233.68808 349.45ZM238.43808 349.45L238.43808 340.85626L239.56308 340.85626L239.56308 349.45L238.43808 349.45ZM241.18808 349.45L241.18808 340.85626L242.3287 340.85626L242.3287 348.4344L246.56308 348.4344L246.56308 349.45L241.18808 349.45ZM247.29745 349.45L250.59433 340.85626L251.81308 340.85626L255.3287 349.45L254.04745 349.45L253.03183 346.84064L249.4537 346.84064L248.50058 349.45L247.29745 349.45ZM249.78183 345.91876L252.68808 345.91876L251.79745 343.54376Q251.37558 342.46564 251.18808 341.7625Q251.0162 342.59064 250.71933 343.40314L249.78183 345.91876ZM258.78183 349.45L257.73495 349.45L257.73495 342.73126Q257.34433 343.09064 256.71933 343.46564Q256.10995 343.825 255.62558 343.9969L255.62558 342.98126Q256.50058 342.5594 257.15683 341.98126Q257.8287 341.3875 258.10995 340.825L258.78183 340.825L258.78183 349.45ZM262.40683 349.45L262.40683 348.2469L263.60995 348.2469L263.60995 349.45L262.40683 349.45ZM264.81308 347.2L265.92245 347.10626Q266.04745 347.91876 266.48495 348.325Q266.93808 348.73126 267.5787 348.73126Q268.3287 348.73126 268.85995 348.15314Q269.3912 347.575 269.3912 346.6375Q269.3912 345.73126 268.87558 345.21564Q268.37558 344.6844 267.54745 344.6844Q267.04745 344.6844 266.62558 344.91876Q266.21933 345.15314 265.98495 345.5125L265.00058 345.3875L265.8287 340.98126L270.10995 340.98126L270.10995 341.98126L266.67245 341.98126L266.21933 344.29376Q266.98495 343.7469 267.8287 343.7469Q268.9537 343.7469 269.71933 344.52814Q270.50058 345.3094 270.50058 346.54376Q270.50058 347.7 269.8287 348.5594Q269.00058 349.59064 267.5787 349.59064Q266.40683 349.59064 265.65683 348.9344Q264.92245 348.27814 264.81308 347.2ZM271.68808 346.8719L271.68808 345.8094L274.93808 345.8094L274.93808 346.8719L271.68808 346.8719ZM277.43808 344.79376Q276.78183 344.54376 276.4537 344.10626Q276.1412 343.65314 276.1412 343.04376Q276.1412 342.10626 276.81308 341.46564Q277.50058 340.825 278.60995 340.825Q279.73495 340.825 280.42245 341.48126Q281.10995 342.1375 281.10995 343.075Q281.10995 343.66876 280.79745 344.10626Q280.48495 344.54376 279.84433 344.79376Q280.6412 345.04376 281.04745 345.6219Q281.4537 346.2 281.4537 346.9969Q281.4537 348.09064 280.67245 348.84064Q279.90683 349.59064 278.62558 349.59064Q277.35995 349.59064 276.5787 348.84064Q275.79745 348.09064 275.79745 346.96564Q275.79745 346.1219 276.21933 345.5594Q276.65683 344.9969 277.43808 344.79376ZM277.21933 342.9969Q277.21933 343.60626 277.60995 343.9969Q278.0162 344.3875 278.6412 344.3875Q279.25058 344.3875 279.6412 344.0125Q280.03183 343.6219 280.03183 343.0594Q280.03183 342.48126 279.62558 342.09064Q279.21933 341.6844 278.62558 341.6844Q278.0162 341.6844 277.60995 342.075Q277.21933 342.46564 277.21933 342.9969ZM276.8912 346.96564Q276.8912 347.41876 277.09433 347.84064Q277.31308 348.2625 277.73495 348.4969Q278.15683 348.73126 278.6412 348.73126Q279.3912 348.73126 279.87558 348.2469Q280.37558 347.7625 280.37558 347.0125Q280.37558 346.2469 279.87558 345.7469Q279.37558 345.2469 278.60995 345.2469Q277.85995 345.2469 277.37558 345.7469Q276.8912 346.23126 276.8912 346.96564ZM283.18808 349.45L283.18808 340.85626L286.42245 340.85626Q287.40683 340.85626 288.00058 341.1219Q288.59433 341.3875 288.92245 341.9344Q289.2662 342.46564 289.2662 343.0594Q289.2662 343.60626 288.96933 344.09064Q288.67245 344.575 288.06308 344.8719Q288.84433 345.10626 289.25058 345.66876Q289.67245 346.21564 289.67245 346.96564Q289.67245 347.5594 289.42245 348.09064Q289.17245 348.60626 288.79745 348.8875Q288.42245 349.16876 287.84433 349.3094Q287.28183 349.45 286.46933 349.45L283.18808 349.45ZM284.3287 344.46564L286.18808 344.46564Q286.93808 344.46564 287.2662 344.3719Q287.7037 344.2469 287.92245 343.95Q288.1412 343.6375 288.1412 343.1844Q288.1412 342.7625 287.93808 342.4344Q287.73495 342.10626 287.34433 341.9969Q286.96933 341.8719 286.04745 341.8719L284.3287 341.8719L284.3287 344.46564ZM284.3287 348.4344L286.46933 348.4344Q287.0162 348.4344 287.23495 348.3875Q287.6412 348.325 287.8912 348.16876Q288.15683 347.9969 288.3287 347.6844Q288.50058 347.3719 288.50058 346.96564Q288.50058 346.48126 288.25058 346.1219Q288.0162 345.7625 287.5787 345.6219Q287.1412 345.48126 286.31308 345.48126L284.3287 345.48126L284.3287 348.4344Z" fill-rule="nonzero"/><path fill="#314c59" d="M306.375 349.45L306.375 340.85626L307.51562 340.85626L307.51562 348.4344L311.75 348.4344L311.75 349.45L306.375 349.45ZM313.26562 349.45L313.26562 340.85626L314.32812 340.85626L314.32812 349.45L313.26562 349.45ZM320.35938 348.6844Q319.76562 349.1844 319.21875 349.3875Q318.6875 349.59064 318.0625 349.59064Q317.03125 349.59064 316.48438 349.09064Q315.9375 348.59064 315.9375 347.8094Q315.9375 347.35626 316.14062 346.98126Q316.34375 346.59064 316.6875 346.3719Q317.03125 346.1375 317.45312 346.02814Q317.75 345.9344 318.39062 345.85626Q319.65625 345.71564 320.26562 345.4969Q320.26562 345.27814 320.26562 345.23126Q320.26562 344.575 319.96875 344.3094Q319.5625 343.96564 318.76562 343.96564Q318.03125 343.96564 317.67188 344.23126Q317.3125 344.48126 317.14062 345.1375L316.10938 344.9969Q316.25 344.34064 316.57812 343.9344Q316.90625 343.52814 317.51562 343.3094Q318.125 343.09064 318.92188 343.09064Q319.71875 343.09064 320.21875 343.27814Q320.71875 343.46564 320.95312 343.7469Q321.1875 344.02814 321.28125 344.46564Q321.32812 344.73126 321.32812 345.4344L321.32812 346.84064Q321.32812 348.3094 321.39062 348.7Q321.46875 349.09064 321.67188 349.45L320.5625 349.45Q320.40625 349.1219 320.35938 348.6844ZM320.26562 346.325Q319.6875 346.5594 318.54688 346.73126Q317.89062 346.825 317.625 346.95Q317.35938 347.0594 317.20312 347.27814Q317.0625 347.4969 317.0625 347.77814Q317.0625 348.2 317.375 348.48126Q317.70312 348.7625 318.3125 348.7625Q318.92188 348.7625 319.39062 348.4969Q319.875 348.23126 320.09375 347.7625Q320.26562 347.40314 320.26562 346.71564L320.26562 346.325ZM325.01562 349.45L322.65625 343.23126L323.76562 343.23126L325.10938 346.95Q325.3125 347.5594 325.5 348.2Q325.64062 347.71564 325.89062 347.02814L327.28125 343.23126L328.35938 343.23126L326.0 349.45L325.01562 349.45ZM332.35938 348.6844Q331.76562 349.1844 331.21875 349.3875Q330.6875 349.59064 330.0625 349.59064Q329.03125 349.59064 328.48438 349.09064Q327.9375 348.59064 327.9375 347.8094Q327.9375 347.35626 328.14062 346.98126Q328.34375 346.59064 328.6875 346.3719Q329.03125 346.1375 329.45312 346.02814Q329.75 345.9344 330.39062 345.85626Q331.65625 345.71564 332.26562 345.4969Q332.26562 345.27814 332.26562 345.23126Q332.26562 344.575 331.96875 344.3094Q331.5625 343.96564 330.76562 343.96564Q330.03125 343.96564 329.67188 344.23126Q329.3125 344.48126 329.14062 345.1375L328.10938 344.9969Q328.25 344.34064 328.57812 343.9344Q328.90625 343.52814 329.51562 343.3094Q330.125 343.09064 330.92188 343.09064Q331.71875 343.09064 332.21875 343.27814Q332.71875 343.46564 332.95312 343.7469Q333.1875 344.02814 333.28125 344.46564Q333.32812 344.73126 333.32812 345.4344L333.32812 346.84064Q333.32812 348.3094 333.39062 348.7Q333.46875 349.09064 333.67188 349.45L332.5625 349.45Q332.40625 349.1219 332.35938 348.6844ZM332.26562 346.325Q331.6875 346.5594 330.54688 346.73126Q329.89062 346.825 329.625 346.95Q329.35938 347.0594 329.20312 347.27814Q329.0625 347.4969 329.0625 347.77814Q329.0625 348.2 329.375 348.48126Q329.70312 348.7625 330.3125 348.7625Q330.92188 348.7625 331.39062 348.4969Q331.875 348.23126 332.09375 347.7625Q332.26562 347.40314 332.26562 346.71564L332.26562 346.325ZM334.875 346.8719L334.875 345.8094L338.125 345.8094L338.125 346.8719L334.875 346.8719ZM339.0625 341.98126L339.0625 340.96564L344.625 340.96564L344.625 341.79376Q343.8125 342.66876 343.0 344.1219Q342.20312 345.5594 341.76562 347.09064Q341.4375 348.16876 341.35938 349.45L340.26562 349.45Q340.28125 348.4344 340.65625 346.9969Q341.04688 345.5594 341.75 344.23126Q342.46875 342.90314 343.28125 341.98126L339.0625 341.98126ZM346.375 349.45L346.375 340.85626L349.60938 340.85626Q350.59375 340.85626 351.1875 341.1219Q351.78125 341.3875 352.10938 341.9344Q352.45312 342.46564 352.45312 343.0594Q352.45312 343.60626 352.15625 344.09064Q351.85938 344.575 351.25 344.8719Q352.03125 345.10626 352.4375 345.66876Q352.85938 346.21564 352.85938 346.96564Q352.85938 347.5594 352.60938 348.09064Q352.35938 348.60626 351.98438 348.8875Q351.60938 349.16876 351.03125 349.3094Q350.46875 349.45 349.65625 349.45L346.375 349.45ZM347.51562 344.46564L349.375 344.46564Q350.125 344.46564 350.45312 344.3719Q350.89062 344.2469 351.10938 343.95Q351.32812 343.6375 351.32812 343.1844Q351.32812 342.7625 351.125 342.4344Q350.92188 342.10626 350.53125 341.9969Q350.15625 341.8719 349.23438 341.8719L347.51562 341.8719L347.51562 344.46564ZM347.51562 348.4344L349.65625 348.4344Q350.20312 348.4344 350.42188 348.3875Q350.82812 348.325 351.07812 348.16876Q351.34375 347.9969 351.51562 347.6844Q351.6875 347.3719 351.6875 346.96564Q351.6875 346.48126 351.4375 346.1219Q351.20312 345.7625 350.76562 345.6219Q350.32812 345.48126 349.5 345.48126L347.51562 345.48126L347.51562 348.4344Z" fill-rule="nonzero"/><path fill="#314c59" d="M397.06192 349.45L397.06192 340.85626L398.20255 340.85626L398.20255 348.4344L402.43692 348.4344L402.43692 349.45L397.06192 349.45ZM403.95255 349.45L403.95255 340.85626L405.01505 340.85626L405.01505 349.45L403.95255 349.45ZM411.0463 348.6844Q410.45255 349.1844 409.90567 349.3875Q409.37442 349.59064 408.74942 349.59064Q407.71817 349.59064 407.1713 349.09064Q406.62442 348.59064 406.62442 347.8094Q406.62442 347.35626 406.82755 346.98126Q407.03067 346.59064 407.37442 346.3719Q407.71817 346.1375 408.14005 346.02814Q408.43692 345.9344 409.07755 345.85626Q410.34317 345.71564 410.95255 345.4969Q410.95255 345.27814 410.95255 345.23126Q410.95255 344.575 410.65567 344.3094Q410.24942 343.96564 409.45255 343.96564Q408.71817 343.96564 408.3588 344.23126Q407.99942 344.48126 407.82755 345.1375L406.7963 344.9969Q406.93692 344.34064 407.26505 343.9344Q407.59317 343.52814 408.20255 343.3094Q408.81192 343.09064 409.6088 343.09064Q410.40567 343.09064 410.90567 343.27814Q411.40567 343.46564 411.64005 343.7469Q411.87442 344.02814 411.96817 344.46564Q412.01505 344.73126 412.01505 345.4344L412.01505 346.84064Q412.01505 348.3094 412.07755 348.7Q412.15567 349.09064 412.3588 349.45L411.24942 349.45Q411.09317 349.1219 411.0463 348.6844ZM410.95255 346.325Q410.37442 346.5594 409.2338 346.73126Q408.57755 346.825 408.31192 346.95Q408.0463 347.0594 407.89005 347.27814Q407.74942 347.4969 407.74942 347.77814Q407.74942 348.2 408.06192 348.48126Q408.39005 348.7625 408.99942 348.7625Q409.6088 348.7625 410.07755 348.4969Q410.56192 348.23126 410.78067 347.7625Q410.95255 347.40314 410.95255 346.71564L410.95255 346.325ZM415.70255 349.45L413.34317 343.23126L414.45255 343.23126L415.7963 346.95Q415.99942 347.5594 416.18692 348.2Q416.32755 347.71564 416.57755 347.02814L417.96817 343.23126L419.0463 343.23126L416.68692 349.45L415.70255 349.45ZM423.0463 348.6844Q422.45255 349.1844 421.90567 349.3875Q421.37442 349.59064 420.74942 349.59064Q419.71817 349.59064 419.1713 349.09064Q418.62442 348.59064 418.62442 347.8094Q418.62442 347.35626 418.82755 346.98126Q419.03067 346.59064 419.37442 346.3719Q419.71817 346.1375 420.14005 346.02814Q420.43692 345.9344 421.07755 345.85626Q422.34317 345.71564 422.95255 345.4969Q422.95255 345.27814 422.95255 345.23126Q422.95255 344.575 422.65567 344.3094Q422.24942 343.96564 421.45255 343.96564Q420.71817 343.96564 420.3588 344.23126Q419.99942 344.48126 419.82755 345.1375L418.7963 344.9969Q418.93692 344.34064 419.26505 343.9344Q419.59317 343.52814 420.20255 343.3094Q420.81192 343.09064 421.6088 343.09064Q422.40567 343.09064 422.90567 343.27814Q423.40567 343.46564 423.64005 343.7469Q423.87442 344.02814 423.96817 344.46564Q424.01505 344.73126 424.01505 345.4344L424.01505 346.84064Q424.01505 348.3094 424.07755 348.7Q424.15567 349.09064 424.3588 349.45L423.24942 349.45Q423.09317 349.1219 423.0463 348.6844ZM422.95255 346.325Q422.37442 346.5594 421.2338 346.73126Q420.57755 346.825 420.31192 346.95Q420.0463 347.0594 419.89005 347.27814Q419.74942 347.4969 419.74942 347.77814Q419.74942 348.2 420.06192 348.48126Q420.39005 348.7625 420.99942 348.7625Q421.6088 348.7625 422.07755 348.4969Q422.56192 348.23126 422.78067 347.7625Q422.95255 347.40314 422.95255 346.71564L422.95255 346.325ZM425.56192 346.8719L425.56192 345.8094L428.81192 345.8094L428.81192 346.8719L425.56192 346.8719ZM433.65567 349.45L432.6088 349.45L432.6088 342.73126Q432.21817 343.09064 431.59317 343.46564Q430.9838 343.825 430.49942 343.9969L430.49942 342.98126Q431.37442 342.5594 432.03067 341.98126Q432.70255 341.3875 432.9838 340.825L433.65567 340.825L433.65567 349.45ZM436.68692 347.1844L437.74942 347.04376Q437.9213 347.9344 438.3588 348.34064Q438.7963 348.73126 439.4213 348.73126Q440.1713 348.73126 440.68692 348.21564Q441.20255 347.7 441.20255 346.9344Q441.20255 346.21564 440.71817 345.7469Q440.24942 345.2625 439.51505 345.2625Q439.21817 345.2625 438.76505 345.3875L438.89005 344.45Q438.99942 344.46564 439.06192 344.46564Q439.7338 344.46564 440.26505 344.1219Q440.81192 343.7625 440.81192 343.02814Q440.81192 342.45 440.4213 342.075Q440.03067 341.6844 439.40567 341.6844Q438.7963 341.6844 438.37442 342.075Q437.96817 342.46564 437.8588 343.23126L436.7963 343.04376Q436.9838 341.9969 437.6713 341.41876Q438.3588 340.825 439.37442 340.825Q440.07755 340.825 440.6713 341.1375Q441.26505 341.4344 441.57755 341.95Q441.89005 342.46564 441.89005 343.0594Q441.89005 343.60626 441.59317 344.075Q441.2963 344.52814 440.71817 344.79376Q441.46817 344.96564 441.89005 345.52814Q442.31192 346.075 442.31192 346.91876Q442.31192 348.04376 441.4838 348.825Q440.6713 349.60626 439.4213 349.60626Q438.2963 349.60626 437.5463 348.9344Q436.7963 348.2469 436.68692 347.1844ZM444.06192 349.45L444.06192 340.85626L447.2963 340.85626Q448.28067 340.85626 448.87442 341.1219Q449.46817 341.3875 449.7963 341.9344Q450.14005 342.46564 450.14005 343.0594Q450.14005 343.60626 449.84317 344.09064Q449.5463 344.575 448.93692 344.8719Q449.71817 345.10626 450.12442 345.66876Q450.5463 346.21564 450.5463 346.96564Q450.5463 347.5594 450.2963 348.09064Q450.0463 348.60626 449.6713 348.8875Q449.2963 349.16876 448.71817 349.3094Q448.15567 349.45 447.34317 349.45L444.06192 349.45ZM445.20255 344.46564L447.06192 344.46564Q447.81192 344.46564 448.14005 344.3719Q448.57755 344.2469 448.7963 343.95Q449.01505 343.6375 449.01505 343.1844Q449.01505 342.7625 448.81192 342.4344Q448.6088 342.10626 448.21817 341.9969Q447.84317 341.8719 446.9213 341.8719L445.20255 341.8719L445.20255 344.46564ZM445.20255 348.4344L447.34317 348.4344Q447.89005 348.4344 448.1088 348.3875Q448.51505 348.325 448.76505 348.16876Q449.03067 347.9969 449.20255 347.6844Q449.37442 347.3719 449.37442 346.96564Q449.37442 346.48126 449.12442 346.1219Q448.89005 345.7625 448.45255 345.6219Q448.01505 345.48126 447.18692 345.48126L445.20255 345.48126L445.20255 348.4344Z" fill-rule="nonzero"/><path fill="#314c59" d="M487.74884 349.45L484.42072 340.85626L485.6551 340.85626L487.88947 347.10626Q488.1551 347.85626 488.3426 348.5125Q488.54572 347.8094 488.81134 347.10626L491.12384 340.85626L492.2801 340.85626L488.92072 349.45L487.74884 349.45ZM492.49884 349.45L492.49884 340.85626L493.62384 340.85626L493.62384 349.45L492.49884 349.45ZM495.24884 349.45L495.24884 340.85626L496.38947 340.85626L496.38947 348.4344L500.62384 348.4344L500.62384 349.45L495.24884 349.45ZM501.35822 349.45L504.6551 340.85626L505.87384 340.85626L509.38947 349.45L508.10822 349.45L507.0926 346.84064L503.51447 346.84064L502.56134 349.45L501.35822 349.45ZM503.8426 345.91876L506.74884 345.91876L505.85822 343.54376Q505.43634 342.46564 505.24884 341.7625Q505.07697 342.59064 504.7801 343.40314L503.8426 345.91876ZM512.8426 349.45L511.79572 349.45L511.79572 342.73126Q511.4051 343.09064 510.7801 343.46564Q510.17072 343.825 509.68634 343.9969L509.68634 342.98126Q510.56134 342.5594 511.2176 341.98126Q511.88947 341.3875 512.1707 340.825L512.8426 340.825L512.8426 349.45ZM516.4676 349.45L516.4676 348.2469L517.6707 348.2469L517.6707 349.45L516.4676 349.45ZM518.87384 347.2L519.9832 347.10626Q520.1082 347.91876 520.5457 348.325Q520.99884 348.73126 521.63947 348.73126Q522.38947 348.73126 522.9207 348.15314Q523.45197 347.575 523.45197 346.6375Q523.45197 345.73126 522.93634 345.21564Q522.43634 344.6844 521.6082 344.6844Q521.1082 344.6844 520.68634 344.91876Q520.2801 345.15314 520.0457 345.5125L519.06134 345.3875L519.88947 340.98126L524.1707 340.98126L524.1707 341.98126L520.7332 341.98126L520.2801 344.29376Q521.0457 343.7469 521.88947 343.7469Q523.01447 343.7469 523.7801 344.52814Q524.56134 345.3094 524.56134 346.54376Q524.56134 347.7 523.88947 348.5594Q523.06134 349.59064 521.63947 349.59064Q520.4676 349.59064 519.7176 348.9344Q518.9832 348.27814 518.87384 347.2ZM525.74884 346.8719L525.74884 345.8094L528.99884 345.8094L528.99884 346.8719L525.74884 346.8719ZM533.8426 349.45L532.7957 349.45L532.7957 342.73126Q532.4051 343.09064 531.7801 343.46564Q531.1707 343.825 530.68634 343.9969L530.68634 342.98126Q531.56134 342.5594 532.2176 341.98126Q532.88947 341.3875 533.1707 340.825L533.8426 340.825L533.8426 349.45ZM536.87384 347.1844L537.93634 347.04376Q538.1082 347.9344 538.5457 348.34064Q538.9832 348.73126 539.6082 348.73126Q540.3582 348.73126 540.87384 348.21564Q541.38947 347.7 541.38947 346.9344Q541.38947 346.21564 540.9051 345.7469Q540.43634 345.2625 539.70197 345.2625Q539.4051 345.2625 538.95197 345.3875L539.07697 344.45Q539.18634 344.46564 539.24884 344.46564Q539.9207 344.46564 540.45197 344.1219Q540.99884 343.7625 540.99884 343.02814Q540.99884 342.45 540.6082 342.075Q540.2176 341.6844 539.5926 341.6844Q538.9832 341.6844 538.56134 342.075Q538.1551 342.46564 538.0457 343.23126L536.9832 343.04376Q537.1707 341.9969 537.8582 341.41876Q538.5457 340.825 539.56134 340.825Q540.26447 340.825 540.8582 341.1375Q541.45197 341.4344 541.76447 341.95Q542.07697 342.46564 542.07697 343.0594Q542.07697 343.60626 541.7801 344.075Q541.4832 344.52814 540.9051 344.79376Q541.6551 344.96564 542.07697 345.52814Q542.49884 346.075 542.49884 346.91876Q542.49884 348.04376 541.6707 348.825Q540.8582 349.60626 539.6082 349.60626Q538.4832 349.60626 537.7332 348.9344Q536.9832 348.2469 536.87384 347.1844ZM544.24884 349.45L544.24884 340.85626L547.4832 340.85626Q548.4676 340.85626 549.06134 341.1219Q549.6551 341.3875 549.9832 341.9344Q550.32697 342.46564 550.32697 343.0594Q550.32697 343.60626 550.0301 344.09064Q549.7332 344.575 549.12384 344.8719Q549.9051 345.10626 550.31134 345.66876Q550.7332 346.21564 550.7332 346.96564Q550.7332 347.5594 550.4832 348.09064Q550.2332 348.60626 549.8582 348.8875Q549.4832 349.16876 548.9051 349.3094Q548.3426 349.45 547.5301 349.45L544.24884 349.45ZM545.38947 344.46564L547.24884 344.46564Q547.99884 344.46564 548.32697 344.3719Q548.76447 344.2469 548.9832 343.95Q549.20197 343.6375 549.20197 343.1844Q549.20197 342.7625 548.99884 342.4344Q548.7957 342.10626 548.4051 341.9969Q548.0301 341.8719 547.1082 341.8719L545.38947 341.8719L545.38947 344.46564ZM545.38947 348.4344L547.5301 348.4344Q548.07697 348.4344 548.2957 348.3875Q548.70197 348.325 548.95197 348.16876Q549.2176 347.9969 549.38947 347.6844Q549.56134 347.3719 549.56134 346.96564Q549.56134 346.48126 549.31134 346.1219Q549.07697 345.7625 548.63947 345.6219Q548.20197 345.48126 547.37384 345.48126L545.38947 345.48126L545.38947 348.4344Z" fill-rule="nonzero"/><path fill="#adb7bd" d="M18.95625 60.20625L20.14375 60.034374Q20.190624 61.190624 20.565624 61.6125Q20.95625 62.034374 21.64375 62.034374Q22.14375 62.034374 22.503124 61.815624Q22.8625 61.58125 23.003124 61.190624Q23.14375 60.8 23.14375 59.925L23.14375 53.034374L24.45625 53.034374L24.45625 59.8625Q24.45625 61.1125 24.159374 61.815624Q23.8625 62.503124 23.190624 62.8625Q22.534374 63.221874 21.64375 63.221874Q20.33125 63.221874 19.628124 62.471874Q18.925 61.70625 18.95625 60.20625ZM30.440624 60.70625L31.721874 60.8625Q31.409374 61.9875 30.596874 62.6125Q29.784374 63.221874 28.51875 63.221874Q26.925 63.221874 25.9875 62.2375Q25.065624 61.253124 25.065624 59.4875Q25.065624 57.64375 26.003124 56.64375Q26.95625 55.628124 28.45625 55.628124Q29.909374 55.628124 30.83125 56.628124Q31.753124 57.6125 31.753124 59.409374Q31.753124 59.51875 31.753124 59.7375L26.33125 59.7375Q26.409374 60.925 27.003124 61.565624Q27.6125 62.20625 28.534374 62.20625Q29.20625 62.20625 29.675 61.846874Q30.159374 61.4875 30.440624 60.70625ZM26.409374 58.721874L30.45625 58.721874Q30.378124 57.8 29.9875 57.346874Q29.409374 56.64375 28.471874 56.64375Q27.6125 56.64375 27.034374 57.20625Q26.471874 57.76875 26.409374 58.721874ZM36.159374 61.95625L36.33125 63.034374Q35.815624 63.14375 35.409374 63.14375Q34.7375 63.14375 34.3625 62.940624Q34.003124 62.721874 33.846874 62.378124Q33.70625 62.034374 33.70625 60.925L33.70625 56.753124L32.8 56.753124L32.8 55.784374L33.70625 55.784374L33.70625 53.9875L34.925 53.253124L34.925 55.784374L36.159374 55.784374L36.159374 56.753124L34.925 56.753124L34.925 60.9875Q34.925 61.51875 34.9875 61.675Q35.05 61.815624 35.190624 61.909374Q35.346874 62.003124 35.6125 62.003124Q35.83125 62.003124 36.159374 61.95625ZM36.9875 60.878124L38.190624 60.690624Q38.3 61.425 38.76875 61.815624Q39.2375 62.20625 40.08125 62.20625Q40.925 62.20625 41.33125 61.8625Q41.753124 61.51875 41.753124 61.05Q41.753124 60.628124 41.378124 60.39375Q41.128124 60.221874 40.128124 59.971874Q38.76875 59.628124 38.2375 59.378124Q37.721874 59.128124 37.45625 58.690624Q37.190624 58.253124 37.190624 57.721874Q37.190624 57.2375 37.409374 56.83125Q37.628124 56.409374 38.01875 56.128124Q38.3 55.925 38.784374 55.784374Q39.284374 55.628124 39.8625 55.628124Q40.70625 55.628124 41.346874 55.878124Q42.003124 56.1125 42.315624 56.534374Q42.628124 56.95625 42.7375 57.659374L41.534374 57.83125Q41.45625 57.26875 41.05 56.95625Q40.659374 56.64375 39.940624 56.64375Q39.096874 56.64375 38.7375 56.925Q38.378124 57.190624 38.378124 57.58125Q38.378124 57.815624 38.51875 58.003124Q38.675 58.20625 39.003124 58.33125Q39.175 58.39375 40.08125 58.64375Q41.39375 59.003124 41.909374 59.221874Q42.425 59.440624 42.70625 59.8625Q43.003124 60.284374 43.003124 60.909374Q43.003124 61.534374 42.64375 62.08125Q42.3 62.6125 41.6125 62.925Q40.940624 63.221874 40.08125 63.221874Q38.675 63.221874 37.925 62.628124Q37.190624 62.034374 36.9875 60.878124ZM44.01875 59.425Q44.01875 57.409374 45.14375 56.425Q46.065624 55.628124 47.425 55.628124Q48.909374 55.628124 49.8625 56.6125Q50.815624 57.58125 50.815624 59.315624Q50.815624 60.721874 50.39375 61.534374Q49.971874 62.33125 49.159374 62.784374Q48.3625 63.221874 47.425 63.221874Q45.89375 63.221874 44.95625 62.2375Q44.01875 61.253124 44.01875 59.425ZM45.284374 59.425Q45.284374 60.815624 45.89375 61.51875Q46.503124 62.20625 47.425 62.20625Q48.33125 62.20625 48.940624 61.503124Q49.55 60.8 49.55 59.378124Q49.55 58.034374 48.940624 57.346874Q48.33125 56.64375 47.425 56.64375Q46.503124 56.64375 45.89375 57.33125Q45.284374 58.01875 45.284374 59.425ZM52.471874 63.05L52.471874 55.784374L53.58125 55.784374L53.58125 56.815624Q54.378124 55.628124 55.89375 55.628124Q56.55 55.628124 57.096874 55.8625Q57.64375 56.096874 57.909374 56.4875Q58.190624 56.8625 58.3 57.39375Q58.378124 57.7375 58.378124 58.58125L58.378124 63.05L57.14375 63.05L57.14375 58.628124Q57.14375 57.878124 57.003124 57.51875Q56.8625 57.14375 56.4875 56.925Q56.128124 56.690624 55.628124 56.690624Q54.846874 56.690624 54.26875 57.190624Q53.70625 57.690624 53.70625 59.08125L53.70625 63.05L52.471874 63.05ZM63.534374 63.05L67.37813 53.034374L68.8 53.034374L72.90938 63.05L71.39375 63.05L70.22188 60.01875L66.03438 60.01875L64.94063 63.05L63.534374 63.05ZM66.425 58.940624L69.81563 58.940624L68.76875 56.159374Q68.3 54.89375 68.06563 54.08125Q67.87813 55.05 67.51875 55.9875L66.425 58.940624ZM78.31563 59.1125L78.31563 57.940624L82.56563 57.940624L82.56563 61.659374Q81.58125 62.440624 80.53438 62.83125Q79.50313 63.221874 78.40938 63.221874Q76.94063 63.221874 75.72188 62.596874Q74.51875 61.95625 73.90938 60.76875Q73.3 59.565624 73.3 58.08125Q73.3 56.628124 73.90938 55.3625Q74.51875 54.08125 75.65938 53.471874Q76.81563 52.8625 78.31563 52.8625Q79.39375 52.8625 80.26875 53.221874Q81.15938 53.565624 81.65938 54.190624Q82.15938 54.815624 82.40938 55.83125L81.22188 56.159374Q80.9875 55.39375 80.64375 54.95625Q80.31563 54.51875 79.69063 54.253124Q79.08125 53.9875 78.31563 53.9875Q77.40938 53.9875 76.7375 54.26875Q76.08125 54.55 75.675 55.003124Q75.26875 55.440624 75.05 55.9875Q74.65938 56.925 74.65938 58.003124Q74.65938 59.346874 75.1125 60.253124Q75.58125 61.14375 76.45625 61.58125Q77.34688 62.01875 78.34688 62.01875Q79.20625 62.01875 80.01875 61.690624Q80.84688 61.3625 81.26875 60.9875L81.26875 59.1125L78.31563 59.1125ZM83.6125 63.05L87.4875 57.83125L84.06563 53.034374L85.64375 53.034374L87.47188 55.596874Q88.03438 56.39375 88.26875 56.83125Q88.6125 56.284374 89.06563 55.690624L91.08125 53.034374L92.51875 53.034374L89.00313 57.753124L92.8 63.05L91.15938 63.05L88.64375 59.471874Q88.425 59.159374 88.20625 58.8Q87.8625 59.346874 87.72188 59.55L85.20625 63.05L83.6125 63.05ZM96.22188 58.175Q96.22188 55.675 97.56563 54.26875Q98.90938 52.846874 101.01875 52.846874Q102.40938 52.846874 103.51875 53.51875Q104.64375 54.175 105.22188 55.3625Q105.81563 56.55 105.81563 58.05Q105.81563 59.58125 105.19063 60.784374Q104.58125 61.9875 103.45625 62.6125Q102.33125 63.221874 101.01875 63.221874Q99.59688 63.221874 98.4875 62.534374Q97.37813 61.846874 96.8 60.675Q96.22188 59.4875 96.22188 58.175ZM97.59688 58.190624Q97.59688 60.003124 98.56563 61.05Q99.55 62.08125 101.01875 62.08125Q102.50313 62.08125 103.47188 61.034374Q104.44063 59.9875 104.44063 58.05Q104.44063 56.815624 104.01875 55.909374Q103.6125 55.003124 102.81563 54.503124Q102.01875 53.9875 101.03438 53.9875Q99.62813 53.9875 98.6125 54.95625Q97.59688 55.925 97.59688 58.190624ZM107.45625 63.05L107.45625 55.784374L108.56563 55.784374L108.56563 56.89375Q108.9875 56.1125 109.34688 55.878124Q109.70625 55.628124 110.14375 55.628124Q110.76875 55.628124 111.40938 56.01875L110.9875 57.159374Q110.53438 56.89375 110.08125 56.89375Q109.675 56.89375 109.34688 57.14375Q109.03438 57.378124 108.89375 57.815624Q108.69063 58.471874 108.69063 59.253124L108.69063 63.05L107.45625 63.05ZM112.4875 54.440624L112.4875 53.034374L113.70625 53.034374L113.70625 54.440624L112.4875 54.440624ZM112.4875 63.05L112.4875 55.784374L113.70625 55.784374L113.70625 63.05L112.4875 63.05ZM115.47188 63.05L115.47188 55.784374L116.58125 55.784374L116.58125 56.815624Q117.37813 55.628124 118.89375 55.628124Q119.55 55.628124 120.09688 55.8625Q120.64375 56.096874 120.90938 56.4875Q121.19063 56.8625 121.3 57.39375Q121.37813 57.7375 121.37813 58.58125L121.37813 63.05L120.14375 63.05L120.14375 58.628124Q120.14375 57.878124 120.00313 57.51875Q119.8625 57.14375 119.4875 56.925Q119.12813 56.690624 118.62813 56.690624Q117.84688 56.690624 117.26875 57.190624Q116.70625 57.690624 116.70625 59.08125L116.70625 63.05L115.47188 63.05ZM123.8 63.05L123.8 61.64375L125.19063 61.64375L125.19063 63.05Q125.19063 63.815624 124.90938 64.28438Q124.64375 64.76875 124.05 65.03438L123.70625 64.50313Q124.09688 64.33125 124.28438 64.00313Q124.47188 63.675 124.4875 63.05L123.8 63.05ZM135.08125 63.05L135.08125 60.64375L130.72188 60.64375L130.72188 59.51875L135.3 53.034374L136.3 53.034374L136.3 59.51875L137.65938 59.51875L137.65938 60.64375L136.3 60.64375L136.3 63.05L135.08125 63.05ZM135.08125 59.51875L135.08125 55.003124L131.94063 59.51875L135.08125 59.51875ZM138.9875 60.034374L138.9875 58.8L142.76875 58.8L142.76875 60.034374L138.9875 60.034374ZM145.6125 63.05L144.47188 63.05L144.47188 53.034374L145.69063 53.034374L145.69063 56.596874Q146.47188 55.628124 147.69063 55.628124Q148.3625 55.628124 148.95625 55.89375Q149.55 56.159374 149.94063 56.659374Q150.33125 57.14375 150.55 57.83125Q150.76875 58.51875 150.76875 59.315624Q150.76875 61.175 149.83125 62.20625Q148.90938 63.221874 147.62813 63.221874Q146.34688 63.221874 145.6125 62.14375L145.6125 63.05ZM145.59688 59.3625Q145.59688 60.675 145.95625 61.253124Q146.53438 62.20625 147.51875 62.20625Q148.33125 62.20625 148.90938 61.503124Q149.50313 60.8 149.50313 59.409374Q149.50313 57.9875 148.94063 57.315624Q148.37813 56.64375 147.58125 56.64375Q146.76875 56.64375 146.175 57.346874Q145.59688 58.034374 145.59688 59.3625ZM152.4875 54.440624L152.4875 53.034374L153.70625 53.034374L153.70625 54.440624L152.4875 54.440624ZM152.4875 63.05L152.4875 55.784374L153.70625 55.784374L153.70625 63.05L152.4875 63.05ZM158.15938 61.95625L158.33125 63.034374Q157.81563 63.14375 157.40938 63.14375Q156.7375 63.14375 156.3625 62.940624Q156.00313 62.721874 155.84688 62.378124Q155.70625 62.034374 155.70625 60.925L155.70625 56.753124L154.8 56.753124L154.8 55.784374L155.70625 55.784374L155.70625 53.9875L156.925 53.253124L156.925 55.784374L158.15938 55.784374L158.15938 56.753124L156.925 56.753124L156.925 60.9875Q156.925 61.51875 156.9875 61.675Q157.05 61.815624 157.19063 61.909374Q157.34688 62.003124 157.6125 62.003124Q157.83125 62.003124 158.15938 61.95625ZM171.22188 61.971874Q172.14375 62.6125 172.925 62.909374L172.53438 63.83125Q171.45625 63.440624 170.37813 62.596874Q169.26875 63.221874 167.925 63.221874Q166.56563 63.221874 165.45625 62.565624Q164.34688 61.909374 163.75313 60.721874Q163.15938 59.534374 163.15938 58.034374Q163.15938 56.55 163.75313 55.346874Q164.3625 54.128124 165.47188 53.4875Q166.58125 52.846874 167.95625 52.846874Q169.33125 52.846874 170.44063 53.51875Q171.56563 54.175 172.14375 55.3625Q172.7375 56.534374 172.7375 58.034374Q172.7375 59.26875 172.3625 60.253124Q171.9875 61.2375 171.22188 61.971874ZM168.3 60.284374Q169.45625 60.596874 170.20625 61.2375Q171.3625 60.175 171.3625 58.034374Q171.3625 56.815624 170.94063 55.909374Q170.53438 55.003124 169.7375 54.503124Q168.95625 53.9875 167.95625 53.9875Q166.47188 53.9875 165.4875 55.003124Q164.51875 56.01875 164.51875 58.034374Q164.51875 59.9875 165.4875 61.034374Q166.45625 62.08125 167.95625 62.08125Q168.675 62.08125 169.3 61.815624Q168.675 61.409374 167.9875 61.2375L168.3 60.284374ZM179.2375 63.05L179.2375 61.9875Q178.37813 63.221874 176.925 63.221874Q176.28438 63.221874 175.72188 62.971874Q175.175 62.721874 174.89375 62.346874Q174.62813 61.971874 174.51875 61.440624Q174.44063 61.08125 174.44063 60.284374L174.44063 55.784374L175.675 55.784374L175.675 59.815624Q175.675 60.784374 175.75313 61.1125Q175.8625 61.596874 176.2375 61.878124Q176.6125 62.159374 177.175 62.159374Q177.72188 62.159374 178.20625 61.878124Q178.69063 61.58125 178.89375 61.096874Q179.09688 60.6125 179.09688 59.675L179.09688 55.784374L180.33125 55.784374L180.33125 63.05L179.2375 63.05ZM187.20625 62.159374Q186.53438 62.7375 185.89375 62.9875Q185.26875 63.221874 184.53438 63.221874Q183.34688 63.221874 182.69063 62.64375Q182.05 62.05 182.05 61.128124Q182.05 60.596874 182.28438 60.159374Q182.53438 59.721874 182.925 59.45625Q183.33125 59.190624 183.81563 59.05Q184.175 58.95625 184.90938 58.8625Q186.40938 58.690624 187.1125 58.440624Q187.1125 58.190624 187.1125 58.128124Q187.1125 57.3625 186.76875 57.065624Q186.3 56.64375 185.3625 56.64375Q184.50313 56.64375 184.08125 56.95625Q183.675 57.253124 183.47188 58.01875L182.26875 57.8625Q182.425 57.08125 182.8 56.6125Q183.19063 56.14375 183.89375 55.89375Q184.6125 55.628124 185.55 55.628124Q186.47188 55.628124 187.05 55.846874Q187.62813 56.065624 187.89375 56.39375Q188.175 56.721874 188.28438 57.2375Q188.34688 57.55 188.34688 58.3625L188.34688 60.003124Q188.34688 61.721874 188.425 62.175Q188.50313 62.628124 188.7375 63.05L187.45625 63.05Q187.26875 62.659374 187.20625 62.159374ZM187.1125 59.409374Q186.44063 59.675 185.09688 59.878124Q184.34688 59.9875 184.01875 60.128124Q183.70625 60.253124 183.53438 60.51875Q183.3625 60.784374 183.3625 61.096874Q183.3625 61.596874 183.7375 61.925Q184.1125 62.253124 184.83125 62.253124Q185.55 62.253124 186.09688 61.940624Q186.64375 61.628124 186.90938 61.08125Q187.1125 60.675 187.1125 59.8625L187.1125 59.409374ZM190.47188 63.05L190.47188 55.784374L191.58125 55.784374L191.58125 56.815624Q192.37813 55.628124 193.89375 55.628124Q194.55 55.628124 195.09688 55.8625Q195.64375 56.096874 195.90938 56.4875Q196.19063 56.8625 196.3 57.39375Q196.37813 57.7375 196.37813 58.58125L196.37813 63.05L195.14375 63.05L195.14375 58.628124Q195.14375 57.878124 195.00313 57.51875Q194.8625 57.14375 194.4875 56.925Q194.12813 56.690624 193.62813 56.690624Q192.84688 56.690624 192.26875 57.190624Q191.70625 57.690624 191.70625 59.08125L191.70625 63.05L190.47188 63.05ZM201.15938 61.95625L201.33125 63.034374Q200.81563 63.14375 200.40938 63.14375Q199.7375 63.14375 199.3625 62.940624Q199.00313 62.721874 198.84688 62.378124Q198.70625 62.034374 198.70625 60.925L198.70625 56.753124L197.8 56.753124L197.8 55.784374L198.70625 55.784374L198.70625 53.9875L199.925 53.253124L199.925 55.784374L201.15938 55.784374L201.15938 56.753124L199.925 56.753124L199.925 60.9875Q199.925 61.51875 199.9875 61.675Q200.05 61.815624 200.19063 61.909374Q200.34688 62.003124 200.6125 62.003124Q200.83125 62.003124 201.15938 61.95625ZM202.4875 54.440624L202.4875 53.034374L203.70625 53.034374L203.70625 54.440624L202.4875 54.440624ZM202.4875 63.05L202.4875 55.784374L203.70625 55.784374L203.70625 63.05L202.4875 63.05ZM204.83125 63.05L204.83125 62.05L209.44063 56.753124Q208.65938 56.784374 208.05 56.784374L205.09688 56.784374L205.09688 55.784374L211.03438 55.784374L211.03438 56.596874L207.09688 61.20625L206.34688 62.05Q207.175 61.9875 207.89375 61.9875L211.25313 61.9875L211.25313 63.05L204.83125 63.05ZM216.20625 62.159374Q215.53438 62.7375 214.89375 62.9875Q214.26875 63.221874 213.53438 63.221874Q212.34688 63.221874 211.69063 62.64375Q211.05 62.05 211.05 61.128124Q211.05 60.596874 211.28438 60.159374Q211.53438 59.721874 211.925 59.45625Q212.33125 59.190624 212.81563 59.05Q213.175 58.95625 213.90938 58.8625Q215.40938 58.690624 216.1125 58.440624Q216.1125 58.190624 216.1125 58.128124Q216.1125 57.3625 215.76875 57.065624Q215.3 56.64375 214.3625 56.64375Q213.50313 56.64375 213.08125 56.95625Q212.675 57.253124 212.47188 58.01875L211.26875 57.8625Q211.425 57.08125 211.8 56.6125Q212.19063 56.14375 212.89375 55.89375Q213.6125 55.628124 214.55 55.628124Q215.47188 55.628124 216.05 55.846874Q216.62813 56.065624 216.89375 56.39375Q217.175 56.721874 217.28438 57.2375Q217.34688 57.55 217.34688 58.3625L217.34688 60.003124Q217.34688 61.721874 217.425 62.175Q217.50313 62.628124 217.7375 63.05L216.45625 63.05Q216.26875 62.659374 216.20625 62.159374ZM216.1125 59.409374Q215.44063 59.675 214.09688 59.878124Q213.34688 59.9875 213.01875 60.128124Q212.70625 60.253124 212.53438 60.51875Q212.3625 60.784374 212.3625 61.096874Q212.3625 61.596874 212.7375 61.925Q213.1125 62.253124 213.83125 62.253124Q214.55 62.253124 215.09688 61.940624Q215.64375 61.628124 215.90938 61.08125Q216.1125 60.675 216.1125 59.8625L216.1125 59.409374ZM222.15938 61.95625L222.33125 63.034374Q221.81563 63.14375 221.40938 63.14375Q220.7375 63.14375 220.3625 62.940624Q220.00313 62.721874 219.84688 62.378124Q219.70625 62.034374 219.70625 60.925L219.70625 56.753124L218.8 56.753124L218.8 55.784374L219.70625 55.784374L219.70625 53.9875L220.925 53.253124L220.925 55.784374L222.15938 55.784374L222.15938 56.753124L220.925 56.753124L220.925 60.9875Q220.925 61.51875 220.9875 61.675Q221.05 61.815624 221.19063 61.909374Q221.34688 62.003124 221.6125 62.003124Q221.83125 62.003124 222.15938 61.95625ZM223.4875 54.440624L223.4875 53.034374L224.70625 53.034374L224.70625 54.440624L223.4875 54.440624ZM223.4875 63.05L223.4875 55.784374L224.70625 55.784374L224.70625 63.05L223.4875 63.05ZM226.01875 59.425Q226.01875 57.409374 227.14375 56.425Q228.06563 55.628124 229.425 55.628124Q230.90938 55.628124 231.8625 56.6125Q232.81563 57.58125 232.81563 59.315624Q232.81563 60.721874 232.39375 61.534374Q231.97188 62.33125 231.15938 62.784374Q230.3625 63.221874 229.425 63.221874Q227.89375 63.221874 226.95625 62.2375Q226.01875 61.253124 226.01875 59.425ZM227.28438 59.425Q227.28438 60.815624 227.89375 61.51875Q228.50313 62.20625 229.425 62.20625Q230.33125 62.20625 230.94063 61.503124Q231.55 60.8 231.55 59.378124Q231.55 58.034374 230.94063 57.346874Q230.33125 56.64375 229.425 56.64375Q228.50313 56.64375 227.89375 57.33125Q227.28438 58.01875 227.28438 59.425ZM234.47188 63.05L234.47188 55.784374L235.58125 55.784374L235.58125 56.815624Q236.37813 55.628124 237.89375 55.628124Q238.55 55.628124 239.09688 55.8625Q239.64375 56.096874 239.90938 56.4875Q240.19063 56.8625 240.3 57.39375Q240.37813 57.7375 240.37813 58.58125L240.37813 63.05L239.14375 63.05L239.14375 58.628124Q239.14375 57.878124 239.00313 57.51875Q238.8625 57.14375 238.4875 56.925Q238.12813 56.690624 237.62813 56.690624Q236.84688 56.690624 236.26875 57.190624Q235.70625 57.690624 235.70625 59.08125L235.70625 63.05L234.47188 63.05Z" fill-rule="nonzero"/><path fill="#909ea5" d="M20.034374 37.55L20.034374 23.2375L22.89375 23.2375L26.26875 33.3625Q26.7375 34.784374 26.95625 35.4875Q27.20625 34.70625 27.721874 33.190624L31.14375 23.2375L33.690624 23.2375L33.690624 37.55L31.878124 37.55L31.878124 25.565624L27.70625 37.55L26.003124 37.55L21.8625 25.3625L21.8625 37.55L20.034374 37.55ZM43.659374 37.55L43.659374 36.01875Q42.45625 37.784374 40.378124 37.784374Q39.45625 37.784374 38.659374 37.440624Q37.8625 37.08125 37.471874 36.55Q37.096874 36.01875 36.940624 35.2375Q36.83125 34.721874 36.83125 33.596874L36.83125 27.175L38.58125 27.175L38.58125 32.925Q38.58125 34.3 38.690624 34.784374Q38.8625 35.471874 39.39375 35.878124Q39.940624 36.26875 40.721874 36.26875Q41.51875 36.26875 42.20625 35.8625Q42.909374 35.45625 43.190624 34.76875Q43.4875 34.065624 43.4875 32.7375L43.4875 27.175L45.2375 27.175L45.2375 37.55L43.659374 37.55ZM46.83125 37.55L46.83125 23.2375L48.58125 23.2375L48.58125 37.55L46.83125 37.55ZM54.70625 35.971874L54.95625 37.534374Q54.221874 37.690624 53.628124 37.690624Q52.675 37.690624 52.14375 37.39375Q51.628124 37.08125 51.409374 36.596874Q51.190624 36.096874 51.190624 34.51875L51.190624 28.55L49.909374 28.55L49.909374 27.175L51.190624 27.175L51.190624 24.6125L52.940624 23.55L52.940624 27.175L54.70625 27.175L54.70625 28.55L52.940624 28.55L52.940624 34.6125Q52.940624 35.3625 53.034374 35.58125Q53.128124 35.784374 53.33125 35.925Q53.55 36.05 53.940624 36.05Q54.221874 36.05 54.70625 35.971874ZM56.878124 25.253124L56.878124 23.2375L58.64375 23.2375L58.64375 25.253124L56.878124 25.253124ZM56.878124 37.55L56.878124 27.175L58.64375 27.175L58.64375 37.55L56.878124 37.55ZM60.8625 37.55L60.8625 27.175L62.440624 27.175L62.440624 28.628124Q62.925 27.878124 63.7375 27.409374Q64.55 26.940624 65.58125 26.940624Q66.7375 26.940624 67.47188 27.425Q68.20625 27.89375 68.51875 28.753124Q69.75313 26.940624 71.72188 26.940624Q73.26875 26.940624 74.09688 27.8Q74.925 28.659374 74.925 30.425L74.925 37.55L73.175 37.55L73.175 31.01875Q73.175 29.95625 73.00313 29.503124Q72.83125 29.034374 72.37813 28.753124Q71.94063 28.471874 71.33125 28.471874Q70.2375 28.471874 69.50313 29.20625Q68.78438 29.925 68.78438 31.51875L68.78438 37.55L67.03438 37.55L67.03438 30.815624Q67.03438 29.64375 66.59688 29.065624Q66.175 28.471874 65.19063 28.471874Q64.45625 28.471874 63.815624 28.8625Q63.190624 29.253124 62.909374 30.003124Q62.628124 30.753124 62.628124 32.175L62.628124 37.55L60.8625 37.55ZM76.22188 32.3625Q76.22188 29.4875 77.81563 28.096874Q79.15938 26.940624 81.08125 26.940624Q83.22188 26.940624 84.56563 28.346874Q85.925 29.753124 85.925 32.221874Q85.925 34.221874 85.33125 35.378124Q84.7375 36.51875 83.58125 37.159374Q82.44063 37.784374 81.08125 37.784374Q78.89375 37.784374 77.55 36.39375Q76.22188 34.9875 76.22188 32.3625ZM78.01875 32.3625Q78.01875 34.3625 78.87813 35.346874Q79.75313 36.33125 81.08125 36.33125Q82.39375 36.33125 83.25313 35.346874Q84.12813 34.346874 84.12813 32.3Q84.12813 30.378124 83.25313 29.39375Q82.37813 28.39375 81.08125 28.39375Q79.75313 28.39375 78.87813 29.39375Q78.01875 30.378124 78.01875 32.3625ZM94.59688 37.55L94.59688 36.2375Q93.6125 37.784374 91.69063 37.784374Q90.45625 37.784374 89.40938 37.096874Q88.37813 36.409374 87.8 35.190624Q87.2375 33.971874 87.2375 32.378124Q87.2375 30.815624 87.75313 29.55Q88.26875 28.284374 89.3 27.6125Q90.34688 26.940624 91.6125 26.940624Q92.55 26.940624 93.28438 27.346874Q94.01875 27.7375 94.4875 28.3625L94.4875 23.2375L96.22188 23.2375L96.22188 37.55L94.59688 37.55ZM89.03438 32.378124Q89.03438 34.3625 89.87813 35.346874Q90.72188 36.33125 91.8625 36.33125Q93.01875 36.33125 93.81563 35.39375Q94.62813 34.45625 94.62813 32.51875Q94.62813 30.39375 93.8 29.39375Q92.9875 28.39375 91.78438 28.39375Q90.6125 28.39375 89.81563 29.3625Q89.03438 30.315624 89.03438 32.378124ZM105.64375 36.26875Q104.65938 37.096874 103.75313 37.440624Q102.84688 37.784374 101.81563 37.784374Q100.1125 37.784374 99.19063 36.95625Q98.26875 36.1125 98.26875 34.815624Q98.26875 34.05 98.6125 33.425Q98.97188 32.8 99.53438 32.425Q100.09688 32.034374 100.8 31.83125Q101.31563 31.70625 102.3625 31.565624Q104.4875 31.315624 105.4875 30.971874Q105.50313 30.6125 105.50313 30.503124Q105.50313 29.440624 105.00313 28.9875Q104.33125 28.39375 103.00313 28.39375Q101.75313 28.39375 101.15938 28.83125Q100.58125 29.26875 100.3 30.378124L98.58125 30.14375Q98.81563 29.034374 99.34688 28.3625Q99.87813 27.675 100.89375 27.315624Q101.90938 26.940624 103.25313 26.940624Q104.58125 26.940624 105.40938 27.253124Q106.2375 27.565624 106.62813 28.05Q107.01875 28.51875 107.175 29.2375Q107.26875 29.690624 107.26875 30.8625L107.26875 33.20625Q107.26875 35.659374 107.37813 36.315624Q107.4875 36.95625 107.83125 37.55L105.9875 37.55Q105.72188 37.003124 105.64375 36.26875ZM105.4875 32.346874Q104.53438 32.7375 102.6125 33.003124Q101.53438 33.159374 101.08125 33.3625Q100.64375 33.55 100.39375 33.925Q100.14375 34.3 100.14375 34.76875Q100.14375 35.471874 100.675 35.940624Q101.20625 36.409374 102.2375 36.409374Q103.25313 36.409374 104.03438 35.971874Q104.83125 35.51875 105.20625 34.753124Q105.4875 34.14375 105.4875 32.9875L105.4875 32.346874ZM109.83125 37.55L109.83125 23.2375L111.58125 23.2375L111.58125 37.55L109.83125 37.55ZM120.09688 37.55L120.09688 23.2375L125.4875 23.2375Q126.925 23.2375 127.675 23.3625Q128.72188 23.55 129.44063 24.05Q130.15938 24.534374 130.58125 25.425Q131.01875 26.315624 131.01875 27.378124Q131.01875 29.20625 129.84688 30.471874Q128.69063 31.721874 125.65938 31.721874L121.9875 31.721874L121.9875 37.55L120.09688 37.55ZM121.9875 30.034374L125.69063 30.034374Q127.51875 30.034374 128.28438 29.3625Q129.06563 28.675 129.06563 27.425Q129.06563 26.534374 128.6125 25.89375Q128.15938 25.253124 127.425 25.05Q126.94063 24.925 125.64375 24.925L121.9875 24.925L121.9875 30.034374ZM132.87813 25.253124L132.87813 23.2375L134.64375 23.2375L134.64375 25.253124L132.87813 25.253124ZM132.87813 37.55L132.87813 27.175L134.64375 27.175L134.64375 37.55L132.87813 37.55ZM136.8625 41.51875L136.8625 27.175L138.47188 27.175L138.47188 28.51875Q139.03438 27.7375 139.7375 27.346874Q140.45625 26.940624 141.47188 26.940624Q142.8 26.940624 143.81563 27.628124Q144.83125 28.315624 145.34688 29.565624Q145.87813 30.8 145.87813 32.284374Q145.87813 33.878124 145.3 35.159374Q144.7375 36.425 143.64375 37.1125Q142.55 37.784374 141.34688 37.784374Q140.47188 37.784374 139.76875 37.409374Q139.08125 37.034374 138.62813 36.471874L138.62813 41.51875L136.8625 41.51875ZM138.45625 32.425Q138.45625 34.425 139.26875 35.378124Q140.08125 36.33125 141.2375 36.33125Q142.40938 36.33125 143.2375 35.346874Q144.08125 34.3625 144.08125 32.26875Q144.08125 30.3 143.25313 29.315624Q142.44063 28.315624 141.31563 28.315624Q140.19063 28.315624 139.31563 29.378124Q138.45625 30.425 138.45625 32.425ZM154.97188 34.20625L156.78438 34.440624Q156.3625 36.01875 155.19063 36.909374Q154.03438 37.784374 152.22188 37.784374Q149.95625 37.784374 148.6125 36.39375Q147.28438 34.9875 147.28438 32.45625Q147.28438 29.83125 148.62813 28.39375Q149.97188 26.940624 152.12813 26.940624Q154.20625 26.940624 155.51875 28.3625Q156.84688 29.76875 156.84688 32.346874Q156.84688 32.503124 156.83125 32.815624L149.09688 32.815624Q149.19063 34.51875 150.06563 35.425Q150.94063 36.33125 152.2375 36.33125Q153.20625 36.33125 153.87813 35.83125Q154.56563 35.315624 154.97188 34.20625ZM149.19063 31.3625L154.9875 31.3625Q154.87813 30.065624 154.33125 29.409374Q153.4875 28.39375 152.14375 28.39375Q150.94063 28.39375 150.1125 29.20625Q149.28438 30.003124 149.19063 31.3625ZM158.83125 37.55L158.83125 23.2375L160.58125 23.2375L160.58125 37.55L158.83125 37.55ZM162.87813 25.253124L162.87813 23.2375L164.64375 23.2375L164.64375 25.253124L162.87813 25.253124ZM162.87813 37.55L162.87813 27.175L164.64375 27.175L164.64375 37.55L162.87813 37.55ZM166.8625 37.55L166.8625 27.175L168.45625 27.175L168.45625 28.659374Q169.59688 26.940624 171.75313 26.940624Q172.69063 26.940624 173.47188 27.284374Q174.26875 27.6125 174.65938 28.159374Q175.05 28.70625 175.20625 29.45625Q175.3 29.95625 175.3 31.175L175.3 37.55L173.53438 37.55L173.53438 31.2375Q173.53438 30.159374 173.33125 29.628124Q173.12813 29.096874 172.59688 28.784374Q172.08125 28.471874 171.37813 28.471874Q170.25313 28.471874 169.44063 29.190624Q168.62813 29.89375 168.62813 31.878124L168.62813 37.55L166.8625 37.55ZM183.97188 34.20625L185.78438 34.440624Q185.3625 36.01875 184.19063 36.909374Q183.03438 37.784374 181.22188 37.784374Q178.95625 37.784374 177.6125 36.39375Q176.28438 34.9875 176.28438 32.45625Q176.28438 29.83125 177.62813 28.39375Q178.97188 26.940624 181.12813 26.940624Q183.20625 26.940624 184.51875 28.3625Q185.84688 29.76875 185.84688 32.346874Q185.84688 32.503124 185.83125 32.815624L178.09688 32.815624Q178.19063 34.51875 179.06563 35.425Q179.94063 36.33125 181.2375 36.33125Q182.20625 36.33125 182.87813 35.83125Q183.56563 35.315624 183.97188 34.20625ZM178.19063 31.3625L183.9875 31.3625Q183.87813 30.065624 183.33125 29.409374Q182.4875 28.39375 181.14375 28.39375Q179.94063 28.39375 179.1125 29.20625Q178.28438 30.003124 178.19063 31.3625Z" fill-rule="nonzero"/></svg>