<svg version="1.1" viewBox="0.0 0.0 600.0 371.0" fill="none" stroke="none" stroke-linecap="square" stroke-miterlimit="10" width="600" height="371" xmlns:xlink="http://www.w3.org/1999/xlink" xmlns="http://www.w3.org/2000/svg"><path fill="#ffffff" d="M0 0L600.0 0L600.0 371.0L0 371.0L0 0Z" fill-rule="nonzero"/><path stroke="#333333" stroke-width="1.0" stroke-linecap="butt" d="M77.5 332.5L581.5 332.5" fill-rule="nonzero"/><path stroke="#cccccc" stroke-width="1.0" stroke-linecap="butt" d="M77.5 250.5L581.5 250.5" fill-rule="nonzero"/><path stroke="#cccccc" stroke-width="1.0" stroke-linecap="butt" d="M77.5 167.5L581.5 167.5" fill-rule="nonzero"/><path stroke="#cccccc" stroke-width="1.0" stroke-linecap="butt" d="M77.5 85.5L581.5 85.5" fill-rule="nonzero"/><clipPath id="id_0"><path d="M77.55 85.416664L581.45 85.416664L581.45 332.45L77.55 332.45L77.55 85.416664Z" clip-rule="nonzero"/></clipPath><path stroke="#000000" stroke-width="2.0" stroke-linecap="butt" stroke-opacity="0.0" clip-path="url(#id_0)" d="M194.0 332.0L119.0 332.0L119.0 106.0C119.0 104.89543 119.89543 104.0 121.0 104.0L192.0 104.0C193.10457 104.0 194.0 104.89543 194.0 106.0Z" fill-rule="nonzero"/><path fill="#76b900" clip-path="url(#id_0)" d="M194.0 332.0L119.0 332.0L119.0 106.0C119.0 104.89543 119.89543 104.0 121.0 104.0L192.0 104.0C193.10457 104.0 194.0 104.89543 194.0 106.0Z" fill-rule="nonzero"/><path stroke="#000000" stroke-width="2.0" stroke-linecap="butt" stroke-opacity="0.0" clip-path="url(#id_0)" d="M310.0 332.0L235.0 332.0L235.0 256.0C235.0 254.89543 235.89543 254.0 237.0 254.0L308.0 254.0C309.10458 254.0 310.0 254.89543 310.0 256.0Z" fill-rule="nonzero"/><path fill="#76b900" clip-path="url(#id_0)" d="M310.0 332.0L235.0 332.0L235.0 256.0C235.0 254.89543 235.89543 254.0 237.0 254.0L308.0 254.0C309.10458 254.0 310.0 254.89543 310.0 256.0Z" fill-rule="nonzero"/><path stroke="#000000" stroke-width="2.0" stroke-linecap="butt" stroke-opacity="0.0" clip-path="url(#id_0)" d="M425.0 332.0L350.0 332.0L350.0 311.0C350.0 309.89542 350.89542 309.0 352.0 309.0L423.0 309.0C424.10458 309.0 425.0 309.89542 425.0 311.0Z" fill-rule="nonzero"/><path fill="#76b900" clip-path="url(#id_0)" d="M425.0 332.0L350.0 332.0L350.0 311.0C350.0 309.89542 350.89542 309.0 352.0 309.0L423.0 309.0C424.10458 309.0 425.0 309.89542 425.0 311.0Z" fill-rule="nonzero"/><path stroke="#000000" stroke-width="2.0" stroke-linecap="butt" stroke-opacity="0.0" clip-path="url(#id_0)" d="M541.0 332.0L466.0 332.0L466.0 313.0C466.0 311.89542 466.89542 311.0 468.0 311.0L539.0 311.0C540.10455 311.0 541.0 311.89542 541.0 313.0Z" fill-rule="nonzero"/><path fill="#76b900" clip-path="url(#id_0)" d="M541.0 332.0L466.0 332.0L466.0 313.0C466.0 311.89542 466.89542 311.0 468.0 311.0L539.0 311.0C540.10455 311.0 541.0 311.89542 541.0 313.0Z" fill-rule="nonzero"/><path stroke="#76b900" stroke-width="3.0" stroke-linejoin="round" stroke-linecap="round" d="M151.79688 121.15589L146.20312 121.15589L146.20312 120.37464L149.15625 117.09339Q149.8125 116.34339 150.0625 115.89027Q150.3125 115.42152 150.3125 114.92152Q150.3125 114.24964 149.90625 113.82777Q149.51562 113.39027 148.82812 113.39027Q148.03125 113.39027 147.57812 113.85902Q147.125 114.31214 147.125 115.14027L146.04688 115.14027Q146.04688 113.95277 146.79688 113.23402Q147.5625 112.49964 148.82812 112.49964Q150.03125 112.49964 150.71875 113.12464Q151.40625 113.74964 151.40625 114.79652Q151.40625 116.04652 149.79688 117.79652L147.51562 120.26527L151.79688 120.26527L151.79688 121.15589ZM158.71875 113.23402L155.1875 121.15589L154.04688 121.15589L157.5625 113.51527L152.95312 113.51527L152.95312 112.62464L158.71875 112.62464L158.71875 113.23402ZM165.71875 113.23402L162.1875 121.15589L161.04688 121.15589L164.5625 113.51527L159.95312 113.51527L159.95312 112.62464L165.71875 112.62464L165.71875 113.23402Z" fill-rule="nonzero"/><path fill="#ffffff" d="M151.79688 121.15589L146.20312 121.15589L146.20312 120.37464L149.15625 117.09339Q149.8125 116.34339 150.0625 115.89027Q150.3125 115.42152 150.3125 114.92152Q150.3125 114.24964 149.90625 113.82777Q149.51562 113.39027 148.82812 113.39027Q148.03125 113.39027 147.57812 113.85902Q147.125 114.31214 147.125 115.14027L146.04688 115.14027Q146.04688 113.95277 146.79688 113.23402Q147.5625 112.49964 148.82812 112.49964Q150.03125 112.49964 150.71875 113.12464Q151.40625 113.74964 151.40625 114.79652Q151.40625 116.04652 149.79688 117.79652L147.51562 120.26527L151.79688 120.26527L151.79688 121.15589ZM158.71875 113.23402L155.1875 121.15589L154.04688 121.15589L157.5625 113.51527L152.95312 113.51527L152.95312 112.62464L158.71875 112.62464L158.71875 113.23402ZM165.71875 113.23402L162.1875 121.15589L161.04688 121.15589L164.5625 113.51527L159.95312 113.51527L159.95312 112.62464L165.71875 112.62464L165.71875 113.23402Z" fill-rule="nonzero"/><path stroke="#76b900" stroke-width="3.0" stroke-linejoin="round" stroke-linecap="round" d="M269.85938 267.27277Q269.53125 267.67902 269.04688 267.92902Q268.57812 268.1634 268.01562 268.1634Q267.28125 268.1634 266.73438 267.80402Q266.1875 267.44464 265.89062 266.7884Q265.59375 266.11652 265.59375 265.31964Q265.59375 264.4759 265.90625 263.7884Q266.23438 263.1009 266.82812 262.74152Q267.4375 262.36652 268.23438 262.36652Q269.5 262.36652 270.21875 263.31964Q270.95312 264.27277 270.95312 265.89777L270.95312 266.21027Q270.95312 268.71027 269.96875 269.8509Q268.98438 270.99152 267.0 271.02277L266.78125 271.02277L266.78125 270.11652L267.01562 270.11652Q268.35938 270.08527 269.07812 269.4134Q269.79688 268.74152 269.85938 267.27277ZM268.1875 267.27277Q268.73438 267.27277 269.1875 266.94464Q269.65625 266.6009 269.875 266.11652L269.875 265.67902Q269.875 264.61652 269.40625 263.94464Q268.9375 263.27277 268.23438 263.27277Q267.51562 263.27277 267.07812 263.81964Q266.65625 264.36652 266.65625 265.27277Q266.65625 266.14777 267.0625 266.71027Q267.48438 267.27277 268.1875 267.27277ZM273.20312 266.74152L273.64062 262.49152L278.01562 262.49152L278.01562 263.49152L274.5625 263.49152L274.29688 265.81964Q274.9375 265.44464 275.73438 265.44464Q276.89062 265.44464 277.57812 266.2259Q278.26562 266.99152 278.26562 268.30402Q278.26562 269.61652 277.54688 270.38214Q276.84375 271.14777 275.5625 271.14777Q274.4375 271.14777 273.71875 270.52277Q273.0 269.88214 272.90625 268.77277L273.92188 268.77277Q274.03125 269.50714 274.45312 269.88214Q274.875 270.25714 275.5625 270.25714Q276.3125 270.25714 276.75 269.74152Q277.1875 269.2259 277.1875 268.31964Q277.1875 267.46027 276.71875 266.94464Q276.25 266.42902 275.46875 266.42902Q274.76562 266.42902 274.35938 266.7259L274.07812 266.96027L273.20312 266.74152Z" fill-rule="nonzero"/><path fill="#ffffff" d="M269.85938 267.27277Q269.53125 267.67902 269.04688 267.92902Q268.57812 268.1634 268.01562 268.1634Q267.28125 268.1634 266.73438 267.80402Q266.1875 267.44464 265.89062 266.7884Q265.59375 266.11652 265.59375 265.31964Q265.59375 264.4759 265.90625 263.7884Q266.23438 263.1009 266.82812 262.74152Q267.4375 262.36652 268.23438 262.36652Q269.5 262.36652 270.21875 263.31964Q270.95312 264.27277 270.95312 265.89777L270.95312 266.21027Q270.95312 268.71027 269.96875 269.8509Q268.98438 270.99152 267.0 271.02277L266.78125 271.02277L266.78125 270.11652L267.01562 270.11652Q268.35938 270.08527 269.07812 269.4134Q269.79688 268.74152 269.85938 267.27277ZM268.1875 267.27277Q268.73438 267.27277 269.1875 266.94464Q269.65625 266.6009 269.875 266.11652L269.875 265.67902Q269.875 264.61652 269.40625 263.94464Q268.9375 263.27277 268.23438 263.27277Q267.51562 263.27277 267.07812 263.81964Q266.65625 264.36652 266.65625 265.27277Q266.65625 266.14777 267.0625 266.71027Q267.48438 267.27277 268.1875 267.27277ZM273.20312 266.74152L273.64062 262.49152L278.01562 262.49152L278.01562 263.49152L274.5625 263.49152L274.29688 265.81964Q274.9375 265.44464 275.73438 265.44464Q276.89062 265.44464 277.57812 266.2259Q278.26562 266.99152 278.26562 268.30402Q278.26562 269.61652 277.54688 270.38214Q276.84375 271.14777 275.5625 271.14777Q274.4375 271.14777 273.71875 270.52277Q273.0 269.88214 272.90625 268.77277L273.92188 268.77277Q274.03125 269.50714 274.45312 269.88214Q274.875 270.25714 275.5625 270.25714Q276.3125 270.25714 276.75 269.74152Q277.1875 269.2259 277.1875 268.31964Q277.1875 267.46027 276.71875 266.94464Q276.25 266.42902 275.46875 266.42902Q274.76562 266.42902 274.35938 266.7259L274.07812 266.96027L273.20312 266.74152Z" fill-rule="nonzero"/><path stroke="#76b900" stroke-width="3.0" stroke-linejoin="round" stroke-linecap="round" d="M386.29688 325.42178L380.70312 325.42178L380.70312 324.64053L383.65625 321.35928Q384.3125 320.60928 384.5625 320.15616Q384.8125 319.6874 384.8125 319.1874Q384.8125 318.51553 384.40625 318.09366Q384.01562 317.65616 383.32812 317.65616Q382.53125 317.65616 382.07812 318.1249Q381.625 318.57803 381.625 319.40616L380.54688 319.40616Q380.54688 318.21866 381.29688 317.4999Q382.0625 316.76553 383.32812 316.76553Q384.53125 316.76553 385.21875 317.39053Q385.90625 318.01553 385.90625 319.0624Q385.90625 320.3124 384.29688 322.0624L382.01562 324.53116L386.29688 324.53116L386.29688 325.42178ZM392.89062 319.10928Q392.89062 319.7499 392.54688 320.2499Q392.20312 320.7499 391.64062 321.03116Q392.29688 321.3124 392.6875 321.8749Q393.07812 322.42178 393.07812 323.1249Q393.07812 324.21866 392.32812 324.89053Q391.59375 325.54678 390.375 325.54678Q389.14062 325.54678 388.39062 324.89053Q387.65625 324.21866 387.65625 323.1249Q387.65625 322.42178 388.03125 321.8749Q388.40625 321.3124 389.07812 321.03116Q388.51562 320.7499 388.1875 320.2499Q387.85938 319.7499 387.85938 319.10928Q387.85938 318.03116 388.54688 317.40616Q389.23438 316.76553 390.375 316.76553Q391.5 316.76553 392.1875 317.40616Q392.89062 318.03116 392.89062 319.10928ZM392.0 323.09366Q392.0 322.3749 391.54688 321.9374Q391.09375 321.48428 390.35938 321.48428Q389.625 321.48428 389.17188 321.9374Q388.73438 322.3749 388.73438 323.10928Q388.73438 323.82803 389.17188 324.2499Q389.60938 324.65616 390.375 324.65616Q391.125 324.65616 391.5625 324.23428Q392.0 323.8124 392.0 323.09366ZM390.375 317.65616Q389.73438 317.65616 389.32812 318.0624Q388.9375 318.45303 388.9375 319.14053Q388.9375 319.78116 389.32812 320.1874Q389.71875 320.59366 390.35938 320.59366Q391.01562 320.59366 391.40625 320.1874Q391.79688 319.78116 391.79688 319.14053Q391.79688 318.48428 391.39062 318.07803Q390.98438 317.65616 390.375 317.65616Z" fill-rule="nonzero"/><path fill="#ffffff" d="M386.29688 325.42178L380.70312 325.42178L380.70312 324.64053L383.65625 321.35928Q384.3125 320.60928 384.5625 320.15616Q384.8125 319.6874 384.8125 319.1874Q384.8125 318.51553 384.40625 318.09366Q384.01562 317.65616 383.32812 317.65616Q382.53125 317.65616 382.07812 318.1249Q381.625 318.57803 381.625 319.40616L380.54688 319.40616Q380.54688 318.21866 381.29688 317.4999Q382.0625 316.76553 383.32812 316.76553Q384.53125 316.76553 385.21875 317.39053Q385.90625 318.01553 385.90625 319.0624Q385.90625 320.3124 384.29688 322.0624L382.01562 324.53116L386.29688 324.53116L386.29688 325.42178ZM392.89062 319.10928Q392.89062 319.7499 392.54688 320.2499Q392.20312 320.7499 391.64062 321.03116Q392.29688 321.3124 392.6875 321.8749Q393.07812 322.42178 393.07812 323.1249Q393.07812 324.21866 392.32812 324.89053Q391.59375 325.54678 390.375 325.54678Q389.14062 325.54678 388.39062 324.89053Q387.65625 324.21866 387.65625 323.1249Q387.65625 322.42178 388.03125 321.8749Q388.40625 321.3124 389.07812 321.03116Q388.51562 320.7499 388.1875 320.2499Q387.85938 319.7499 387.85938 319.10928Q387.85938 318.03116 388.54688 317.40616Q389.23438 316.76553 390.375 316.76553Q391.5 316.76553 392.1875 317.40616Q392.89062 318.03116 392.89062 319.10928ZM392.0 323.09366Q392.0 322.3749 391.54688 321.9374Q391.09375 321.48428 390.35938 321.48428Q389.625 321.48428 389.17188 321.9374Q388.73438 322.3749 388.73438 323.10928Q388.73438 323.82803 389.17188 324.2499Q389.60938 324.65616 390.375 324.65616Q391.125 324.65616 391.5625 324.23428Q392.0 323.8124 392.0 323.09366ZM390.375 317.65616Q389.73438 317.65616 389.32812 318.0624Q388.9375 318.45303 388.9375 319.14053Q388.9375 319.78116 389.32812 320.1874Q389.71875 320.59366 390.35938 320.59366Q391.01562 320.59366 391.40625 320.1874Q391.79688 319.78116 391.79688 319.14053Q391.79688 318.48428 391.39062 318.07803Q390.98438 317.65616 390.375 317.65616Z" fill-rule="nonzero"/><path stroke="#76b900" stroke-width="3.0" stroke-linejoin="round" stroke-linecap="round" d="M502.29688 326.2452L496.70312 326.2452L496.70312 325.46396L499.65625 322.1827Q500.3125 321.4327 500.5625 320.97958Q500.8125 320.51083 500.8125 320.01083Q500.8125 319.33896 500.40625 318.91708Q500.01562 318.47958 499.32812 318.47958Q498.53125 318.47958 498.07812 318.94833Q497.625 319.40146 497.625 320.22958L496.54688 320.22958Q496.54688 319.04208 497.29688 318.32333Q498.0625 317.58896 499.32812 317.58896Q500.53125 317.58896 501.21875 318.21396Q501.90625 318.83896 501.90625 319.88583Q501.90625 321.13583 500.29688 322.88583L498.01562 325.35458L502.29688 325.35458L502.29688 326.2452ZM507.96875 317.71396L507.96875 318.6202L507.76562 318.6202Q506.5 318.65146 505.75 319.38583Q505.0 320.10458 504.875 321.41708Q505.5625 320.65146 506.71875 320.65146Q507.82812 320.65146 508.5 321.4327Q509.17188 322.21396 509.17188 323.46396Q509.17188 324.77646 508.45312 325.57333Q507.73438 326.3702 506.51562 326.3702Q505.29688 326.3702 504.53125 325.4327Q503.78125 324.47958 503.78125 322.9952L503.78125 322.58896Q503.78125 320.22958 504.78125 318.97958Q505.78125 317.72958 507.76562 317.71396L507.96875 317.71396ZM506.54688 321.5577Q505.98438 321.5577 505.51562 321.88583Q505.04688 322.21396 504.85938 322.72958L504.85938 323.1202Q504.85938 324.1827 505.32812 324.82333Q505.8125 325.46396 506.51562 325.46396Q507.25 325.46396 507.67188 324.9327Q508.09375 324.38583 508.09375 323.51083Q508.09375 322.63583 507.67188 322.10458Q507.25 321.5577 506.54688 321.5577Z" fill-rule="nonzero"/><path fill="#ffffff" d="M502.29688 326.2452L496.70312 326.2452L496.70312 325.46396L499.65625 322.1827Q500.3125 321.4327 500.5625 320.97958Q500.8125 320.51083 500.8125 320.01083Q500.8125 319.33896 500.40625 318.91708Q500.01562 318.47958 499.32812 318.47958Q498.53125 318.47958 498.07812 318.94833Q497.625 319.40146 497.625 320.22958L496.54688 320.22958Q496.54688 319.04208 497.29688 318.32333Q498.0625 317.58896 499.32812 317.58896Q500.53125 317.58896 501.21875 318.21396Q501.90625 318.83896 501.90625 319.88583Q501.90625 321.13583 500.29688 322.88583L498.01562 325.35458L502.29688 325.35458L502.29688 326.2452ZM507.96875 317.71396L507.96875 318.6202L507.76562 318.6202Q506.5 318.65146 505.75 319.38583Q505.0 320.10458 504.875 321.41708Q505.5625 320.65146 506.71875 320.65146Q507.82812 320.65146 508.5 321.4327Q509.17188 322.21396 509.17188 323.46396Q509.17188 324.77646 508.45312 325.57333Q507.73438 326.3702 506.51562 326.3702Q505.29688 326.3702 504.53125 325.4327Q503.78125 324.47958 503.78125 322.9952L503.78125 322.58896Q503.78125 320.22958 504.78125 318.97958Q505.78125 317.72958 507.76562 317.71396L507.96875 317.71396ZM506.54688 321.5577Q505.98438 321.5577 505.51562 321.88583Q505.04688 322.21396 504.85938 322.72958L504.85938 323.1202Q504.85938 324.1827 505.32812 324.82333Q505.8125 325.46396 506.51562 325.46396Q507.25 325.46396 507.67188 324.9327Q508.09375 324.38583 508.09375 323.51083Q508.09375 322.63583 507.67188 322.10458Q507.25 321.5577 506.54688 321.5577Z" fill-rule="nonzero"/><path fill="#314c59" d="M29.550013 268.44894L20.956263 268.44894L20.956263 262.65207L21.971888 262.65207L21.971888 267.30832L24.628138 267.30832L24.628138 263.27707L25.643763 263.27707L25.643763 267.30832L29.550013 267.30832L29.550013 268.44894ZM29.550013 261.65207L23.331263 261.65207L23.331263 260.69894L24.268763 260.69894Q23.612513 260.33957 23.409388 260.0427Q23.190638 259.7302 23.190638 259.3552Q23.190638 258.82394 23.518763 258.27707L24.503138 258.63644Q24.268763 259.02707 24.268763 259.40207Q24.268763 259.76144 24.487513 260.0427Q24.690638 260.30832 25.065638 260.4177Q25.628138 260.6052 26.284388 260.6052L29.550013 260.6052L29.550013 261.65207ZM28.784388 253.57396Q29.284388 254.16771 29.487513 254.71458Q29.690638 255.24583 29.690638 255.87083Q29.690638 256.90207 29.190638 257.44894Q28.690638 257.99582 27.909388 257.99582Q27.456263 257.99582 27.081263 257.7927Q26.690638 257.58957 26.471888 257.24582Q26.237513 256.90207 26.128138 256.4802Q26.034388 256.18332 25.956263 255.54271Q25.815638 254.27708 25.596888 253.66771Q25.378138 253.66771 25.331263 253.66771Q24.675013 253.66771 24.409388 253.96458Q24.065638 254.37083 24.065638 255.16771Q24.065638 255.90208 24.331263 256.26144Q24.581263 256.62082 25.237513 256.7927L25.096888 257.82394Q24.440638 257.68332 24.034388 257.3552Q23.628138 257.02707 23.409388 256.4177Q23.190638 255.80833 23.190638 255.01146Q23.190638 254.21458 23.378138 253.71458Q23.565638 253.21458 23.846888 252.98021Q24.128138 252.74583 24.565638 252.65208Q24.831263 252.60521 25.534388 252.60521L26.940638 252.60521Q28.409388 252.60521 28.800013 252.54271Q29.190638 252.46458 29.550013 252.26146L29.550013 253.37083Q29.221888 253.52708 28.784388 253.57396ZM26.425013 253.66771Q26.659388 254.24583 26.831263 255.38646Q26.925013 256.0427 27.050013 256.30832Q27.159388 256.57394 27.378138 256.7302Q27.596888 256.87082 27.878138 256.87082Q28.300013 256.87082 28.581263 256.55832Q28.862513 256.2302 28.862513 255.62083Q28.862513 255.01146 28.596888 254.54271Q28.331263 254.05833 27.862513 253.83958Q27.503138 253.66771 26.815638 253.66771L26.425013 253.66771ZM29.550013 250.63646L23.331263 250.63646L23.331263 249.69896L24.206263 249.69896Q23.737513 249.40208 23.471888 248.91771Q23.190638 248.43333 23.190638 247.80833Q23.190638 247.12083 23.471888 246.68333Q23.753138 246.23021 24.268763 246.05833Q23.190638 245.30833 23.190638 244.13646Q23.190638 243.19896 23.706263 242.71458Q24.206263 242.21458 25.284388 242.21458L29.550013 242.21458L29.550013 243.26146L25.628138 243.26146Q25.003138 243.26146 24.721888 243.37083Q24.440638 243.46458 24.268763 243.73021Q24.096888 243.99583 24.096888 244.37083Q24.096888 245.02708 24.534388 245.46458Q24.971888 245.88646 25.940638 245.88646L29.550013 245.88646L29.550013 246.94896L25.503138 246.94896Q24.800013 246.94896 24.456263 247.21458Q24.096888 247.46458 24.096888 248.04271Q24.096888 248.49583 24.331263 248.87083Q24.565638 249.24583 25.018763 249.41771Q25.471888 249.58958 26.315638 249.58958L29.550013 249.58958L29.550013 250.63646ZM27.550013 235.38646L27.675013 234.29271Q28.628138 234.54271 29.159388 235.24583Q29.690638 235.94896 29.690638 237.02708Q29.690638 238.38646 28.846888 239.19896Q28.003138 239.99583 26.487513 239.99583Q24.925013 239.99583 24.065638 239.18333Q23.190638 238.37083 23.190638 237.08958Q23.190638 235.83958 24.034388 235.05833Q24.878138 234.26146 26.425013 234.26146Q26.518763 234.26146 26.706263 234.26146L26.706263 238.90208Q27.737513 238.83958 28.284388 238.32396Q28.815638 237.80833 28.815638 237.02708Q28.815638 236.44896 28.518763 236.04271Q28.206263 235.62083 27.550013 235.38646ZM25.846888 238.83958L25.846888 235.37083Q25.050013 235.43333 24.659388 235.76146Q24.050013 236.27708 24.050013 237.07396Q24.050013 237.80833 24.534388 238.30833Q25.018763 238.79271 25.846888 238.83958ZM27.690638 233.05833L27.534388 232.02708Q28.159388 231.93333 28.487513 231.54271Q28.815638 231.13646 28.815638 230.40208Q28.815638 229.68333 28.534388 229.33958Q28.237513 228.98021 27.831263 228.98021Q27.471888 228.98021 27.268763 229.29271Q27.128138 229.51146 26.909388 230.37083Q26.612513 231.52708 26.409388 231.98021Q26.190638 232.41771 25.815638 232.65208Q25.440638 232.88646 24.971888 232.88646Q24.565638 232.88646 24.206263 232.69896Q23.846888 232.51146 23.612513 232.18333Q23.440638 231.93333 23.315638 231.51146Q23.190638 231.08958 23.190638 230.58958Q23.190638 229.87083 23.409388 229.32396Q23.612513 228.76146 23.971888 228.49583Q24.331263 228.23021 24.925013 228.13646L25.065638 229.16771Q24.596888 229.23021 24.331263 229.57396Q24.050013 229.90208 24.050013 230.52708Q24.050013 231.24583 24.300013 231.55833Q24.534388 231.87083 24.862513 231.87083Q25.065638 231.87083 25.221888 231.74583Q25.393763 231.60521 25.503138 231.33958Q25.565638 231.18333 25.768763 230.40208Q26.081263 229.27708 26.268763 228.83958Q26.456263 228.40208 26.815638 228.15208Q27.175013 227.90208 27.721888 227.90208Q28.253138 227.90208 28.721888 228.21458Q29.175013 228.51146 29.440638 229.08958Q29.690638 229.66771 29.690638 230.40208Q29.690638 231.62083 29.190638 232.26146Q28.675013 232.88646 27.690638 233.05833ZM31.940638 222.63646L23.331263 222.63646L23.331263 221.68333L24.128138 221.68333Q23.659388 221.33958 23.425013 220.91771Q23.190638 220.48021 23.190638 219.87083Q23.190638 219.07396 23.596888 218.46458Q24.003138 217.85521 24.753138 217.55833Q25.503138 217.24583 26.393763 217.24583Q27.346888 217.24583 28.112513 217.58958Q28.878138 217.91771 29.284388 218.57396Q29.690638 219.23021 29.690638 219.94896Q29.690638 220.48021 29.471888 220.90208Q29.237513 221.32396 28.909388 221.58958L31.940638 221.58958L31.940638 222.63646ZM26.471888 221.68333Q27.675013 221.68333 28.253138 221.19896Q28.815638 220.71458 28.815638 220.02708Q28.815638 219.32396 28.221888 218.82396Q27.628138 218.32396 26.378138 218.32396Q25.190638 218.32396 24.612513 218.80833Q24.018763 219.29271 24.018763 219.98021Q24.018763 220.65208 24.643763 221.16771Q25.268763 221.68333 26.471888 221.68333ZM27.550013 211.38646L27.675013 210.29271Q28.628138 210.54271 29.159388 211.24583Q29.690638 211.94896 29.690638 213.02708Q29.690638 214.38646 28.846888 215.19896Q28.003138 215.99583 26.487513 215.99583Q24.925013 215.99583 24.065638 215.18333Q23.190638 214.37083 23.190638 213.08958Q23.190638 211.83958 24.034388 211.05833Q24.878138 210.26146 26.425013 210.26146Q26.518763 210.26146 26.706263 210.26146L26.706263 214.90208Q27.737513 214.83958 28.284388 214.32396Q28.815638 213.80833 28.815638 213.02708Q28.815638 212.44896 28.518763 212.04271Q28.206263 211.62083 27.550013 211.38646ZM25.846888 214.83958L25.846888 211.37083Q25.050013 211.43333 24.659388 211.76146Q24.050013 212.27708 24.050013 213.07396Q24.050013 213.80833 24.534388 214.30833Q25.018763 214.79271 25.846888 214.83958ZM29.550013 208.65208L23.331263 208.65208L23.331263 207.69896L24.268763 207.69896Q23.612513 207.33958 23.409388 207.04271Q23.190638 206.73021 23.190638 206.35521Q23.190638 205.82396 23.518763 205.27708L24.503138 205.63646Q24.268763 206.02708 24.268763 206.40208Q24.268763 206.76146 24.487513 207.04271Q24.690638 207.30833 25.065638 207.41771Q25.628138 207.60521 26.284388 207.60521L29.550013 207.60521L29.550013 208.65208ZM27.690638 202.05833L27.534388 201.02708Q28.159388 200.93333 28.487513 200.54271Q28.815638 200.13646 28.815638 199.40208Q28.815638 198.68333 28.534388 198.33958Q28.237513 197.98021 27.831263 197.98021Q27.471888 197.98021 27.268763 198.29271Q27.128138 198.51146 26.909388 199.37083Q26.612513 200.52708 26.409388 200.98021Q26.190638 201.41771 25.815638 201.65208Q25.440638 201.88646 24.971888 201.88646Q24.565638 201.88646 24.206263 201.69896Q23.846888 201.51146 23.612513 201.18333Q23.440638 200.93333 23.315638 200.51146Q23.190638 200.08958 23.190638 199.58958Q23.190638 198.87083 23.409388 198.32396Q23.612513 197.76146 23.971888 197.49583Q24.331263 197.23021 24.925013 197.13646L25.065638 198.16771Q24.596888 198.23021 24.331263 198.57396Q24.050013 198.90208 24.050013 199.52708Q24.050013 200.24583 24.300013 200.55833Q24.534388 200.87083 24.862513 200.87083Q25.065638 200.87083 25.221888 200.74583Q25.393763 200.60521 25.503138 200.33958Q25.565638 200.18333 25.768763 199.40208Q26.081263 198.27708 26.268763 197.83958Q26.456263 197.40208 26.815638 197.15208Q27.175013 196.90208 27.721888 196.90208Q28.253138 196.90208 28.721888 197.21458Q29.175013 197.51146 29.440638 198.08958Q29.690638 198.66771 29.690638 199.40208Q29.690638 200.62083 29.190638 201.26146Q28.675013 201.88646 27.690638 202.05833ZM27.550013 190.38646L27.675013 189.29271Q28.628138 189.54271 29.159388 190.24583Q29.690638 190.94896 29.690638 192.02708Q29.690638 193.38646 28.846888 194.19896Q28.003138 194.99583 26.487513 194.99583Q24.925013 194.99583 24.065638 194.18333Q23.190638 193.37083 23.190638 192.08958Q23.190638 190.83958 24.034388 190.05833Q24.878138 189.26146 26.425013 189.26146Q26.518763 189.26146 26.706263 189.26146L26.706263 193.90208Q27.737513 193.83958 28.284388 193.32396Q28.815638 192.80833 28.815638 192.02708Q28.815638 191.44896 28.518763 191.04271Q28.206263 190.62083 27.550013 190.38646ZM25.846888 193.83958L25.846888 190.37083Q25.050013 190.43333 24.659388 190.76146Q24.050013 191.27708 24.050013 192.07396Q24.050013 192.80833 24.534388 193.30833Q25.018763 193.79271 25.846888 193.83958ZM27.268763 183.57396L27.409388 182.54271Q28.471888 182.71458 29.081263 183.41771Q29.690638 184.12083 29.690638 185.13646Q29.690638 186.41771 28.862513 187.19896Q28.018763 187.96458 26.456263 187.96458Q25.456263 187.96458 24.706263 187.63646Q23.940638 187.29271 23.565638 186.62083Q23.190638 185.93333 23.190638 185.12083Q23.190638 184.12083 23.706263 183.48021Q24.206263 182.82396 25.159388 182.63646L25.315638 183.66771Q24.690638 183.80833 24.378138 184.18333Q24.050013 184.55833 24.050013 185.08958Q24.050013 185.88646 24.628138 186.38646Q25.190638 186.88646 26.425013 186.88646Q27.690638 186.88646 28.253138 186.40208Q28.815638 185.91771 28.815638 185.15208Q28.815638 184.52708 28.440638 184.12083Q28.065638 183.69896 27.268763 183.57396ZM26.440638 182.02708Q24.706263 182.02708 23.878138 181.07396Q23.190638 180.27708 23.190638 179.12083Q23.190638 177.83958 24.034388 177.02708Q24.862513 176.19896 26.346888 176.19896Q27.550013 176.19896 28.237513 176.55833Q28.925013 176.91771 29.315638 177.62083Q29.690638 178.30833 29.690638 179.12083Q29.690638 180.41771 28.862513 181.23021Q28.018763 182.02708 26.440638 182.02708ZM26.440638 180.94896Q27.628138 180.94896 28.221888 180.43333Q28.815638 179.90208 28.815638 179.12083Q28.815638 178.32396 28.221888 177.80833Q27.628138 177.29271 26.409388 177.29271Q25.253138 177.29271 24.659388 177.82396Q24.065638 178.33958 24.065638 179.12083Q24.065638 179.90208 24.659388 180.43333Q25.237513 180.94896 26.440638 180.94896ZM29.550013 174.63646L23.331263 174.63646L23.331263 173.69896L24.206263 173.69896Q23.190638 173.01146 23.190638 171.71458Q23.190638 171.15208 23.393763 170.68333Q23.596888 170.19896 23.925013 169.96458Q24.253138 169.73021 24.690638 169.63646Q24.987513 169.58958 25.721888 169.58958L29.550013 169.58958L29.550013 170.63646L25.768763 170.63646Q25.112513 170.63646 24.800013 170.76146Q24.487513 170.88646 24.300013 171.19896Q24.096888 171.51146 24.096888 171.93333Q24.096888 172.60521 24.534388 173.10521Q24.956263 173.58958 26.143763 173.58958L29.550013 173.58958L29.550013 174.63646ZM29.550013 163.60521L28.768763 163.60521Q29.690638 164.19896 29.690638 165.33958Q29.690638 166.08958 29.284388 166.71458Q28.862513 167.33958 28.128138 167.68333Q27.393763 168.02708 26.440638 168.02708Q25.518763 168.02708 24.753138 167.71458Q23.987513 167.40208 23.596888 166.77708Q23.190638 166.15208 23.190638 165.38646Q23.190638 164.82396 23.425013 164.38646Q23.659388 163.94896 24.034388 163.66771L20.956263 163.66771L20.956263 162.62083L29.550013 162.62083L29.550013 163.60521ZM26.440638 166.93333Q27.643763 166.93333 28.237513 166.43333Q28.815638 165.93333 28.815638 165.24583Q28.815638 164.55833 28.253138 164.07396Q27.690638 163.58958 26.534388 163.58958Q25.253138 163.58958 24.659388 164.08958Q24.065638 164.57396 24.065638 165.29271Q24.065638 165.99583 24.643763 166.46458Q25.206263 166.93333 26.440638 166.93333Z" fill-rule="nonzero"/><path fill="#314c59" d="M65.05 332.21564Q65.05 330.6844 65.3625 329.7625Q65.675 328.825 66.28438 328.325Q66.90938 327.825 67.84688 327.825Q68.53438 327.825 69.05 328.10626Q69.58125 328.3875 69.925 328.91876Q70.26875 329.4344 70.45625 330.1844Q70.64375 330.9344 70.64375 332.21564Q70.64375 333.73126 70.33125 334.65314Q70.03438 335.575 69.40938 336.09064Q68.8 336.59064 67.84688 336.59064Q66.6125 336.59064 65.89375 335.7Q65.05 334.6375 65.05 332.21564ZM66.12813 332.21564Q66.12813 334.325 66.62813 335.02814Q67.12813 335.73126 67.84688 335.73126Q68.58125 335.73126 69.06563 335.02814Q69.56563 334.325 69.56563 332.21564Q69.56563 330.09064 69.06563 329.40314Q68.58125 328.7 67.83125 328.7Q67.1125 328.7 66.675 329.3094Q66.12813 330.09064 66.12813 332.21564Z" fill-rule="nonzero"/><path fill="#314c59" d="M55.01875 254.10556L53.971874 254.10556L53.971874 247.38681Q53.58125 247.74619 52.95625 248.12119Q52.346874 248.48056 51.8625 248.65244L51.8625 247.63681Q52.7375 247.21494 53.39375 246.63681Q54.065624 246.04306 54.346874 245.48056L55.01875 245.48056L55.01875 254.10556ZM58.05 249.87119Q58.05 248.33994 58.3625 247.41806Q58.675 246.48056 59.284374 245.98056Q59.909374 245.48056 60.846874 245.48056Q61.534374 245.48056 62.05 245.76181Q62.58125 246.04306 62.925 246.57431Q63.26875 247.08994 63.45625 247.83994Q63.64375 248.58994 63.64375 249.87119Q63.64375 251.38681 63.33125 252.30869Q63.034374 253.23056 62.409374 253.74619Q61.8 254.24619 60.846874 254.24619Q59.6125 254.24619 58.89375 253.35556Q58.05 252.29306 58.05 249.87119ZM59.128124 249.87119Q59.128124 251.98056 59.628124 252.68369Q60.128124 253.38681 60.846874 253.38681Q61.58125 253.38681 62.065624 252.68369Q62.565624 251.98056 62.565624 249.87119Q62.565624 247.74619 62.065624 247.05869Q61.58125 246.35556 60.83125 246.35556Q60.1125 246.35556 59.675 246.96494Q59.128124 247.74619 59.128124 249.87119ZM65.05 249.87119Q65.05 248.33994 65.3625 247.41806Q65.675 246.48056 66.28438 245.98056Q66.90938 245.48056 67.84688 245.48056Q68.53438 245.48056 69.05 245.76181Q69.58125 246.04306 69.925 246.57431Q70.26875 247.08994 70.45625 247.83994Q70.64375 248.58994 70.64375 249.87119Q70.64375 251.38681 70.33125 252.30869Q70.03438 253.23056 69.40938 253.74619Q68.8 254.24619 67.84688 254.24619Q66.6125 254.24619 65.89375 253.35556Q65.05 252.29306 65.05 249.87119ZM66.12813 249.87119Q66.12813 251.98056 66.62813 252.68369Q67.12813 253.38681 67.84688 253.38681Q68.58125 253.38681 69.06563 252.68369Q69.56563 251.98056 69.56563 249.87119Q69.56563 247.74619 69.06563 247.05869Q68.58125 246.35556 67.83125 246.35556Q67.1125 246.35556 66.675 246.96494Q66.12813 247.74619 66.12813 249.87119Z" fill-rule="nonzero"/><path fill="#314c59" d="M56.596874 170.74548L56.596874 171.76111L50.909374 171.76111Q50.909374 171.38611 51.034374 171.02673Q51.253124 170.44861 51.721874 169.88611Q52.20625 169.32361 53.1125 168.58923Q54.51875 167.43298 55.003124 166.76111Q55.503124 166.08923 55.503124 165.49548Q55.503124 164.87048 55.05 164.44861Q54.596874 164.01111 53.878124 164.01111Q53.1125 164.01111 52.659374 164.46423Q52.20625 164.91736 52.190624 165.72986L51.1125 165.62048Q51.221874 164.40173 51.940624 163.77673Q52.675 163.13611 53.909374 163.13611Q55.14375 163.13611 55.8625 163.82361Q56.58125 164.51111 56.58125 165.52673Q56.58125 166.04236 56.3625 166.54236Q56.159374 167.02673 55.659374 167.58923Q55.175 168.13611 54.05 169.08923Q53.096874 169.88611 52.815624 170.18298Q52.55 170.46423 52.378124 170.74548L56.596874 170.74548ZM58.05 167.52673Q58.05 165.99548 58.3625 165.07361Q58.675 164.13611 59.284374 163.63611Q59.909374 163.13611 60.846874 163.13611Q61.534374 163.13611 62.05 163.41736Q62.58125 163.69861 62.925 164.22986Q63.26875 164.74548 63.45625 165.49548Q63.64375 166.24548 63.64375 167.52673Q63.64375 169.04236 63.33125 169.96423Q63.034374 170.88611 62.409374 171.40173Q61.8 171.90173 60.846874 171.90173Q59.6125 171.90173 58.89375 171.01111Q58.05 169.94861 58.05 167.52673ZM59.128124 167.52673Q59.128124 169.63611 59.628124 170.33923Q60.128124 171.04236 60.846874 171.04236Q61.58125 171.04236 62.065624 170.33923Q62.565624 169.63611 62.565624 167.52673Q62.565624 165.40173 62.065624 164.71423Q61.58125 164.01111 60.83125 164.01111Q60.1125 164.01111 59.675 164.62048Q59.128124 165.40173 59.128124 167.52673ZM65.05 167.52673Q65.05 165.99548 65.3625 165.07361Q65.675 164.13611 66.28438 163.63611Q66.90938 163.13611 67.84688 163.13611Q68.53438 163.13611 69.05 163.41736Q69.58125 163.69861 69.925 164.22986Q70.26875 164.74548 70.45625 165.49548Q70.64375 166.24548 70.64375 167.52673Q70.64375 169.04236 70.33125 169.96423Q70.03438 170.88611 69.40938 171.40173Q68.8 171.90173 67.84688 171.90173Q66.6125 171.90173 65.89375 171.01111Q65.05 169.94861 65.05 167.52673ZM66.12813 167.52673Q66.12813 169.63611 66.62813 170.33923Q67.12813 171.04236 67.84688 171.04236Q68.58125 171.04236 69.06563 170.33923Q69.56563 169.63611 69.56563 167.52673Q69.56563 165.40173 69.06563 164.71423Q68.58125 164.01111 67.83125 164.01111Q67.1125 164.01111 66.675 164.62048Q66.12813 165.40173 66.12813 167.52673Z" fill-rule="nonzero"/><path fill="#314c59" d="M51.05 87.15104L52.1125 87.010414Q52.284374 87.90104 52.721874 88.30729Q53.159374 88.697914 53.784374 88.697914Q54.534374 88.697914 55.05 88.18229Q55.565624 87.666664 55.565624 86.90104Q55.565624 86.18229 55.08125 85.71354Q54.6125 85.229164 53.878124 85.229164Q53.58125 85.229164 53.128124 85.354164L53.253124 84.416664Q53.3625 84.43229 53.425 84.43229Q54.096874 84.43229 54.628124 84.08854Q55.175 83.729164 55.175 82.99479Q55.175 82.416664 54.784374 82.041664Q54.39375 81.65104 53.76875 81.65104Q53.159374 81.65104 52.7375 82.041664Q52.33125 82.43229 52.221874 83.197914L51.159374 83.010414Q51.346874 81.96354 52.034374 81.385414Q52.721874 80.791664 53.7375 80.791664Q54.440624 80.791664 55.034374 81.104164Q55.628124 81.40104 55.940624 81.916664Q56.253124 82.43229 56.253124 83.02604Q56.253124 83.572914 55.95625 84.041664Q55.659374 84.49479 55.08125 84.760414Q55.83125 84.93229 56.253124 85.49479Q56.675 86.041664 56.675 86.885414Q56.675 88.010414 55.846874 88.791664Q55.034374 89.572914 53.784374 89.572914Q52.659374 89.572914 51.909374 88.90104Q51.159374 88.21354 51.05 87.15104ZM58.05 85.18229Q58.05 83.65104 58.3625 82.729164Q58.675 81.791664 59.284374 81.291664Q59.909374 80.791664 60.846874 80.791664Q61.534374 80.791664 62.05 81.072914Q62.58125 81.354164 62.925 81.885414Q63.26875 82.40104 63.45625 83.15104Q63.64375 83.90104 63.64375 85.18229Q63.64375 86.697914 63.33125 87.61979Q63.034374 88.541664 62.409374 89.05729Q61.8 89.55729 60.846874 89.55729Q59.6125 89.55729 58.89375 88.666664Q58.05 87.604164 58.05 85.18229ZM59.128124 85.18229Q59.128124 87.291664 59.628124 87.99479Q60.128124 88.697914 60.846874 88.697914Q61.58125 88.697914 62.065624 87.99479Q62.565624 87.291664 62.565624 85.18229Q62.565624 83.05729 62.065624 82.36979Q61.58125 81.666664 60.83125 81.666664Q60.1125 81.666664 59.675 82.27604Q59.128124 83.05729 59.128124 85.18229ZM65.05 85.18229Q65.05 83.65104 65.3625 82.729164Q65.675 81.791664 66.28438 81.291664Q66.90938 80.791664 67.84688 80.791664Q68.53438 80.791664 69.05 81.072914Q69.58125 81.354164 69.925 81.885414Q70.26875 82.40104 70.45625 83.15104Q70.64375 83.90104 70.64375 85.18229Q70.64375 86.697914 70.33125 87.61979Q70.03438 88.541664 69.40938 89.05729Q68.8 89.55729 67.84688 89.55729Q66.6125 89.55729 65.89375 88.666664Q65.05 87.604164 65.05 85.18229ZM66.12813 85.18229Q66.12813 87.291664 66.62813 87.99479Q67.12813 88.697914 67.84688 88.697914Q68.58125 88.697914 69.06563 87.99479Q69.56563 87.291664 69.56563 85.18229Q69.56563 83.05729 69.06563 82.36979Q68.58125 81.666664 67.83125 81.666664Q67.1125 81.666664 66.675 82.27604Q66.12813 83.05729 66.12813 85.18229Z" fill-rule="nonzero"/><path fill="#314c59" d="M126.6945 349.45L126.6945 340.85626L132.89763 340.85626L132.89763 341.8719L127.83513 341.8719L127.83513 344.4969L132.58513 344.4969L132.58513 345.5125L127.83513 345.5125L127.83513 348.4344L133.10075 348.4344L133.10075 349.45L126.6945 349.45ZM134.78825 349.45L134.78825 344.04376L133.85075 344.04376L133.85075 343.23126L134.78825 343.23126L134.78825 342.5594Q134.78825 341.9344 134.89763 341.6375Q135.05388 341.21564 135.42888 340.96564Q135.8195 340.71564 136.507 340.71564Q136.96013 340.71564 137.49138 340.825L137.33513 341.73126Q137.007 341.6844 136.71013 341.6844Q136.22575 341.6844 136.02263 341.8875Q135.83513 342.09064 135.83513 342.65314L135.83513 343.23126L137.05388 343.23126L137.05388 344.04376L135.83513 344.04376L135.83513 349.45L134.78825 349.45ZM137.78825 349.45L137.78825 344.04376L136.85075 344.04376L136.85075 343.23126L137.78825 343.23126L137.78825 342.5594Q137.78825 341.9344 137.89763 341.6375Q138.05388 341.21564 138.42888 340.96564Q138.8195 340.71564 139.507 340.71564Q139.96013 340.71564 140.49138 340.825L140.33513 341.73126Q140.007 341.6844 139.71013 341.6844Q139.22575 341.6844 139.02263 341.8875Q138.83513 342.09064 138.83513 342.65314L138.83513 343.23126L140.05388 343.23126L140.05388 344.04376L138.83513 344.04376L138.83513 349.45L137.78825 349.45ZM140.53825 342.075L140.53825 340.85626L141.60075 340.85626L141.60075 342.075L140.53825 342.075ZM140.53825 349.45L140.53825 343.23126L141.60075 343.23126L141.60075 349.45L140.53825 349.45ZM147.60075 347.16876L148.632 347.3094Q148.46013 348.3719 147.757 348.98126Q147.05388 349.59064 146.03825 349.59064Q144.757 349.59064 143.97575 348.7625Q143.21013 347.91876 143.21013 346.35626Q143.21013 345.35626 143.53825 344.60626Q143.882 343.84064 144.55388 343.46564Q145.24138 343.09064 146.05388 343.09064Q147.05388 343.09064 147.6945 343.60626Q148.35075 344.10626 148.53825 345.0594L147.507 345.21564Q147.36638 344.59064 146.99138 344.27814Q146.61638 343.95 146.08513 343.95Q145.28825 343.95 144.78825 344.52814Q144.28825 345.09064 144.28825 346.325Q144.28825 347.59064 144.77263 348.15314Q145.257 348.71564 146.02263 348.71564Q146.64763 348.71564 147.05388 348.34064Q147.47575 347.96564 147.60075 347.16876ZM149.53825 342.075L149.53825 340.85626L150.60075 340.85626L150.60075 342.075L149.53825 342.075ZM149.53825 349.45L149.53825 343.23126L150.60075 343.23126L150.60075 349.45L149.53825 349.45ZM156.78825 347.45L157.882 347.575Q157.632 348.52814 156.92888 349.0594Q156.22575 349.59064 155.14763 349.59064Q153.78825 349.59064 152.97575 348.7469Q152.17888 347.90314 152.17888 346.3875Q152.17888 344.825 152.99138 343.96564Q153.80388 343.09064 155.08513 343.09064Q156.33513 343.09064 157.11638 343.9344Q157.91325 344.77814 157.91325 346.325Q157.91325 346.41876 157.91325 346.60626L153.27263 346.60626Q153.33513 347.6375 153.85075 348.1844Q154.36638 348.71564 155.14763 348.71564Q155.72575 348.71564 156.132 348.41876Q156.55388 348.10626 156.78825 347.45ZM153.33513 345.7469L156.80388 345.7469Q156.74138 344.95 156.41325 344.5594Q155.89763 343.95 155.10075 343.95Q154.36638 343.95 153.86638 344.4344Q153.382 344.91876 153.33513 345.7469ZM159.53825 349.45L159.53825 343.23126L160.47575 343.23126L160.47575 344.10626Q161.16325 343.09064 162.46013 343.09064Q163.02263 343.09064 163.49138 343.29376Q163.97575 343.4969 164.21013 343.825Q164.4445 344.15314 164.53825 344.59064Q164.58513 344.8875 164.58513 345.6219L164.58513 349.45L163.53825 349.45L163.53825 345.66876Q163.53825 345.0125 163.41325 344.7Q163.28825 344.3875 162.97575 344.2Q162.66325 343.9969 162.24138 343.9969Q161.5695 343.9969 161.0695 344.4344Q160.58513 344.85626 160.58513 346.04376L160.58513 349.45L159.53825 349.45ZM168.83513 348.5125L168.99138 349.4344Q168.53825 349.52814 168.1945 349.52814Q167.61638 349.52814 167.30388 349.35626Q166.99138 349.16876 166.85075 348.8719Q166.72575 348.575 166.72575 347.6219L166.72575 344.04376L165.96013 344.04376L165.96013 343.23126L166.72575 343.23126L166.72575 341.6844L167.77263 341.0594L167.77263 343.23126L168.83513 343.23126L168.83513 344.04376L167.77263 344.04376L167.77263 347.6844Q167.77263 348.1375 167.8195 348.2625Q167.882 348.3875 168.007 348.46564Q168.132 348.54376 168.36638 348.54376Q168.55388 348.54376 168.83513 348.5125ZM172.11638 349.45L168.78825 340.85626L170.02263 340.85626L172.257 347.10626Q172.52263 347.85626 172.71013 348.5125Q172.91325 347.8094 173.17888 347.10626L175.49138 340.85626L176.64763 340.85626L173.28825 349.45L172.11638 349.45ZM176.53825 342.075L176.53825 340.85626L177.60075 340.85626L177.60075 342.075L176.53825 342.075ZM176.53825 349.45L176.53825 343.23126L177.60075 343.23126L177.60075 349.45L176.53825 349.45ZM181.85075 349.45L181.85075 341.8719L179.02263 341.8719L179.02263 340.85626L185.83513 340.85626L185.83513 341.8719L182.99138 341.8719L182.99138 349.45L181.85075 349.45Z" fill-rule="nonzero"/><path fill="#314c59" d="M248.15858 345.2625Q248.15858 343.1219 249.29921 341.91876Q250.45546 340.7 252.26796 340.7Q253.47108 340.7 254.42421 341.27814Q255.37733 341.84064 255.87733 342.85626Q256.37732 343.8719 256.37732 345.16876Q256.37732 346.46564 255.84608 347.4969Q255.31483 348.52814 254.34608 349.0594Q253.39296 349.59064 252.26796 349.59064Q251.04921 349.59064 250.09608 349.0125Q249.14296 348.41876 248.64296 347.41876Q248.15858 346.40314 248.15858 345.2625ZM249.33046 345.27814Q249.33046 346.84064 250.15858 347.73126Q251.00233 348.6219 252.26796 348.6219Q253.54921 348.6219 254.37733 347.73126Q255.20546 346.825 255.20546 345.15314Q255.20546 344.10626 254.84608 343.325Q254.50233 342.54376 253.81483 342.1219Q253.12733 341.6844 252.28358 341.6844Q251.08046 341.6844 250.20546 342.5125Q249.33046 343.34064 249.33046 345.27814ZM259.00232 349.45L256.72107 340.85626L257.89294 340.85626L259.20544 346.4969Q259.40857 347.3719 259.56482 348.2469Q259.89294 346.8719 259.95544 346.65314L261.58044 340.85626L262.95544 340.85626L264.18982 345.2Q264.64294 346.825 264.8617 348.2469Q265.01794 347.4344 265.28357 346.3719L266.62732 340.85626L267.76794 340.85626L265.4242 349.45L264.31482 349.45L262.51794 342.90314Q262.28357 342.09064 262.2367 341.90314Q262.1117 342.48126 261.9867 342.90314L260.1742 349.45L259.00232 349.45ZM268.45544 349.45L268.45544 340.85626L269.59607 340.85626L269.59607 348.4344L273.83044 348.4344L273.83044 349.45L268.45544 349.45ZM274.95544 346.8719L274.95544 345.8094L278.20544 345.8094L278.20544 346.8719L274.95544 346.8719ZM281.95544 349.45L278.62732 340.85626L279.8617 340.85626L282.09607 347.10626Q282.3617 347.85626 282.5492 348.5125Q282.75232 347.8094 283.01794 347.10626L285.33044 340.85626L286.4867 340.85626L283.12732 349.45L281.95544 349.45ZM286.37732 342.075L286.37732 340.85626L287.43982 340.85626L287.43982 342.075L286.37732 342.075ZM286.37732 349.45L286.37732 343.23126L287.43982 343.23126L287.43982 349.45L286.37732 349.45ZM291.68982 349.45L291.68982 341.8719L288.8617 341.8719L288.8617 340.85626L295.6742 340.85626L295.6742 341.8719L292.83044 341.8719L292.83044 349.45L291.68982 349.45Z" fill-rule="nonzero"/><path fill="#314c59" d="M363.48203 346.4344L364.60703 346.73126Q364.24765 348.1219 363.32578 348.85626Q362.4039 349.59064 361.06015 349.59064Q359.66953 349.59064 358.79453 349.02814Q357.91953 348.46564 357.4664 347.40314Q357.01328 346.325 357.01328 345.09064Q357.01328 343.7469 357.5289 342.7469Q358.04453 341.7469 358.98203 341.23126Q359.93515 340.71564 361.07578 340.71564Q362.35703 340.71564 363.23203 341.3719Q364.12265 342.02814 364.4664 343.21564L363.3414 343.48126Q363.04453 342.54376 362.4664 342.1219Q361.9039 341.6844 361.04453 341.6844Q360.06015 341.6844 359.38828 342.16876Q358.73203 342.6375 358.45078 343.4344Q358.18515 344.23126 358.18515 345.09064Q358.18515 346.1844 358.49765 346.9969Q358.82578 347.8094 359.49765 348.21564Q360.16953 348.6219 360.9664 348.6219Q361.91953 348.6219 362.57578 348.075Q363.24765 347.52814 363.48203 346.4344ZM366.29453 349.45L366.29453 340.85626L367.43515 340.85626L367.43515 348.4344L371.66953 348.4344L371.66953 349.45L366.29453 349.45ZM373.54453 349.45L373.54453 340.85626L374.66953 340.85626L374.66953 349.45L373.54453 349.45ZM376.3414 349.45L376.3414 340.85626L379.5914 340.85626Q380.43515 340.85626 380.88828 340.9344Q381.5289 341.04376 381.95078 341.34064Q382.38828 341.6375 382.63828 342.16876Q382.9039 342.7 382.9039 343.34064Q382.9039 344.4344 382.20078 345.2Q381.51328 345.95 379.68515 345.95L377.48203 345.95L377.48203 349.45L376.3414 349.45ZM377.48203 344.95L379.70078 344.95Q380.81015 344.95 381.26328 344.54376Q381.73203 344.1219 381.73203 343.3719Q381.73203 342.84064 381.45078 342.46564Q381.18515 342.075 380.74765 341.95Q380.45078 341.8719 379.68515 341.8719L377.48203 341.8719L377.48203 344.95ZM387.29453 349.45L387.29453 340.85626L388.43515 340.85626L388.43515 348.4344L392.66953 348.4344L392.66953 349.45L387.29453 349.45ZM398.2789 348.6844Q397.68515 349.1844 397.13828 349.3875Q396.60703 349.59064 395.98203 349.59064Q394.95078 349.59064 394.4039 349.09064Q393.85703 348.59064 393.85703 347.8094Q393.85703 347.35626 394.06015 346.98126Q394.26328 346.59064 394.60703 346.3719Q394.95078 346.1375 395.37265 346.02814Q395.66953 345.9344 396.31015 345.85626Q397.57578 345.71564 398.18515 345.4969Q398.18515 345.27814 398.18515 345.23126Q398.18515 344.575 397.88828 344.3094Q397.48203 343.96564 396.68515 343.96564Q395.95078 343.96564 395.5914 344.23126Q395.23203 344.48126 395.06015 345.1375L394.0289 344.9969Q394.16953 344.34064 394.49765 343.9344Q394.82578 343.52814 395.43515 343.3094Q396.04453 343.09064 396.8414 343.09064Q397.63828 343.09064 398.13828 343.27814Q398.63828 343.46564 398.87265 343.7469Q399.10703 344.02814 399.20078 344.46564Q399.24765 344.73126 399.24765 345.4344L399.24765 346.84064Q399.24765 348.3094 399.31015 348.7Q399.38828 349.09064 399.5914 349.45L398.48203 349.45Q398.32578 349.1219 398.2789 348.6844ZM398.18515 346.325Q397.60703 346.5594 396.4664 346.73126Q395.81015 346.825 395.54453 346.95Q395.2789 347.0594 395.12265 347.27814Q394.98203 347.4969 394.98203 347.77814Q394.98203 348.2 395.29453 348.48126Q395.62265 348.7625 396.23203 348.7625Q396.8414 348.7625 397.31015 348.4969Q397.79453 348.23126 398.01328 347.7625Q398.18515 347.40314 398.18515 346.71564L398.18515 346.325ZM401.20078 349.45L401.20078 343.23126L402.1539 343.23126L402.1539 344.16876Q402.51328 343.5125 402.81015 343.3094Q403.12265 343.09064 403.49765 343.09064Q404.0289 343.09064 404.57578 343.41876L404.2164 344.40314Q403.82578 344.16876 403.45078 344.16876Q403.0914 344.16876 402.81015 344.3875Q402.54453 344.59064 402.43515 344.96564Q402.24765 345.52814 402.24765 346.1844L402.24765 349.45L401.20078 349.45ZM405.01328 349.96564L406.04453 350.1219Q406.10703 350.59064 406.4039 350.8094Q406.79453 351.10626 407.4664 351.10626Q408.20078 351.10626 408.5914 350.8094Q408.99765 350.5125 409.13828 349.9969Q409.23203 349.66876 409.2164 348.6375Q408.5289 349.45 407.49765 349.45Q406.2164 349.45 405.51328 348.52814Q404.81015 347.59064 404.81015 346.3094Q404.81015 345.41876 405.12265 344.66876Q405.45078 343.90314 406.06015 343.4969Q406.66953 343.09064 407.49765 343.09064Q408.60703 343.09064 409.32578 343.98126L409.32578 343.23126L410.29453 343.23126L410.29453 348.60626Q410.29453 350.0594 409.99765 350.66876Q409.70078 351.27814 409.06015 351.6219Q408.41953 351.98126 407.48203 351.98126Q406.37265 351.98126 405.68515 351.48126Q404.99765 350.98126 405.01328 349.96564ZM405.88828 346.23126Q405.88828 347.45 406.37265 348.0125Q406.85703 348.575 407.5914 348.575Q408.32578 348.575 408.81015 348.0125Q409.31015 347.45 409.31015 346.2625Q409.31015 345.1219 408.79453 344.54376Q408.29453 343.96564 407.57578 343.96564Q406.87265 343.96564 406.37265 344.54376Q405.88828 345.10626 405.88828 346.23126ZM416.4664 347.45L417.56015 347.575Q417.31015 348.52814 416.60703 349.0594Q415.9039 349.59064 414.82578 349.59064Q413.4664 349.59064 412.6539 348.7469Q411.85703 347.90314 411.85703 346.3875Q411.85703 344.825 412.66953 343.96564Q413.48203 343.09064 414.76328 343.09064Q416.01328 343.09064 416.79453 343.9344Q417.5914 344.77814 417.5914 346.325Q417.5914 346.41876 417.5914 346.60626L412.95078 346.60626Q413.01328 347.6375 413.5289 348.1844Q414.04453 348.71564 414.82578 348.71564Q415.4039 348.71564 415.81015 348.41876Q416.23203 348.10626 416.4664 347.45ZM413.01328 345.7469L416.48203 345.7469Q416.41953 344.95 416.0914 344.5594Q415.57578 343.95 414.7789 343.95Q414.04453 343.95 413.54453 344.4344Q413.06015 344.91876 413.01328 345.7469Z" fill-rule="nonzero"/><path fill="#314c59" d="M472.64923 349.45L472.64923 340.85626L474.36798 340.85626L476.39923 346.9344Q476.68048 347.79376 476.80548 348.21564Q476.9461 347.7469 477.2586 346.84064L479.3211 340.85626L480.85236 340.85626L480.85236 349.45L479.7586 349.45L479.7586 342.2625L477.2586 349.45L476.22736 349.45L473.74298 342.1375L473.74298 349.45L472.64923 349.45ZM481.16486 346.34064Q481.16486 344.60626 482.11798 343.77814Q482.91486 343.09064 484.0711 343.09064Q485.35236 343.09064 486.16486 343.9344Q486.99298 344.7625 486.99298 346.2469Q486.99298 347.45 486.6336 348.1375Q486.27423 348.825 485.5711 349.21564Q484.8836 349.59064 484.0711 349.59064Q482.77423 349.59064 481.96173 348.7625Q481.16486 347.91876 481.16486 346.34064ZM482.24298 346.34064Q482.24298 347.52814 482.7586 348.1219Q483.28986 348.71564 484.0711 348.71564Q484.86798 348.71564 485.3836 348.1219Q485.89923 347.52814 485.89923 346.3094Q485.89923 345.15314 485.36798 344.5594Q484.85236 343.96564 484.0711 343.96564Q483.28986 343.96564 482.7586 344.5594Q482.24298 345.1375 482.24298 346.34064ZM489.52423 349.45L488.53986 349.45L488.53986 340.85626L489.60236 340.85626L489.60236 343.91876Q490.27423 343.09064 491.30548 343.09064Q491.8836 343.09064 492.3836 343.325Q492.89923 343.54376 493.22736 343.96564Q493.5711 344.3875 493.7586 344.98126Q493.9461 345.575 493.9461 346.2469Q493.9461 347.84064 493.14923 348.71564Q492.35236 349.59064 491.2586 349.59064Q490.14923 349.59064 489.52423 348.66876L489.52423 349.45ZM489.5086 346.29376Q489.5086 347.40314 489.8211 347.90314Q490.3211 348.71564 491.16486 348.71564Q491.85236 348.71564 492.35236 348.1219Q492.86798 347.52814 492.86798 346.325Q492.86798 345.10626 492.3836 344.52814Q491.89923 343.95 491.21173 343.95Q490.52423 343.95 490.0086 344.5594Q489.5086 345.15314 489.5086 346.29376ZM495.55548 342.075L495.55548 340.85626L496.61798 340.85626L496.61798 342.075L495.55548 342.075ZM495.55548 349.45L495.55548 343.23126L496.61798 343.23126L496.61798 349.45L495.55548 349.45ZM498.52423 349.45L498.52423 340.85626L499.58673 340.85626L499.58673 349.45L498.52423 349.45ZM505.80548 347.45L506.89923 347.575Q506.64923 348.52814 505.9461 349.0594Q505.24298 349.59064 504.16486 349.59064Q502.80548 349.59064 501.99298 348.7469Q501.1961 347.90314 501.1961 346.3875Q501.1961 344.825 502.0086 343.96564Q502.8211 343.09064 504.10236 343.09064Q505.35236 343.09064 506.1336 343.9344Q506.93048 344.77814 506.93048 346.325Q506.93048 346.41876 506.93048 346.60626L502.28986 346.60626Q502.35236 347.6375 502.86798 348.1844Q503.3836 348.71564 504.16486 348.71564Q504.74298 348.71564 505.14923 348.41876Q505.5711 348.10626 505.80548 347.45ZM502.35236 345.7469L505.8211 345.7469Q505.7586 344.95 505.43048 344.5594Q504.91486 343.95 504.11798 343.95Q503.3836 343.95 502.8836 344.4344Q502.39923 344.91876 502.35236 345.7469ZM511.30548 346.6844L512.368 346.59064Q512.4461 347.2469 512.72736 347.65314Q513.0086 348.0594 513.58673 348.325Q514.1805 348.575 514.91486 348.575Q515.5555 348.575 516.0555 348.3875Q516.5555 348.1844 516.78986 347.85626Q517.03986 347.5125 517.03986 347.1219Q517.03986 346.71564 516.8055 346.41876Q516.5711 346.10626 516.03986 345.90314Q515.6805 345.7625 514.493 345.48126Q513.3211 345.2 512.85236 344.95Q512.22736 344.6219 511.93048 344.15314Q511.6336 343.66876 511.6336 343.075Q511.6336 342.4344 511.99298 341.8719Q512.368 341.29376 513.0711 341.0125Q513.78986 340.71564 514.64923 340.71564Q515.60236 340.71564 516.33673 341.02814Q517.0711 341.325 517.46173 341.9344Q517.85236 342.52814 517.8836 343.27814L516.78986 343.35626Q516.6961 342.54376 516.1805 342.1375Q515.6805 341.71564 514.6961 341.71564Q513.66486 341.71564 513.1961 342.09064Q512.72736 342.46564 512.72736 342.9969Q512.72736 343.46564 513.0555 343.7625Q513.3836 344.0594 514.7586 344.3719Q516.14923 344.6844 516.66486 344.91876Q517.41486 345.27814 517.77423 345.8094Q518.1336 346.325 518.1336 347.02814Q518.1336 347.71564 517.743 348.325Q517.35236 348.91876 516.618 349.2625Q515.8836 349.59064 514.96173 349.59064Q513.78986 349.59064 512.993 349.2625Q512.21173 348.91876 511.7586 348.23126Q511.3211 347.54376 511.30548 346.6844ZM518.743 349.45L522.03986 340.85626L523.2586 340.85626L526.77423 349.45L525.493 349.45L524.47736 346.84064L520.89923 346.84064L519.9461 349.45L518.743 349.45ZM521.22736 345.91876L524.1336 345.91876L523.243 343.54376Q522.8211 342.46564 522.6336 341.7625Q522.46173 342.59064 522.16486 343.40314L521.22736 345.91876ZM526.64923 349.45L526.64923 340.85626L528.368 340.85626L530.39923 346.9344Q530.6805 347.79376 530.8055 348.21564Q530.9461 347.7469 531.2586 346.84064L533.3211 340.85626L534.85236 340.85626L534.85236 349.45L533.7586 349.45L533.7586 342.2625L531.2586 349.45L530.22736 349.45L527.743 342.1375L527.743 349.45L526.64923 349.45Z" fill-rule="nonzero"/><path fill="#adb7bd" d="M18.95625 60.20625L20.14375 60.034374Q20.190624 61.190624 20.565624 61.6125Q20.95625 62.034374 21.64375 62.034374Q22.14375 62.034374 22.503124 61.815624Q22.8625 61.58125 23.003124 61.190624Q23.14375 60.8 23.14375 59.925L23.14375 53.034374L24.45625 53.034374L24.45625 59.8625Q24.45625 61.1125 24.159374 61.815624Q23.8625 62.503124 23.190624 62.8625Q22.534374 63.221874 21.64375 63.221874Q20.33125 63.221874 19.628124 62.471874Q18.925 61.70625 18.95625 60.20625ZM30.440624 60.70625L31.721874 60.8625Q31.409374 61.9875 30.596874 62.6125Q29.784374 63.221874 28.51875 63.221874Q26.925 63.221874 25.9875 62.2375Q25.065624 61.253124 25.065624 59.4875Q25.065624 57.64375 26.003124 56.64375Q26.95625 55.628124 28.45625 55.628124Q29.909374 55.628124 30.83125 56.628124Q31.753124 57.6125 31.753124 59.409374Q31.753124 59.51875 31.753124 59.7375L26.33125 59.7375Q26.409374 60.925 27.003124 61.565624Q27.6125 62.20625 28.534374 62.20625Q29.20625 62.20625 29.675 61.846874Q30.159374 61.4875 30.440624 60.70625ZM26.409374 58.721874L30.45625 58.721874Q30.378124 57.8 29.9875 57.346874Q29.409374 56.64375 28.471874 56.64375Q27.6125 56.64375 27.034374 57.20625Q26.471874 57.76875 26.409374 58.721874ZM36.159374 61.95625L36.33125 63.034374Q35.815624 63.14375 35.409374 63.14375Q34.7375 63.14375 34.3625 62.940624Q34.003124 62.721874 33.846874 62.378124Q33.70625 62.034374 33.70625 60.925L33.70625 56.753124L32.8 56.753124L32.8 55.784374L33.70625 55.784374L33.70625 53.9875L34.925 53.253124L34.925 55.784374L36.159374 55.784374L36.159374 56.753124L34.925 56.753124L34.925 60.9875Q34.925 61.51875 34.9875 61.675Q35.05 61.815624 35.190624 61.909374Q35.346874 62.003124 35.6125 62.003124Q35.83125 62.003124 36.159374 61.95625ZM36.9875 60.878124L38.190624 60.690624Q38.3 61.425 38.76875 61.815624Q39.2375 62.20625 40.08125 62.20625Q40.925 62.20625 41.33125 61.8625Q41.753124 61.51875 41.753124 61.05Q41.753124 60.628124 41.378124 60.39375Q41.128124 60.221874 40.128124 59.971874Q38.76875 59.628124 38.2375 59.378124Q37.721874 59.128124 37.45625 58.690624Q37.190624 58.253124 37.190624 57.721874Q37.190624 57.2375 37.409374 56.83125Q37.628124 56.409374 38.01875 56.128124Q38.3 55.925 38.784374 55.784374Q39.284374 55.628124 39.8625 55.628124Q40.70625 55.628124 41.346874 55.878124Q42.003124 56.1125 42.315624 56.534374Q42.628124 56.95625 42.7375 57.659374L41.534374 57.83125Q41.45625 57.26875 41.05 56.95625Q40.659374 56.64375 39.940624 56.64375Q39.096874 56.64375 38.7375 56.925Q38.378124 57.190624 38.378124 57.58125Q38.378124 57.815624 38.51875 58.003124Q38.675 58.20625 39.003124 58.33125Q39.175 58.39375 40.08125 58.64375Q41.39375 59.003124 41.909374 59.221874Q42.425 59.440624 42.70625 59.8625Q43.003124 60.284374 43.003124 60.909374Q43.003124 61.534374 42.64375 62.08125Q42.3 62.6125 41.6125 62.925Q40.940624 63.221874 40.08125 63.221874Q38.675 63.221874 37.925 62.628124Q37.190624 62.034374 36.9875 60.878124ZM44.01875 59.425Q44.01875 57.409374 45.14375 56.425Q46.065624 55.628124 47.425 55.628124Q48.909374 55.628124 49.8625 56.6125Q50.815624 57.58125 50.815624 59.315624Q50.815624 60.721874 50.39375 61.534374Q49.971874 62.33125 49.159374 62.784374Q48.3625 63.221874 47.425 63.221874Q45.89375 63.221874 44.95625 62.2375Q44.01875 61.253124 44.01875 59.425ZM45.284374 59.425Q45.284374 60.815624 45.89375 61.51875Q46.503124 62.20625 47.425 62.20625Q48.33125 62.20625 48.940624 61.503124Q49.55 60.8 49.55 59.378124Q49.55 58.034374 48.940624 57.346874Q48.33125 56.64375 47.425 56.64375Q46.503124 56.64375 45.89375 57.33125Q45.284374 58.01875 45.284374 59.425ZM52.471874 63.05L52.471874 55.784374L53.58125 55.784374L53.58125 56.815624Q54.378124 55.628124 55.89375 55.628124Q56.55 55.628124 57.096874 55.8625Q57.64375 56.096874 57.909374 56.4875Q58.190624 56.8625 58.3 57.39375Q58.378124 57.7375 58.378124 58.58125L58.378124 63.05L57.14375 63.05L57.14375 58.628124Q57.14375 57.878124 57.003124 57.51875Q56.8625 57.14375 56.4875 56.925Q56.128124 56.690624 55.628124 56.690624Q54.846874 56.690624 54.26875 57.190624Q53.70625 57.690624 53.70625 59.08125L53.70625 63.05L52.471874 63.05ZM63.534374 63.05L67.37813 53.034374L68.8 53.034374L72.90938 63.05L71.39375 63.05L70.22188 60.01875L66.03438 60.01875L64.94063 63.05L63.534374 63.05ZM66.425 58.940624L69.81563 58.940624L68.76875 56.159374Q68.3 54.89375 68.06563 54.08125Q67.87813 55.05 67.51875 55.9875L66.425 58.940624ZM78.31563 59.1125L78.31563 57.940624L82.56563 57.940624L82.56563 61.659374Q81.58125 62.440624 80.53438 62.83125Q79.50313 63.221874 78.40938 63.221874Q76.94063 63.221874 75.72188 62.596874Q74.51875 61.95625 73.90938 60.76875Q73.3 59.565624 73.3 58.08125Q73.3 56.628124 73.90938 55.3625Q74.51875 54.08125 75.65938 53.471874Q76.81563 52.8625 78.31563 52.8625Q79.39375 52.8625 80.26875 53.221874Q81.15938 53.565624 81.65938 54.190624Q82.15938 54.815624 82.40938 55.83125L81.22188 56.159374Q80.9875 55.39375 80.64375 54.95625Q80.31563 54.51875 79.69063 54.253124Q79.08125 53.9875 78.31563 53.9875Q77.40938 53.9875 76.7375 54.26875Q76.08125 54.55 75.675 55.003124Q75.26875 55.440624 75.05 55.9875Q74.65938 56.925 74.65938 58.003124Q74.65938 59.346874 75.1125 60.253124Q75.58125 61.14375 76.45625 61.58125Q77.34688 62.01875 78.34688 62.01875Q79.20625 62.01875 80.01875 61.690624Q80.84688 61.3625 81.26875 60.9875L81.26875 59.1125L78.31563 59.1125ZM83.6125 63.05L87.4875 57.83125L84.06563 53.034374L85.64375 53.034374L87.47188 55.596874Q88.03438 56.39375 88.26875 56.83125Q88.6125 56.284374 89.06563 55.690624L91.08125 53.034374L92.51875 53.034374L89.00313 57.753124L92.8 63.05L91.15938 63.05L88.64375 59.471874Q88.425 59.159374 88.20625 58.8Q87.8625 59.346874 87.72188 59.55L85.20625 63.05L83.6125 63.05ZM96.22188 58.175Q96.22188 55.675 97.56563 54.26875Q98.90938 52.846874 101.01875 52.846874Q102.40938 52.846874 103.51875 53.51875Q104.64375 54.175 105.22188 55.3625Q105.81563 56.55 105.81563 58.05Q105.81563 59.58125 105.19063 60.784374Q104.58125 61.9875 103.45625 62.6125Q102.33125 63.221874 101.01875 63.221874Q99.59688 63.221874 98.4875 62.534374Q97.37813 61.846874 96.8 60.675Q96.22188 59.4875 96.22188 58.175ZM97.59688 58.190624Q97.59688 60.003124 98.56563 61.05Q99.55 62.08125 101.01875 62.08125Q102.50313 62.08125 103.47188 61.034374Q104.44063 59.9875 104.44063 58.05Q104.44063 56.815624 104.01875 55.909374Q103.6125 55.003124 102.81563 54.503124Q102.01875 53.9875 101.03438 53.9875Q99.62813 53.9875 98.6125 54.95625Q97.59688 55.925 97.59688 58.190624ZM107.45625 63.05L107.45625 55.784374L108.56563 55.784374L108.56563 56.89375Q108.9875 56.1125 109.34688 55.878124Q109.70625 55.628124 110.14375 55.628124Q110.76875 55.628124 111.40938 56.01875L110.9875 57.159374Q110.53438 56.89375 110.08125 56.89375Q109.675 56.89375 109.34688 57.14375Q109.03438 57.378124 108.89375 57.815624Q108.69063 58.471874 108.69063 59.253124L108.69063 63.05L107.45625 63.05ZM112.4875 54.440624L112.4875 53.034374L113.70625 53.034374L113.70625 54.440624L112.4875 54.440624ZM112.4875 63.05L112.4875 55.784374L113.70625 55.784374L113.70625 63.05L112.4875 63.05ZM115.47188 63.05L115.47188 55.784374L116.58125 55.784374L116.58125 56.815624Q117.37813 55.628124 118.89375 55.628124Q119.55 55.628124 120.09688 55.8625Q120.64375 56.096874 120.90938 56.4875Q121.19063 56.8625 121.3 57.39375Q121.37813 57.7375 121.37813 58.58125L121.37813 63.05L120.14375 63.05L120.14375 58.628124Q120.14375 57.878124 120.00313 57.51875Q119.8625 57.14375 119.4875 56.925Q119.12813 56.690624 118.62813 56.690624Q117.84688 56.690624 117.26875 57.190624Q116.70625 57.690624 116.70625 59.08125L116.70625 63.05L115.47188 63.05Z" fill-rule="nonzero"/><path fill="#909ea5" d="M24.190624 37.55L18.64375 23.2375L20.690624 23.2375L24.409374 33.628124Q24.8625 34.878124 25.159374 35.971874Q25.4875 34.8 25.940624 33.628124L29.8 23.2375L31.7375 23.2375L26.128124 37.55L24.190624 37.55ZM32.878124 25.253124L32.878124 23.2375L34.64375 23.2375L34.64375 25.253124L32.878124 25.253124ZM32.878124 37.55L32.878124 27.175L34.64375 27.175L34.64375 37.55L32.878124 37.55ZM36.159374 34.45625L37.909374 34.175Q38.05 35.221874 38.721874 35.784374Q39.39375 36.33125 40.596874 36.33125Q41.8 36.33125 42.378124 35.846874Q42.971874 35.346874 42.971874 34.690624Q42.971874 34.096874 42.45625 33.753124Q42.096874 33.51875 40.659374 33.159374Q38.721874 32.659374 37.971874 32.315624Q37.2375 31.95625 36.846874 31.33125Q36.45625 30.690624 36.45625 29.925Q36.45625 29.2375 36.76875 28.64375Q37.096874 28.05 37.64375 27.659374Q38.05 27.3625 38.753124 27.159374Q39.471874 26.940624 40.284374 26.940624Q41.503124 26.940624 42.425 27.3Q43.346874 27.64375 43.784374 28.253124Q44.221874 28.846874 44.39375 29.846874L42.675 30.08125Q42.55 29.284374 41.9875 28.846874Q41.425 28.39375 40.409374 28.39375Q39.190624 28.39375 38.675 28.8Q38.159374 29.190624 38.159374 29.721874Q38.159374 30.065624 38.378124 30.346874Q38.58125 30.628124 39.05 30.815624Q39.315624 30.909374 40.596874 31.253124Q42.471874 31.753124 43.20625 32.08125Q43.940624 32.39375 44.3625 33.003124Q44.784374 33.596874 44.784374 34.503124Q44.784374 35.378124 44.26875 36.159374Q43.753124 36.940624 42.784374 37.3625Q41.815624 37.784374 40.596874 37.784374Q38.58125 37.784374 37.51875 36.940624Q36.45625 36.096874 36.159374 34.45625ZM46.878124 25.253124L46.878124 23.2375L48.64375 23.2375L48.64375 25.253124L46.878124 25.253124ZM46.878124 37.55L46.878124 27.175L48.64375 27.175L48.64375 37.55L46.878124 37.55ZM50.221874 32.3625Q50.221874 29.4875 51.815624 28.096874Q53.159374 26.940624 55.08125 26.940624Q57.221874 26.940624 58.565624 28.346874Q59.925 29.753124 59.925 32.221874Q59.925 34.221874 59.33125 35.378124Q58.7375 36.51875 57.58125 37.159374Q56.440624 37.784374 55.08125 37.784374Q52.89375 37.784374 51.55 36.39375Q50.221874 34.9875 50.221874 32.3625ZM52.01875 32.3625Q52.01875 34.3625 52.878124 35.346874Q53.753124 36.33125 55.08125 36.33125Q56.39375 36.33125 57.253124 35.346874Q58.128124 34.346874 58.128124 32.3Q58.128124 30.378124 57.253124 29.39375Q56.378124 28.39375 55.08125 28.39375Q53.753124 28.39375 52.878124 29.39375Q52.01875 30.378124 52.01875 32.3625ZM61.8625 37.55L61.8625 27.175L63.45625 27.175L63.45625 28.659374Q64.59688 26.940624 66.75313 26.940624Q67.69063 26.940624 68.47188 27.284374Q69.26875 27.6125 69.65938 28.159374Q70.05 28.70625 70.20625 29.45625Q70.3 29.95625 70.3 31.175L70.3 37.55L68.53438 37.55L68.53438 31.2375Q68.53438 30.159374 68.33125 29.628124Q68.12813 29.096874 67.59688 28.784374Q67.08125 28.471874 66.37813 28.471874Q65.25313 28.471874 64.44063 29.190624Q63.628124 29.89375 63.628124 31.878124L63.628124 37.55L61.8625 37.55ZM81.7375 37.55L81.7375 24.925L77.01875 24.925L77.01875 23.2375L88.3625 23.2375L88.3625 24.925L83.62813 24.925L83.62813 37.55L81.7375 37.55ZM89.84688 37.55L89.84688 27.175L91.425 27.175L91.425 28.753124Q92.03438 27.64375 92.55 27.3Q93.06563 26.940624 93.675 26.940624Q94.56563 26.940624 95.4875 27.503124L94.87813 29.14375Q94.2375 28.753124 93.59688 28.753124Q93.01875 28.753124 92.55 29.1125Q92.09688 29.45625 91.89375 30.065624Q91.6125 31.003124 91.6125 32.1125L91.6125 37.55L89.84688 37.55ZM103.64375 36.26875Q102.65938 37.096874 101.75313 37.440624Q100.84688 37.784374 99.81563 37.784374Q98.1125 37.784374 97.19063 36.95625Q96.26875 36.1125 96.26875 34.815624Q96.26875 34.05 96.6125 33.425Q96.97188 32.8 97.53438 32.425Q98.09688 32.034374 98.8 31.83125Q99.31563 31.70625 100.3625 31.565624Q102.4875 31.315624 103.4875 30.971874Q103.50313 30.6125 103.50313 30.503124Q103.50313 29.440624 103.00313 28.9875Q102.33125 28.39375 101.00313 28.39375Q99.75313 28.39375 99.15938 28.83125Q98.58125 29.26875 98.3 30.378124L96.58125 30.14375Q96.81563 29.034374 97.34688 28.3625Q97.87813 27.675 98.89375 27.315624Q99.90938 26.940624 101.25313 26.940624Q102.58125 26.940624 103.40938 27.253124Q104.2375 27.565624 104.62813 28.05Q105.01875 28.51875 105.175 29.2375Q105.26875 29.690624 105.26875 30.8625L105.26875 33.20625Q105.26875 35.659374 105.37813 36.315624Q105.4875 36.95625 105.83125 37.55L103.9875 37.55Q103.72188 37.003124 103.64375 36.26875ZM103.4875 32.346874Q102.53438 32.7375 100.6125 33.003124Q99.53438 33.159374 99.08125 33.3625Q98.64375 33.55 98.39375 33.925Q98.14375 34.3 98.14375 34.76875Q98.14375 35.471874 98.675 35.940624Q99.20625 36.409374 100.2375 36.409374Q101.25313 36.409374 102.03438 35.971874Q102.83125 35.51875 103.20625 34.753124Q103.4875 34.14375 103.4875 32.9875L103.4875 32.346874ZM107.8625 37.55L107.8625 27.175L109.45625 27.175L109.45625 28.659374Q110.59688 26.940624 112.75313 26.940624Q113.69063 26.940624 114.47188 27.284374Q115.26875 27.6125 115.65938 28.159374Q116.05 28.70625 116.20625 29.45625Q116.3 29.95625 116.3 31.175L116.3 37.55L114.53438 37.55L114.53438 31.2375Q114.53438 30.159374 114.33125 29.628124Q114.12813 29.096874 113.59688 28.784374Q113.08125 28.471874 112.37813 28.471874Q111.25313 28.471874 110.44063 29.190624Q109.62813 29.89375 109.62813 31.878124L109.62813 37.55L107.8625 37.55ZM117.15938 34.45625L118.90938 34.175Q119.05 35.221874 119.72188 35.784374Q120.39375 36.33125 121.59688 36.33125Q122.8 36.33125 123.37813 35.846874Q123.97188 35.346874 123.97188 34.690624Q123.97188 34.096874 123.45625 33.753124Q123.09688 33.51875 121.65938 33.159374Q119.72188 32.659374 118.97188 32.315624Q118.2375 31.95625 117.84688 31.33125Q117.45625 30.690624 117.45625 29.925Q117.45625 29.2375 117.76875 28.64375Q118.09688 28.05 118.64375 27.659374Q119.05 27.3625 119.75313 27.159374Q120.47188 26.940624 121.28438 26.940624Q122.50313 26.940624 123.425 27.3Q124.34688 27.64375 124.78438 28.253124Q125.22188 28.846874 125.39375 29.846874L123.675 30.08125Q123.55 29.284374 122.9875 28.846874Q122.425 28.39375 121.40938 28.39375Q120.19063 28.39375 119.675 28.8Q119.15938 29.190624 119.15938 29.721874Q119.15938 30.065624 119.37813 30.346874Q119.58125 30.628124 120.05 30.815624Q120.31563 30.909374 121.59688 31.253124Q123.47188 31.753124 124.20625 32.08125Q124.94063 32.39375 125.3625 33.003124Q125.78438 33.596874 125.78438 34.503124Q125.78438 35.378124 125.26875 36.159374Q124.75313 36.940624 123.78438 37.3625Q122.81563 37.784374 121.59688 37.784374Q119.58125 37.784374 118.51875 36.940624Q117.45625 36.096874 117.15938 34.45625ZM128.28438 37.55L128.28438 28.55L126.7375 28.55L126.7375 27.175L128.28438 27.175L128.28438 26.08125Q128.28438 25.034374 128.47188 24.51875Q128.72188 23.83125 129.3625 23.409374Q130.00313 22.9875 131.15938 22.9875Q131.90938 22.9875 132.8 23.159374L132.53438 24.690624Q131.9875 24.596874 131.50313 24.596874Q130.70625 24.596874 130.3625 24.940624Q130.03438 25.284374 130.03438 26.221874L130.03438 27.175L132.06563 27.175L132.06563 28.55L130.03438 28.55L130.03438 37.55L128.28438 37.55ZM133.22188 32.3625Q133.22188 29.4875 134.81563 28.096874Q136.15938 26.940624 138.08125 26.940624Q140.22188 26.940624 141.56563 28.346874Q142.925 29.753124 142.925 32.221874Q142.925 34.221874 142.33125 35.378124Q141.7375 36.51875 140.58125 37.159374Q139.44063 37.784374 138.08125 37.784374Q135.89375 37.784374 134.55 36.39375Q133.22188 34.9875 133.22188 32.3625ZM135.01875 32.3625Q135.01875 34.3625 135.87813 35.346874Q136.75313 36.33125 138.08125 36.33125Q139.39375 36.33125 140.25313 35.346874Q141.12813 34.346874 141.12813 32.3Q141.12813 30.378124 140.25313 29.39375Q139.37813 28.39375 138.08125 28.39375Q136.75313 28.39375 135.87813 29.39375Q135.01875 30.378124 135.01875 32.3625ZM144.84688 37.55L144.84688 27.175L146.425 27.175L146.425 28.753124Q147.03438 27.64375 147.55 27.3Q148.06563 26.940624 148.675 26.940624Q149.56563 26.940624 150.4875 27.503124L149.87813 29.14375Q149.2375 28.753124 148.59688 28.753124Q148.01875 28.753124 147.55 29.1125Q147.09688 29.45625 146.89375 30.065624Q146.6125 31.003124 146.6125 32.1125L146.6125 37.55L144.84688 37.55ZM151.8625 37.55L151.8625 27.175L153.44063 27.175L153.44063 28.628124Q153.925 27.878124 154.7375 27.409374Q155.55 26.940624 156.58125 26.940624Q157.7375 26.940624 158.47188 27.425Q159.20625 27.89375 159.51875 28.753124Q160.75313 26.940624 162.72188 26.940624Q164.26875 26.940624 165.09688 27.8Q165.925 28.659374 165.925 30.425L165.925 37.55L164.175 37.55L164.175 31.01875Q164.175 29.95625 164.00313 29.503124Q163.83125 29.034374 163.37813 28.753124Q162.94063 28.471874 162.33125 28.471874Q161.2375 28.471874 160.50313 29.20625Q159.78438 29.925 159.78438 31.51875L159.78438 37.55L158.03438 37.55L158.03438 30.815624Q158.03438 29.64375 157.59688 29.065624Q157.175 28.471874 156.19063 28.471874Q155.45625 28.471874 154.81563 28.8625Q154.19063 29.253124 153.90938 30.003124Q153.62813 30.753124 153.62813 32.175L153.62813 37.55L151.8625 37.55ZM174.97188 34.20625L176.78438 34.440624Q176.3625 36.01875 175.19063 36.909374Q174.03438 37.784374 172.22188 37.784374Q169.95625 37.784374 168.6125 36.39375Q167.28438 34.9875 167.28438 32.45625Q167.28438 29.83125 168.62813 28.39375Q169.97188 26.940624 172.12813 26.940624Q174.20625 26.940624 175.51875 28.3625Q176.84688 29.76875 176.84688 32.346874Q176.84688 32.503124 176.83125 32.815624L169.09688 32.815624Q169.19063 34.51875 170.06563 35.425Q170.94063 36.33125 172.2375 36.33125Q173.20625 36.33125 173.87813 35.83125Q174.56563 35.315624 174.97188 34.20625ZM169.19063 31.3625L174.9875 31.3625Q174.87813 30.065624 174.33125 29.409374Q173.4875 28.39375 172.14375 28.39375Q170.94063 28.39375 170.1125 29.20625Q169.28438 30.003124 169.19063 31.3625ZM178.84688 37.55L178.84688 27.175L180.425 27.175L180.425 28.753124Q181.03438 27.64375 181.55 27.3Q182.06563 26.940624 182.675 26.940624Q183.56563 26.940624 184.4875 27.503124L183.87813 29.14375Q183.2375 28.753124 182.59688 28.753124Q182.01875 28.753124 181.55 29.1125Q181.09688 29.45625 180.89375 30.065624Q180.6125 31.003124 180.6125 32.1125L180.6125 37.55L178.84688 37.55ZM185.15938 34.45625L186.90938 34.175Q187.05 35.221874 187.72188 35.784374Q188.39375 36.33125 189.59688 36.33125Q190.8 36.33125 191.37813 35.846874Q191.97188 35.346874 191.97188 34.690624Q191.97188 34.096874 191.45625 33.753124Q191.09688 33.51875 189.65938 33.159374Q187.72188 32.659374 186.97188 32.315624Q186.2375 31.95625 185.84688 31.33125Q185.45625 30.690624 185.45625 29.925Q185.45625 29.2375 185.76875 28.64375Q186.09688 28.05 186.64375 27.659374Q187.05 27.3625 187.75313 27.159374Q188.47188 26.940624 189.28438 26.940624Q190.50313 26.940624 191.425 27.3Q192.34688 27.64375 192.78438 28.253124Q193.22188 28.846874 193.39375 29.846874L191.675 30.08125Q191.55 29.284374 190.9875 28.846874Q190.425 28.39375 189.40938 28.39375Q188.19063 28.39375 187.675 28.8Q187.15938 29.190624 187.15938 29.721874Q187.15938 30.065624 187.37813 30.346874Q187.58125 30.628124 188.05 30.815624Q188.31563 30.909374 189.59688 31.253124Q191.47188 31.753124 192.20625 32.08125Q192.94063 32.39375 193.3625 33.003124Q193.78438 33.596874 193.78438 34.503124Q193.78438 35.378124 193.26875 36.159374Q192.75313 36.940624 191.78438 37.3625Q190.81563 37.784374 189.59688 37.784374Q187.58125 37.784374 186.51875 36.940624Q185.45625 36.096874 185.15938 34.45625Z" fill-rule="nonzero"/></svg>