<svg version="1.1" viewBox="0.0 0.0 600.0 371.0" fill="none" stroke="none" stroke-linecap="square" stroke-miterlimit="10" width="600" height="371" xmlns:xlink="http://www.w3.org/1999/xlink" xmlns="http://www.w3.org/2000/svg"><path fill="#ffffff" d="M0 0L600.0 0L600.0 371.0L0 371.0L0 0Z" fill-rule="nonzero"/><path stroke="#333333" stroke-width="1.0" stroke-linecap="butt" d="M77.5 318.5L581.5 318.5" fill-rule="nonzero"/><path stroke="#cccccc" stroke-width="1.0" stroke-linecap="butt" d="M77.5 240.5L581.5 240.5" fill-rule="nonzero"/><path stroke="#cccccc" stroke-width="1.0" stroke-linecap="butt" d="M77.5 163.5L581.5 163.5" fill-rule="nonzero"/><path stroke="#cccccc" stroke-width="1.0" stroke-linecap="butt" d="M77.5 85.5L581.5 85.5" fill-rule="nonzero"/><clipPath id="id_0"><path d="M77.55 85.416664L581.45 85.416664L581.45 318.45L77.55 318.45L77.55 85.416664Z" clip-rule="nonzero"/></clipPath><path stroke="#000000" stroke-width="2.0" stroke-linecap="butt" stroke-opacity="0.0" clip-path="url(#id_0)" d="M292.0 318.0L153.0 318.0L153.0 249.0C153.0 247.89543 153.89543 247.0 155.0 247.0L290.0 247.0C291.10458 247.0 292.0 247.89543 292.0 249.0Z" fill-rule="nonzero"/><path fill="#76b900" clip-path="url(#id_0)" d="M292.0 318.0L153.0 318.0L153.0 249.0C153.0 247.89543 153.89543 247.0 155.0 247.0L290.0 247.0C291.10458 247.0 292.0 247.89543 292.0 249.0Z" fill-rule="nonzero"/><path stroke="#000000" stroke-width="2.0" stroke-linecap="butt" stroke-opacity="0.0" clip-path="url(#id_0)" d="M507.0 318.0L368.0 318.0L368.0 98.0C368.0 96.89543 368.89542 96.0 370.0 96.0L505.0 96.0C506.10458 96.0 507.0 96.89543 507.0 98.0Z" fill-rule="nonzero"/><path fill="#76b900" clip-path="url(#id_0)" d="M507.0 318.0L368.0 318.0L368.0 98.0C368.0 96.89543 368.89542 96.0 370.0 96.0L505.0 96.0C506.10458 96.0 507.0 96.89543 507.0 98.0Z" fill-rule="nonzero"/><path stroke="#76b900" stroke-width="3.0" stroke-linejoin="round" stroke-linecap="round" d="M211.26562 264.17484L210.1875 264.17484L210.1875 256.9561L208.0 257.75296L208.0 256.7686L211.10938 255.59671L211.26562 255.59671L211.26562 264.17484ZM219.89062 257.86234Q219.89062 258.50296 219.54688 259.00296Q219.20312 259.50296 218.64062 259.7842Q219.29688 260.06546 219.6875 260.62796Q220.07812 261.17484 220.07812 261.87796Q220.07812 262.9717 219.32812 263.6436Q218.59375 264.29984 217.375 264.29984Q216.14062 264.29984 215.39062 263.6436Q214.65625 262.9717 214.65625 261.87796Q214.65625 261.17484 215.03125 260.62796Q215.40625 260.06546 216.07812 259.7842Q215.51562 259.50296 215.1875 259.00296Q214.85938 258.50296 214.85938 257.86234Q214.85938 256.7842 215.54688 256.1592Q216.23438 255.51859 217.375 255.51859Q218.5 255.51859 219.1875 256.1592Q219.89062 256.7842 219.89062 257.86234ZM219.0 261.8467Q219.0 261.12796 218.54688 260.69046Q218.09375 260.23734 217.35938 260.23734Q216.625 260.23734 216.17188 260.69046Q215.73438 261.12796 215.73438 261.86234Q215.73438 262.5811 216.17188 263.00296Q216.60938 263.4092 217.375 263.4092Q218.125 263.4092 218.5625 262.98734Q219.0 262.56546 219.0 261.8467ZM217.375 256.4092Q216.73438 256.4092 216.32812 256.81546Q215.9375 257.2061 215.9375 257.8936Q215.9375 258.5342 216.32812 258.94046Q216.71875 259.3467 217.35938 259.3467Q218.01562 259.3467 218.40625 258.94046Q218.79688 258.5342 218.79688 257.8936Q218.79688 257.23734 218.39062 256.8311Q217.98438 256.4092 217.375 256.4092ZM221.84375 263.61234Q221.84375 263.3311 222.0 263.1436Q222.17188 262.9561 222.5 262.9561Q222.84375 262.9561 223.01562 263.1436Q223.1875 263.3311 223.1875 263.61234Q223.1875 263.87796 223.01562 264.06546Q222.84375 264.23734 222.5 264.23734Q222.17188 264.23734 222.0 264.06546Q221.84375 263.87796 221.84375 263.61234ZM226.28125 259.37796L227.09375 259.37796Q227.875 259.36234 228.3125 258.9717Q228.75 258.5811 228.75 257.9092Q228.75 256.4092 227.25 256.4092Q226.54688 256.4092 226.125 256.81546Q225.71875 257.2217 225.71875 257.87796L224.625 257.87796Q224.625 256.86234 225.35938 256.19046Q226.10938 255.51859 227.25 255.51859Q228.45312 255.51859 229.14062 256.1592Q229.82812 256.79984 229.82812 257.94046Q229.82812 258.50296 229.46875 259.0186Q229.10938 259.5342 228.48438 259.79984Q229.1875 260.0186 229.5625 260.5342Q229.95312 261.04984 229.95312 261.79984Q229.95312 262.94046 229.20312 263.62796Q228.45312 264.29984 227.25 264.29984Q226.0625 264.29984 225.29688 263.6436Q224.54688 262.98734 224.54688 261.92484L225.64062 261.92484Q225.64062 262.5967 226.07812 263.00296Q226.51562 263.4092 227.26562 263.4092Q228.04688 263.4092 228.45312 263.00296Q228.875 262.5811 228.875 261.81546Q228.875 261.0811 228.42188 260.69046Q227.96875 260.2842 227.09375 260.2686L226.28125 260.2686L226.28125 259.37796ZM233.95312 260.1436L235.35938 257.8311L236.625 257.8311L234.54688 260.9717L236.6875 264.17484L235.4375 264.17484L233.96875 261.79984L232.5 264.17484L231.23438 264.17484L233.375 260.9717L231.3125 257.8311L232.5625 257.8311L233.95312 260.1436Z" fill-rule="nonzero"/><path fill="#ffffff" d="M211.26562 264.17484L210.1875 264.17484L210.1875 256.9561L208.0 257.75296L208.0 256.7686L211.10938 255.59671L211.26562 255.59671L211.26562 264.17484ZM219.89062 257.86234Q219.89062 258.50296 219.54688 259.00296Q219.20312 259.50296 218.64062 259.7842Q219.29688 260.06546 219.6875 260.62796Q220.07812 261.17484 220.07812 261.87796Q220.07812 262.9717 219.32812 263.6436Q218.59375 264.29984 217.375 264.29984Q216.14062 264.29984 215.39062 263.6436Q214.65625 262.9717 214.65625 261.87796Q214.65625 261.17484 215.03125 260.62796Q215.40625 260.06546 216.07812 259.7842Q215.51562 259.50296 215.1875 259.00296Q214.85938 258.50296 214.85938 257.86234Q214.85938 256.7842 215.54688 256.1592Q216.23438 255.51859 217.375 255.51859Q218.5 255.51859 219.1875 256.1592Q219.89062 256.7842 219.89062 257.86234ZM219.0 261.8467Q219.0 261.12796 218.54688 260.69046Q218.09375 260.23734 217.35938 260.23734Q216.625 260.23734 216.17188 260.69046Q215.73438 261.12796 215.73438 261.86234Q215.73438 262.5811 216.17188 263.00296Q216.60938 263.4092 217.375 263.4092Q218.125 263.4092 218.5625 262.98734Q219.0 262.56546 219.0 261.8467ZM217.375 256.4092Q216.73438 256.4092 216.32812 256.81546Q215.9375 257.2061 215.9375 257.8936Q215.9375 258.5342 216.32812 258.94046Q216.71875 259.3467 217.35938 259.3467Q218.01562 259.3467 218.40625 258.94046Q218.79688 258.5342 218.79688 257.8936Q218.79688 257.23734 218.39062 256.8311Q217.98438 256.4092 217.375 256.4092ZM221.84375 263.61234Q221.84375 263.3311 222.0 263.1436Q222.17188 262.9561 222.5 262.9561Q222.84375 262.9561 223.01562 263.1436Q223.1875 263.3311 223.1875 263.61234Q223.1875 263.87796 223.01562 264.06546Q222.84375 264.23734 222.5 264.23734Q222.17188 264.23734 222.0 264.06546Q221.84375 263.87796 221.84375 263.61234ZM226.28125 259.37796L227.09375 259.37796Q227.875 259.36234 228.3125 258.9717Q228.75 258.5811 228.75 257.9092Q228.75 256.4092 227.25 256.4092Q226.54688 256.4092 226.125 256.81546Q225.71875 257.2217 225.71875 257.87796L224.625 257.87796Q224.625 256.86234 225.35938 256.19046Q226.10938 255.51859 227.25 255.51859Q228.45312 255.51859 229.14062 256.1592Q229.82812 256.79984 229.82812 257.94046Q229.82812 258.50296 229.46875 259.0186Q229.10938 259.5342 228.48438 259.79984Q229.1875 260.0186 229.5625 260.5342Q229.95312 261.04984 229.95312 261.79984Q229.95312 262.94046 229.20312 263.62796Q228.45312 264.29984 227.25 264.29984Q226.0625 264.29984 225.29688 263.6436Q224.54688 262.98734 224.54688 261.92484L225.64062 261.92484Q225.64062 262.5967 226.07812 263.00296Q226.51562 263.4092 227.26562 263.4092Q228.04688 263.4092 228.45312 263.00296Q228.875 262.5811 228.875 261.81546Q228.875 261.0811 228.42188 260.69046Q227.96875 260.2842 227.09375 260.2686L226.28125 260.2686L226.28125 259.37796ZM233.95312 260.1436L235.35938 257.8311L236.625 257.8311L234.54688 260.9717L236.6875 264.17484L235.4375 264.17484L233.96875 261.79984L232.5 264.17484L231.23438 264.17484L233.375 260.9717L231.3125 257.8311L232.5625 257.8311L233.95312 260.1436Z" fill-rule="nonzero"/><path stroke="#76b900" stroke-width="3.0" stroke-linejoin="round" stroke-linecap="round" d="M423.20312 108.03353L423.64062 103.78353L428.01562 103.78353L428.01562 104.78353L424.5625 104.78353L424.29688 107.11166Q424.9375 106.73666 425.73438 106.73666Q426.89062 106.73666 427.57812 107.51791Q428.26562 108.28353 428.26562 109.59603Q428.26562 110.90853 427.54688 111.67416Q426.84375 112.43978 425.5625 112.43978Q424.4375 112.43978 423.71875 111.81478Q423.0 111.17416 422.90625 110.06478L423.92188 110.06478Q424.03125 110.79916 424.45312 111.17416Q424.875 111.54916 425.5625 111.54916Q426.3125 111.54916 426.75 111.03353Q427.1875 110.51791 427.1875 109.61166Q427.1875 108.75228 426.71875 108.23666Q426.25 107.72103 425.46875 107.72103Q424.76562 107.72103 424.35938 108.01791L424.07812 108.25228L423.20312 108.03353ZM435.21875 104.39291L431.6875 112.31478L430.54688 112.31478L434.0625 104.67416L429.45312 104.67416L429.45312 103.78353L435.21875 103.78353L435.21875 104.39291ZM436.84375 111.75228Q436.84375 111.47103 437.0 111.28353Q437.17188 111.09603 437.5 111.09603Q437.84375 111.09603 438.01562 111.28353Q438.1875 111.47103 438.1875 111.75228Q438.1875 112.01791 438.01562 112.20541Q437.84375 112.37728 437.5 112.37728Q437.17188 112.37728 437.0 112.20541Q436.84375 112.01791 436.84375 111.75228ZM444.28125 109.45541L445.46875 109.45541L445.46875 110.33041L444.28125 110.33041L444.28125 112.31478L443.20312 112.31478L443.20312 110.33041L439.3125 110.33041L439.3125 109.68978L443.125 103.78353L444.28125 103.78353L444.28125 109.45541ZM440.54688 109.45541L443.20312 109.45541L443.20312 105.26791L443.0625 105.50228L440.54688 109.45541ZM448.95312 108.28353L450.35938 105.97103L451.625 105.97103L449.54688 109.11166L451.6875 112.31478L450.4375 112.31478L448.96875 109.93978L447.5 112.31478L446.23438 112.31478L448.375 109.11166L446.3125 105.97103L447.5625 105.97103L448.95312 108.28353Z" fill-rule="nonzero"/><path fill="#ffffff" d="M423.20312 108.03353L423.64062 103.78353L428.01562 103.78353L428.01562 104.78353L424.5625 104.78353L424.29688 107.11166Q424.9375 106.73666 425.73438 106.73666Q426.89062 106.73666 427.57812 107.51791Q428.26562 108.28353 428.26562 109.59603Q428.26562 110.90853 427.54688 111.67416Q426.84375 112.43978 425.5625 112.43978Q424.4375 112.43978 423.71875 111.81478Q423.0 111.17416 422.90625 110.06478L423.92188 110.06478Q424.03125 110.79916 424.45312 111.17416Q424.875 111.54916 425.5625 111.54916Q426.3125 111.54916 426.75 111.03353Q427.1875 110.51791 427.1875 109.61166Q427.1875 108.75228 426.71875 108.23666Q426.25 107.72103 425.46875 107.72103Q424.76562 107.72103 424.35938 108.01791L424.07812 108.25228L423.20312 108.03353ZM435.21875 104.39291L431.6875 112.31478L430.54688 112.31478L434.0625 104.67416L429.45312 104.67416L429.45312 103.78353L435.21875 103.78353L435.21875 104.39291ZM436.84375 111.75228Q436.84375 111.47103 437.0 111.28353Q437.17188 111.09603 437.5 111.09603Q437.84375 111.09603 438.01562 111.28353Q438.1875 111.47103 438.1875 111.75228Q438.1875 112.01791 438.01562 112.20541Q437.84375 112.37728 437.5 112.37728Q437.17188 112.37728 437.0 112.20541Q436.84375 112.01791 436.84375 111.75228ZM444.28125 109.45541L445.46875 109.45541L445.46875 110.33041L444.28125 110.33041L444.28125 112.31478L443.20312 112.31478L443.20312 110.33041L439.3125 110.33041L439.3125 109.68978L443.125 103.78353L444.28125 103.78353L444.28125 109.45541ZM440.54688 109.45541L443.20312 109.45541L443.20312 105.26791L443.0625 105.50228L440.54688 109.45541ZM448.95312 108.28353L450.35938 105.97103L451.625 105.97103L449.54688 109.11166L451.6875 112.31478L450.4375 112.31478L448.96875 109.93978L447.5 112.31478L446.23438 112.31478L448.375 109.11166L446.3125 105.97103L447.5625 105.97103L448.95312 108.28353Z" fill-rule="nonzero"/><path fill="#314c59" d="M29.550013 278.49582L20.956263 278.49582L20.956263 274.68332Q20.956263 273.52707 21.190638 272.93332Q21.425013 272.33957 22.018763 271.9802Q22.596888 271.62082 23.300013 271.62082Q24.221888 271.62082 24.846888 272.21457Q25.471888 272.80832 25.643763 274.0427Q25.862513 273.58957 26.065638 273.3552Q26.518763 272.8552 27.206263 272.4177L29.550013 270.9177L29.550013 272.3552L27.768763 273.4802Q26.987513 273.9802 26.581263 274.30832Q26.175013 274.62082 26.018763 274.88644Q25.846888 275.13644 25.768763 275.40207Q25.737513 275.58957 25.737513 276.02707L25.737513 277.3552L29.550013 277.3552L29.550013 278.49582ZM24.753138 277.3552L24.753138 274.90207Q24.753138 274.13644 24.596888 273.69894Q24.425013 273.24582 24.081263 273.02707Q23.721888 272.7927 23.300013 272.7927Q22.690638 272.7927 22.300013 273.24582Q21.909388 273.68332 21.909388 274.63644L21.909388 277.3552L24.753138 277.3552ZM27.550013 265.38644L27.675013 264.2927Q28.628138 264.5427 29.159388 265.24582Q29.690638 265.94894 29.690638 267.02707Q29.690638 268.38644 28.846888 269.19894Q28.003138 269.99582 26.487513 269.99582Q24.925013 269.99582 24.065638 269.18332Q23.190638 268.37082 23.190638 267.08957Q23.190638 265.83957 24.034388 265.05832Q24.878138 264.26144 26.425013 264.26144Q26.518763 264.26144 26.706263 264.26144L26.706263 268.90207Q27.737513 268.83957 28.284388 268.32394Q28.815638 267.80832 28.815638 267.02707Q28.815638 266.44894 28.518763 266.0427Q28.206263 265.62082 27.550013 265.38644ZM25.846888 268.83957L25.846888 265.37082Q25.050013 265.43332 24.659388 265.76144Q24.050013 266.27707 24.050013 267.07394Q24.050013 267.80832 24.534388 268.30832Q25.018763 268.7927 25.846888 268.83957ZM28.784388 258.57394Q29.284388 259.1677 29.487513 259.71457Q29.690638 260.24582 29.690638 260.87082Q29.690638 261.90207 29.190638 262.44894Q28.690638 262.99582 27.909388 262.99582Q27.456263 262.99582 27.081263 262.7927Q26.690638 262.58957 26.471888 262.24582Q26.237513 261.90207 26.128138 261.4802Q26.034388 261.18332 25.956263 260.5427Q25.815638 259.27707 25.596888 258.6677Q25.378138 258.6677 25.331263 258.6677Q24.675013 258.6677 24.409388 258.96457Q24.065638 259.37082 24.065638 260.1677Q24.065638 260.90207 24.331263 261.26144Q24.581263 261.62082 25.237513 261.7927L25.096888 262.82394Q24.440638 262.68332 24.034388 262.3552Q23.628138 262.02707 23.409388 261.4177Q23.190638 260.80832 23.190638 260.01144Q23.190638 259.21457 23.378138 258.71457Q23.565638 258.21457 23.846888 257.9802Q24.128138 257.74582 24.565638 257.65207Q24.831263 257.6052 25.534388 257.6052L26.940638 257.6052Q28.409388 257.6052 28.800013 257.5427Q29.190638 257.46457 29.550013 257.26144L29.550013 258.37082Q29.221888 258.52707 28.784388 258.57394ZM26.425013 258.6677Q26.659388 259.24582 26.831263 260.38644Q26.925013 261.0427 27.050013 261.30832Q27.159388 261.57394 27.378138 261.7302Q27.596888 261.87082 27.878138 261.87082Q28.300013 261.87082 28.581263 261.55832Q28.862513 261.2302 28.862513 260.62082Q28.862513 260.01144 28.596888 259.5427Q28.331263 259.05832 27.862513 258.83957Q27.503138 258.6677 26.815638 258.6677L26.425013 258.6677ZM29.550013 255.66771L20.956263 255.66771L20.956263 254.60521L29.550013 254.60521L29.550013 255.66771ZM28.612513 250.33958L29.534388 250.18333Q29.628138 250.63646 29.628138 250.98021Q29.628138 251.55833 29.456263 251.87083Q29.268763 252.18333 28.971888 252.32396Q28.675013 252.44896 27.721888 252.44896L24.143763 252.44896L24.143763 253.21458L23.331263 253.21458L23.331263 252.44896L21.784388 252.44896L21.159388 251.40208L23.331263 251.40208L23.331263 250.33958L24.143763 250.33958L24.143763 251.40208L27.784388 251.40208Q28.237513 251.40208 28.362513 251.35521Q28.487513 251.29271 28.565638 251.16771Q28.643763 251.04271 28.643763 250.80833Q28.643763 250.62083 28.612513 250.33958ZM22.175013 249.63646L20.956263 249.63646L20.956263 248.57396L22.175013 248.57396L22.175013 249.63646ZM29.550013 249.63646L23.331263 249.63646L23.331263 248.57396L29.550013 248.57396L29.550013 249.63646ZM29.550013 246.63646L23.331263 246.63646L23.331263 245.69896L24.206263 245.69896Q23.737513 245.40208 23.471888 244.91771Q23.190638 244.43333 23.190638 243.80833Q23.190638 243.12083 23.471888 242.68333Q23.753138 242.23021 24.268763 242.05833Q23.190638 241.30833 23.190638 240.13646Q23.190638 239.19896 23.706263 238.71458Q24.206263 238.21458 25.284388 238.21458L29.550013 238.21458L29.550013 239.26146L25.628138 239.26146Q25.003138 239.26146 24.721888 239.37083Q24.440638 239.46458 24.268763 239.73021Q24.096888 239.99583 24.096888 240.37083Q24.096888 241.02708 24.534388 241.46458Q24.971888 241.88646 25.940638 241.88646L29.550013 241.88646L29.550013 242.94896L25.503138 242.94896Q24.800013 242.94896 24.456263 243.21458Q24.096888 243.46458 24.096888 244.04271Q24.096888 244.49583 24.331263 244.87083Q24.565638 245.24583 25.018763 245.41771Q25.471888 245.58958 26.315638 245.58958L29.550013 245.58958L29.550013 246.63646ZM27.550013 231.38646L27.675013 230.29271Q28.628138 230.54271 29.159388 231.24583Q29.690638 231.94896 29.690638 233.02708Q29.690638 234.38646 28.846888 235.19896Q28.003138 235.99583 26.487513 235.99583Q24.925013 235.99583 24.065638 235.18333Q23.190638 234.37083 23.190638 233.08958Q23.190638 231.83958 24.034388 231.05833Q24.878138 230.26146 26.425013 230.26146Q26.518763 230.26146 26.706263 230.26146L26.706263 234.90208Q27.737513 234.83958 28.284388 234.32396Q28.815638 233.80833 28.815638 233.02708Q28.815638 232.44896 28.518763 232.04271Q28.206263 231.62083 27.550013 231.38646ZM25.846888 234.83958L25.846888 231.37083Q25.050013 231.43333 24.659388 231.76146Q24.050013 232.27708 24.050013 233.07396Q24.050013 233.80833 24.534388 234.30833Q25.018763 234.79271 25.846888 234.83958ZM29.550013 225.44896L20.956263 225.44896L20.956263 219.65208L21.971888 219.65208L21.971888 224.30833L24.628138 224.30833L24.628138 220.27708L25.643763 220.27708L25.643763 224.30833L29.550013 224.30833L29.550013 225.44896ZM28.784388 214.57396Q29.284388 215.16771 29.487513 215.71458Q29.690638 216.24583 29.690638 216.87083Q29.690638 217.90208 29.190638 218.44896Q28.690638 218.99583 27.909388 218.99583Q27.456263 218.99583 27.081263 218.79271Q26.690638 218.58958 26.471888 218.24583Q26.237513 217.90208 26.128138 217.48021Q26.034388 217.18333 25.956263 216.54271Q25.815638 215.27708 25.596888 214.66771Q25.378138 214.66771 25.331263 214.66771Q24.675013 214.66771 24.409388 214.96458Q24.065638 215.37083 24.065638 216.16771Q24.065638 216.90208 24.331263 217.26146Q24.581263 217.62083 25.237513 217.79271L25.096888 218.82396Q24.440638 218.68333 24.034388 218.35521Q23.628138 218.02708 23.409388 217.41771Q23.190638 216.80833 23.190638 216.01146Q23.190638 215.21458 23.378138 214.71458Q23.565638 214.21458 23.846888 213.98021Q24.128138 213.74583 24.565638 213.65208Q24.831263 213.60521 25.534388 213.60521L26.940638 213.60521Q28.409388 213.60521 28.800013 213.54271Q29.190638 213.46458 29.550013 213.26146L29.550013 214.37083Q29.221888 214.52708 28.784388 214.57396ZM26.425013 214.66771Q26.659388 215.24583 26.831263 216.38646Q26.925013 217.04271 27.050013 217.30833Q27.159388 217.57396 27.378138 217.73021Q27.596888 217.87083 27.878138 217.87083Q28.300013 217.87083 28.581263 217.55833Q28.862513 217.23021 28.862513 216.62083Q28.862513 216.01146 28.596888 215.54271Q28.331263 215.05833 27.862513 214.83958Q27.503138 214.66771 26.815638 214.66771L26.425013 214.66771ZM27.268763 207.57396L27.409388 206.54271Q28.471888 206.71458 29.081263 207.41771Q29.690638 208.12083 29.690638 209.13646Q29.690638 210.41771 28.862513 211.19896Q28.018763 211.96458 26.456263 211.96458Q25.456263 211.96458 24.706263 211.63646Q23.940638 211.29271 23.565638 210.62083Q23.190638 209.93333 23.190638 209.12083Q23.190638 208.12083 23.706263 207.48021Q24.206263 206.82396 25.159388 206.63646L25.315638 207.66771Q24.690638 207.80833 24.378138 208.18333Q24.050013 208.55833 24.050013 209.08958Q24.050013 209.88646 24.628138 210.38646Q25.190638 210.88646 26.425013 210.88646Q27.690638 210.88646 28.253138 210.40208Q28.815638 209.91771 28.815638 209.15208Q28.815638 208.52708 28.440638 208.12083Q28.065638 207.69896 27.268763 207.57396ZM28.612513 203.33958L29.534388 203.18333Q29.628138 203.63646 29.628138 203.98021Q29.628138 204.55833 29.456263 204.87083Q29.268763 205.18333 28.971888 205.32396Q28.675013 205.44896 27.721888 205.44896L24.143763 205.44896L24.143763 206.21458L23.331263 206.21458L23.331263 205.44896L21.784388 205.44896L21.159388 204.40208L23.331263 204.40208L23.331263 203.33958L24.143763 203.33958L24.143763 204.40208L27.784388 204.40208Q28.237513 204.40208 28.362513 204.35521Q28.487513 204.29271 28.565638 204.16771Q28.643763 204.04271 28.643763 203.80833Q28.643763 203.62083 28.612513 203.33958ZM26.440638 203.02708Q24.706263 203.02708 23.878138 202.07396Q23.190638 201.27708 23.190638 200.12083Q23.190638 198.83958 24.034388 198.02708Q24.862513 197.19896 26.346888 197.19896Q27.550013 197.19896 28.237513 197.55833Q28.925013 197.91771 29.315638 198.62083Q29.690638 199.30833 29.690638 200.12083Q29.690638 201.41771 28.862513 202.23021Q28.018763 203.02708 26.440638 203.02708ZM26.440638 201.94896Q27.628138 201.94896 28.221888 201.43333Q28.815638 200.90208 28.815638 200.12083Q28.815638 199.32396 28.221888 198.80833Q27.628138 198.29271 26.409388 198.29271Q25.253138 198.29271 24.659388 198.82396Q24.065638 199.33958 24.065638 200.12083Q24.065638 200.90208 24.659388 201.43333Q25.237513 201.94896 26.440638 201.94896ZM29.550013 195.65208L23.331263 195.65208L23.331263 194.69896L24.268763 194.69896Q23.612513 194.33958 23.409388 194.04271Q23.190638 193.73021 23.190638 193.35521Q23.190638 192.82396 23.518763 192.27708L24.503138 192.63646Q24.268763 193.02708 24.268763 193.40208Q24.268763 193.76146 24.487513 194.04271Q24.690638 194.30833 25.065638 194.41771Q25.628138 194.60521 26.284388 194.60521L29.550013 194.60521L29.550013 195.65208ZM32.08126 186.62083Q30.971888 187.49583 29.503138 188.10521Q28.018763 188.69896 26.440638 188.69896Q25.050013 188.69896 23.768763 188.26146Q22.284388 187.73021 20.815638 186.62083L20.815638 185.87083Q22.034388 186.57396 22.550013 186.80833Q23.362513 187.16771 24.237513 187.37083Q25.331263 187.62083 26.440638 187.62083Q29.268763 187.62083 32.08126 185.87083L32.08126 186.62083ZM29.550013 184.49583L20.956263 184.49583L20.956263 180.68333Q20.956263 179.52708 21.190638 178.93333Q21.425013 178.33958 22.018763 177.98021Q22.596888 177.62083 23.300013 177.62083Q24.221888 177.62083 24.846888 178.21458Q25.471888 178.80833 25.643763 180.04271Q25.862513 179.58958 26.065638 179.35521Q26.518763 178.85521 27.206263 178.41771L29.550013 176.91771L29.550013 178.35521L27.768763 179.48021Q26.987513 179.98021 26.581263 180.30833Q26.175013 180.62083 26.018763 180.88646Q25.846888 181.13646 25.768763 181.40208Q25.737513 181.58958 25.737513 182.02708L25.737513 183.35521L29.550013 183.35521L29.550013 184.49583ZM24.753138 183.35521L24.753138 180.90208Q24.753138 180.13646 24.596888 179.69896Q24.425013 179.24583 24.081263 179.02708Q23.721888 178.79271 23.300013 178.79271Q22.690638 178.79271 22.300013 179.24583Q21.909388 179.68333 21.909388 180.63646L21.909388 183.35521L24.753138 183.35521ZM29.550013 173.32396L21.971888 173.32396L21.971888 176.15208L20.956263 176.15208L20.956263 169.33958L21.971888 169.33958L21.971888 172.18333L29.550013 172.18333L29.550013 173.32396ZM29.550013 168.44896L20.956263 168.44896L20.956263 162.65208L21.971888 162.65208L21.971888 167.30833L24.628138 167.30833L24.628138 163.27708L25.643763 163.27708L25.643763 167.30833L29.550013 167.30833L29.550013 168.44896ZM29.550013 162.38646L25.065638 159.05833L20.956263 161.98021L20.956263 160.63646L23.159388 159.07396Q23.846888 158.58958 24.221888 158.38646Q23.753138 158.08958 23.237513 157.69896L20.956263 155.98021L20.956263 154.74583L25.003138 157.76146L29.550013 154.51146L29.550013 155.91771L26.487513 158.07396Q26.221888 158.26146 25.909388 158.44896Q26.378138 158.73021 26.550013 158.85521L29.550013 161.01146L29.550013 162.38646ZM32.08126 153.94896L32.08126 154.69896Q29.268763 152.94896 26.440638 152.94896Q25.346888 152.94896 24.253138 153.19896Q23.378138 153.40208 22.565638 153.76146Q22.050013 153.99583 20.815638 154.69896L20.815638 153.94896Q22.284388 152.85521 23.768763 152.32396Q25.050013 151.87083 26.440638 151.87083Q28.018763 151.87083 29.503138 152.48021Q30.971888 153.08958 32.08126 153.94896Z" fill-rule="nonzero"/><path fill="#314c59" d="M60.05 318.21564Q60.05 316.6844 60.3625 315.7625Q60.675 314.825 61.284374 314.325Q61.909374 313.825 62.846874 313.825Q63.534374 313.825 64.05 314.10626Q64.58125 314.3875 64.925 314.91876Q65.26875 315.4344 65.45625 316.1844Q65.64375 316.9344 65.64375 318.21564Q65.64375 319.73126 65.33125 320.65314Q65.03438 321.575 64.40938 322.09064Q63.8 322.59064 62.846874 322.59064Q61.6125 322.59064 60.89375 321.7Q60.05 320.6375 60.05 318.21564ZM61.128124 318.21564Q61.128124 320.325 61.628124 321.02814Q62.128124 321.73126 62.846874 321.73126Q63.58125 321.73126 64.06563 321.02814Q64.56563 320.325 64.56563 318.21564Q64.56563 316.09064 64.06563 315.40314Q63.58125 314.7 62.83125 314.7Q62.1125 314.7 61.675 315.3094Q61.128124 316.09064 61.128124 318.21564ZM66.64375 322.45L68.90938 319.21564L66.81563 316.23126L68.12813 316.23126L69.08125 317.6844Q69.34688 318.10626 69.51875 318.3875Q69.76875 317.9969 69.9875 317.7L71.03438 316.23126L72.3 316.23126L70.14375 319.15314L72.45625 322.45L71.175 322.45L69.89375 320.5125L69.55 319.9969L67.90938 322.45L66.64375 322.45Z" fill-rule="nonzero"/><path fill="#314c59" d="M58.596874 243.75659L58.596874 244.77222L52.909374 244.77222Q52.909374 244.39722 53.034374 244.03784Q53.253124 243.45972 53.721874 242.89722Q54.20625 242.33472 55.1125 241.60034Q56.51875 240.44409 57.003124 239.77222Q57.503124 239.10034 57.503124 238.50659Q57.503124 237.88159 57.05 237.45972Q56.596874 237.02222 55.878124 237.02222Q55.1125 237.02222 54.659374 237.47534Q54.20625 237.92847 54.190624 238.74097L53.1125 238.63159Q53.221874 237.41284 53.940624 236.78784Q54.675 236.14722 55.909374 236.14722Q57.14375 236.14722 57.8625 236.83472Q58.58125 237.52222 58.58125 238.53784Q58.58125 239.05347 58.3625 239.55347Q58.159374 240.03784 57.659374 240.60034Q57.175 241.14722 56.05 242.10034Q55.096874 242.89722 54.815624 243.19409Q54.55 243.47534 54.378124 243.75659L58.596874 243.75659ZM60.05 240.53784Q60.05 239.00659 60.3625 238.08472Q60.675 237.14722 61.284374 236.64722Q61.909374 236.14722 62.846874 236.14722Q63.534374 236.14722 64.05 236.42847Q64.58125 236.70972 64.925 237.24097Q65.26875 237.75659 65.45625 238.50659Q65.64375 239.25659 65.64375 240.53784Q65.64375 242.05347 65.33125 242.97534Q65.03438 243.89722 64.40938 244.41284Q63.8 244.91284 62.846874 244.91284Q61.6125 244.91284 60.89375 244.02222Q60.05 242.95972 60.05 240.53784ZM61.128124 240.53784Q61.128124 242.64722 61.628124 243.35034Q62.128124 244.05347 62.846874 244.05347Q63.58125 244.05347 64.06563 243.35034Q64.56563 242.64722 64.56563 240.53784Q64.56563 238.41284 64.06563 237.72534Q63.58125 237.02222 62.83125 237.02222Q62.1125 237.02222 61.675 237.63159Q61.128124 238.41284 61.128124 240.53784ZM66.64375 244.77222L68.90938 241.53784L66.81563 238.55347L68.12813 238.55347L69.08125 240.00659Q69.34688 240.42847 69.51875 240.70972Q69.76875 240.31909 69.9875 240.02222L71.03438 238.55347L72.3 238.55347L70.14375 241.47534L72.45625 244.77222L71.175 244.77222L69.89375 242.83472L69.55 242.31909L67.90938 244.77222L66.64375 244.77222Z" fill-rule="nonzero"/><path fill="#314c59" d="M56.425 167.09445L56.425 165.03195L52.70625 165.03195L52.70625 164.0632L56.628124 158.5007L57.4875 158.5007L57.4875 164.0632L58.64375 164.0632L58.64375 165.03195L57.4875 165.03195L57.4875 167.09445L56.425 167.09445ZM56.425 164.0632L56.425 160.20383L53.7375 164.0632L56.425 164.0632ZM60.05 162.86008Q60.05 161.32883 60.3625 160.40695Q60.675 159.46945 61.284374 158.96945Q61.909374 158.46945 62.846874 158.46945Q63.534374 158.46945 64.05 158.7507Q64.58125 159.03195 64.925 159.5632Q65.26875 160.07883 65.45625 160.82883Q65.64375 161.57883 65.64375 162.86008Q65.64375 164.3757 65.33125 165.29758Q65.03438 166.21945 64.40938 166.73508Q63.8 167.23508 62.846874 167.23508Q61.6125 167.23508 60.89375 166.34445Q60.05 165.28195 60.05 162.86008ZM61.128124 162.86008Q61.128124 164.96945 61.628124 165.67258Q62.128124 166.3757 62.846874 166.3757Q63.58125 166.3757 64.06563 165.67258Q64.56563 164.96945 64.56563 162.86008Q64.56563 160.73508 64.06563 160.04758Q63.58125 159.34445 62.83125 159.34445Q62.1125 159.34445 61.675 159.95383Q61.128124 160.73508 61.128124 162.86008ZM66.64375 167.09445L68.90938 163.86008L66.81563 160.8757L68.12813 160.8757L69.08125 162.32883Q69.34688 162.7507 69.51875 163.03195Q69.76875 162.64133 69.9875 162.34445L71.03438 160.8757L72.3 160.8757L70.14375 163.79758L72.45625 167.09445L71.175 167.09445L69.89375 165.15695L69.55 164.64133L67.90938 167.09445L66.64375 167.09445Z" fill-rule="nonzero"/><path fill="#314c59" d="M58.51875 82.93229L57.471874 83.010414Q57.33125 82.385414 57.08125 82.104164Q56.64375 81.65104 56.01875 81.65104Q55.51875 81.65104 55.128124 81.93229Q54.64375 82.30729 54.346874 83.010414Q54.065624 83.697914 54.05 84.979164Q54.425 84.40104 54.971874 84.11979Q55.534374 83.83854 56.14375 83.83854Q57.190624 83.83854 57.925 84.61979Q58.675 85.40104 58.675 86.61979Q58.675 87.43229 58.315624 88.135414Q57.971874 88.822914 57.3625 89.197914Q56.753124 89.55729 55.9875 89.55729Q54.659374 89.55729 53.83125 88.58854Q53.003124 87.61979 53.003124 85.40104Q53.003124 82.90104 53.925 81.77604Q54.721874 80.791664 56.08125 80.791664Q57.096874 80.791664 57.7375 81.36979Q58.39375 81.93229 58.51875 82.93229ZM54.221874 86.635414Q54.221874 87.18229 54.440624 87.68229Q54.675 88.166664 55.08125 88.43229Q55.503124 88.697914 55.971874 88.697914Q56.628124 88.697914 57.1125 88.166664Q57.596874 87.61979 57.596874 86.697914Q57.596874 85.80729 57.1125 85.291664Q56.64375 84.77604 55.925 84.77604Q55.20625 84.77604 54.70625 85.291664Q54.221874 85.80729 54.221874 86.635414ZM60.05 85.18229Q60.05 83.65104 60.3625 82.729164Q60.675 81.791664 61.284374 81.291664Q61.909374 80.791664 62.846874 80.791664Q63.534374 80.791664 64.05 81.072914Q64.58125 81.354164 64.925 81.885414Q65.26875 82.40104 65.45625 83.15104Q65.64375 83.90104 65.64375 85.18229Q65.64375 86.697914 65.33125 87.61979Q65.03438 88.541664 64.40938 89.05729Q63.8 89.55729 62.846874 89.55729Q61.6125 89.55729 60.89375 88.666664Q60.05 87.604164 60.05 85.18229ZM61.128124 85.18229Q61.128124 87.291664 61.628124 87.99479Q62.128124 88.697914 62.846874 88.697914Q63.58125 88.697914 64.06563 87.99479Q64.56563 87.291664 64.56563 85.18229Q64.56563 83.05729 64.06563 82.36979Q63.58125 81.666664 62.83125 81.666664Q62.1125 81.666664 61.675 82.27604Q61.128124 83.05729 61.128124 85.18229ZM66.64375 89.416664L68.90938 86.18229L66.81563 83.197914L68.12813 83.197914L69.08125 84.65104Q69.34688 85.072914 69.51875 85.354164Q69.76875 84.96354 69.9875 84.666664L71.03438 83.197914L72.3 83.197914L70.14375 86.11979L72.45625 89.416664L71.175 89.416664L69.89375 87.479164L69.55 86.96354L67.90938 89.416664L66.64375 89.416664Z" fill-rule="nonzero"/><path fill="#314c59" d="M160.7716 335.45L164.06848 326.85626L165.28723 326.85626L168.80286 335.45L167.5216 335.45L166.50598 332.84064L162.92786 332.84064L161.97473 335.45L160.7716 335.45ZM163.25598 331.91876L166.16223 331.91876L165.2716 329.54376Q164.84973 328.46564 164.66223 327.7625Q164.49036 328.59064 164.19348 329.40314L163.25598 331.91876ZM168.3341 332.6844L169.3966 332.59064Q169.47473 333.2469 169.75598 333.65314Q170.03723 334.0594 170.61536 334.325Q171.2091 334.575 171.94348 334.575Q172.5841 334.575 173.0841 334.3875Q173.5841 334.1844 173.81848 333.85626Q174.06848 333.5125 174.06848 333.1219Q174.06848 332.71564 173.8341 332.41876Q173.59973 332.10626 173.06848 331.90314Q172.7091 331.7625 171.5216 331.48126Q170.34973 331.2 169.88098 330.95Q169.25598 330.6219 168.9591 330.15314Q168.66223 329.66876 168.66223 329.075Q168.66223 328.4344 169.0216 327.8719Q169.3966 327.29376 170.09973 327.0125Q170.81848 326.71564 171.67786 326.71564Q172.63098 326.71564 173.36536 327.02814Q174.09973 327.325 174.49036 327.9344Q174.88098 328.52814 174.91223 329.27814L173.81848 329.35626Q173.72473 328.54376 173.2091 328.1375Q172.7091 327.71564 171.72473 327.71564Q170.69348 327.71564 170.22473 328.09064Q169.75598 328.46564 169.75598 328.9969Q169.75598 329.46564 170.0841 329.7625Q170.41223 330.0594 171.78723 330.3719Q173.17786 330.6844 173.69348 330.91876Q174.44348 331.27814 174.80286 331.8094Q175.16223 332.325 175.16223 333.02814Q175.16223 333.71564 174.7716 334.325Q174.38098 334.91876 173.6466 335.2625Q172.91223 335.59064 171.99036 335.59064Q170.81848 335.59064 170.0216 335.2625Q169.24036 334.91876 168.78723 334.23126Q168.34973 333.54376 168.3341 332.6844ZM176.72473 335.45L176.72473 326.85626L180.53723 326.85626Q181.69348 326.85626 182.28723 327.09064Q182.88098 327.325 183.24036 327.91876Q183.59973 328.4969 183.59973 329.2Q183.59973 330.1219 183.00598 330.7469Q182.41223 331.3719 181.17786 331.54376Q181.63098 331.7625 181.86536 331.96564Q182.36536 332.41876 182.80286 333.10626L184.30286 335.45L182.86536 335.45L181.74036 333.66876Q181.24036 332.8875 180.91223 332.48126Q180.59973 332.075 180.3341 331.91876Q180.0841 331.7469 179.81848 331.66876Q179.63098 331.6375 179.19348 331.6375L177.86536 331.6375L177.86536 335.45L176.72473 335.45ZM177.86536 330.65314L180.31848 330.65314Q181.0841 330.65314 181.5216 330.4969Q181.97473 330.325 182.19348 329.98126Q182.42786 329.6219 182.42786 329.2Q182.42786 328.59064 181.97473 328.2Q181.53723 327.8094 180.5841 327.8094L177.86536 327.8094L177.86536 330.65314ZM190.59973 337.98126Q189.72473 336.8719 189.11536 335.40314Q188.5216 333.91876 188.5216 332.34064Q188.5216 330.95 188.9591 329.66876Q189.49036 328.1844 190.59973 326.71564L191.34973 326.71564Q190.6466 327.9344 190.41223 328.45Q190.05286 329.2625 189.84973 330.1375Q189.59973 331.23126 189.59973 332.34064Q189.59973 335.16876 191.34973 337.98126L190.59973 337.98126ZM198.84973 332.4344L199.97473 332.73126Q199.61536 334.1219 198.69348 334.85626Q197.7716 335.59064 196.42786 335.59064Q195.03723 335.59064 194.16223 335.02814Q193.28723 334.46564 192.8341 333.40314Q192.38098 332.325 192.38098 331.09064Q192.38098 329.7469 192.8966 328.7469Q193.41223 327.7469 194.34973 327.23126Q195.30286 326.71564 196.44348 326.71564Q197.72473 326.71564 198.59973 327.3719Q199.49036 328.02814 199.8341 329.21564L198.7091 329.48126Q198.41223 328.54376 197.8341 328.1219Q197.2716 327.6844 196.41223 327.6844Q195.42786 327.6844 194.75598 328.16876Q194.09973 328.6375 193.81848 329.4344Q193.55286 330.23126 193.55286 331.09064Q193.55286 332.1844 193.86536 332.9969Q194.19348 333.8094 194.86536 334.21564Q195.53723 334.6219 196.3341 334.6219Q197.28723 334.6219 197.94348 334.075Q198.61536 333.52814 198.84973 332.4344ZM201.19348 332.34064Q201.19348 330.60626 202.1466 329.77814Q202.94348 329.09064 204.09973 329.09064Q205.38098 329.09064 206.19348 329.9344Q207.0216 330.7625 207.0216 332.2469Q207.0216 333.45 206.66223 334.1375Q206.30286 334.825 205.59973 335.21564Q204.91223 335.59064 204.09973 335.59064Q202.80286 335.59064 201.99036 334.7625Q201.19348 333.91876 201.19348 332.34064ZM202.2716 332.34064Q202.2716 333.52814 202.78723 334.1219Q203.31848 334.71564 204.09973 334.71564Q204.8966 334.71564 205.41223 334.1219Q205.92786 333.52814 205.92786 332.3094Q205.92786 331.15314 205.3966 330.5594Q204.88098 329.96564 204.09973 329.96564Q203.31848 329.96564 202.78723 330.5594Q202.2716 331.1375 202.2716 332.34064ZM208.5841 335.45L208.5841 329.23126L209.5216 329.23126L209.5216 330.10626Q210.2091 329.09064 211.50598 329.09064Q212.06848 329.09064 212.53723 329.29376Q213.0216 329.4969 213.25598 329.825Q213.49036 330.15314 213.5841 330.59064Q213.63098 330.8875 213.63098 331.6219L213.63098 335.45L212.5841 335.45L212.5841 331.66876Q212.5841 331.0125 212.4591 330.7Q212.3341 330.3875 212.0216 330.2Q211.7091 329.9969 211.28723 329.9969Q210.61536 329.9969 210.11536 330.4344Q209.63098 330.85626 209.63098 332.04376L209.63098 335.45L208.5841 335.45ZM215.8341 335.45L215.8341 330.04376L214.8966 330.04376L214.8966 329.23126L215.8341 329.23126L215.8341 328.5594Q215.8341 327.9344 215.94348 327.6375Q216.09973 327.21564 216.47473 326.96564Q216.86536 326.71564 217.55286 326.71564Q218.00598 326.71564 218.53723 326.825L218.38098 327.73126Q218.05286 327.6844 217.75598 327.6844Q217.2716 327.6844 217.06848 327.8875Q216.88098 328.09064 216.88098 328.65314L216.88098 329.23126L218.09973 329.23126L218.09973 330.04376L216.88098 330.04376L216.88098 335.45L215.8341 335.45ZM218.19348 332.34064Q218.19348 330.60626 219.1466 329.77814Q219.94348 329.09064 221.09973 329.09064Q222.38098 329.09064 223.19348 329.9344Q224.0216 330.7625 224.0216 332.2469Q224.0216 333.45 223.66223 334.1375Q223.30286 334.825 222.59973 335.21564Q221.91223 335.59064 221.09973 335.59064Q219.80286 335.59064 218.99036 334.7625Q218.19348 333.91876 218.19348 332.34064ZM219.2716 332.34064Q219.2716 333.52814 219.78723 334.1219Q220.31848 334.71564 221.09973 334.71564Q221.8966 334.71564 222.41223 334.1219Q222.92786 333.52814 222.92786 332.3094Q222.92786 331.15314 222.3966 330.5594Q221.88098 329.96564 221.09973 329.96564Q220.31848 329.96564 219.78723 330.5594Q219.2716 331.1375 219.2716 332.34064ZM225.56848 335.45L225.56848 329.23126L226.5216 329.23126L226.5216 330.16876Q226.88098 329.5125 227.17786 329.3094Q227.49036 329.09064 227.86536 329.09064Q228.3966 329.09064 228.94348 329.41876L228.5841 330.40314Q228.19348 330.16876 227.81848 330.16876Q227.4591 330.16876 227.17786 330.3875Q226.91223 330.59064 226.80286 330.96564Q226.61536 331.52814 226.61536 332.1844L226.61536 335.45L225.56848 335.45ZM229.5841 335.45L229.5841 329.23126L230.5216 329.23126L230.5216 330.10626Q230.81848 329.6375 231.30286 329.3719Q231.78723 329.09064 232.41223 329.09064Q233.09973 329.09064 233.53723 329.3719Q233.99036 329.65314 234.16223 330.16876Q234.91223 329.09064 236.0841 329.09064Q237.0216 329.09064 237.50598 329.60626Q238.00598 330.10626 238.00598 331.1844L238.00598 335.45L236.9591 335.45L236.9591 331.52814Q236.9591 330.90314 236.84973 330.6219Q236.75598 330.34064 236.49036 330.16876Q236.22473 329.9969 235.84973 329.9969Q235.19348 329.9969 234.75598 330.4344Q234.3341 330.8719 234.3341 331.84064L234.3341 335.45L233.2716 335.45L233.2716 331.40314Q233.2716 330.7 233.00598 330.35626Q232.75598 329.9969 232.17786 329.9969Q231.72473 329.9969 231.34973 330.23126Q230.97473 330.46564 230.80286 330.91876Q230.63098 331.3719 230.63098 332.21564L230.63098 335.45L229.5841 335.45ZM244.8341 333.45L245.92786 333.575Q245.67786 334.52814 244.97473 335.0594Q244.2716 335.59064 243.19348 335.59064Q241.8341 335.59064 241.0216 334.7469Q240.22473 333.90314 240.22473 332.3875Q240.22473 330.825 241.03723 329.96564Q241.84973 329.09064 243.13098 329.09064Q244.38098 329.09064 245.16223 329.9344Q245.9591 330.77814 245.9591 332.325Q245.9591 332.41876 245.9591 332.60626L241.31848 332.60626Q241.38098 333.6375 241.8966 334.1844Q242.41223 334.71564 243.19348 334.71564Q243.7716 334.71564 244.17786 334.41876Q244.59973 334.10626 244.8341 333.45ZM241.38098 331.7469L244.84973 331.7469Q244.78723 330.95 244.4591 330.5594Q243.94348 329.95 243.1466 329.95Q242.41223 329.95 241.91223 330.4344Q241.42786 330.91876 241.38098 331.7469ZM247.56848 335.45L247.56848 329.23126L248.5216 329.23126L248.5216 330.16876Q248.88098 329.5125 249.17786 329.3094Q249.49036 329.09064 249.86536 329.09064Q250.3966 329.09064 250.94348 329.41876L250.5841 330.40314Q250.19348 330.16876 249.81848 330.16876Q249.4591 330.16876 249.17786 330.3875Q248.91223 330.59064 248.80286 330.96564Q248.61536 331.52814 248.61536 332.1844L248.61536 335.45L247.56848 335.45ZM251.16223 332.8719L251.16223 331.8094L254.41223 331.8094L254.41223 332.8719L251.16223 332.8719ZM261.84973 332.4344L262.97473 332.73126Q262.61536 334.1219 261.69348 334.85626Q260.7716 335.59064 259.42786 335.59064Q258.03723 335.59064 257.16223 335.02814Q256.28723 334.46564 255.8341 333.40314Q255.38098 332.325 255.38098 331.09064Q255.38098 329.7469 255.8966 328.7469Q256.41223 327.7469 257.34973 327.23126Q258.30286 326.71564 259.44348 326.71564Q260.72473 326.71564 261.59973 327.3719Q262.49036 328.02814 262.8341 329.21564L261.7091 329.48126Q261.41223 328.54376 260.8341 328.1219Q260.2716 327.6844 259.41223 327.6844Q258.42786 327.6844 257.75598 328.16876Q257.09973 328.6375 256.81848 329.4344Q256.55286 330.23126 256.55286 331.09064Q256.55286 332.1844 256.86536 332.9969Q257.19348 333.8094 257.86536 334.21564Q258.53723 334.6219 259.3341 334.6219Q260.28723 334.6219 260.94348 334.075Q261.61536 333.52814 261.84973 332.4344ZM266.8966 335.45L266.8966 327.8719L264.06848 327.8719L264.06848 326.85626L270.88098 326.85626L270.88098 327.8719L268.03723 327.8719L268.03723 335.45L266.8966 335.45ZM277.84973 332.4344L278.97473 332.73126Q278.61536 334.1219 277.69348 334.85626Q276.7716 335.59064 275.42786 335.59064Q274.03723 335.59064 273.16223 335.02814Q272.28723 334.46564 271.8341 333.40314Q271.38098 332.325 271.38098 331.09064Q271.38098 329.7469 271.8966 328.7469Q272.41223 327.7469 273.34973 327.23126Q274.30286 326.71564 275.44348 326.71564Q276.72473 326.71564 277.59973 327.3719Q278.49036 328.02814 278.8341 329.21564L277.7091 329.48126Q277.41223 328.54376 276.8341 328.1219Q276.2716 327.6844 275.41223 327.6844Q274.42786 327.6844 273.75598 328.16876Q273.09973 328.6375 272.81848 329.4344Q272.55286 330.23126 272.55286 331.09064Q272.55286 332.1844 272.86536 332.9969Q273.19348 333.8094 273.86536 334.21564Q274.53723 334.6219 275.3341 334.6219Q276.28723 334.6219 276.94348 334.075Q277.61536 333.52814 277.84973 332.4344ZM281.2716 337.98126L280.5216 337.98126Q282.2716 335.16876 282.2716 332.34064Q282.2716 331.2469 282.0216 330.15314Q281.81848 329.27814 281.4591 328.46564Q281.22473 327.95 280.5216 326.71564L281.2716 326.71564Q282.36536 328.1844 282.8966 329.66876Q283.34973 330.95 283.34973 332.34064Q283.34973 333.91876 282.74036 335.40314Q282.13098 336.8719 281.2716 337.98126Z" fill-rule="nonzero"/><path fill="#314c59" d="M179.78723 347.1844L180.84973 347.04376Q181.0216 347.9344 181.4591 348.34064Q181.8966 348.73126 182.5216 348.73126Q183.2716 348.73126 183.78723 348.21564Q184.30286 347.7 184.30286 346.9344Q184.30286 346.21564 183.81848 345.7469Q183.34973 345.2625 182.61536 345.2625Q182.31848 345.2625 181.86536 345.3875L181.99036 344.45Q182.09973 344.46564 182.16223 344.46564Q182.8341 344.46564 183.36536 344.1219Q183.91223 343.7625 183.91223 343.02814Q183.91223 342.45 183.5216 342.075Q183.13098 341.6844 182.50598 341.6844Q181.8966 341.6844 181.47473 342.075Q181.06848 342.46564 180.9591 343.23126L179.8966 343.04376Q180.0841 341.9969 180.7716 341.41876Q181.4591 340.825 182.47473 340.825Q183.17786 340.825 183.7716 341.1375Q184.36536 341.4344 184.67786 341.95Q184.99036 342.46564 184.99036 343.0594Q184.99036 343.60626 184.69348 344.075Q184.3966 344.52814 183.81848 344.79376Q184.56848 344.96564 184.99036 345.52814Q185.41223 346.075 185.41223 346.91876Q185.41223 348.04376 184.5841 348.825Q183.7716 349.60626 182.5216 349.60626Q181.3966 349.60626 180.6466 348.9344Q179.8966 348.2469 179.78723 347.1844ZM186.78723 345.21564Q186.78723 343.6844 187.09973 342.7625Q187.41223 341.825 188.0216 341.325Q188.6466 340.825 189.5841 340.825Q190.2716 340.825 190.78723 341.10626Q191.31848 341.3875 191.66223 341.91876Q192.00598 342.4344 192.19348 343.1844Q192.38098 343.9344 192.38098 345.21564Q192.38098 346.73126 192.06848 347.65314Q191.7716 348.575 191.1466 349.09064Q190.53723 349.59064 189.5841 349.59064Q188.34973 349.59064 187.63098 348.7Q186.78723 347.6375 186.78723 345.21564ZM187.86536 345.21564Q187.86536 347.325 188.36536 348.02814Q188.86536 348.73126 189.5841 348.73126Q190.31848 348.73126 190.80286 348.02814Q191.30286 347.325 191.30286 345.21564Q191.30286 343.09064 190.80286 342.40314Q190.31848 341.7 189.56848 341.7Q188.84973 341.7 188.41223 342.3094Q187.86536 343.09064 187.86536 345.21564ZM194.38098 349.45L194.38098 348.2469L195.5841 348.2469L195.5841 349.45L194.38098 349.45ZM200.16223 349.45L200.16223 347.3875L196.44348 347.3875L196.44348 346.41876L200.36536 340.85626L201.22473 340.85626L201.22473 346.41876L202.38098 346.41876L202.38098 347.3875L201.22473 347.3875L201.22473 349.45L200.16223 349.45ZM200.16223 346.41876L200.16223 342.5594L197.47473 346.41876L200.16223 346.41876ZM207.0841 349.45L207.0841 343.23126L208.0216 343.23126L208.0216 344.10626Q208.31848 343.6375 208.80286 343.3719Q209.28723 343.09064 209.91223 343.09064Q210.59973 343.09064 211.03723 343.3719Q211.49036 343.65314 211.66223 344.16876Q212.41223 343.09064 213.5841 343.09064Q214.5216 343.09064 215.00598 343.60626Q215.50598 344.10626 215.50598 345.1844L215.50598 349.45L214.4591 349.45L214.4591 345.52814Q214.4591 344.90314 214.34973 344.6219Q214.25598 344.34064 213.99036 344.16876Q213.72473 343.9969 213.34973 343.9969Q212.69348 343.9969 212.25598 344.4344Q211.8341 344.8719 211.8341 345.84064L211.8341 349.45L210.7716 349.45L210.7716 345.40314Q210.7716 344.7 210.50598 344.35626Q210.25598 343.9969 209.67786 343.9969Q209.22473 343.9969 208.84973 344.23126Q208.47473 344.46564 208.30286 344.91876Q208.13098 345.3719 208.13098 346.21564L208.13098 349.45L207.0841 349.45ZM217.66223 347.59064L218.69348 347.4344Q218.78723 348.0594 219.17786 348.3875Q219.5841 348.71564 220.31848 348.71564Q221.03723 348.71564 221.38098 348.4344Q221.74036 348.1375 221.74036 347.73126Q221.74036 347.3719 221.42786 347.16876Q221.2091 347.02814 220.34973 346.8094Q219.19348 346.5125 218.74036 346.3094Q218.30286 346.09064 218.06848 345.71564Q217.8341 345.34064 217.8341 344.8719Q217.8341 344.46564 218.0216 344.10626Q218.2091 343.7469 218.53723 343.5125Q218.78723 343.34064 219.2091 343.21564Q219.63098 343.09064 220.13098 343.09064Q220.84973 343.09064 221.3966 343.3094Q221.9591 343.5125 222.22473 343.8719Q222.49036 344.23126 222.5841 344.825L221.55286 344.96564Q221.49036 344.4969 221.1466 344.23126Q220.81848 343.95 220.19348 343.95Q219.47473 343.95 219.16223 344.2Q218.84973 344.4344 218.84973 344.7625Q218.84973 344.96564 218.97473 345.1219Q219.11536 345.29376 219.38098 345.40314Q219.53723 345.46564 220.31848 345.66876Q221.44348 345.98126 221.88098 346.16876Q222.31848 346.35626 222.56848 346.71564Q222.81848 347.075 222.81848 347.6219Q222.81848 348.15314 222.50598 348.6219Q222.2091 349.075 221.63098 349.34064Q221.05286 349.59064 220.31848 349.59064Q219.09973 349.59064 218.4591 349.09064Q217.8341 348.575 217.66223 347.59064ZM228.05286 349.45L228.05286 340.85626L229.11536 340.85626L229.11536 349.45L228.05286 349.45ZM235.1466 348.6844Q234.55286 349.1844 234.00598 349.3875Q233.47473 349.59064 232.84973 349.59064Q231.81848 349.59064 231.2716 349.09064Q230.72473 348.59064 230.72473 347.8094Q230.72473 347.35626 230.92786 346.98126Q231.13098 346.59064 231.47473 346.3719Q231.81848 346.1375 232.24036 346.02814Q232.53723 345.9344 233.17786 345.85626Q234.44348 345.71564 235.05286 345.4969Q235.05286 345.27814 235.05286 345.23126Q235.05286 344.575 234.75598 344.3094Q234.34973 343.96564 233.55286 343.96564Q232.81848 343.96564 232.4591 344.23126Q232.09973 344.48126 231.92786 345.1375L230.8966 344.9969Q231.03723 344.34064 231.36536 343.9344Q231.69348 343.52814 232.30286 343.3094Q232.91223 343.09064 233.7091 343.09064Q234.50598 343.09064 235.00598 343.27814Q235.50598 343.46564 235.74036 343.7469Q235.97473 344.02814 236.06848 344.46564Q236.11536 344.73126 236.11536 345.4344L236.11536 346.84064Q236.11536 348.3094 236.17786 348.7Q236.25598 349.09064 236.4591 349.45L235.34973 349.45Q235.19348 349.1219 235.1466 348.6844ZM235.05286 346.325Q234.47473 346.5594 233.3341 346.73126Q232.67786 346.825 232.41223 346.95Q232.1466 347.0594 231.99036 347.27814Q231.84973 347.4969 231.84973 347.77814Q231.84973 348.2 232.16223 348.48126Q232.49036 348.7625 233.09973 348.7625Q233.7091 348.7625 234.17786 348.4969Q234.66223 348.23126 234.88098 347.7625Q235.05286 347.40314 235.05286 346.71564L235.05286 346.325ZM240.38098 348.5125L240.53723 349.4344Q240.0841 349.52814 239.74036 349.52814Q239.16223 349.52814 238.84973 349.35626Q238.53723 349.16876 238.3966 348.8719Q238.2716 348.575 238.2716 347.6219L238.2716 344.04376L237.50598 344.04376L237.50598 343.23126L238.2716 343.23126L238.2716 341.6844L239.31848 341.0594L239.31848 343.23126L240.38098 343.23126L240.38098 344.04376L239.31848 344.04376L239.31848 347.6844Q239.31848 348.1375 239.36536 348.2625Q239.42786 348.3875 239.55286 348.46564Q239.67786 348.54376 239.91223 348.54376Q240.09973 348.54376 240.38098 348.5125ZM245.3341 347.45L246.42786 347.575Q246.17786 348.52814 245.47473 349.0594Q244.7716 349.59064 243.69348 349.59064Q242.3341 349.59064 241.5216 348.7469Q240.72473 347.90314 240.72473 346.3875Q240.72473 344.825 241.53723 343.96564Q242.34973 343.09064 243.63098 343.09064Q244.88098 343.09064 245.66223 343.9344Q246.4591 344.77814 246.4591 346.325Q246.4591 346.41876 246.4591 346.60626L241.81848 346.60626Q241.88098 347.6375 242.3966 348.1844Q242.91223 348.71564 243.69348 348.71564Q244.2716 348.71564 244.67786 348.41876Q245.09973 348.10626 245.3341 347.45ZM241.88098 345.7469L245.34973 345.7469Q245.28723 344.95 244.9591 344.5594Q244.44348 343.95 243.6466 343.95Q242.91223 343.95 242.41223 344.4344Q241.92786 344.91876 241.88098 345.7469ZM248.0841 349.45L248.0841 343.23126L249.0216 343.23126L249.0216 344.10626Q249.7091 343.09064 251.00598 343.09064Q251.56848 343.09064 252.03723 343.29376Q252.5216 343.4969 252.75598 343.825Q252.99036 344.15314 253.0841 344.59064Q253.13098 344.8875 253.13098 345.6219L253.13098 349.45L252.0841 349.45L252.0841 345.66876Q252.0841 345.0125 251.9591 344.7Q251.8341 344.3875 251.5216 344.2Q251.2091 343.9969 250.78723 343.9969Q250.11536 343.9969 249.61536 344.4344Q249.13098 344.85626 249.13098 346.04376L249.13098 349.45L248.0841 349.45ZM259.1466 347.16876L260.17786 347.3094Q260.00598 348.3719 259.30286 348.98126Q258.59973 349.59064 257.5841 349.59064Q256.30286 349.59064 255.5216 348.7625Q254.75598 347.91876 254.75598 346.35626Q254.75598 345.35626 255.0841 344.60626Q255.42786 343.84064 256.09973 343.46564Q256.78723 343.09064 257.59973 343.09064Q258.59973 343.09064 259.24036 343.60626Q259.8966 344.10626 260.0841 345.0594L259.05286 345.21564Q258.91223 344.59064 258.53723 344.27814Q258.16223 343.95 257.63098 343.95Q256.8341 343.95 256.3341 344.52814Q255.8341 345.09064 255.8341 346.325Q255.8341 347.59064 256.31848 348.15314Q256.80286 348.71564 257.56848 348.71564Q258.19348 348.71564 258.59973 348.34064Q259.0216 347.96564 259.1466 347.16876ZM261.03723 351.84064L260.91223 350.85626Q261.25598 350.95 261.5216 350.95Q261.86536 350.95 262.06848 350.825Q262.28723 350.71564 262.42786 350.5125Q262.5216 350.34064 262.75598 349.71564Q262.7716 349.6375 262.84973 349.46564L260.47473 343.23126L261.61536 343.23126L262.91223 346.825Q263.16223 347.5125 263.36536 348.27814Q263.55286 347.54376 263.80286 346.85626L265.13098 343.23126L266.17786 343.23126L263.81848 349.5594Q263.42786 350.575 263.22473 350.96564Q262.94348 351.4969 262.56848 351.73126Q262.2091 351.98126 261.7091 351.98126Q261.41223 351.98126 261.03723 351.84064Z" fill-rule="nonzero"/><path fill="#314c59" d="M372.32214 335.45L372.32214 327.8719L369.49402 327.8719L369.49402 326.85626L376.30652 326.85626L376.30652 327.8719L373.46277 327.8719L373.46277 335.45L372.32214 335.45ZM379.32214 335.45L379.32214 327.8719L376.49402 327.8719L376.49402 326.85626L383.30652 326.85626L383.30652 327.8719L380.46277 327.8719L380.46277 335.45L379.32214 335.45ZM383.75964 332.6844L384.82214 332.59064Q384.90027 333.2469 385.18152 333.65314Q385.46277 334.0594 386.0409 334.325Q386.63464 334.575 387.36902 334.575Q388.00964 334.575 388.50964 334.3875Q389.00964 334.1844 389.24402 333.85626Q389.49402 333.5125 389.49402 333.1219Q389.49402 332.71564 389.25964 332.41876Q389.02527 332.10626 388.49402 331.90314Q388.13464 331.7625 386.94714 331.48126Q385.77527 331.2 385.30652 330.95Q384.68152 330.6219 384.38464 330.15314Q384.08777 329.66876 384.08777 329.075Q384.08777 328.4344 384.44714 327.8719Q384.82214 327.29376 385.52527 327.0125Q386.24402 326.71564 387.1034 326.71564Q388.05652 326.71564 388.7909 327.02814Q389.52527 327.325 389.9159 327.9344Q390.30652 328.52814 390.33777 329.27814L389.24402 329.35626Q389.15027 328.54376 388.63464 328.1375Q388.13464 327.71564 387.15027 327.71564Q386.11902 327.71564 385.65027 328.09064Q385.18152 328.46564 385.18152 328.9969Q385.18152 329.46564 385.50964 329.7625Q385.83777 330.0594 387.21277 330.3719Q388.6034 330.6844 389.11902 330.91876Q389.86902 331.27814 390.2284 331.8094Q390.58777 332.325 390.58777 333.02814Q390.58777 333.71564 390.19714 334.325Q389.80652 334.91876 389.07214 335.2625Q388.33777 335.59064 387.4159 335.59064Q386.24402 335.59064 385.44714 335.2625Q384.6659 334.91876 384.21277 334.23126Q383.77527 333.54376 383.75964 332.6844ZM397.02527 337.98126Q396.15027 336.8719 395.5409 335.40314Q394.94714 333.91876 394.94714 332.34064Q394.94714 330.95 395.38464 329.66876Q395.9159 328.1844 397.02527 326.71564L397.77527 326.71564Q397.07214 327.9344 396.83777 328.45Q396.4784 329.2625 396.27527 330.1375Q396.02527 331.23126 396.02527 332.34064Q396.02527 335.16876 397.77527 337.98126L397.02527 337.98126ZM399.19714 335.45L399.19714 326.85626L404.99402 326.85626L404.99402 327.8719L400.33777 327.8719L400.33777 330.52814L404.36902 330.52814L404.36902 331.54376L400.33777 331.54376L400.33777 335.45L399.19714 335.45ZM410.07214 334.6844Q409.4784 335.1844 408.93152 335.3875Q408.40027 335.59064 407.77527 335.59064Q406.74402 335.59064 406.19714 335.09064Q405.65027 334.59064 405.65027 333.8094Q405.65027 333.35626 405.8534 332.98126Q406.05652 332.59064 406.40027 332.3719Q406.74402 332.1375 407.1659 332.02814Q407.46277 331.9344 408.1034 331.85626Q409.36902 331.71564 409.9784 331.4969Q409.9784 331.27814 409.9784 331.23126Q409.9784 330.575 409.68152 330.3094Q409.27527 329.96564 408.4784 329.96564Q407.74402 329.96564 407.38464 330.23126Q407.02527 330.48126 406.8534 331.1375L405.82214 330.9969Q405.96277 330.34064 406.2909 329.9344Q406.61902 329.52814 407.2284 329.3094Q407.83777 329.09064 408.63464 329.09064Q409.43152 329.09064 409.93152 329.27814Q410.43152 329.46564 410.6659 329.7469Q410.90027 330.02814 410.99402 330.46564Q411.0409 330.73126 411.0409 331.4344L411.0409 332.84064Q411.0409 334.3094 411.1034 334.7Q411.18152 335.09064 411.38464 335.45L410.27527 335.45Q410.11902 335.1219 410.07214 334.6844ZM409.9784 332.325Q409.40027 332.5594 408.25964 332.73126Q407.6034 332.825 407.33777 332.95Q407.07214 333.0594 406.9159 333.27814Q406.77527 333.4969 406.77527 333.77814Q406.77527 334.2 407.08777 334.48126Q407.4159 334.7625 408.02527 334.7625Q408.63464 334.7625 409.1034 334.4969Q409.58777 334.23126 409.80652 333.7625Q409.9784 333.40314 409.9784 332.71564L409.9784 332.325ZM412.58777 333.59064L413.61902 333.4344Q413.71277 334.0594 414.1034 334.3875Q414.50964 334.71564 415.24402 334.71564Q415.96277 334.71564 416.30652 334.4344Q416.6659 334.1375 416.6659 333.73126Q416.6659 333.3719 416.3534 333.16876Q416.13464 333.02814 415.27527 332.8094Q414.11902 332.5125 413.6659 332.3094Q413.2284 332.09064 412.99402 331.71564Q412.75964 331.34064 412.75964 330.8719Q412.75964 330.46564 412.94714 330.10626Q413.13464 329.7469 413.46277 329.5125Q413.71277 329.34064 414.13464 329.21564Q414.55652 329.09064 415.05652 329.09064Q415.77527 329.09064 416.32214 329.3094Q416.88464 329.5125 417.15027 329.8719Q417.4159 330.23126 417.50964 330.825L416.4784 330.96564Q416.4159 330.4969 416.07214 330.23126Q415.74402 329.95 415.11902 329.95Q414.40027 329.95 414.08777 330.2Q413.77527 330.4344 413.77527 330.7625Q413.77527 330.96564 413.90027 331.1219Q414.0409 331.29376 414.30652 331.40314Q414.46277 331.46564 415.24402 331.66876Q416.36902 331.98126 416.80652 332.16876Q417.24402 332.35626 417.49402 332.71564Q417.74402 333.075 417.74402 333.6219Q417.74402 334.15314 417.43152 334.6219Q417.13464 335.075 416.55652 335.34064Q415.9784 335.59064 415.24402 335.59064Q414.02527 335.59064 413.38464 335.09064Q412.75964 334.575 412.58777 333.59064ZM422.30652 334.5125L422.46277 335.4344Q422.00964 335.52814 421.6659 335.52814Q421.08777 335.52814 420.77527 335.35626Q420.46277 335.16876 420.32214 334.8719Q420.19714 334.575 420.19714 333.6219L420.19714 330.04376L419.43152 330.04376L419.43152 329.23126L420.19714 329.23126L420.19714 327.6844L421.24402 327.0594L421.24402 329.23126L422.30652 329.23126L422.30652 330.04376L421.24402 330.04376L421.24402 333.6844Q421.24402 334.1375 421.2909 334.2625Q421.3534 334.3875 421.4784 334.46564Q421.6034 334.54376 421.83777 334.54376Q422.02527 334.54376 422.30652 334.5125ZM423.13464 335.45L423.13464 326.85626L426.38464 326.85626Q427.2284 326.85626 427.68152 326.9344Q428.32214 327.04376 428.74402 327.34064Q429.18152 327.6375 429.43152 328.16876Q429.69714 328.7 429.69714 329.34064Q429.69714 330.4344 428.99402 331.2Q428.30652 331.95 426.4784 331.95L424.27527 331.95L424.27527 335.45L423.13464 335.45ZM424.27527 330.95L426.49402 330.95Q427.6034 330.95 428.05652 330.54376Q428.52527 330.1219 428.52527 329.3719Q428.52527 328.84064 428.24402 328.46564Q427.9784 328.075 427.5409 327.95Q427.24402 327.8719 426.4784 327.8719L424.27527 327.8719L424.27527 330.95ZM431.00964 328.075L431.00964 326.85626L432.07214 326.85626L432.07214 328.075L431.00964 328.075ZM431.00964 335.45L431.00964 329.23126L432.07214 329.23126L432.07214 335.45L431.00964 335.45ZM436.30652 334.5125L436.46277 335.4344Q436.00964 335.52814 435.6659 335.52814Q435.08777 335.52814 434.77527 335.35626Q434.46277 335.16876 434.32214 334.8719Q434.19714 334.575 434.19714 333.6219L434.19714 330.04376L433.43152 330.04376L433.43152 329.23126L434.19714 329.23126L434.19714 327.6844L435.24402 327.0594L435.24402 329.23126L436.30652 329.23126L436.30652 330.04376L435.24402 330.04376L435.24402 333.6844Q435.24402 334.1375 435.2909 334.2625Q435.3534 334.3875 435.4784 334.46564Q435.6034 334.54376 435.83777 334.54376Q436.02527 334.54376 436.30652 334.5125ZM441.07214 333.16876L442.1034 333.3094Q441.93152 334.3719 441.2284 334.98126Q440.52527 335.59064 439.50964 335.59064Q438.2284 335.59064 437.44714 334.7625Q436.68152 333.91876 436.68152 332.35626Q436.68152 331.35626 437.00964 330.60626Q437.3534 329.84064 438.02527 329.46564Q438.71277 329.09064 439.52527 329.09064Q440.52527 329.09064 441.1659 329.60626Q441.82214 330.10626 442.00964 331.0594L440.9784 331.21564Q440.83777 330.59064 440.46277 330.27814Q440.08777 329.95 439.55652 329.95Q438.75964 329.95 438.25964 330.52814Q437.75964 331.09064 437.75964 332.325Q437.75964 333.59064 438.24402 334.15314Q438.7284 334.71564 439.49402 334.71564Q440.11902 334.71564 440.52527 334.34064Q440.94714 333.96564 441.07214 333.16876ZM443.00964 335.45L443.00964 326.85626L444.05652 326.85626L444.05652 329.9344Q444.7909 329.09064 445.9159 329.09064Q446.61902 329.09064 447.11902 329.3719Q447.63464 329.6375 447.8534 330.1219Q448.07214 330.59064 448.07214 331.5125L448.07214 335.45L447.02527 335.45L447.02527 331.5125Q447.02527 330.71564 446.68152 330.35626Q446.33777 329.9969 445.71277 329.9969Q445.24402 329.9969 444.82214 330.2469Q444.4159 330.48126 444.2284 330.90314Q444.05652 331.3094 444.05652 332.04376L444.05652 335.45L443.00964 335.45ZM449.58777 332.8719L449.58777 331.8094L452.83777 331.8094L452.83777 332.8719L449.58777 332.8719ZM454.18152 335.45L454.18152 326.85626L455.30652 326.85626L455.30652 330.3875L459.77527 330.3875L459.77527 326.85626L460.9159 326.85626L460.9159 335.45L459.77527 335.45L459.77527 331.40314L455.30652 331.40314L455.30652 335.45L454.18152 335.45ZM463.00964 328.075L463.00964 326.85626L464.07214 326.85626L464.07214 328.075L463.00964 328.075ZM463.00964 335.45L463.00964 329.23126L464.07214 329.23126L464.07214 335.45L463.00964 335.45ZM466.19714 335.45L466.19714 326.85626L471.99402 326.85626L471.99402 327.8719L467.33777 327.8719L467.33777 330.52814L471.36902 330.52814L471.36902 331.54376L467.33777 331.54376L467.33777 335.45L466.19714 335.45ZM473.00964 328.075L473.00964 326.85626L474.07214 326.85626L474.07214 328.075L473.00964 328.075ZM473.00964 335.45L473.00964 329.23126L474.07214 329.23126L474.07214 335.45L473.00964 335.45ZM480.1659 332.075L480.1659 331.075L483.7909 331.0594L483.7909 334.2469Q482.96277 334.91876 482.07214 335.2625Q481.18152 335.59064 480.24402 335.59064Q478.9784 335.59064 477.93152 335.0594Q476.90027 334.5125 476.36902 333.4969Q475.8534 332.46564 475.8534 331.2Q475.8534 329.9344 476.36902 328.85626Q476.90027 327.7625 477.88464 327.2469Q478.86902 326.71564 480.15027 326.71564Q481.08777 326.71564 481.83777 327.0125Q482.58777 327.3094 483.00964 327.85626Q483.44714 328.3875 483.6659 329.2625L482.65027 329.54376Q482.44714 328.8875 482.15027 328.5125Q481.86902 328.1375 481.33777 327.91876Q480.80652 327.6844 480.1659 327.6844Q479.38464 327.6844 478.80652 327.91876Q478.24402 328.15314 477.88464 328.54376Q477.5409 328.9344 477.3534 329.40314Q477.02527 330.2 477.02527 331.1219Q477.02527 332.27814 477.4159 333.0594Q477.82214 333.825 478.57214 334.2Q479.32214 334.575 480.18152 334.575Q480.9159 334.575 481.61902 334.29376Q482.32214 333.9969 482.68152 333.6844L482.68152 332.075L480.1659 332.075ZM484.19714 335.45L487.49402 326.85626L488.71277 326.85626L492.2284 335.45L490.94714 335.45L489.93152 332.84064L486.3534 332.84064L485.40027 335.45L484.19714 335.45ZM486.68152 331.91876L489.58777 331.91876L488.69714 329.54376Q488.27527 328.46564 488.08777 327.7625Q487.9159 328.59064 487.61902 329.40314L486.68152 331.91876ZM492.13464 335.45L492.13464 326.85626L493.2909 326.85626L497.80652 333.60626L497.80652 326.85626L498.90027 326.85626L498.90027 335.45L497.7284 335.45L493.21277 328.7L493.21277 335.45L492.13464 335.45ZM501.69714 337.98126L500.94714 337.98126Q502.69714 335.16876 502.69714 332.34064Q502.69714 331.2469 502.44714 330.15314Q502.24402 329.27814 501.88464 328.46564Q501.65027 327.95 500.94714 326.71564L501.69714 326.71564Q502.7909 328.1844 503.32214 329.66876Q503.77527 330.95 503.77527 332.34064Q503.77527 333.91876 503.1659 335.40314Q502.55652 336.8719 501.69714 337.98126Z" fill-rule="nonzero"/><path fill="#314c59" d="M394.21277 347.2L395.32214 347.10626Q395.44714 347.91876 395.88464 348.325Q396.33777 348.73126 396.9784 348.73126Q397.7284 348.73126 398.25964 348.15314Q398.7909 347.575 398.7909 346.6375Q398.7909 345.73126 398.27527 345.21564Q397.77527 344.6844 396.94714 344.6844Q396.44714 344.6844 396.02527 344.91876Q395.61902 345.15314 395.38464 345.5125L394.40027 345.3875L395.2284 340.98126L399.50964 340.98126L399.50964 341.98126L396.07214 341.98126L395.61902 344.29376Q396.38464 343.7469 397.2284 343.7469Q398.3534 343.7469 399.11902 344.52814Q399.90027 345.3094 399.90027 346.54376Q399.90027 347.7 399.2284 348.5594Q398.40027 349.59064 396.9784 349.59064Q395.80652 349.59064 395.05652 348.9344Q394.32214 348.27814 394.21277 347.2ZM406.68152 342.96564L405.63464 343.04376Q405.49402 342.41876 405.24402 342.1375Q404.80652 341.6844 404.18152 341.6844Q403.68152 341.6844 403.2909 341.96564Q402.80652 342.34064 402.50964 343.04376Q402.2284 343.73126 402.21277 345.0125Q402.58777 344.4344 403.13464 344.15314Q403.69714 343.8719 404.30652 343.8719Q405.3534 343.8719 406.08777 344.65314Q406.83777 345.4344 406.83777 346.65314Q406.83777 347.46564 406.4784 348.16876Q406.13464 348.85626 405.52527 349.23126Q404.9159 349.59064 404.15027 349.59064Q402.82214 349.59064 401.99402 348.6219Q401.1659 347.65314 401.1659 345.4344Q401.1659 342.9344 402.08777 341.8094Q402.88464 340.825 404.24402 340.825Q405.25964 340.825 405.90027 341.40314Q406.55652 341.96564 406.68152 342.96564ZM402.38464 346.66876Q402.38464 347.21564 402.6034 347.71564Q402.83777 348.2 403.24402 348.46564Q403.6659 348.73126 404.13464 348.73126Q404.7909 348.73126 405.27527 348.2Q405.75964 347.65314 405.75964 346.73126Q405.75964 345.84064 405.27527 345.325Q404.80652 344.8094 404.08777 344.8094Q403.36902 344.8094 402.86902 345.325Q402.38464 345.84064 402.38464 346.66876ZM408.80652 349.45L408.80652 348.2469L410.00964 348.2469L410.00964 349.45L408.80652 349.45ZM415.18152 349.45L414.13464 349.45L414.13464 342.73126Q413.74402 343.09064 413.11902 343.46564Q412.50964 343.825 412.02527 343.9969L412.02527 342.98126Q412.90027 342.5594 413.55652 341.98126Q414.2284 341.3875 414.50964 340.825L415.18152 340.825L415.18152 349.45ZM421.50964 349.45L421.50964 343.23126L422.44714 343.23126L422.44714 344.10626Q422.74402 343.6375 423.2284 343.3719Q423.71277 343.09064 424.33777 343.09064Q425.02527 343.09064 425.46277 343.3719Q425.9159 343.65314 426.08777 344.16876Q426.83777 343.09064 428.00964 343.09064Q428.94714 343.09064 429.43152 343.60626Q429.93152 344.10626 429.93152 345.1844L429.93152 349.45L428.88464 349.45L428.88464 345.52814Q428.88464 344.90314 428.77527 344.6219Q428.68152 344.34064 428.4159 344.16876Q428.15027 343.9969 427.77527 343.9969Q427.11902 343.9969 426.68152 344.4344Q426.25964 344.8719 426.25964 345.84064L426.25964 349.45L425.19714 349.45L425.19714 345.40314Q425.19714 344.7 424.93152 344.35626Q424.68152 343.9969 424.1034 343.9969Q423.65027 343.9969 423.27527 344.23126Q422.90027 344.46564 422.7284 344.91876Q422.55652 345.3719 422.55652 346.21564L422.55652 349.45L421.50964 349.45ZM432.08777 347.59064L433.11902 347.4344Q433.21277 348.0594 433.6034 348.3875Q434.00964 348.71564 434.74402 348.71564Q435.46277 348.71564 435.80652 348.4344Q436.1659 348.1375 436.1659 347.73126Q436.1659 347.3719 435.8534 347.16876Q435.63464 347.02814 434.77527 346.8094Q433.61902 346.5125 433.1659 346.3094Q432.7284 346.09064 432.49402 345.71564Q432.25964 345.34064 432.25964 344.8719Q432.25964 344.46564 432.44714 344.10626Q432.63464 343.7469 432.96277 343.5125Q433.21277 343.34064 433.63464 343.21564Q434.05652 343.09064 434.55652 343.09064Q435.27527 343.09064 435.82214 343.3094Q436.38464 343.5125 436.65027 343.8719Q436.9159 344.23126 437.00964 344.825L435.9784 344.96564Q435.9159 344.4969 435.57214 344.23126Q435.24402 343.95 434.61902 343.95Q433.90027 343.95 433.58777 344.2Q433.27527 344.4344 433.27527 344.7625Q433.27527 344.96564 433.40027 345.1219Q433.5409 345.29376 433.80652 345.40314Q433.96277 345.46564 434.74402 345.66876Q435.86902 345.98126 436.30652 346.16876Q436.74402 346.35626 436.99402 346.71564Q437.24402 347.075 437.24402 347.6219Q437.24402 348.15314 436.93152 348.6219Q436.63464 349.075 436.05652 349.34064Q435.4784 349.59064 434.74402 349.59064Q433.52527 349.59064 432.88464 349.09064Q432.25964 348.575 432.08777 347.59064ZM442.4784 349.45L442.4784 340.85626L443.5409 340.85626L443.5409 349.45L442.4784 349.45ZM449.57214 348.6844Q448.9784 349.1844 448.43152 349.3875Q447.90027 349.59064 447.27527 349.59064Q446.24402 349.59064 445.69714 349.09064Q445.15027 348.59064 445.15027 347.8094Q445.15027 347.35626 445.3534 346.98126Q445.55652 346.59064 445.90027 346.3719Q446.24402 346.1375 446.6659 346.02814Q446.96277 345.9344 447.6034 345.85626Q448.86902 345.71564 449.4784 345.4969Q449.4784 345.27814 449.4784 345.23126Q449.4784 344.575 449.18152 344.3094Q448.77527 343.96564 447.9784 343.96564Q447.24402 343.96564 446.88464 344.23126Q446.52527 344.48126 446.3534 345.1375L445.32214 344.9969Q445.46277 344.34064 445.7909 343.9344Q446.11902 343.52814 446.7284 343.3094Q447.33777 343.09064 448.13464 343.09064Q448.93152 343.09064 449.43152 343.27814Q449.93152 343.46564 450.1659 343.7469Q450.40027 344.02814 450.49402 344.46564Q450.5409 344.73126 450.5409 345.4344L450.5409 346.84064Q450.5409 348.3094 450.6034 348.7Q450.68152 349.09064 450.88464 349.45L449.77527 349.45Q449.61902 349.1219 449.57214 348.6844ZM449.4784 346.325Q448.90027 346.5594 447.75964 346.73126Q447.1034 346.825 446.83777 346.95Q446.57214 347.0594 446.4159 347.27814Q446.27527 347.4969 446.27527 347.77814Q446.27527 348.2 446.58777 348.48126Q446.9159 348.7625 447.52527 348.7625Q448.13464 348.7625 448.6034 348.4969Q449.08777 348.23126 449.30652 347.7625Q449.4784 347.40314 449.4784 346.71564L449.4784 346.325ZM454.80652 348.5125L454.96277 349.4344Q454.50964 349.52814 454.1659 349.52814Q453.58777 349.52814 453.27527 349.35626Q452.96277 349.16876 452.82214 348.8719Q452.69714 348.575 452.69714 347.6219L452.69714 344.04376L451.93152 344.04376L451.93152 343.23126L452.69714 343.23126L452.69714 341.6844L453.74402 341.0594L453.74402 343.23126L454.80652 343.23126L454.80652 344.04376L453.74402 344.04376L453.74402 347.6844Q453.74402 348.1375 453.7909 348.2625Q453.8534 348.3875 453.9784 348.46564Q454.1034 348.54376 454.33777 348.54376Q454.52527 348.54376 454.80652 348.5125ZM459.75964 347.45L460.8534 347.575Q460.6034 348.52814 459.90027 349.0594Q459.19714 349.59064 458.11902 349.59064Q456.75964 349.59064 455.94714 348.7469Q455.15027 347.90314 455.15027 346.3875Q455.15027 344.825 455.96277 343.96564Q456.77527 343.09064 458.05652 343.09064Q459.30652 343.09064 460.08777 343.9344Q460.88464 344.77814 460.88464 346.325Q460.88464 346.41876 460.88464 346.60626L456.24402 346.60626Q456.30652 347.6375 456.82214 348.1844Q457.33777 348.71564 458.11902 348.71564Q458.69714 348.71564 459.1034 348.41876Q459.52527 348.10626 459.75964 347.45ZM456.30652 345.7469L459.77527 345.7469Q459.71277 344.95 459.38464 344.5594Q458.86902 343.95 458.07214 343.95Q457.33777 343.95 456.83777 344.4344Q456.3534 344.91876 456.30652 345.7469ZM462.50964 349.45L462.50964 343.23126L463.44714 343.23126L463.44714 344.10626Q464.13464 343.09064 465.43152 343.09064Q465.99402 343.09064 466.46277 343.29376Q466.94714 343.4969 467.18152 343.825Q467.4159 344.15314 467.50964 344.59064Q467.55652 344.8875 467.55652 345.6219L467.55652 349.45L466.50964 349.45L466.50964 345.66876Q466.50964 345.0125 466.38464 344.7Q466.25964 344.3875 465.94714 344.2Q465.63464 343.9969 465.21277 343.9969Q464.5409 343.9969 464.0409 344.4344Q463.55652 344.85626 463.55652 346.04376L463.55652 349.45L462.50964 349.45ZM473.57214 347.16876L474.6034 347.3094Q474.43152 348.3719 473.7284 348.98126Q473.02527 349.59064 472.00964 349.59064Q470.7284 349.59064 469.94714 348.7625Q469.18152 347.91876 469.18152 346.35626Q469.18152 345.35626 469.50964 344.60626Q469.8534 343.84064 470.52527 343.46564Q471.21277 343.09064 472.02527 343.09064Q473.02527 343.09064 473.6659 343.60626Q474.32214 344.10626 474.50964 345.0594L473.4784 345.21564Q473.33777 344.59064 472.96277 344.27814Q472.58777 343.95 472.05652 343.95Q471.25964 343.95 470.75964 344.52814Q470.25964 345.09064 470.25964 346.325Q470.25964 347.59064 470.74402 348.15314Q471.2284 348.71564 471.99402 348.71564Q472.61902 348.71564 473.02527 348.34064Q473.44714 347.96564 473.57214 347.16876ZM475.46277 351.84064L475.33777 350.85626Q475.68152 350.95 475.94714 350.95Q476.2909 350.95 476.49402 350.825Q476.71277 350.71564 476.8534 350.5125Q476.94714 350.34064 477.18152 349.71564Q477.19714 349.6375 477.27527 349.46564L474.90027 343.23126L476.0409 343.23126L477.33777 346.825Q477.58777 347.5125 477.7909 348.27814Q477.9784 347.54376 478.2284 346.85626L479.55652 343.23126L480.6034 343.23126L478.24402 349.5594Q477.8534 350.575 477.65027 350.96564Q477.36902 351.4969 476.99402 351.73126Q476.63464 351.98126 476.13464 351.98126Q475.83777 351.98126 475.46277 351.84064Z" fill-rule="nonzero"/><path fill="#adb7bd" d="M18.95625 60.20625L20.14375 60.034374Q20.190624 61.190624 20.565624 61.6125Q20.95625 62.034374 21.64375 62.034374Q22.14375 62.034374 22.503124 61.815624Q22.8625 61.58125 23.003124 61.190624Q23.14375 60.8 23.14375 59.925L23.14375 53.034374L24.45625 53.034374L24.45625 59.8625Q24.45625 61.1125 24.159374 61.815624Q23.8625 62.503124 23.190624 62.8625Q22.534374 63.221874 21.64375 63.221874Q20.33125 63.221874 19.628124 62.471874Q18.925 61.70625 18.95625 60.20625ZM30.440624 60.70625L31.721874 60.8625Q31.409374 61.9875 30.596874 62.6125Q29.784374 63.221874 28.51875 63.221874Q26.925 63.221874 25.9875 62.2375Q25.065624 61.253124 25.065624 59.4875Q25.065624 57.64375 26.003124 56.64375Q26.95625 55.628124 28.45625 55.628124Q29.909374 55.628124 30.83125 56.628124Q31.753124 57.6125 31.753124 59.409374Q31.753124 59.51875 31.753124 59.7375L26.33125 59.7375Q26.409374 60.925 27.003124 61.565624Q27.6125 62.20625 28.534374 62.20625Q29.20625 62.20625 29.675 61.846874Q30.159374 61.4875 30.440624 60.70625ZM26.409374 58.721874L30.45625 58.721874Q30.378124 57.8 29.9875 57.346874Q29.409374 56.64375 28.471874 56.64375Q27.6125 56.64375 27.034374 57.20625Q26.471874 57.76875 26.409374 58.721874ZM36.159374 61.95625L36.33125 63.034374Q35.815624 63.14375 35.409374 63.14375Q34.7375 63.14375 34.3625 62.940624Q34.003124 62.721874 33.846874 62.378124Q33.70625 62.034374 33.70625 60.925L33.70625 56.753124L32.8 56.753124L32.8 55.784374L33.70625 55.784374L33.70625 53.9875L34.925 53.253124L34.925 55.784374L36.159374 55.784374L36.159374 56.753124L34.925 56.753124L34.925 60.9875Q34.925 61.51875 34.9875 61.675Q35.05 61.815624 35.190624 61.909374Q35.346874 62.003124 35.6125 62.003124Q35.83125 62.003124 36.159374 61.95625ZM36.9875 60.878124L38.190624 60.690624Q38.3 61.425 38.76875 61.815624Q39.2375 62.20625 40.08125 62.20625Q40.925 62.20625 41.33125 61.8625Q41.753124 61.51875 41.753124 61.05Q41.753124 60.628124 41.378124 60.39375Q41.128124 60.221874 40.128124 59.971874Q38.76875 59.628124 38.2375 59.378124Q37.721874 59.128124 37.45625 58.690624Q37.190624 58.253124 37.190624 57.721874Q37.190624 57.2375 37.409374 56.83125Q37.628124 56.409374 38.01875 56.128124Q38.3 55.925 38.784374 55.784374Q39.284374 55.628124 39.8625 55.628124Q40.70625 55.628124 41.346874 55.878124Q42.003124 56.1125 42.315624 56.534374Q42.628124 56.95625 42.7375 57.659374L41.534374 57.83125Q41.45625 57.26875 41.05 56.95625Q40.659374 56.64375 39.940624 56.64375Q39.096874 56.64375 38.7375 56.925Q38.378124 57.190624 38.378124 57.58125Q38.378124 57.815624 38.51875 58.003124Q38.675 58.20625 39.003124 58.33125Q39.175 58.39375 40.08125 58.64375Q41.39375 59.003124 41.909374 59.221874Q42.425 59.440624 42.70625 59.8625Q43.003124 60.284374 43.003124 60.909374Q43.003124 61.534374 42.64375 62.08125Q42.3 62.6125 41.6125 62.925Q40.940624 63.221874 40.08125 63.221874Q38.675 63.221874 37.925 62.628124Q37.190624 62.034374 36.9875 60.878124ZM44.01875 59.425Q44.01875 57.409374 45.14375 56.425Q46.065624 55.628124 47.425 55.628124Q48.909374 55.628124 49.8625 56.6125Q50.815624 57.58125 50.815624 59.315624Q50.815624 60.721874 50.39375 61.534374Q49.971874 62.33125 49.159374 62.784374Q48.3625 63.221874 47.425 63.221874Q45.89375 63.221874 44.95625 62.2375Q44.01875 61.253124 44.01875 59.425ZM45.284374 59.425Q45.284374 60.815624 45.89375 61.51875Q46.503124 62.20625 47.425 62.20625Q48.33125 62.20625 48.940624 61.503124Q49.55 60.8 49.55 59.378124Q49.55 58.034374 48.940624 57.346874Q48.33125 56.64375 47.425 56.64375Q46.503124 56.64375 45.89375 57.33125Q45.284374 58.01875 45.284374 59.425ZM52.471874 63.05L52.471874 55.784374L53.58125 55.784374L53.58125 56.815624Q54.378124 55.628124 55.89375 55.628124Q56.55 55.628124 57.096874 55.8625Q57.64375 56.096874 57.909374 56.4875Q58.190624 56.8625 58.3 57.39375Q58.378124 57.7375 58.378124 58.58125L58.378124 63.05L57.14375 63.05L57.14375 58.628124Q57.14375 57.878124 57.003124 57.51875Q56.8625 57.14375 56.4875 56.925Q56.128124 56.690624 55.628124 56.690624Q54.846874 56.690624 54.26875 57.190624Q53.70625 57.690624 53.70625 59.08125L53.70625 63.05L52.471874 63.05ZM63.534374 63.05L67.37813 53.034374L68.8 53.034374L72.90938 63.05L71.39375 63.05L70.22188 60.01875L66.03438 60.01875L64.94063 63.05L63.534374 63.05ZM66.425 58.940624L69.81563 58.940624L68.76875 56.159374Q68.3 54.89375 68.06563 54.08125Q67.87813 55.05 67.51875 55.9875L66.425 58.940624ZM78.31563 59.1125L78.31563 57.940624L82.56563 57.940624L82.56563 61.659374Q81.58125 62.440624 80.53438 62.83125Q79.50313 63.221874 78.40938 63.221874Q76.94063 63.221874 75.72188 62.596874Q74.51875 61.95625 73.90938 60.76875Q73.3 59.565624 73.3 58.08125Q73.3 56.628124 73.90938 55.3625Q74.51875 54.08125 75.65938 53.471874Q76.81563 52.8625 78.31563 52.8625Q79.39375 52.8625 80.26875 53.221874Q81.15938 53.565624 81.65938 54.190624Q82.15938 54.815624 82.40938 55.83125L81.22188 56.159374Q80.9875 55.39375 80.64375 54.95625Q80.31563 54.51875 79.69063 54.253124Q79.08125 53.9875 78.31563 53.9875Q77.40938 53.9875 76.7375 54.26875Q76.08125 54.55 75.675 55.003124Q75.26875 55.440624 75.05 55.9875Q74.65938 56.925 74.65938 58.003124Q74.65938 59.346874 75.1125 60.253124Q75.58125 61.14375 76.45625 61.58125Q77.34688 62.01875 78.34688 62.01875Q79.20625 62.01875 80.01875 61.690624Q80.84688 61.3625 81.26875 60.9875L81.26875 59.1125L78.31563 59.1125ZM83.6125 63.05L87.4875 57.83125L84.06563 53.034374L85.64375 53.034374L87.47188 55.596874Q88.03438 56.39375 88.26875 56.83125Q88.6125 56.284374 89.06563 55.690624L91.08125 53.034374L92.51875 53.034374L89.00313 57.753124L92.8 63.05L91.15938 63.05L88.64375 59.471874Q88.425 59.159374 88.20625 58.8Q87.8625 59.346874 87.72188 59.55L85.20625 63.05L83.6125 63.05ZM96.22188 58.175Q96.22188 55.675 97.56563 54.26875Q98.90938 52.846874 101.01875 52.846874Q102.40938 52.846874 103.51875 53.51875Q104.64375 54.175 105.22188 55.3625Q105.81563 56.55 105.81563 58.05Q105.81563 59.58125 105.19063 60.784374Q104.58125 61.9875 103.45625 62.6125Q102.33125 63.221874 101.01875 63.221874Q99.59688 63.221874 98.4875 62.534374Q97.37813 61.846874 96.8 60.675Q96.22188 59.4875 96.22188 58.175ZM97.59688 58.190624Q97.59688 60.003124 98.56563 61.05Q99.55 62.08125 101.01875 62.08125Q102.50313 62.08125 103.47188 61.034374Q104.44063 59.9875 104.44063 58.05Q104.44063 56.815624 104.01875 55.909374Q103.6125 55.003124 102.81563 54.503124Q102.01875 53.9875 101.03438 53.9875Q99.62813 53.9875 98.6125 54.95625Q97.59688 55.925 97.59688 58.190624ZM107.45625 63.05L107.45625 55.784374L108.56563 55.784374L108.56563 56.89375Q108.9875 56.1125 109.34688 55.878124Q109.70625 55.628124 110.14375 55.628124Q110.76875 55.628124 111.40938 56.01875L110.9875 57.159374Q110.53438 56.89375 110.08125 56.89375Q109.675 56.89375 109.34688 57.14375Q109.03438 57.378124 108.89375 57.815624Q108.69063 58.471874 108.69063 59.253124L108.69063 63.05L107.45625 63.05ZM112.4875 54.440624L112.4875 53.034374L113.70625 53.034374L113.70625 54.440624L112.4875 54.440624ZM112.4875 63.05L112.4875 55.784374L113.70625 55.784374L113.70625 63.05L112.4875 63.05ZM115.47188 63.05L115.47188 55.784374L116.58125 55.784374L116.58125 56.815624Q117.37813 55.628124 118.89375 55.628124Q119.55 55.628124 120.09688 55.8625Q120.64375 56.096874 120.90938 56.4875Q121.19063 56.8625 121.3 57.39375Q121.37813 57.7375 121.37813 58.58125L121.37813 63.05L120.14375 63.05L120.14375 58.628124Q120.14375 57.878124 120.00313 57.51875Q119.8625 57.14375 119.4875 56.925Q119.12813 56.690624 118.62813 56.690624Q117.84688 56.690624 117.26875 57.190624Q116.70625 57.690624 116.70625 59.08125L116.70625 63.05L115.47188 63.05Z" fill-rule="nonzero"/><path fill="#909ea5" d="M20.128124 37.55L20.128124 23.2375L26.471874 23.2375Q28.378124 23.2375 29.378124 23.628124Q30.378124 24.003124 30.971874 24.9875Q31.565624 25.95625 31.565624 27.14375Q31.565624 28.659374 30.58125 29.70625Q29.596874 30.753124 27.534374 31.034374Q28.284374 31.39375 28.675 31.753124Q29.503124 32.503124 30.253124 33.659374L32.7375 37.55L30.3625 37.55L28.45625 34.565624Q27.628124 33.284374 27.096874 32.596874Q26.565624 31.909374 26.128124 31.64375Q25.70625 31.3625 25.26875 31.253124Q24.940624 31.190624 24.221874 31.190624L22.01875 31.190624L22.01875 37.55L20.128124 37.55ZM22.01875 29.55L26.096874 29.55Q27.39375 29.55 28.1125 29.284374Q28.846874 29.01875 29.221874 28.425Q29.6125 27.83125 29.6125 27.14375Q29.6125 26.128124 28.878124 25.471874Q28.14375 24.815624 26.55 24.815624L22.01875 24.815624L22.01875 29.55ZM33.878124 25.253124L33.878124 23.2375L35.64375 23.2375L35.64375 25.253124L33.878124 25.253124ZM33.878124 37.55L33.878124 27.175L35.64375 27.175L35.64375 37.55L33.878124 37.55ZM40.753124 37.55L36.8 27.175L38.659374 27.175L40.89375 33.39375Q41.253124 34.39375 41.55 35.471874Q41.784374 34.659374 42.20625 33.503124L44.503124 27.175L46.315624 27.175L42.39375 37.55L40.753124 37.55ZM53.64375 36.26875Q52.659374 37.096874 51.753124 37.440624Q50.846874 37.784374 49.815624 37.784374Q48.1125 37.784374 47.190624 36.95625Q46.26875 36.1125 46.26875 34.815624Q46.26875 34.05 46.6125 33.425Q46.971874 32.8 47.534374 32.425Q48.096874 32.034374 48.8 31.83125Q49.315624 31.70625 50.3625 31.565624Q52.4875 31.315624 53.4875 30.971874Q53.503124 30.6125 53.503124 30.503124Q53.503124 29.440624 53.003124 28.9875Q52.33125 28.39375 51.003124 28.39375Q49.753124 28.39375 49.159374 28.83125Q48.58125 29.26875 48.3 30.378124L46.58125 30.14375Q46.815624 29.034374 47.346874 28.3625Q47.878124 27.675 48.89375 27.315624Q49.909374 26.940624 51.253124 26.940624Q52.58125 26.940624 53.409374 27.253124Q54.2375 27.565624 54.628124 28.05Q55.01875 28.51875 55.175 29.2375Q55.26875 29.690624 55.26875 30.8625L55.26875 33.20625Q55.26875 35.659374 55.378124 36.315624Q55.4875 36.95625 55.83125 37.55L53.9875 37.55Q53.721874 37.003124 53.64375 36.26875ZM53.4875 32.346874Q52.534374 32.7375 50.6125 33.003124Q49.534374 33.159374 49.08125 33.3625Q48.64375 33.55 48.39375 33.925Q48.14375 34.3 48.14375 34.76875Q48.14375 35.471874 48.675 35.940624Q49.20625 36.409374 50.2375 36.409374Q51.253124 36.409374 52.034374 35.971874Q52.83125 35.51875 53.20625 34.753124Q53.4875 34.14375 53.4875 32.9875L53.4875 32.346874ZM63.45625 32.95625L65.2375 32.8Q65.3625 33.8625 65.81563 34.55Q66.28438 35.2375 67.25313 35.675Q68.2375 36.096874 69.47188 36.096874Q70.55 36.096874 71.37813 35.784374Q72.20625 35.45625 72.6125 34.89375Q73.01875 34.33125 73.01875 33.659374Q73.01875 32.9875 72.62813 32.4875Q72.2375 31.9875 71.34688 31.64375Q70.76875 31.409374 68.78438 30.940624Q66.81563 30.471874 66.03438 30.05Q65.00313 29.51875 64.50313 28.721874Q64.00313 27.925 64.00313 26.940624Q64.00313 25.846874 64.6125 24.909374Q65.22188 23.971874 66.40938 23.4875Q67.59688 22.9875 69.03438 22.9875Q70.62813 22.9875 71.84688 23.503124Q73.06563 24.01875 73.70625 25.01875Q74.3625 26.003124 74.40938 27.26875L72.59688 27.409374Q72.45625 26.05 71.6125 25.3625Q70.76875 24.659374 69.1125 24.659374Q67.39375 24.659374 66.59688 25.3Q65.81563 25.925 65.81563 26.8Q65.81563 27.58125 66.37813 28.08125Q66.925 28.58125 69.2375 29.096874Q71.55 29.6125 72.40938 30.003124Q73.65938 30.58125 74.25313 31.471874Q74.84688 32.346874 74.84688 33.503124Q74.84688 34.64375 74.19063 35.659374Q73.53438 36.675 72.3 37.2375Q71.08125 37.8 69.55 37.8Q67.6125 37.8 66.3 37.2375Q64.9875 36.659374 64.2375 35.51875Q63.4875 34.378124 63.45625 32.95625ZM80.70625 35.971874L80.95625 37.534374Q80.22188 37.690624 79.62813 37.690624Q78.675 37.690624 78.14375 37.39375Q77.62813 37.08125 77.40938 36.596874Q77.19063 36.096874 77.19063 34.51875L77.19063 28.55L75.90938 28.55L75.90938 27.175L77.19063 27.175L77.19063 24.6125L78.94063 23.55L78.94063 27.175L80.70625 27.175L80.70625 28.55L78.94063 28.55L78.94063 34.6125Q78.94063 35.3625 79.03438 35.58125Q79.12813 35.784374 79.33125 35.925Q79.55 36.05 79.94063 36.05Q80.22188 36.05 80.70625 35.971874ZM82.84688 37.55L82.84688 27.175L84.425 27.175L84.425 28.753124Q85.03438 27.64375 85.55 27.3Q86.06563 26.940624 86.675 26.940624Q87.56563 26.940624 88.4875 27.503124L87.87813 29.14375Q87.2375 28.753124 86.59688 28.753124Q86.01875 28.753124 85.55 29.1125Q85.09688 29.45625 84.89375 30.065624Q84.6125 31.003124 84.6125 32.1125L84.6125 37.55L82.84688 37.55ZM96.97188 34.20625L98.78438 34.440624Q98.3625 36.01875 97.19063 36.909374Q96.03438 37.784374 94.22188 37.784374Q91.95625 37.784374 90.6125 36.39375Q89.28438 34.9875 89.28438 32.45625Q89.28438 29.83125 90.62813 28.39375Q91.97188 26.940624 94.12813 26.940624Q96.20625 26.940624 97.51875 28.3625Q98.84688 29.76875 98.84688 32.346874Q98.84688 32.503124 98.83125 32.815624L91.09688 32.815624Q91.19063 34.51875 92.06563 35.425Q92.94063 36.33125 94.2375 36.33125Q95.20625 36.33125 95.87813 35.83125Q96.56563 35.315624 96.97188 34.20625ZM91.19063 31.3625L96.9875 31.3625Q96.87813 30.065624 96.33125 29.409374Q95.4875 28.39375 94.14375 28.39375Q92.94063 28.39375 92.1125 29.20625Q91.28438 30.003124 91.19063 31.3625ZM107.64375 36.26875Q106.65938 37.096874 105.75313 37.440624Q104.84688 37.784374 103.81563 37.784374Q102.1125 37.784374 101.19063 36.95625Q100.26875 36.1125 100.26875 34.815624Q100.26875 34.05 100.6125 33.425Q100.97188 32.8 101.53438 32.425Q102.09688 32.034374 102.8 31.83125Q103.31563 31.70625 104.3625 31.565624Q106.4875 31.315624 107.4875 30.971874Q107.50313 30.6125 107.50313 30.503124Q107.50313 29.440624 107.00313 28.9875Q106.33125 28.39375 105.00313 28.39375Q103.75313 28.39375 103.15938 28.83125Q102.58125 29.26875 102.3 30.378124L100.58125 30.14375Q100.81563 29.034374 101.34688 28.3625Q101.87813 27.675 102.89375 27.315624Q103.90938 26.940624 105.25313 26.940624Q106.58125 26.940624 107.40938 27.253124Q108.2375 27.565624 108.62813 28.05Q109.01875 28.51875 109.175 29.2375Q109.26875 29.690624 109.26875 30.8625L109.26875 33.20625Q109.26875 35.659374 109.37813 36.315624Q109.4875 36.95625 109.83125 37.55L107.9875 37.55Q107.72188 37.003124 107.64375 36.26875ZM107.4875 32.346874Q106.53438 32.7375 104.6125 33.003124Q103.53438 33.159374 103.08125 33.3625Q102.64375 33.55 102.39375 33.925Q102.14375 34.3 102.14375 34.76875Q102.14375 35.471874 102.675 35.940624Q103.20625 36.409374 104.2375 36.409374Q105.25313 36.409374 106.03438 35.971874Q106.83125 35.51875 107.20625 34.753124Q107.4875 34.14375 107.4875 32.9875L107.4875 32.346874ZM111.8625 37.55L111.8625 27.175L113.44063 27.175L113.44063 28.628124Q113.925 27.878124 114.7375 27.409374Q115.55 26.940624 116.58125 26.940624Q117.7375 26.940624 118.47188 27.425Q119.20625 27.89375 119.51875 28.753124Q120.75313 26.940624 122.72188 26.940624Q124.26875 26.940624 125.09688 27.8Q125.925 28.659374 125.925 30.425L125.925 37.55L124.175 37.55L124.175 31.01875Q124.175 29.95625 124.00313 29.503124Q123.83125 29.034374 123.37813 28.753124Q122.94063 28.471874 122.33125 28.471874Q121.2375 28.471874 120.50313 29.20625Q119.78438 29.925 119.78438 31.51875L119.78438 37.55L118.03438 37.55L118.03438 30.815624Q118.03438 29.64375 117.59688 29.065624Q117.175 28.471874 116.19063 28.471874Q115.45625 28.471874 114.81563 28.8625Q114.19063 29.253124 113.90938 30.003124Q113.62813 30.753124 113.62813 32.175L113.62813 37.55L111.8625 37.55ZM127.87813 25.253124L127.87813 23.2375L129.64375 23.2375L129.64375 25.253124L127.87813 25.253124ZM127.87813 37.55L127.87813 27.175L129.64375 27.175L129.64375 37.55L127.87813 37.55ZM131.8625 37.55L131.8625 27.175L133.45625 27.175L133.45625 28.659374Q134.59688 26.940624 136.75313 26.940624Q137.69063 26.940624 138.47188 27.284374Q139.26875 27.6125 139.65938 28.159374Q140.05 28.70625 140.20625 29.45625Q140.3 29.95625 140.3 31.175L140.3 37.55L138.53438 37.55L138.53438 31.2375Q138.53438 30.159374 138.33125 29.628124Q138.12813 29.096874 137.59688 28.784374Q137.08125 28.471874 136.37813 28.471874Q135.25313 28.471874 134.44063 29.190624Q133.62813 29.89375 133.62813 31.878124L133.62813 37.55L131.8625 37.55ZM141.55 38.409374L143.25313 38.659374Q143.3625 39.45625 143.84688 39.815624Q144.50313 40.3 145.64375 40.3Q146.8625 40.3 147.51875 39.815624Q148.19063 39.33125 148.425 38.45625Q148.56563 37.909374 148.55 36.190624Q147.39375 37.55 145.675 37.55Q143.53438 37.55 142.3625 36.003124Q141.19063 34.45625 141.19063 32.3Q141.19063 30.815624 141.72188 29.565624Q142.26875 28.315624 143.28438 27.628124Q144.31563 26.940624 145.69063 26.940624Q147.51875 26.940624 148.72188 28.425L148.72188 27.175L150.33125 27.175L150.33125 36.14375Q150.33125 38.565624 149.83125 39.565624Q149.34688 40.58125 148.26875 41.159374Q147.20625 41.753124 145.64375 41.753124Q143.8 41.753124 142.64375 40.925Q141.50313 40.096874 141.55 38.409374ZM143.00313 32.175Q143.00313 34.221874 143.81563 35.159374Q144.62813 36.096874 145.84688 36.096874Q147.05 36.096874 147.8625 35.159374Q148.69063 34.221874 148.69063 32.2375Q148.69063 30.33125 147.84688 29.3625Q147.00313 28.39375 145.81563 28.39375Q144.64375 28.39375 143.81563 29.346874Q143.00313 30.3 143.00313 32.175ZM157.51875 37.55L163.01875 23.2375L165.06563 23.2375L170.925 37.55L168.76875 37.55L167.09688 33.20625L161.1125 33.20625L159.53438 37.55L157.51875 37.55ZM161.65938 31.675L166.50313 31.675L165.01875 27.70625Q164.33125 25.89375 164.00313 24.7375Q163.72188 26.1125 163.22188 27.471874L161.65938 31.675ZM171.45625 32.95625L173.2375 32.8Q173.3625 33.8625 173.81563 34.55Q174.28438 35.2375 175.25313 35.675Q176.2375 36.096874 177.47188 36.096874Q178.55 36.096874 179.37813 35.784374Q180.20625 35.45625 180.6125 34.89375Q181.01875 34.33125 181.01875 33.659374Q181.01875 32.9875 180.62813 32.4875Q180.2375 31.9875 179.34688 31.64375Q178.76875 31.409374 176.78438 30.940624Q174.81563 30.471874 174.03438 30.05Q173.00313 29.51875 172.50313 28.721874Q172.00313 27.925 172.00313 26.940624Q172.00313 25.846874 172.6125 24.909374Q173.22188 23.971874 174.40938 23.4875Q175.59688 22.9875 177.03438 22.9875Q178.62813 22.9875 179.84688 23.503124Q181.06563 24.01875 181.70625 25.01875Q182.3625 26.003124 182.40938 27.26875L180.59688 27.409374Q180.45625 26.05 179.6125 25.3625Q178.76875 24.659374 177.1125 24.659374Q175.39375 24.659374 174.59688 25.3Q173.81563 25.925 173.81563 26.8Q173.81563 27.58125 174.37813 28.08125Q174.925 28.58125 177.2375 29.096874Q179.55 29.6125 180.40938 30.003124Q181.65938 30.58125 182.25313 31.471874Q182.84688 32.346874 182.84688 33.503124Q182.84688 34.64375 182.19063 35.659374Q181.53438 36.675 180.3 37.2375Q179.08125 37.8 177.55 37.8Q175.6125 37.8 174.3 37.2375Q172.9875 36.659374 172.2375 35.51875Q171.4875 34.378124 171.45625 32.95625ZM185.12813 37.55L185.12813 23.2375L191.47188 23.2375Q193.37813 23.2375 194.37813 23.628124Q195.37813 24.003124 195.97188 24.9875Q196.56563 25.95625 196.56563 27.14375Q196.56563 28.659374 195.58125 29.70625Q194.59688 30.753124 192.53438 31.034374Q193.28438 31.39375 193.675 31.753124Q194.50313 32.503124 195.25313 33.659374L197.7375 37.55L195.3625 37.55L193.45625 34.565624Q192.62813 33.284374 192.09688 32.596874Q191.56563 31.909374 191.12813 31.64375Q190.70625 31.3625 190.26875 31.253124Q189.94063 31.190624 189.22188 31.190624L187.01875 31.190624L187.01875 37.55L185.12813 37.55ZM187.01875 29.55L191.09688 29.55Q192.39375 29.55 193.1125 29.284374Q193.84688 29.01875 194.22188 28.425Q194.6125 27.83125 194.6125 27.14375Q194.6125 26.128124 193.87813 25.471874Q193.14375 24.815624 191.55 24.815624L187.01875 24.815624L187.01875 29.55ZM197.55 37.8L201.70625 22.9875L203.1125 22.9875L198.97188 37.8L197.55 37.8ZM208.7375 37.55L208.7375 24.925L204.01875 24.925L204.01875 23.2375L215.3625 23.2375L215.3625 24.925L210.62813 24.925L210.62813 37.55L208.7375 37.55ZM220.7375 37.55L220.7375 24.925L216.01875 24.925L216.01875 23.2375L227.3625 23.2375L227.3625 24.925L222.62813 24.925L222.62813 37.55L220.7375 37.55ZM228.45625 32.95625L230.2375 32.8Q230.3625 33.8625 230.81563 34.55Q231.28438 35.2375 232.25313 35.675Q233.2375 36.096874 234.47188 36.096874Q235.55 36.096874 236.37813 35.784374Q237.20625 35.45625 237.6125 34.89375Q238.01875 34.33125 238.01875 33.659374Q238.01875 32.9875 237.62813 32.4875Q237.2375 31.9875 236.34688 31.64375Q235.76875 31.409374 233.78438 30.940624Q231.81563 30.471874 231.03438 30.05Q230.00313 29.51875 229.50313 28.721874Q229.00313 27.925 229.00313 26.940624Q229.00313 25.846874 229.6125 24.909374Q230.22188 23.971874 231.40938 23.4875Q232.59688 22.9875 234.03438 22.9875Q235.62813 22.9875 236.84688 23.503124Q238.06563 24.01875 238.70625 25.01875Q239.3625 26.003124 239.40938 27.26875L237.59688 27.409374Q237.45625 26.05 236.6125 25.3625Q235.76875 24.659374 234.1125 24.659374Q232.39375 24.659374 231.59688 25.3Q230.81563 25.925 230.81563 26.8Q230.81563 27.58125 231.37813 28.08125Q231.925 28.58125 234.2375 29.096874Q236.55 29.6125 237.40938 30.003124Q238.65938 30.58125 239.25313 31.471874Q239.84688 32.346874 239.84688 33.503124Q239.84688 34.64375 239.19063 35.659374Q238.53438 36.675 237.3 37.2375Q236.08125 37.8 234.55 37.8Q232.6125 37.8 231.3 37.2375Q229.9875 36.659374 229.2375 35.51875Q228.4875 34.378124 228.45625 32.95625Z" fill-rule="nonzero"/></svg>