<svg version="1.1" viewBox="0.0 0.0 600.0 371.0" fill="none" stroke="none" stroke-linecap="square" stroke-miterlimit="10" width="600" height="371" xmlns:xlink="http://www.w3.org/1999/xlink" xmlns="http://www.w3.org/2000/svg"><path fill="#ffffff" d="M0 0L600.0 0L600.0 371.0L0 371.0L0 0Z" fill-rule="nonzero"/><path stroke="#333333" stroke-width="1.0" stroke-linecap="butt" d="M77.5 332.5L581.5 332.5" fill-rule="nonzero"/><path stroke="#cccccc" stroke-width="1.0" stroke-linecap="butt" d="M77.5 283.5L581.5 283.5" fill-rule="nonzero"/><path stroke="#cccccc" stroke-width="1.0" stroke-linecap="butt" d="M77.5 233.5L581.5 233.5" fill-rule="nonzero"/><path stroke="#cccccc" stroke-width="1.0" stroke-linecap="butt" d="M77.5 184.5L581.5 184.5" fill-rule="nonzero"/><path stroke="#cccccc" stroke-width="1.0" stroke-linecap="butt" d="M77.5 134.5L581.5 134.5" fill-rule="nonzero"/><path stroke="#cccccc" stroke-width="1.0" stroke-linecap="butt" d="M77.5 85.5L581.5 85.5" fill-rule="nonzero"/><clipPath id="id_0"><path d="M77.55 85.416664L581.45 85.416664L581.45 332.45L77.55 332.45L77.55 85.416664Z" clip-rule="nonzero"/></clipPath><path stroke="#000000" stroke-width="2.0" stroke-linecap="butt" stroke-opacity="0.0" clip-path="url(#id_0)" d="M292.0 332.0L153.0 332.0L153.0 313.0C153.0 311.89542 153.89543 311.0 155.0 311.0L290.0 311.0C291.10458 311.0 292.0 311.89542 292.0 313.0Z" fill-rule="nonzero"/><path fill="#76b900" clip-path="url(#id_0)" d="M292.0 332.0L153.0 332.0L153.0 313.0C153.0 311.89542 153.89543 311.0 155.0 311.0L290.0 311.0C291.10458 311.0 292.0 311.89542 292.0 313.0Z" fill-rule="nonzero"/><path stroke="#000000" stroke-width="2.0" stroke-linecap="butt" stroke-opacity="0.0" clip-path="url(#id_0)" d="M507.0 332.0L368.0 332.0L368.0 106.0C368.0 104.89543 368.89542 104.0 370.0 104.0L505.0 104.0C506.10458 104.0 507.0 104.89543 507.0 106.0Z" fill-rule="nonzero"/><path fill="#76b900" clip-path="url(#id_0)" d="M507.0 332.0L368.0 332.0L368.0 106.0C368.0 104.89543 368.89542 104.0 370.0 104.0L505.0 104.0C506.10458 104.0 507.0 104.89543 507.0 106.0Z" fill-rule="nonzero"/><path stroke="#76b900" stroke-width="3.0" stroke-linejoin="round" stroke-linecap="round" d="M219.79688 326.08054L214.20312 326.08054L214.20312 325.2993L217.15625 322.01804Q217.8125 321.26804 218.0625 320.8149Q218.3125 320.34616 218.3125 319.84616Q218.3125 319.1743 217.90625 318.7524Q217.51562 318.3149 216.82812 318.3149Q216.03125 318.3149 215.57812 318.78366Q215.125 319.2368 215.125 320.0649L214.04688 320.0649Q214.04688 318.8774 214.79688 318.15866Q215.5625 317.4243 216.82812 317.4243Q218.03125 317.4243 218.71875 318.0493Q219.40625 318.6743 219.40625 319.72116Q219.40625 320.97116 217.79688 322.72116L215.51562 325.1899L219.79688 325.1899L219.79688 326.08054ZM221.34375 325.51804Q221.34375 325.2368 221.5 325.0493Q221.67188 324.8618 222.0 324.8618Q222.34375 324.8618 222.51562 325.0493Q222.6875 325.2368 222.6875 325.51804Q222.6875 325.78366 222.51562 325.97116Q222.34375 326.14304 222.0 326.14304Q221.67188 326.14304 221.5 325.97116Q221.34375 325.78366 221.34375 325.51804ZM229.79688 326.08054L224.20312 326.08054L224.20312 325.2993L227.15625 322.01804Q227.8125 321.26804 228.0625 320.8149Q228.3125 320.34616 228.3125 319.84616Q228.3125 319.1743 227.90625 318.7524Q227.51562 318.3149 226.82812 318.3149Q226.03125 318.3149 225.57812 318.78366Q225.125 319.2368 225.125 320.0649L224.04688 320.0649Q224.04688 318.8774 224.79688 318.15866Q225.5625 317.4243 226.82812 317.4243Q228.03125 317.4243 228.71875 318.0493Q229.40625 318.6743 229.40625 319.72116Q229.40625 320.97116 227.79688 322.72116L225.51562 325.1899L229.79688 325.1899L229.79688 326.08054Z" fill-rule="nonzero"/><path fill="#ffffff" d="M219.79688 326.08054L214.20312 326.08054L214.20312 325.2993L217.15625 322.01804Q217.8125 321.26804 218.0625 320.8149Q218.3125 320.34616 218.3125 319.84616Q218.3125 319.1743 217.90625 318.7524Q217.51562 318.3149 216.82812 318.3149Q216.03125 318.3149 215.57812 318.78366Q215.125 319.2368 215.125 320.0649L214.04688 320.0649Q214.04688 318.8774 214.79688 318.15866Q215.5625 317.4243 216.82812 317.4243Q218.03125 317.4243 218.71875 318.0493Q219.40625 318.6743 219.40625 319.72116Q219.40625 320.97116 217.79688 322.72116L215.51562 325.1899L219.79688 325.1899L219.79688 326.08054ZM221.34375 325.51804Q221.34375 325.2368 221.5 325.0493Q221.67188 324.8618 222.0 324.8618Q222.34375 324.8618 222.51562 325.0493Q222.6875 325.2368 222.6875 325.51804Q222.6875 325.78366 222.51562 325.97116Q222.34375 326.14304 222.0 326.14304Q221.67188 326.14304 221.5 325.97116Q221.34375 325.78366 221.34375 325.51804ZM229.79688 326.08054L224.20312 326.08054L224.20312 325.2993L227.15625 322.01804Q227.8125 321.26804 228.0625 320.8149Q228.3125 320.34616 228.3125 319.84616Q228.3125 319.1743 227.90625 318.7524Q227.51562 318.3149 226.82812 318.3149Q226.03125 318.3149 225.57812 318.78366Q225.125 319.2368 225.125 320.0649L224.04688 320.0649Q224.04688 318.8774 224.79688 318.15866Q225.5625 317.4243 226.82812 317.4243Q228.03125 317.4243 228.71875 318.0493Q229.40625 318.6743 229.40625 319.72116Q229.40625 320.97116 227.79688 322.72116L225.51562 325.1899L229.79688 325.1899L229.79688 326.08054Z" fill-rule="nonzero"/><path stroke="#76b900" stroke-width="3.0" stroke-linejoin="round" stroke-linecap="round" d="M431.29688 120.9912L425.70312 120.9912L425.70312 120.20995L428.65625 116.9287Q429.3125 116.1787 429.5625 115.72558Q429.8125 115.25683 429.8125 114.75683Q429.8125 114.08495 429.40625 113.66308Q429.01562 113.22558 428.32812 113.22558Q427.53125 113.22558 427.07812 113.69433Q426.625 114.14745 426.625 114.97558L425.54688 114.97558Q425.54688 113.78808 426.29688 113.06933Q427.0625 112.33495 428.32812 112.33495Q429.53125 112.33495 430.21875 112.95995Q430.90625 113.58495 430.90625 114.63183Q430.90625 115.88183 429.29688 117.63183L427.01562 120.10058L431.29688 120.10058L431.29688 120.9912ZM434.28125 116.19433L435.09375 116.19433Q435.875 116.1787 436.3125 115.78808Q436.75 115.39745 436.75 114.72558Q436.75 113.22558 435.25 113.22558Q434.54688 113.22558 434.125 113.63183Q433.71875 114.03808 433.71875 114.69433L432.625 114.69433Q432.625 113.6787 433.35938 113.00683Q434.10938 112.33495 435.25 112.33495Q436.45312 112.33495 437.14062 112.97558Q437.82812 113.6162 437.82812 114.75683Q437.82812 115.31933 437.46875 115.83495Q437.10938 116.35058 436.48438 116.6162Q437.1875 116.83495 437.5625 117.35058Q437.95312 117.8662 437.95312 118.6162Q437.95312 119.75683 437.20312 120.44433Q436.45312 121.1162 435.25 121.1162Q434.0625 121.1162 433.29688 120.45995Q432.54688 119.8037 432.54688 118.7412L433.64062 118.7412Q433.64062 119.41308 434.07812 119.81933Q434.51562 120.22558 435.26562 120.22558Q436.04688 120.22558 436.45312 119.81933Q436.875 119.39745 436.875 118.63183Q436.875 117.89745 436.42188 117.50683Q435.96875 117.10058 435.09375 117.08495L434.28125 117.08495L434.28125 116.19433ZM439.84375 120.4287Q439.84375 120.14745 440.0 119.95995Q440.17188 119.77245 440.5 119.77245Q440.84375 119.77245 441.01562 119.95995Q441.1875 120.14745 441.1875 120.4287Q441.1875 120.69433 441.01562 120.88183Q440.84375 121.0537 440.5 121.0537Q440.17188 121.0537 440.0 120.88183Q439.84375 120.69433 439.84375 120.4287ZM446.26562 120.9912L445.1875 120.9912L445.1875 113.77245L443.0 114.56933L443.0 113.58495L446.10938 112.41308L446.26562 112.41308L446.26562 120.9912Z" fill-rule="nonzero"/><path fill="#ffffff" d="M431.29688 120.9912L425.70312 120.9912L425.70312 120.20995L428.65625 116.9287Q429.3125 116.1787 429.5625 115.72558Q429.8125 115.25683 429.8125 114.75683Q429.8125 114.08495 429.40625 113.66308Q429.01562 113.22558 428.32812 113.22558Q427.53125 113.22558 427.07812 113.69433Q426.625 114.14745 426.625 114.97558L425.54688 114.97558Q425.54688 113.78808 426.29688 113.06933Q427.0625 112.33495 428.32812 112.33495Q429.53125 112.33495 430.21875 112.95995Q430.90625 113.58495 430.90625 114.63183Q430.90625 115.88183 429.29688 117.63183L427.01562 120.10058L431.29688 120.10058L431.29688 120.9912ZM434.28125 116.19433L435.09375 116.19433Q435.875 116.1787 436.3125 115.78808Q436.75 115.39745 436.75 114.72558Q436.75 113.22558 435.25 113.22558Q434.54688 113.22558 434.125 113.63183Q433.71875 114.03808 433.71875 114.69433L432.625 114.69433Q432.625 113.6787 433.35938 113.00683Q434.10938 112.33495 435.25 112.33495Q436.45312 112.33495 437.14062 112.97558Q437.82812 113.6162 437.82812 114.75683Q437.82812 115.31933 437.46875 115.83495Q437.10938 116.35058 436.48438 116.6162Q437.1875 116.83495 437.5625 117.35058Q437.95312 117.8662 437.95312 118.6162Q437.95312 119.75683 437.20312 120.44433Q436.45312 121.1162 435.25 121.1162Q434.0625 121.1162 433.29688 120.45995Q432.54688 119.8037 432.54688 118.7412L433.64062 118.7412Q433.64062 119.41308 434.07812 119.81933Q434.51562 120.22558 435.26562 120.22558Q436.04688 120.22558 436.45312 119.81933Q436.875 119.39745 436.875 118.63183Q436.875 117.89745 436.42188 117.50683Q435.96875 117.10058 435.09375 117.08495L434.28125 117.08495L434.28125 116.19433ZM439.84375 120.4287Q439.84375 120.14745 440.0 119.95995Q440.17188 119.77245 440.5 119.77245Q440.84375 119.77245 441.01562 119.95995Q441.1875 120.14745 441.1875 120.4287Q441.1875 120.69433 441.01562 120.88183Q440.84375 121.0537 440.5 121.0537Q440.17188 121.0537 440.0 120.88183Q439.84375 120.69433 439.84375 120.4287ZM446.26562 120.9912L445.1875 120.9912L445.1875 113.77245L443.0 114.56933L443.0 113.58495L446.10938 112.41308L446.26562 112.41308L446.26562 120.9912Z" fill-rule="nonzero"/><path fill="#000000" d="M26.784388 268.88644L26.690638 267.82394Q27.346888 267.74582 27.753138 267.46457Q28.159388 267.18332 28.425013 266.6052Q28.675013 266.01144 28.675013 265.27707Q28.675013 264.63644 28.487513 264.13644Q28.284388 263.63644 27.956263 263.40207Q27.612513 263.15207 27.221888 263.15207Q26.815638 263.15207 26.518763 263.38644Q26.206263 263.62082 26.003138 264.15207Q25.862513 264.51144 25.581263 265.69894Q25.300013 266.87082 25.050013 267.33957Q24.721888 267.96457 24.253138 268.26144Q23.768763 268.55832 23.175013 268.55832Q22.534388 268.55832 21.971888 268.19894Q21.393763 267.82394 21.112513 267.12082Q20.815638 266.40207 20.815638 265.5427Q20.815638 264.58957 21.128138 263.8552Q21.425013 263.12082 22.034388 262.7302Q22.628138 262.33957 23.378138 262.30832L23.456263 263.40207Q22.643763 263.49582 22.237513 264.01144Q21.815638 264.51144 21.815638 265.49582Q21.815638 266.52707 22.190638 266.99582Q22.565638 267.46457 23.096888 267.46457Q23.565638 267.46457 23.862513 267.13644Q24.159388 266.80832 24.471888 265.43332Q24.784388 264.0427 25.018763 263.52707Q25.378138 262.77707 25.909388 262.4177Q26.425013 262.05832 27.128138 262.05832Q27.815638 262.05832 28.425013 262.44894Q29.018763 262.83957 29.362513 263.57394Q29.690638 264.30832 29.690638 265.2302Q29.690638 266.40207 29.362513 267.19894Q29.018763 267.9802 28.331263 268.43332Q27.643763 268.87082 26.784388 268.88644ZM27.550013 256.38644L27.675013 255.29271Q28.628138 255.54271 29.159388 256.24582Q29.690638 256.94894 29.690638 258.02707Q29.690638 259.38644 28.846888 260.19894Q28.003138 260.99582 26.487513 260.99582Q24.925013 260.99582 24.065638 260.18332Q23.190638 259.37082 23.190638 258.08957Q23.190638 256.83957 24.034388 256.05832Q24.878138 255.26146 26.425013 255.26146Q26.518763 255.26146 26.706263 255.26146L26.706263 259.90207Q27.737513 259.83957 28.284388 259.32394Q28.815638 258.80832 28.815638 258.02707Q28.815638 257.44894 28.518763 257.0427Q28.206263 256.62082 27.550013 256.38644ZM25.846888 259.83957L25.846888 256.37082Q25.050013 256.43332 24.659388 256.76144Q24.050013 257.27707 24.050013 258.07394Q24.050013 258.80832 24.534388 259.30832Q25.018763 259.7927 25.846888 259.83957ZM27.268763 249.57396L27.409388 248.54271Q28.471888 248.71458 29.081263 249.41771Q29.690638 250.12083 29.690638 251.13646Q29.690638 252.41771 28.862513 253.19896Q28.018763 253.96458 26.456263 253.96458Q25.456263 253.96458 24.706263 253.63646Q23.940638 253.29271 23.565638 252.62083Q23.190638 251.93333 23.190638 251.12083Q23.190638 250.12083 23.706263 249.48021Q24.206263 248.82396 25.159388 248.63646L25.315638 249.66771Q24.690638 249.80833 24.378138 250.18333Q24.050013 250.55833 24.050013 251.08958Q24.050013 251.88646 24.628138 252.38646Q25.190638 252.88646 26.425013 252.88646Q27.690638 252.88646 28.253138 252.40208Q28.815638 251.91771 28.815638 251.15208Q28.815638 250.52708 28.440638 250.12083Q28.065638 249.69896 27.268763 249.57396ZM26.440638 248.02708Q24.706263 248.02708 23.878138 247.07396Q23.190638 246.27708 23.190638 245.12083Q23.190638 243.83958 24.034388 243.02708Q24.862513 242.19896 26.346888 242.19896Q27.550013 242.19896 28.237513 242.55833Q28.925013 242.91771 29.315638 243.62083Q29.690638 244.30833 29.690638 245.12083Q29.690638 246.41771 28.862513 247.23021Q28.018763 248.02708 26.440638 248.02708ZM26.440638 246.94896Q27.628138 246.94896 28.221888 246.43333Q28.815638 245.90208 28.815638 245.12083Q28.815638 244.32396 28.221888 243.80833Q27.628138 243.29271 26.409388 243.29271Q25.253138 243.29271 24.659388 243.82396Q24.065638 244.33958 24.065638 245.12083Q24.065638 245.90208 24.659388 246.43333Q25.237513 246.94896 26.440638 246.94896ZM29.550013 240.63646L23.331263 240.63646L23.331263 239.69896L24.206263 239.69896Q23.190638 239.01146 23.190638 237.71458Q23.190638 237.15208 23.393763 236.68333Q23.596888 236.19896 23.925013 235.96458Q24.253138 235.73021 24.690638 235.63646Q24.987513 235.58958 25.721888 235.58958L29.550013 235.58958L29.550013 236.63646L25.768763 236.63646Q25.112513 236.63646 24.800013 236.76146Q24.487513 236.88646 24.300013 237.19896Q24.096888 237.51146 24.096888 237.93333Q24.096888 238.60521 24.534388 239.10521Q24.956263 239.58958 26.143763 239.58958L29.550013 239.58958L29.550013 240.63646ZM29.550013 229.60521L28.768763 229.60521Q29.690638 230.19896 29.690638 231.33958Q29.690638 232.08958 29.284388 232.71458Q28.862513 233.33958 28.128138 233.68333Q27.393763 234.02708 26.440638 234.02708Q25.518763 234.02708 24.753138 233.71458Q23.987513 233.40208 23.596888 232.77708Q23.190638 232.15208 23.190638 231.38646Q23.190638 230.82396 23.425013 230.38646Q23.659388 229.94896 24.034388 229.66771L20.956263 229.66771L20.956263 228.62083L29.550013 228.62083L29.550013 229.60521ZM26.440638 232.93333Q27.643763 232.93333 28.237513 232.43333Q28.815638 231.93333 28.815638 231.24583Q28.815638 230.55833 28.253138 230.07396Q27.690638 229.58958 26.534388 229.58958Q25.253138 229.58958 24.659388 230.08958Q24.065638 230.57396 24.065638 231.29271Q24.065638 231.99583 24.643763 232.46458Q25.206263 232.93333 26.440638 232.93333ZM27.690638 227.05833L27.534388 226.02708Q28.159388 225.93333 28.487513 225.54271Q28.815638 225.13646 28.815638 224.40208Q28.815638 223.68333 28.534388 223.33958Q28.237513 222.98021 27.831263 222.98021Q27.471888 222.98021 27.268763 223.29271Q27.128138 223.51146 26.909388 224.37083Q26.612513 225.52708 26.409388 225.98021Q26.190638 226.41771 25.815638 226.65208Q25.440638 226.88646 24.971888 226.88646Q24.565638 226.88646 24.206263 226.69896Q23.846888 226.51146 23.612513 226.18333Q23.440638 225.93333 23.315638 225.51146Q23.190638 225.08958 23.190638 224.58958Q23.190638 223.87083 23.409388 223.32396Q23.612513 222.76146 23.971888 222.49583Q24.331263 222.23021 24.925013 222.13646L25.065638 223.16771Q24.596888 223.23021 24.331263 223.57396Q24.050013 223.90208 24.050013 224.52708Q24.050013 225.24583 24.300013 225.55833Q24.534388 225.87083 24.862513 225.87083Q25.065638 225.87083 25.221888 225.74583Q25.393763 225.60521 25.503138 225.33958Q25.565638 225.18333 25.768763 224.40208Q26.081263 223.27708 26.268763 222.83958Q26.456263 222.40208 26.815638 222.15208Q27.175013 221.90208 27.721888 221.90208Q28.253138 221.90208 28.721888 222.21458Q29.175013 222.51146 29.440638 223.08958Q29.690638 223.66771 29.690638 224.40208Q29.690638 225.62083 29.190638 226.26146Q28.675013 226.88646 27.690638 227.05833ZM31.940638 216.63646L23.331263 216.63646L23.331263 215.68333L24.128138 215.68333Q23.659388 215.33958 23.425013 214.91771Q23.190638 214.48021 23.190638 213.87083Q23.190638 213.07396 23.596888 212.46458Q24.003138 211.85521 24.753138 211.55833Q25.503138 211.24583 26.393763 211.24583Q27.346888 211.24583 28.112513 211.58958Q28.878138 211.91771 29.284388 212.57396Q29.690638 213.23021 29.690638 213.94896Q29.690638 214.48021 29.471888 214.90208Q29.237513 215.32396 28.909388 215.58958L31.940638 215.58958L31.940638 216.63646ZM26.471888 215.68333Q27.675013 215.68333 28.253138 215.19896Q28.815638 214.71458 28.815638 214.02708Q28.815638 213.32396 28.221888 212.82396Q27.628138 212.32396 26.378138 212.32396Q25.190638 212.32396 24.612513 212.80833Q24.018763 213.29271 24.018763 213.98021Q24.018763 214.65208 24.643763 215.16771Q25.268763 215.68333 26.471888 215.68333ZM27.550013 205.38646L27.675013 204.29271Q28.628138 204.54271 29.159388 205.24583Q29.690638 205.94896 29.690638 207.02708Q29.690638 208.38646 28.846888 209.19896Q28.003138 209.99583 26.487513 209.99583Q24.925013 209.99583 24.065638 209.18333Q23.190638 208.37083 23.190638 207.08958Q23.190638 205.83958 24.034388 205.05833Q24.878138 204.26146 26.425013 204.26146Q26.518763 204.26146 26.706263 204.26146L26.706263 208.90208Q27.737513 208.83958 28.284388 208.32396Q28.815638 207.80833 28.815638 207.02708Q28.815638 206.44896 28.518763 206.04271Q28.206263 205.62083 27.550013 205.38646ZM25.846888 208.83958L25.846888 205.37083Q25.050013 205.43333 24.659388 205.76146Q24.050013 206.27708 24.050013 207.07396Q24.050013 207.80833 24.534388 208.30833Q25.018763 208.79271 25.846888 208.83958ZM29.550013 202.65208L23.331263 202.65208L23.331263 201.69896L24.268763 201.69896Q23.612513 201.33958 23.409388 201.04271Q23.190638 200.73021 23.190638 200.35521Q23.190638 199.82396 23.518763 199.27708L24.503138 199.63646Q24.268763 200.02708 24.268763 200.40208Q24.268763 200.76146 24.487513 201.04271Q24.690638 201.30833 25.065638 201.41771Q25.628138 201.60521 26.284388 201.60521L29.550013 201.60521L29.550013 202.65208ZM22.175013 195.63646L20.956263 195.63646L20.956263 194.57396L22.175013 194.57396L22.175013 195.63646ZM29.550013 195.63646L23.331263 195.63646L23.331263 194.57396L29.550013 194.57396L29.550013 195.63646ZM29.550013 192.63646L23.331263 192.63646L23.331263 191.69896L24.206263 191.69896Q23.737513 191.40208 23.471888 190.91771Q23.190638 190.43333 23.190638 189.80833Q23.190638 189.12083 23.471888 188.68333Q23.753138 188.23021 24.268763 188.05833Q23.190638 187.30833 23.190638 186.13646Q23.190638 185.19896 23.706263 184.71458Q24.206263 184.21458 25.284388 184.21458L29.550013 184.21458L29.550013 185.26146L25.628138 185.26146Q25.003138 185.26146 24.721888 185.37083Q24.440638 185.46458 24.268763 185.73021Q24.096888 185.99583 24.096888 186.37083Q24.096888 187.02708 24.534388 187.46458Q24.971888 187.88646 25.940638 187.88646L29.550013 187.88646L29.550013 188.94896L25.503138 188.94896Q24.800013 188.94896 24.456263 189.21458Q24.096888 189.46458 24.096888 190.04271Q24.096888 190.49583 24.331263 190.87083Q24.565638 191.24583 25.018763 191.41771Q25.471888 191.58958 26.315638 191.58958L29.550013 191.58958L29.550013 192.63646ZM28.784388 177.57396Q29.284388 178.16771 29.487513 178.71458Q29.690638 179.24583 29.690638 179.87083Q29.690638 180.90208 29.190638 181.44896Q28.690638 181.99583 27.909388 181.99583Q27.456263 181.99583 27.081263 181.79271Q26.690638 181.58958 26.471888 181.24583Q26.237513 180.90208 26.128138 180.48021Q26.034388 180.18333 25.956263 179.54271Q25.815638 178.27708 25.596888 177.66771Q25.378138 177.66771 25.331263 177.66771Q24.675013 177.66771 24.409388 177.96458Q24.065638 178.37083 24.065638 179.16771Q24.065638 179.90208 24.331263 180.26146Q24.581263 180.62083 25.237513 180.79271L25.096888 181.82396Q24.440638 181.68333 24.034388 181.35521Q23.628138 181.02708 23.409388 180.41771Q23.190638 179.80833 23.190638 179.01146Q23.190638 178.21458 23.378138 177.71458Q23.565638 177.21458 23.846888 176.98021Q24.128138 176.74583 24.565638 176.65208Q24.831263 176.60521 25.534388 176.60521L26.940638 176.60521Q28.409388 176.60521 28.800013 176.54271Q29.190638 176.46458 29.550013 176.26146L29.550013 177.37083Q29.221888 177.52708 28.784388 177.57396ZM26.425013 177.66771Q26.659388 178.24583 26.831263 179.38646Q26.925013 180.04271 27.050013 180.30833Q27.159388 180.57396 27.378138 180.73021Q27.596888 180.87083 27.878138 180.87083Q28.300013 180.87083 28.581263 180.55833Q28.862513 180.23021 28.862513 179.62083Q28.862513 179.01146 28.596888 178.54271Q28.331263 178.05833 27.862513 177.83958Q27.503138 177.66771 26.815638 177.66771L26.425013 177.66771ZM30.065638 174.83958L30.221888 173.80833Q30.690638 173.74583 30.909388 173.44896Q31.206263 173.05833 31.206263 172.38646Q31.206263 171.65208 30.909388 171.26146Q30.612513 170.85521 30.096888 170.71458Q29.768763 170.62083 28.737513 170.63646Q29.550013 171.32396 29.550013 172.35521Q29.550013 173.63646 28.628138 174.33958Q27.690638 175.04271 26.409388 175.04271Q25.518763 175.04271 24.768763 174.73021Q24.003138 174.40208 23.596888 173.79271Q23.190638 173.18333 23.190638 172.35521Q23.190638 171.24583 24.081263 170.52708L23.331263 170.52708L23.331263 169.55833L28.706263 169.55833Q30.159388 169.55833 30.768763 169.85521Q31.378138 170.15208 31.721888 170.79271Q32.08126 171.43333 32.08126 172.37083Q32.08126 173.48021 31.581263 174.16771Q31.081263 174.85521 30.065638 174.83958ZM26.331263 173.96458Q27.550013 173.96458 28.112513 173.48021Q28.675013 172.99583 28.675013 172.26146Q28.675013 171.52708 28.112513 171.04271Q27.550013 170.54271 26.362513 170.54271Q25.221888 170.54271 24.643763 171.05833Q24.065638 171.55833 24.065638 172.27708Q24.065638 172.98021 24.643763 173.48021Q25.206263 173.96458 26.331263 173.96458ZM27.550013 163.38646L27.675013 162.29271Q28.628138 162.54271 29.159388 163.24583Q29.690638 163.94896 29.690638 165.02708Q29.690638 166.38646 28.846888 167.19896Q28.003138 167.99583 26.487513 167.99583Q24.925013 167.99583 24.065638 167.18333Q23.190638 166.37083 23.190638 165.08958Q23.190638 163.83958 24.034388 163.05833Q24.878138 162.26146 26.425013 162.26146Q26.518763 162.26146 26.706263 162.26146L26.706263 166.90208Q27.737513 166.83958 28.284388 166.32396Q28.815638 165.80833 28.815638 165.02708Q28.815638 164.44896 28.518763 164.04271Q28.206263 163.62083 27.550013 163.38646ZM25.846888 166.83958L25.846888 163.37083Q25.050013 163.43333 24.659388 163.76146Q24.050013 164.27708 24.050013 165.07396Q24.050013 165.80833 24.534388 166.30833Q25.018763 166.79271 25.846888 166.83958Z" fill-rule="nonzero"/><path fill="#314c59" d="M65.05 332.21564Q65.05 330.6844 65.3625 329.7625Q65.675 328.825 66.28438 328.325Q66.90938 327.825 67.84688 327.825Q68.53438 327.825 69.05 328.10626Q69.58125 328.3875 69.925 328.91876Q70.26875 329.4344 70.45625 330.1844Q70.64375 330.9344 70.64375 332.21564Q70.64375 333.73126 70.33125 334.65314Q70.03438 335.575 69.40938 336.09064Q68.8 336.59064 67.84688 336.59064Q66.6125 336.59064 65.89375 335.7Q65.05 334.6375 65.05 332.21564ZM66.12813 332.21564Q66.12813 334.325 66.62813 335.02814Q67.12813 335.73126 67.84688 335.73126Q68.58125 335.73126 69.06563 335.02814Q69.56563 334.325 69.56563 332.21564Q69.56563 330.09064 69.06563 329.40314Q68.58125 328.7 67.83125 328.7Q67.1125 328.7 66.675 329.3094Q66.12813 330.09064 66.12813 332.21564Z" fill-rule="nonzero"/><path fill="#314c59" d="M65.05 284.79333L66.15938 284.6996Q66.28438 285.5121 66.72188 285.91833Q67.175 286.3246 67.81563 286.3246Q68.56563 286.3246 69.09688 285.74646Q69.62813 285.16833 69.62813 284.23083Q69.62813 283.3246 69.1125 282.80896Q68.6125 282.2777 67.78438 282.2777Q67.28438 282.2777 66.8625 282.5121Q66.45625 282.74646 66.22188 283.10583L65.2375 282.98083L66.06563 278.5746L70.34688 278.5746L70.34688 279.5746L66.90938 279.5746L66.45625 281.8871Q67.22188 281.3402 68.06563 281.3402Q69.19063 281.3402 69.95625 282.12146Q70.7375 282.9027 70.7375 284.1371Q70.7375 285.29333 70.06563 286.1527Q69.2375 287.18396 67.81563 287.18396Q66.64375 287.18396 65.89375 286.5277Q65.15938 285.87146 65.05 284.79333Z" fill-rule="nonzero"/><path fill="#314c59" d="M62.01875 237.63667L60.971874 237.63667L60.971874 230.91792Q60.58125 231.2773 59.95625 231.6523Q59.346874 232.01167 58.8625 232.18355L58.8625 231.16792Q59.7375 230.74605 60.39375 230.16792Q61.065624 229.57417 61.346874 229.01167L62.01875 229.01167L62.01875 237.63667ZM65.05 233.4023Q65.05 231.87105 65.3625 230.94917Q65.675 230.01167 66.28438 229.51167Q66.90938 229.01167 67.84688 229.01167Q68.53438 229.01167 69.05 229.29292Q69.58125 229.57417 69.925 230.10542Q70.26875 230.62105 70.45625 231.37105Q70.64375 232.12105 70.64375 233.4023Q70.64375 234.91792 70.33125 235.8398Q70.03438 236.76167 69.40938 237.2773Q68.8 237.7773 67.84688 237.7773Q66.6125 237.7773 65.89375 236.88667Q65.05 235.82417 65.05 233.4023ZM66.12813 233.4023Q66.12813 235.51167 66.62813 236.2148Q67.12813 236.91792 67.84688 236.91792Q68.58125 236.91792 69.06563 236.2148Q69.56563 235.51167 69.56563 233.4023Q69.56563 231.2773 69.06563 230.5898Q68.58125 229.88667 67.83125 229.88667Q67.1125 229.88667 66.675 230.49605Q66.12813 231.2773 66.12813 233.4023Z" fill-rule="nonzero"/><path fill="#314c59" d="M62.01875 188.23L60.971874 188.23L60.971874 181.51125Q60.58125 181.87062 59.95625 182.24562Q59.346874 182.605 58.8625 182.77687L58.8625 181.76125Q59.7375 181.33937 60.39375 180.76125Q61.065624 180.1675 61.346874 179.605L62.01875 179.605L62.01875 188.23ZM65.05 185.98L66.15938 185.88625Q66.28438 186.69875 66.72188 187.105Q67.175 187.51125 67.81563 187.51125Q68.56563 187.51125 69.09688 186.93312Q69.62813 186.355 69.62813 185.4175Q69.62813 184.51125 69.1125 183.99562Q68.6125 183.46437 67.78438 183.46437Q67.28438 183.46437 66.8625 183.69875Q66.45625 183.93312 66.22188 184.2925L65.2375 184.1675L66.06563 179.76125L70.34688 179.76125L70.34688 180.76125L66.90938 180.76125L66.45625 183.07375Q67.22188 182.52687 68.06563 182.52687Q69.19063 182.52687 69.95625 183.30812Q70.7375 184.08937 70.7375 185.32375Q70.7375 186.48 70.06563 187.33937Q69.2375 188.37062 67.81563 188.37062Q66.64375 188.37062 65.89375 187.71437Q65.15938 187.05812 65.05 185.98Z" fill-rule="nonzero"/><path fill="#314c59" d="M63.596874 137.80771L63.596874 138.82333L57.909374 138.82333Q57.909374 138.44833 58.034374 138.08896Q58.253124 137.51083 58.721874 136.94833Q59.20625 136.38583 60.1125 135.65146Q61.51875 134.49521 62.003124 133.82333Q62.503124 133.15146 62.503124 132.55771Q62.503124 131.93271 62.05 131.51083Q61.596874 131.07333 60.878124 131.07333Q60.1125 131.07333 59.659374 131.52646Q59.20625 131.97958 59.190624 132.79208L58.1125 132.68271Q58.221874 131.46396 58.940624 130.83896Q59.675 130.19833 60.909374 130.19833Q62.14375 130.19833 62.8625 130.88583Q63.58125 131.57333 63.58125 132.58896Q63.58125 133.10458 63.3625 133.60458Q63.159374 134.08896 62.659374 134.65146Q62.175 135.19833 61.05 136.15146Q60.096874 136.94833 59.815624 137.24521Q59.55 137.52646 59.378124 137.80771L63.596874 137.80771ZM65.05 134.58896Q65.05 133.05771 65.3625 132.13583Q65.675 131.19833 66.28438 130.69833Q66.90938 130.19833 67.84688 130.19833Q68.53438 130.19833 69.05 130.47958Q69.58125 130.76083 69.925 131.29208Q70.26875 131.80771 70.45625 132.55771Q70.64375 133.30771 70.64375 134.58896Q70.64375 136.10458 70.33125 137.02646Q70.03438 137.94833 69.40938 138.46396Q68.8 138.96396 67.84688 138.96396Q66.6125 138.96396 65.89375 138.07333Q65.05 137.01083 65.05 134.58896ZM66.12813 134.58896Q66.12813 136.69833 66.62813 137.40146Q67.12813 138.10458 67.84688 138.10458Q68.58125 138.10458 69.06563 137.40146Q69.56563 136.69833 69.56563 134.58896Q69.56563 132.46396 69.06563 131.77646Q68.58125 131.07333 67.83125 131.07333Q67.1125 131.07333 66.675 131.68271Q66.12813 132.46396 66.12813 134.58896Z" fill-rule="nonzero"/><path fill="#314c59" d="M63.596874 88.40104L63.596874 89.416664L57.909374 89.416664Q57.909374 89.041664 58.034374 88.68229Q58.253124 88.104164 58.721874 87.541664Q59.20625 86.979164 60.1125 86.24479Q61.51875 85.08854 62.003124 84.416664Q62.503124 83.74479 62.503124 83.15104Q62.503124 82.52604 62.05 82.104164Q61.596874 81.666664 60.878124 81.666664Q60.1125 81.666664 59.659374 82.11979Q59.20625 82.572914 59.190624 83.385414L58.1125 83.27604Q58.221874 82.05729 58.940624 81.43229Q59.675 80.791664 60.909374 80.791664Q62.14375 80.791664 62.8625 81.479164Q63.58125 82.166664 63.58125 83.18229Q63.58125 83.697914 63.3625 84.197914Q63.159374 84.68229 62.659374 85.24479Q62.175 85.791664 61.05 86.74479Q60.096874 87.541664 59.815624 87.83854Q59.55 88.11979 59.378124 88.40104L63.596874 88.40104ZM65.05 87.166664L66.15938 87.072914Q66.28438 87.885414 66.72188 88.291664Q67.175 88.697914 67.81563 88.697914Q68.56563 88.697914 69.09688 88.11979Q69.62813 87.541664 69.62813 86.604164Q69.62813 85.697914 69.1125 85.18229Q68.6125 84.65104 67.78438 84.65104Q67.28438 84.65104 66.8625 84.885414Q66.45625 85.11979 66.22188 85.479164L65.2375 85.354164L66.06563 80.947914L70.34688 80.947914L70.34688 81.947914L66.90938 81.947914L66.45625 84.260414Q67.22188 83.71354 68.06563 83.71354Q69.19063 83.71354 69.95625 84.49479Q70.7375 85.27604 70.7375 86.510414Q70.7375 87.666664 70.06563 88.52604Q69.2375 89.55729 67.81563 89.55729Q66.64375 89.55729 65.89375 88.90104Q65.15938 88.24479 65.05 87.166664Z" fill-rule="nonzero"/><path fill="#314c59" d="M204.3341 346.6844L205.3966 346.59064Q205.47473 347.2469 205.75598 347.65314Q206.03723 348.0594 206.61536 348.325Q207.2091 348.575 207.94348 348.575Q208.5841 348.575 209.0841 348.3875Q209.5841 348.1844 209.81848 347.85626Q210.06848 347.5125 210.06848 347.1219Q210.06848 346.71564 209.8341 346.41876Q209.59973 346.10626 209.06848 345.90314Q208.7091 345.7625 207.5216 345.48126Q206.34973 345.2 205.88098 344.95Q205.25598 344.6219 204.9591 344.15314Q204.66223 343.66876 204.66223 343.075Q204.66223 342.4344 205.0216 341.8719Q205.3966 341.29376 206.09973 341.0125Q206.81848 340.71564 207.67786 340.71564Q208.63098 340.71564 209.36536 341.02814Q210.09973 341.325 210.49036 341.9344Q210.88098 342.52814 210.91223 343.27814L209.81848 343.35626Q209.72473 342.54376 209.2091 342.1375Q208.7091 341.71564 207.72473 341.71564Q206.69348 341.71564 206.22473 342.09064Q205.75598 342.46564 205.75598 342.9969Q205.75598 343.46564 206.0841 343.7625Q206.41223 344.0594 207.78723 344.3719Q209.17786 344.6844 209.69348 344.91876Q210.44348 345.27814 210.80286 345.8094Q211.16223 346.325 211.16223 347.02814Q211.16223 347.71564 210.7716 348.325Q210.38098 348.91876 209.6466 349.2625Q208.91223 349.59064 207.99036 349.59064Q206.81848 349.59064 206.0216 349.2625Q205.24036 348.91876 204.78723 348.23126Q204.34973 347.54376 204.3341 346.6844ZM212.7091 349.45L212.7091 340.85626L215.67786 340.85626Q216.67786 340.85626 217.2091 340.98126Q217.94348 341.15314 218.4591 341.59064Q219.1466 342.16876 219.47473 343.075Q219.81848 343.96564 219.81848 345.10626Q219.81848 346.09064 219.5841 346.84064Q219.36536 347.59064 219.00598 348.09064Q218.6466 348.59064 218.2091 348.8719Q217.78723 349.15314 217.19348 349.3094Q216.59973 349.45 215.81848 349.45L212.7091 349.45ZM213.84973 348.4344L215.67786 348.4344Q216.53723 348.4344 217.0216 348.27814Q217.50598 348.1219 217.78723 347.825Q218.19348 347.4344 218.41223 346.7469Q218.6466 346.0594 218.6466 345.09064Q218.6466 343.7469 218.19348 343.02814Q217.75598 342.29376 217.13098 342.04376Q216.66223 341.8719 215.66223 341.8719L213.84973 341.8719L213.84973 348.4344ZM228.25598 349.45L227.2091 349.45L227.2091 342.73126Q226.81848 343.09064 226.19348 343.46564Q225.5841 343.825 225.09973 343.9969L225.09973 342.98126Q225.97473 342.5594 226.63098 341.98126Q227.30286 341.3875 227.5841 340.825L228.25598 340.825L228.25598 349.45ZM231.88098 349.45L231.88098 348.2469L233.0841 348.2469L233.0841 349.45L231.88098 349.45ZM234.28723 347.2L235.3966 347.10626Q235.5216 347.91876 235.9591 348.325Q236.41223 348.73126 237.05286 348.73126Q237.80286 348.73126 238.3341 348.15314Q238.86536 347.575 238.86536 346.6375Q238.86536 345.73126 238.34973 345.21564Q237.84973 344.6844 237.0216 344.6844Q236.5216 344.6844 236.09973 344.91876Q235.69348 345.15314 235.4591 345.5125L234.47473 345.3875L235.30286 340.98126L239.5841 340.98126L239.5841 341.98126L236.1466 341.98126L235.69348 344.29376Q236.4591 343.7469 237.30286 343.7469Q238.42786 343.7469 239.19348 344.52814Q239.97473 345.3094 239.97473 346.54376Q239.97473 347.7 239.30286 348.5594Q238.47473 349.59064 237.05286 349.59064Q235.88098 349.59064 235.13098 348.9344Q234.3966 348.27814 234.28723 347.2Z" fill-rule="nonzero"/><path fill="#314c59" d="M420.25964 346.6844L421.32214 346.59064Q421.40027 347.2469 421.68152 347.65314Q421.96277 348.0594 422.5409 348.325Q423.13464 348.575 423.86902 348.575Q424.50964 348.575 425.00964 348.3875Q425.50964 348.1844 425.74402 347.85626Q425.99402 347.5125 425.99402 347.1219Q425.99402 346.71564 425.75964 346.41876Q425.52527 346.10626 424.99402 345.90314Q424.63464 345.7625 423.44714 345.48126Q422.27527 345.2 421.80652 344.95Q421.18152 344.6219 420.88464 344.15314Q420.58777 343.66876 420.58777 343.075Q420.58777 342.4344 420.94714 341.8719Q421.32214 341.29376 422.02527 341.0125Q422.74402 340.71564 423.6034 340.71564Q424.55652 340.71564 425.2909 341.02814Q426.02527 341.325 426.4159 341.9344Q426.80652 342.52814 426.83777 343.27814L425.74402 343.35626Q425.65027 342.54376 425.13464 342.1375Q424.63464 341.71564 423.65027 341.71564Q422.61902 341.71564 422.15027 342.09064Q421.68152 342.46564 421.68152 342.9969Q421.68152 343.46564 422.00964 343.7625Q422.33777 344.0594 423.71277 344.3719Q425.1034 344.6844 425.61902 344.91876Q426.36902 345.27814 426.7284 345.8094Q427.08777 346.325 427.08777 347.02814Q427.08777 347.71564 426.69714 348.325Q426.30652 348.91876 425.57214 349.2625Q424.83777 349.59064 423.9159 349.59064Q422.74402 349.59064 421.94714 349.2625Q421.1659 348.91876 420.71277 348.23126Q420.27527 347.54376 420.25964 346.6844ZM428.63464 349.45L428.63464 340.85626L431.6034 340.85626Q432.6034 340.85626 433.13464 340.98126Q433.86902 341.15314 434.38464 341.59064Q435.07214 342.16876 435.40027 343.075Q435.74402 343.96564 435.74402 345.10626Q435.74402 346.09064 435.50964 346.84064Q435.2909 347.59064 434.93152 348.09064Q434.57214 348.59064 434.13464 348.8719Q433.71277 349.15314 433.11902 349.3094Q432.52527 349.45 431.74402 349.45L428.63464 349.45ZM429.77527 348.4344L431.6034 348.4344Q432.46277 348.4344 432.94714 348.27814Q433.43152 348.1219 433.71277 347.825Q434.11902 347.4344 434.33777 346.7469Q434.57214 346.0594 434.57214 345.09064Q434.57214 343.7469 434.11902 343.02814Q433.68152 342.29376 433.05652 342.04376Q432.58777 341.8719 431.58777 341.8719L429.77527 341.8719L429.77527 348.4344ZM439.75964 349.45L443.08777 344.96564L440.1659 340.85626L441.50964 340.85626L443.07214 343.0594Q443.55652 343.7469 443.75964 344.1219Q444.05652 343.65314 444.44714 343.1375L446.1659 340.85626L447.40027 340.85626L444.38464 344.90314L447.63464 349.45L446.2284 349.45L444.07214 346.3875Q443.88464 346.1219 443.69714 345.8094Q443.4159 346.27814 443.2909 346.45L441.13464 349.45L439.75964 349.45ZM447.58777 349.45L447.58777 340.85626L448.7284 340.85626L448.7284 348.4344L452.96277 348.4344L452.96277 349.45L447.58777 349.45Z" fill-rule="nonzero"/><path fill="#adb7bd" d="M18.95625 60.20625L20.14375 60.034374Q20.190624 61.190624 20.565624 61.6125Q20.95625 62.034374 21.64375 62.034374Q22.14375 62.034374 22.503124 61.815624Q22.8625 61.58125 23.003124 61.190624Q23.14375 60.8 23.14375 59.925L23.14375 53.034374L24.45625 53.034374L24.45625 59.8625Q24.45625 61.1125 24.159374 61.815624Q23.8625 62.503124 23.190624 62.8625Q22.534374 63.221874 21.64375 63.221874Q20.33125 63.221874 19.628124 62.471874Q18.925 61.70625 18.95625 60.20625ZM30.440624 60.70625L31.721874 60.8625Q31.409374 61.9875 30.596874 62.6125Q29.784374 63.221874 28.51875 63.221874Q26.925 63.221874 25.9875 62.2375Q25.065624 61.253124 25.065624 59.4875Q25.065624 57.64375 26.003124 56.64375Q26.95625 55.628124 28.45625 55.628124Q29.909374 55.628124 30.83125 56.628124Q31.753124 57.6125 31.753124 59.409374Q31.753124 59.51875 31.753124 59.7375L26.33125 59.7375Q26.409374 60.925 27.003124 61.565624Q27.6125 62.20625 28.534374 62.20625Q29.20625 62.20625 29.675 61.846874Q30.159374 61.4875 30.440624 60.70625ZM26.409374 58.721874L30.45625 58.721874Q30.378124 57.8 29.9875 57.346874Q29.409374 56.64375 28.471874 56.64375Q27.6125 56.64375 27.034374 57.20625Q26.471874 57.76875 26.409374 58.721874ZM36.159374 61.95625L36.33125 63.034374Q35.815624 63.14375 35.409374 63.14375Q34.7375 63.14375 34.3625 62.940624Q34.003124 62.721874 33.846874 62.378124Q33.70625 62.034374 33.70625 60.925L33.70625 56.753124L32.8 56.753124L32.8 55.784374L33.70625 55.784374L33.70625 53.9875L34.925 53.253124L34.925 55.784374L36.159374 55.784374L36.159374 56.753124L34.925 56.753124L34.925 60.9875Q34.925 61.51875 34.9875 61.675Q35.05 61.815624 35.190624 61.909374Q35.346874 62.003124 35.6125 62.003124Q35.83125 62.003124 36.159374 61.95625ZM36.9875 60.878124L38.190624 60.690624Q38.3 61.425 38.76875 61.815624Q39.2375 62.20625 40.08125 62.20625Q40.925 62.20625 41.33125 61.8625Q41.753124 61.51875 41.753124 61.05Q41.753124 60.628124 41.378124 60.39375Q41.128124 60.221874 40.128124 59.971874Q38.76875 59.628124 38.2375 59.378124Q37.721874 59.128124 37.45625 58.690624Q37.190624 58.253124 37.190624 57.721874Q37.190624 57.2375 37.409374 56.83125Q37.628124 56.409374 38.01875 56.128124Q38.3 55.925 38.784374 55.784374Q39.284374 55.628124 39.8625 55.628124Q40.70625 55.628124 41.346874 55.878124Q42.003124 56.1125 42.315624 56.534374Q42.628124 56.95625 42.7375 57.659374L41.534374 57.83125Q41.45625 57.26875 41.05 56.95625Q40.659374 56.64375 39.940624 56.64375Q39.096874 56.64375 38.7375 56.925Q38.378124 57.190624 38.378124 57.58125Q38.378124 57.815624 38.51875 58.003124Q38.675 58.20625 39.003124 58.33125Q39.175 58.39375 40.08125 58.64375Q41.39375 59.003124 41.909374 59.221874Q42.425 59.440624 42.70625 59.8625Q43.003124 60.284374 43.003124 60.909374Q43.003124 61.534374 42.64375 62.08125Q42.3 62.6125 41.6125 62.925Q40.940624 63.221874 40.08125 63.221874Q38.675 63.221874 37.925 62.628124Q37.190624 62.034374 36.9875 60.878124ZM44.01875 59.425Q44.01875 57.409374 45.14375 56.425Q46.065624 55.628124 47.425 55.628124Q48.909374 55.628124 49.8625 56.6125Q50.815624 57.58125 50.815624 59.315624Q50.815624 60.721874 50.39375 61.534374Q49.971874 62.33125 49.159374 62.784374Q48.3625 63.221874 47.425 63.221874Q45.89375 63.221874 44.95625 62.2375Q44.01875 61.253124 44.01875 59.425ZM45.284374 59.425Q45.284374 60.815624 45.89375 61.51875Q46.503124 62.20625 47.425 62.20625Q48.33125 62.20625 48.940624 61.503124Q49.55 60.8 49.55 59.378124Q49.55 58.034374 48.940624 57.346874Q48.33125 56.64375 47.425 56.64375Q46.503124 56.64375 45.89375 57.33125Q45.284374 58.01875 45.284374 59.425ZM52.471874 63.05L52.471874 55.784374L53.58125 55.784374L53.58125 56.815624Q54.378124 55.628124 55.89375 55.628124Q56.55 55.628124 57.096874 55.8625Q57.64375 56.096874 57.909374 56.4875Q58.190624 56.8625 58.3 57.39375Q58.378124 57.7375 58.378124 58.58125L58.378124 63.05L57.14375 63.05L57.14375 58.628124Q57.14375 57.878124 57.003124 57.51875Q56.8625 57.14375 56.4875 56.925Q56.128124 56.690624 55.628124 56.690624Q54.846874 56.690624 54.26875 57.190624Q53.70625 57.690624 53.70625 59.08125L53.70625 63.05L52.471874 63.05ZM63.534374 63.05L67.37813 53.034374L68.8 53.034374L72.90938 63.05L71.39375 63.05L70.22188 60.01875L66.03438 60.01875L64.94063 63.05L63.534374 63.05ZM66.425 58.940624L69.81563 58.940624L68.76875 56.159374Q68.3 54.89375 68.06563 54.08125Q67.87813 55.05 67.51875 55.9875L66.425 58.940624ZM78.31563 59.1125L78.31563 57.940624L82.56563 57.940624L82.56563 61.659374Q81.58125 62.440624 80.53438 62.83125Q79.50313 63.221874 78.40938 63.221874Q76.94063 63.221874 75.72188 62.596874Q74.51875 61.95625 73.90938 60.76875Q73.3 59.565624 73.3 58.08125Q73.3 56.628124 73.90938 55.3625Q74.51875 54.08125 75.65938 53.471874Q76.81563 52.8625 78.31563 52.8625Q79.39375 52.8625 80.26875 53.221874Q81.15938 53.565624 81.65938 54.190624Q82.15938 54.815624 82.40938 55.83125L81.22188 56.159374Q80.9875 55.39375 80.64375 54.95625Q80.31563 54.51875 79.69063 54.253124Q79.08125 53.9875 78.31563 53.9875Q77.40938 53.9875 76.7375 54.26875Q76.08125 54.55 75.675 55.003124Q75.26875 55.440624 75.05 55.9875Q74.65938 56.925 74.65938 58.003124Q74.65938 59.346874 75.1125 60.253124Q75.58125 61.14375 76.45625 61.58125Q77.34688 62.01875 78.34688 62.01875Q79.20625 62.01875 80.01875 61.690624Q80.84688 61.3625 81.26875 60.9875L81.26875 59.1125L78.31563 59.1125ZM83.6125 63.05L87.4875 57.83125L84.06563 53.034374L85.64375 53.034374L87.47188 55.596874Q88.03438 56.39375 88.26875 56.83125Q88.6125 56.284374 89.06563 55.690624L91.08125 53.034374L92.51875 53.034374L89.00313 57.753124L92.8 63.05L91.15938 63.05L88.64375 59.471874Q88.425 59.159374 88.20625 58.8Q87.8625 59.346874 87.72188 59.55L85.20625 63.05L83.6125 63.05ZM96.22188 58.175Q96.22188 55.675 97.56563 54.26875Q98.90938 52.846874 101.01875 52.846874Q102.40938 52.846874 103.51875 53.51875Q104.64375 54.175 105.22188 55.3625Q105.81563 56.55 105.81563 58.05Q105.81563 59.58125 105.19063 60.784374Q104.58125 61.9875 103.45625 62.6125Q102.33125 63.221874 101.01875 63.221874Q99.59688 63.221874 98.4875 62.534374Q97.37813 61.846874 96.8 60.675Q96.22188 59.4875 96.22188 58.175ZM97.59688 58.190624Q97.59688 60.003124 98.56563 61.05Q99.55 62.08125 101.01875 62.08125Q102.50313 62.08125 103.47188 61.034374Q104.44063 59.9875 104.44063 58.05Q104.44063 56.815624 104.01875 55.909374Q103.6125 55.003124 102.81563 54.503124Q102.01875 53.9875 101.03438 53.9875Q99.62813 53.9875 98.6125 54.95625Q97.59688 55.925 97.59688 58.190624ZM107.45625 63.05L107.45625 55.784374L108.56563 55.784374L108.56563 56.89375Q108.9875 56.1125 109.34688 55.878124Q109.70625 55.628124 110.14375 55.628124Q110.76875 55.628124 111.40938 56.01875L110.9875 57.159374Q110.53438 56.89375 110.08125 56.89375Q109.675 56.89375 109.34688 57.14375Q109.03438 57.378124 108.89375 57.815624Q108.69063 58.471874 108.69063 59.253124L108.69063 63.05L107.45625 63.05ZM112.4875 54.440624L112.4875 53.034374L113.70625 53.034374L113.70625 54.440624L112.4875 54.440624ZM112.4875 63.05L112.4875 55.784374L113.70625 55.784374L113.70625 63.05L112.4875 63.05ZM115.47188 63.05L115.47188 55.784374L116.58125 55.784374L116.58125 56.815624Q117.37813 55.628124 118.89375 55.628124Q119.55 55.628124 120.09688 55.8625Q120.64375 56.096874 120.90938 56.4875Q121.19063 56.8625 121.3 57.39375Q121.37813 57.7375 121.37813 58.58125L121.37813 63.05L120.14375 63.05L120.14375 58.628124Q120.14375 57.878124 120.00313 57.51875Q119.8625 57.14375 119.4875 56.925Q119.12813 56.690624 118.62813 56.690624Q117.84688 56.690624 117.26875 57.190624Q116.70625 57.690624 116.70625 59.08125L116.70625 63.05L115.47188 63.05Z" fill-rule="nonzero"/><path fill="#909ea5" d="M19.45625 32.95625L21.2375 32.8Q21.3625 33.8625 21.815624 34.55Q22.284374 35.2375 23.253124 35.675Q24.2375 36.096874 25.471874 36.096874Q26.55 36.096874 27.378124 35.784374Q28.20625 35.45625 28.6125 34.89375Q29.01875 34.33125 29.01875 33.659374Q29.01875 32.9875 28.628124 32.4875Q28.2375 31.9875 27.346874 31.64375Q26.76875 31.409374 24.784374 30.940624Q22.815624 30.471874 22.034374 30.05Q21.003124 29.51875 20.503124 28.721874Q20.003124 27.925 20.003124 26.940624Q20.003124 25.846874 20.6125 24.909374Q21.221874 23.971874 22.409374 23.4875Q23.596874 22.9875 25.034374 22.9875Q26.628124 22.9875 27.846874 23.503124Q29.065624 24.01875 29.70625 25.01875Q30.3625 26.003124 30.409374 27.26875L28.596874 27.409374Q28.45625 26.05 27.6125 25.3625Q26.76875 24.659374 25.1125 24.659374Q23.39375 24.659374 22.596874 25.3Q21.815624 25.925 21.815624 26.8Q21.815624 27.58125 22.378124 28.08125Q22.925 28.58125 25.2375 29.096874Q27.55 29.6125 28.409374 30.003124Q29.659374 30.58125 30.253124 31.471874Q30.846874 32.346874 30.846874 33.503124Q30.846874 34.64375 30.190624 35.659374Q29.534374 36.675 28.3 37.2375Q27.08125 37.8 25.55 37.8Q23.6125 37.8 22.3 37.2375Q20.9875 36.659374 20.2375 35.51875Q19.4875 34.378124 19.45625 32.95625ZM36.70625 35.971874L36.95625 37.534374Q36.221874 37.690624 35.628124 37.690624Q34.675 37.690624 34.14375 37.39375Q33.628124 37.08125 33.409374 36.596874Q33.190624 36.096874 33.190624 34.51875L33.190624 28.55L31.909374 28.55L31.909374 27.175L33.190624 27.175L33.190624 24.6125L34.940624 23.55L34.940624 27.175L36.70625 27.175L36.70625 28.55L34.940624 28.55L34.940624 34.6125Q34.940624 35.3625 35.034374 35.58125Q35.128124 35.784374 35.33125 35.925Q35.55 36.05 35.940624 36.05Q36.221874 36.05 36.70625 35.971874ZM45.64375 36.26875Q44.659374 37.096874 43.753124 37.440624Q42.846874 37.784374 41.815624 37.784374Q40.1125 37.784374 39.190624 36.95625Q38.26875 36.1125 38.26875 34.815624Q38.26875 34.05 38.6125 33.425Q38.971874 32.8 39.534374 32.425Q40.096874 32.034374 40.8 31.83125Q41.315624 31.70625 42.3625 31.565624Q44.4875 31.315624 45.4875 30.971874Q45.503124 30.6125 45.503124 30.503124Q45.503124 29.440624 45.003124 28.9875Q44.33125 28.39375 43.003124 28.39375Q41.753124 28.39375 41.159374 28.83125Q40.58125 29.26875 40.3 30.378124L38.58125 30.14375Q38.815624 29.034374 39.346874 28.3625Q39.878124 27.675 40.89375 27.315624Q41.909374 26.940624 43.253124 26.940624Q44.58125 26.940624 45.409374 27.253124Q46.2375 27.565624 46.628124 28.05Q47.01875 28.51875 47.175 29.2375Q47.26875 29.690624 47.26875 30.8625L47.26875 33.20625Q47.26875 35.659374 47.378124 36.315624Q47.4875 36.95625 47.83125 37.55L45.9875 37.55Q45.721874 37.003124 45.64375 36.26875ZM45.4875 32.346874Q44.534374 32.7375 42.6125 33.003124Q41.534374 33.159374 41.08125 33.3625Q40.64375 33.55 40.39375 33.925Q40.14375 34.3 40.14375 34.76875Q40.14375 35.471874 40.675 35.940624Q41.20625 36.409374 42.2375 36.409374Q43.253124 36.409374 44.034374 35.971874Q44.83125 35.51875 45.20625 34.753124Q45.4875 34.14375 45.4875 32.9875L45.4875 32.346874ZM51.4875 37.55L49.8625 37.55L49.8625 23.2375L51.6125 23.2375L51.6125 28.346874Q52.7375 26.940624 54.45625 26.940624Q55.409374 26.940624 56.26875 27.33125Q57.128124 27.721874 57.675 28.425Q58.221874 29.1125 58.534374 30.096874Q58.846874 31.08125 58.846874 32.20625Q58.846874 34.878124 57.534374 36.33125Q56.221874 37.784374 54.378124 37.784374Q52.534374 37.784374 51.4875 36.253124L51.4875 37.55ZM51.471874 32.284374Q51.471874 34.14375 51.971874 34.9875Q52.815624 36.33125 54.221874 36.33125Q55.378124 36.33125 56.20625 35.33125Q57.05 34.33125 57.05 32.346874Q57.05 30.315624 56.2375 29.3625Q55.440624 28.39375 54.3 28.39375Q53.14375 28.39375 52.3 29.39375Q51.471874 30.39375 51.471874 32.284374ZM60.83125 37.55L60.83125 23.2375L62.58125 23.2375L62.58125 37.55L60.83125 37.55ZM71.97188 34.20625L73.78438 34.440624Q73.3625 36.01875 72.19063 36.909374Q71.03438 37.784374 69.22188 37.784374Q66.95625 37.784374 65.6125 36.39375Q64.28438 34.9875 64.28438 32.45625Q64.28438 29.83125 65.62813 28.39375Q66.97188 26.940624 69.12813 26.940624Q71.20625 26.940624 72.51875 28.3625Q73.84688 29.76875 73.84688 32.346874Q73.84688 32.503124 73.83125 32.815624L66.09688 32.815624Q66.19063 34.51875 67.06563 35.425Q67.94063 36.33125 69.2375 36.33125Q70.20625 36.33125 70.87813 35.83125Q71.56563 35.315624 71.97188 34.20625ZM66.19063 31.3625L71.9875 31.3625Q71.87813 30.065624 71.33125 29.409374Q70.4875 28.39375 69.14375 28.39375Q67.94063 28.39375 67.1125 29.20625Q66.28438 30.003124 66.19063 31.3625ZM82.09688 37.55L82.09688 23.2375L87.01875 23.2375Q88.69063 23.2375 89.58125 23.440624Q90.8 23.721874 91.675 24.45625Q92.8 25.425 93.3625 26.909374Q93.925 28.39375 93.925 30.315624Q93.925 31.940624 93.55 33.20625Q93.175 34.45625 92.56563 35.284374Q91.97188 36.1125 91.26875 36.596874Q90.56563 37.065624 89.56563 37.315624Q88.56563 37.55 87.25313 37.55L82.09688 37.55ZM83.9875 35.8625L87.05 35.8625Q88.45625 35.8625 89.25313 35.596874Q90.06563 35.33125 90.55 34.846874Q91.22188 34.175 91.59688 33.05Q91.97188 31.909374 91.97188 30.284374Q91.97188 28.034374 91.2375 26.83125Q90.50313 25.628124 89.44063 25.221874Q88.69063 24.925 87.00313 24.925L83.9875 24.925L83.9875 35.8625ZM95.87813 25.253124L95.87813 23.2375L97.64375 23.2375L97.64375 25.253124L95.87813 25.253124ZM95.87813 37.55L95.87813 27.175L97.64375 27.175L97.64375 37.55L95.87813 37.55ZM100.28438 37.55L100.28438 28.55L98.7375 28.55L98.7375 27.175L100.28438 27.175L100.28438 26.08125Q100.28438 25.034374 100.47188 24.51875Q100.72188 23.83125 101.3625 23.409374Q102.00313 22.9875 103.15938 22.9875Q103.90938 22.9875 104.8 23.159374L104.53438 24.690624Q103.9875 24.596874 103.50313 24.596874Q102.70625 24.596874 102.3625 24.940624Q102.03438 25.284374 102.03438 26.221874L102.03438 27.175L104.06563 27.175L104.06563 28.55L102.03438 28.55L102.03438 37.55L100.28438 37.55ZM106.28438 37.55L106.28438 28.55L104.7375 28.55L104.7375 27.175L106.28438 27.175L106.28438 26.08125Q106.28438 25.034374 106.47188 24.51875Q106.72188 23.83125 107.3625 23.409374Q108.00313 22.9875 109.15938 22.9875Q109.90938 22.9875 110.8 23.159374L110.53438 24.690624Q109.9875 24.596874 109.50313 24.596874Q108.70625 24.596874 108.3625 24.940624Q108.03438 25.284374 108.03438 26.221874L108.03438 27.175L110.06563 27.175L110.06563 28.55L108.03438 28.55L108.03438 37.55L106.28438 37.55ZM118.65938 37.55L118.65938 36.01875Q117.45625 37.784374 115.37813 37.784374Q114.45625 37.784374 113.65938 37.440624Q112.8625 37.08125 112.47188 36.55Q112.09688 36.01875 111.94063 35.2375Q111.83125 34.721874 111.83125 33.596874L111.83125 27.175L113.58125 27.175L113.58125 32.925Q113.58125 34.3 113.69063 34.784374Q113.8625 35.471874 114.39375 35.878124Q114.94063 36.26875 115.72188 36.26875Q116.51875 36.26875 117.20625 35.8625Q117.90938 35.45625 118.19063 34.76875Q118.4875 34.065624 118.4875 32.7375L118.4875 27.175L120.2375 27.175L120.2375 37.55L118.65938 37.55ZM121.15938 34.45625L122.90938 34.175Q123.05 35.221874 123.72188 35.784374Q124.39375 36.33125 125.59688 36.33125Q126.8 36.33125 127.37813 35.846874Q127.97188 35.346874 127.97188 34.690624Q127.97188 34.096874 127.45625 33.753124Q127.09688 33.51875 125.65938 33.159374Q123.72188 32.659374 122.97188 32.315624Q122.2375 31.95625 121.84688 31.33125Q121.45625 30.690624 121.45625 29.925Q121.45625 29.2375 121.76875 28.64375Q122.09688 28.05 122.64375 27.659374Q123.05 27.3625 123.75313 27.159374Q124.47188 26.940624 125.28438 26.940624Q126.50313 26.940624 127.425 27.3Q128.34688 27.64375 128.78438 28.253124Q129.22188 28.846874 129.39375 29.846874L127.675 30.08125Q127.55 29.284374 126.9875 28.846874Q126.425 28.39375 125.40938 28.39375Q124.19063 28.39375 123.675 28.8Q123.15938 29.190624 123.15938 29.721874Q123.15938 30.065624 123.37813 30.346874Q123.58125 30.628124 124.05 30.815624Q124.31563 30.909374 125.59688 31.253124Q127.47188 31.753124 128.20625 32.08125Q128.94063 32.39375 129.3625 33.003124Q129.78438 33.596874 129.78438 34.503124Q129.78438 35.378124 129.26875 36.159374Q128.75313 36.940624 127.78438 37.3625Q126.81563 37.784374 125.59688 37.784374Q123.58125 37.784374 122.51875 36.940624Q121.45625 36.096874 121.15938 34.45625ZM131.87813 25.253124L131.87813 23.2375L133.64375 23.2375L133.64375 25.253124L131.87813 25.253124ZM131.87813 37.55L131.87813 27.175L133.64375 27.175L133.64375 37.55L131.87813 37.55ZM135.22188 32.3625Q135.22188 29.4875 136.81563 28.096874Q138.15938 26.940624 140.08125 26.940624Q142.22188 26.940624 143.56563 28.346874Q144.925 29.753124 144.925 32.221874Q144.925 34.221874 144.33125 35.378124Q143.7375 36.51875 142.58125 37.159374Q141.44063 37.784374 140.08125 37.784374Q137.89375 37.784374 136.55 36.39375Q135.22188 34.9875 135.22188 32.3625ZM137.01875 32.3625Q137.01875 34.3625 137.87813 35.346874Q138.75313 36.33125 140.08125 36.33125Q141.39375 36.33125 142.25313 35.346874Q143.12813 34.346874 143.12813 32.3Q143.12813 30.378124 142.25313 29.39375Q141.37813 28.39375 140.08125 28.39375Q138.75313 28.39375 137.87813 29.39375Q137.01875 30.378124 137.01875 32.3625ZM146.8625 37.55L146.8625 27.175L148.45625 27.175L148.45625 28.659374Q149.59688 26.940624 151.75313 26.940624Q152.69063 26.940624 153.47188 27.284374Q154.26875 27.6125 154.65938 28.159374Q155.05 28.70625 155.20625 29.45625Q155.3 29.95625 155.3 31.175L155.3 37.55L153.53438 37.55L153.53438 31.2375Q153.53438 30.159374 153.33125 29.628124Q153.12813 29.096874 152.59688 28.784374Q152.08125 28.471874 151.37813 28.471874Q150.25313 28.471874 149.44063 29.190624Q148.62813 29.89375 148.62813 31.878124L148.62813 37.55L146.8625 37.55Z" fill-rule="nonzero"/></svg>